<svg width="42" height="42" viewBox="0 0 42 42" fill="none" xmlns="http://www.w3.org/2000/svg">
<path d="M14.3289 39.8556C10.4305 38.4762 7.05544 35.9224 4.66843 32.5456C2.28143 29.1689 0.999804 25.1352 1 21C1 18.3736 1.51732 15.7728 2.52241 13.3463C3.5275 10.9198 5.00069 8.71504 6.85786 6.85786C8.71504 5.00069 10.9198 3.5275 13.3463 2.52241C15.7728 1.51732 18.3736 1 21 1C23.6264 1 26.2272 1.51732 28.6537 2.52241C31.0802 3.5275 33.285 5.00069 35.1421 6.85786C36.9993 8.71504 38.4725 10.9198 39.4776 13.3463C40.4827 15.7728 41 18.3736 41 21" stroke="#214759" stroke-width="2" stroke-linecap="round" stroke-linejoin="round"/>
<path d="M21 9.88889V21" stroke="#214759" stroke-width="2" stroke-linecap="round" stroke-linejoin="round"/>
<path d="M21 27.6667H25.4444C26.0338 27.6667 26.599 27.9008 27.0158 28.3175C27.4325 28.7343 27.6667 29.2995 27.6667 29.8889V32.1111C27.6667 32.7005 27.4325 33.2657 27.0158 33.6825C26.599 34.0992 26.0338 34.3333 25.4444 34.3333H23.2222C22.6329 34.3333 22.0676 34.5675 21.6509 34.9842C21.2341 35.4009 21 35.9662 21 36.5556V38.7778C21 39.3671 21.2341 39.9324 21.6509 40.3491C22.0676 40.7659 22.6329 41 23.2222 41H27.6667" stroke="#214759" stroke-width="2" stroke-linecap="round" stroke-linejoin="round"/>
<path d="M34.3333 27.6667V32.1111C34.3333 32.7005 34.5675 33.2657 34.9842 33.6825C35.4009 34.0992 35.9662 34.3333 36.5556 34.3333L40.5 34.3333" stroke="#214759" stroke-width="2" stroke-linecap="round" stroke-linejoin="round"/>
<path d="M41 27.6667V41" stroke="#214759" stroke-width="2" stroke-linecap="round" stroke-linejoin="round"/>
</svg>
