<svg width="42" height="42" viewBox="0 0 42 42" fill="none" xmlns="http://www.w3.org/2000/svg">
<path d="M37.9231 1H4.07692C2.37758 1 1 2.08731 1 3.42857V15.5714C1 16.9127 2.37758 18 4.07692 18H21H37.9231C39.6225 18 41 16.9127 41 15.5714V3.42857C41 2.08731 39.6225 1 37.9231 1Z" stroke="#214759" stroke-width="2" stroke-linecap="round" stroke-linejoin="round"/>
<path d="M33 17V13C33 12.4696 32.6838 11.9609 32.1213 11.5858C31.5588 11.2107 30.7956 11 30 11H12C11.2043 11 10.4413 11.2107 9.87867 11.5858C9.31608 11.9609 9 12.4696 9 13V17" stroke="#214759" stroke-width="2" stroke-linecap="round" stroke-linejoin="round"/>
<path d="M7.15384 37.9231H7.46153C9.84061 37.9231 11.7692 35.9945 11.7692 33.6154V23" stroke="#214759" stroke-width="2" stroke-linecap="round" stroke-linejoin="round"/>
<path d="M34.8462 37.9231H34.5385C32.1594 37.9231 30.2308 35.9945 30.2308 33.6154V23" stroke="#214759" stroke-width="2" stroke-linecap="round" stroke-linejoin="round"/>
<path d="M21 41V23" stroke="#214759" stroke-width="2" stroke-linecap="round" stroke-linejoin="round"/>
<path d="M33 6H36.638" stroke="#214759" stroke-width="2" stroke-miterlimit="10" stroke-linecap="round"/>
</svg>
