<svg width="36" height="42" viewBox="0 0 36 42" fill="none" xmlns="http://www.w3.org/2000/svg">
<path d="M29.05 30.8755H6.94998V41H29.05V30.8755Z" stroke="#214759" stroke-width="2" stroke-miterlimit="10" stroke-linecap="round" stroke-linejoin="round"/>
<path d="M8.64999 1H27.35" stroke="#214759" stroke-width="2" stroke-miterlimit="10" stroke-linecap="round" stroke-linejoin="round"/>
<path d="M10.35 1.00003C12.3805 4.96476 11.5846 9.75322 8.37421 12.8876L8.37413 12.8877C3.9378 17.2189 4.21728 24.3207 8.98069 28.307L12.05 30.8755H23.95L27.0194 28.307C31.7828 24.3207 32.0622 17.2189 27.6259 12.8877L27.6259 12.8876C24.4155 9.75322 23.6196 4.96476 25.65 1.00003H10.35Z" stroke="#214759" stroke-width="2" stroke-miterlimit="10" stroke-linecap="round" stroke-linejoin="round"/>
<path d="M30.0962 16.6351L33.7552 13.0627C35.4149 11.4423 35.4149 8.81507 33.7552 7.19457C32.0955 5.57416 29.4045 5.57416 27.7448 7.19457L25.338 9.54437" stroke="#214759" stroke-width="2" stroke-miterlimit="10" stroke-linecap="round" stroke-linejoin="round"/>
<path d="M5.90378 16.6351L2.24478 13.0627C0.585072 11.4423 0.585072 8.81507 2.24478 7.19457C3.90449 5.57416 6.59551 5.57416 8.25522 7.19457L10.662 9.54437" stroke="#214759" stroke-width="2" stroke-miterlimit="10" stroke-linecap="round" stroke-linejoin="round"/>
<path d="M11.4495 5.97925H24.5506" stroke="#214759" stroke-width="2" stroke-miterlimit="10" stroke-linecap="round" stroke-linejoin="round"/>
<path d="M5.24493 20.0872L9.49442 21.7469L13.745 20.0872L17.9932 21.7469L22.2453 20.0872L26.5002 21.7469L30.7551 20.0872" stroke="#214759" stroke-width="2" stroke-miterlimit="10" stroke-linecap="round" stroke-linejoin="round"/>
<path d="M15.025 24.6515C15.025 25.339 14.4541 25.8963 13.75 25.8963C13.0459 25.8963 12.475 25.339 12.475 24.6515C12.475 23.964 13.0459 23.4067 13.75 23.4067C14.4541 23.4067 15.025 23.964 15.025 24.6515Z" fill="#214759"/>
<path d="M19.275 17.1826C19.275 17.87 18.7041 18.4274 18 18.4274C17.2959 18.4274 16.725 17.87 16.725 17.1826C16.725 16.4951 17.2959 15.9377 18 15.9377C18.7041 15.9377 19.275 16.4951 19.275 17.1826Z" fill="#214759"/>
<path d="M23.525 24.6515C23.525 25.339 22.9541 25.8963 22.25 25.8963C21.5459 25.8963 20.975 25.339 20.975 24.6515C20.975 23.964 21.5459 23.4067 22.25 23.4067C22.9541 23.4067 23.525 23.964 23.525 24.6515Z" fill="#214759"/>
<path d="M10.775 17.1826C10.775 17.87 10.2041 18.4274 9.49998 18.4274C8.79584 18.4274 8.22498 17.87 8.22498 17.1826C8.22498 16.4951 8.79584 15.9377 9.49998 15.9377C10.2041 15.9377 10.775 16.4951 10.775 17.1826Z" fill="#214759"/>
<path d="M25.225 17.1826C25.225 17.87 25.7959 18.4274 26.5 18.4274C27.2041 18.4274 27.775 17.87 27.775 17.1826C27.775 16.4951 27.2041 15.9377 26.5 15.9377C25.7959 15.9377 25.225 16.4951 25.225 17.1826Z" fill="#214759"/>
<path d="M4.39999 30.8755H31.6" stroke="#214759" stroke-width="2" stroke-miterlimit="10" stroke-linecap="round" stroke-linejoin="round"/>
<path d="M23.525 41V30.8755" stroke="#214759" stroke-width="2" stroke-miterlimit="10" stroke-linecap="round" stroke-linejoin="round"/>
<path d="M18 41V30.8755" stroke="#214759" stroke-width="2" stroke-miterlimit="10" stroke-linecap="round" stroke-linejoin="round"/>
<path d="M12.475 41V30.8755" stroke="#214759" stroke-width="2" stroke-miterlimit="10" stroke-linecap="round" stroke-linejoin="round"/>
</svg>
