<svg width="42" height="42" viewBox="0 0 42 42" fill="none" xmlns="http://www.w3.org/2000/svg">
<path d="M3 29V31C3 36.5228 7.47715 41 13 41H29C34.5228 41 39 36.5228 39 31V25" stroke="#214759" stroke-width="2" stroke-linecap="round" stroke-linejoin="round"/>
<path d="M28.1176 21.4706L27.6471 20.5882L28.1176 21.4706ZM22.3824 24.5294L22.8529 25.4118L22.3824 24.5294ZM39 25V24H30.5V25V26H39V25ZM28.6176 25.4706L28.1471 24.5882L22.4118 27.6471L22.8824 28.5294L23.3529 29.4118L29.0882 26.3529L28.6176 25.4706ZM21 29V28H3V29V30H21V29ZM3 25V26H20.5V25V24H3V25ZM22.3824 24.5294L22.8529 25.4118L28.5882 22.3529L28.1176 21.4706L27.6471 20.5882L21.9118 23.6471L22.3824 24.5294ZM30 21V22H39V21V20H30V21ZM39 21V22C39.5523 22 40 22.4477 40 23H41H42C42 21.3431 40.6569 20 39 20V21ZM28.1176 21.4706L28.5882 22.3529C29.0227 22.1212 29.5076 22 30 22V21V20C29.1793 20 28.3712 20.202 27.6471 20.5882L28.1176 21.4706ZM20.5 25V26C21.3207 26 22.1288 25.798 22.8529 25.4118L22.3824 24.5294L21.9118 23.6471C21.4773 23.8788 20.9924 24 20.5 24V25ZM1 27H2C2 26.4477 2.44772 26 3 26V25V24C1.34315 24 0 25.3431 0 27H1ZM3 29V28C2.44772 28 2 27.5523 2 27H1H0C0 28.6569 1.34315 30 3 30V29ZM22.8824 28.5294L22.4118 27.6471C21.9773 27.8788 21.4924 28 21 28V29V30C21.8207 30 22.6288 29.798 23.3529 29.4118L22.8824 28.5294ZM30.5 25V24C29.6793 24 28.8712 24.202 28.1471 24.5882L28.6176 25.4706L29.0882 26.3529C29.5227 26.1212 30.0076 26 30.5 26V25ZM39 25V26C40.6569 26 42 24.6569 42 23H41H40C40 23.5523 39.5523 24 39 24V25Z" fill="#214759"/>
<path d="M7.5 25C5.48968 25 5 23.5 5 22.5C5 20.567 6.62968 19 8.64 19C8.82393 19 9.00473 19.0128 9.18133 19.0381C9.42538 16.2167 11.8828 14 14.88 14C16.6896 14 18.3016 14.809 19.3498 16.0703C19.5857 16.0241 19.8299 16 20.08 16C21.0123 16 21.8623 16.3374 22.5063 16.8916C23.3548 15.7468 24.7466 15 26.32 15C28.9047 15 31 17.0147 31 19.5C31 20.1667 30.48 21 30.48 21.5" stroke="#214759" stroke-width="2" stroke-linecap="round" stroke-linejoin="round"/>
<circle cx="35.5" cy="5.5" r="4.5" stroke="#214759" stroke-width="2" stroke-linecap="round"/>
<circle cx="4.5" cy="10.5" r="3.5" stroke="#214759" stroke-width="2" stroke-linecap="round"/>
<circle cx="22" cy="10" r="2" stroke="#214759" stroke-width="2" stroke-linecap="round"/>
</svg>
