<svg width="42" height="42" viewBox="0 0 42 42" fill="none" xmlns="http://www.w3.org/2000/svg">
<path d="M4 16H38" stroke="#214759" stroke-width="2" stroke-linecap="round"/>
<path d="M7 21H35" stroke="#214759" stroke-width="2" stroke-linecap="round"/>
<path d="M7 26H35" stroke="#214759" stroke-width="2" stroke-linecap="round"/>
<path d="M7 31H35" stroke="#214759" stroke-width="2" stroke-linecap="round"/>
<path d="M7 36H35" stroke="#214759" stroke-width="2" stroke-linecap="round"/>
<path d="M1 19H4" stroke="#214759" stroke-width="2" stroke-linecap="round"/>
<path d="M1 38H4" stroke="#214759" stroke-width="2" stroke-linecap="round"/>
<path d="M38 38H41" stroke="#214759" stroke-width="2" stroke-linecap="round"/>
<path d="M38 19H41" stroke="#214759" stroke-width="2" stroke-linecap="round"/>
<path d="M4 16L4 41" stroke="#214759" stroke-width="2" stroke-linecap="round"/>
<path d="M7 16L7 41" stroke="#214759" stroke-width="2" stroke-linecap="round"/>
<path d="M35 16L35 41" stroke="#214759" stroke-width="2" stroke-linecap="round"/>
<path d="M38 16L38 41" stroke="#214759" stroke-width="2" stroke-linecap="round"/>
<path d="M4 41H38" stroke="#214759" stroke-width="2" stroke-linecap="round"/>
<path d="M18.8015 8.53632H18.8104" stroke="#214759" stroke-width="2" stroke-linecap="round" stroke-linejoin="round"/>
<path d="M23.8257 8.53632H23.8346" stroke="#214759" stroke-width="2" stroke-linecap="round" stroke-linejoin="round"/>
<path d="M19.6389 11.8858C20.0575 12.137 20.6437 12.3045 21.3136 12.3045C21.9835 12.3045 22.5697 12.137 22.9883 11.8858" stroke="#214759" stroke-width="2" stroke-linecap="round" stroke-linejoin="round"/>
<path d="M27.1752 3.76332C27.9338 4.7143 28.451 5.83479 28.6825 7.02907C28.9656 7.16621 29.2044 7.38033 29.3715 7.6469C29.5386 7.91348 29.6272 8.22173 29.6272 8.53634C29.6272 8.85095 29.5386 9.1592 29.3715 9.42578C29.2044 9.69235 28.9656 9.90647 28.6825 10.0436C28.321 11.7296 27.3922 13.2407 26.0512 14.3247C24.7102 15.4087 23.038 16 21.3136 16C19.5893 16 17.9171 15.4087 16.576 14.3247C15.235 13.2407 14.3062 11.7296 13.9447 10.0436C13.6616 9.90647 13.4228 9.69235 13.2557 9.42578C13.0886 9.1592 13 8.85095 13 8.53634C13 8.22173 13.0886 7.91348 13.2557 7.6469C13.4228 7.38033 13.6616 7.16621 13.9447 7.02907C14.2916 5.32963 15.2141 3.80186 16.5565 2.70352C17.8989 1.60518 19.5791 1.0035 21.3136 1C22.9883 1 24.2444 1.92111 24.2444 3.09343C24.2444 4.26575 23.4908 5.18686 22.5697 5.18686C21.8998 5.18686 21.3136 4.85191 21.3136 4.34948" stroke="#214759" stroke-width="2" stroke-linecap="round" stroke-linejoin="round"/>
</svg>
