<svg width="41" height="42" viewBox="0 0 41 42" fill="none" xmlns="http://www.w3.org/2000/svg">
<circle cx="15.5" cy="10.5" r="1.5" stroke="#214759" stroke-width="2" stroke-linecap="round"/>
<circle cx="21.5" cy="10.5" r="1.5" stroke="#214759" stroke-width="2" stroke-linecap="round"/>
<circle cx="27.5" cy="10.5" r="1.5" stroke="#214759" stroke-width="2" stroke-linecap="round"/>
<path d="M37 15.5C37 14.6716 37.6716 14 38.5 14V14C39.3284 14 40 14.6716 40 15.5V41H37V15.5Z" stroke="#214759" stroke-width="2" stroke-linecap="round" stroke-linejoin="round"/>
<rect x="36" y="35" width="3" height="32" transform="rotate(90 36 35)" stroke="#214759" stroke-width="2" stroke-linecap="round" stroke-linejoin="round"/>
<path d="M22 8.5C22 4.35786 25.3579 0.999999 29.5 1L31 1C34.866 1 38 4.13401 38 8L38 13.5" stroke="#214759" stroke-width="2" stroke-linecap="round" stroke-linejoin="round"/>
<rect x="22" y="35" width="3" height="18" transform="rotate(-180 22 35)" stroke="#214759" stroke-width="2" stroke-linecap="round" stroke-linejoin="round"/>
<rect x="31" y="35" width="3" height="18" transform="rotate(-180 31 35)" stroke="#214759" stroke-width="2" stroke-linecap="round" stroke-linejoin="round"/>
<rect x="13" y="35" width="3" height="18" transform="rotate(-180 13 35)" stroke="#214759" stroke-width="2" stroke-linecap="round" stroke-linejoin="round"/>
<path d="M1 15.5C1 14.6716 1.67157 14 2.5 14V14C3.32843 14 4 14.6716 4 15.5V41H1V15.5Z" stroke="#214759" stroke-width="2" stroke-linecap="round" stroke-linejoin="round"/>
<path d="M4 17H36" stroke="#214759" stroke-width="2" stroke-linecap="round" stroke-linejoin="round"/>
<path d="M16 6L28 6" stroke="#214759" stroke-width="2" stroke-linecap="round" stroke-linejoin="round"/>
<path d="M28 6V9M16 6V9" stroke="#214759" stroke-width="2" stroke-linecap="round" stroke-linejoin="round"/>
</svg>
