<svg width="42" height="42" viewBox="0 0 42 42" fill="none" xmlns="http://www.w3.org/2000/svg">
<path d="M30.988 8.00098C33.0018 9.3442 34.7241 11.0799 36.0518 13.1044C37.3796 15.1288 38.2854 17.4003 38.7152 19.783C39.4635 20.2671 40.0689 20.9424 40.4687 21.7391C40.8685 22.5358 41.0481 23.4249 40.989 24.3144C40.9298 25.2038 40.6341 26.0613 40.1323 26.798C39.6306 27.5348 38.9411 28.1239 38.1352 28.5046C36.9694 32.1337 34.6821 35.299 31.6027 37.5446C28.5233 39.7902 24.8108 41.0001 21 41.0001C17.1892 41.0001 13.4767 39.7902 10.3973 37.5446C7.31794 35.299 5.0306 32.1337 3.86477 28.5046C3.05892 28.1239 2.36942 27.5348 1.86767 26.798C1.36593 26.0613 1.07017 25.2038 1.01102 24.3144C0.951879 23.4249 1.1315 22.5358 1.53128 21.7391C1.93106 20.9424 2.53647 20.2671 3.28483 19.783C3.70607 17.4476 4.58478 15.2184 5.87041 13.2239C7.15604 11.2293 8.82322 9.50871 10.7761 8.161" stroke="#214759" stroke-width="2" stroke-linecap="round" stroke-linejoin="round"/>
<path d="M15.9895 31.005C16.6412 31.6701 17.4191 32.1985 18.2775 32.5592C19.136 32.92 20.0578 33.1058 20.989 33.1058C21.9202 33.1058 22.842 32.92 23.7005 32.5592C24.5589 32.1985 25.3368 31.6701 25.9885 31.005" stroke="#214759" stroke-width="2" stroke-linecap="round" stroke-linejoin="round"/>
<path d="M13.9897 1.00009C16.9894 3.00044 18.9892 8.00132 18.9892 11.0018" stroke="#214759" stroke-width="2" stroke-linecap="round" stroke-linejoin="round"/>
<path d="M21.9889 1.00009C24.9886 5.00079 25.9885 8.00132 25.9885 11.0018" stroke="#214759" stroke-width="2" stroke-linecap="round" stroke-linejoin="round"/>
<path d="M14.9896 23.0036H15.0096" stroke="#214759" stroke-width="2" stroke-linecap="round" stroke-linejoin="round"/>
<path d="M26.9884 23.0036H27.0084" stroke="#214759" stroke-width="2" stroke-linecap="round" stroke-linejoin="round"/>
</svg>
