<svg width="42" height="42" viewBox="0 0 42 42" fill="none" xmlns="http://www.w3.org/2000/svg">
<path d="M19.0134 26.8388L5.63918 40.2039C5.38691 40.4563 5.08737 40.6564 4.75766 40.793C4.42797 40.9296 4.07459 41 3.71772 41C3.36083 41 3.00745 40.9296 2.67776 40.793C2.34807 40.6564 2.04853 40.4563 1.79626 40.2039C1.54383 39.9517 1.34357 39.6523 1.20695 39.3226C1.07032 38.993 1 38.6396 1 38.283C1 37.9261 1.07032 37.5729 1.20695 37.2432C1.34357 36.9137 1.54383 36.6142 1.79626 36.362L15.165 22.9915" stroke="#214759" stroke-width="2" stroke-linecap="round" stroke-linejoin="round"/>
<path d="M40.2146 13.3181L34.452 7.55705L28.6894 1.79604C28.4372 1.54368 28.1376 1.34347 27.808 1.20689C27.4783 1.0703 27.1249 1 26.768 1C26.4112 1 26.0577 1.0703 25.7281 1.20689C25.3983 1.34347 25.0988 1.54368 24.8465 1.79604L18.9717 7.66931C17.0591 9.6579 15.6958 12.1089 15.0152 14.7824C14.3346 17.4559 14.36 20.2602 15.089 22.9209L17.081 24.9124L19.0731 26.904C21.7345 27.6329 24.5398 27.6582 27.2139 26.9778C29.8881 26.2975 32.3399 24.9345 34.3289 23.0223L40.2037 17.1491C40.7117 16.6416 40.998 15.9537 41 15.2358C41.002 14.5179 40.7197 13.8284 40.2146 13.3181Z" stroke="#214759" stroke-width="2" stroke-linecap="round" stroke-linejoin="round"/>
<path d="M7.55884 30.601L11.4018 34.4429" stroke="#214759" stroke-width="2" stroke-linecap="round" stroke-linejoin="round"/>
<path d="M26.768 7.55688L20.0457 14.2793" stroke="#214759" stroke-width="2" stroke-linecap="round" stroke-linejoin="round"/>
<path d="M30.6091 11.3989L23.8867 18.1194" stroke="#214759" stroke-width="2" stroke-linecap="round" stroke-linejoin="round"/>
<path d="M34.452 15.2389L27.7278 21.9595" stroke="#214759" stroke-width="2" stroke-linecap="round" stroke-linejoin="round"/>
</svg>
