<svg width="35" height="42" viewBox="0 0 35 42" fill="none" xmlns="http://www.w3.org/2000/svg">
<path d="M1.58429 21H33.5843" stroke="#214759" stroke-width="2" stroke-miterlimit="10" stroke-linecap="round" stroke-linejoin="round"/>
<path d="M17.5 25.2253C15.1375 25.2253 13.2222 23.3336 13.2222 21C13.2222 18.6664 15.1375 16.7746 17.5 16.7746C19.8626 16.7746 21.7778 18.6664 21.7778 21C21.7778 23.3336 19.8626 25.2253 17.5 25.2253Z" stroke="#214759" stroke-width="2" stroke-miterlimit="10" stroke-linecap="round" stroke-linejoin="round"/>
<path d="M21.7778 1.00004V8.9276C21.7778 11.2612 19.8626 13.153 17.5 13.153C15.1375 13.153 13.2222 11.2612 13.2222 8.9276V1.00004" stroke="#214759" stroke-width="2" stroke-miterlimit="10" stroke-linecap="round" stroke-linejoin="round"/>
<path d="M13.2222 8.92755H21.7778" stroke="#214759" stroke-width="2" stroke-miterlimit="10" stroke-linecap="round" stroke-linejoin="round"/>
<path d="M5.88898 1.00004V1.68414C5.88898 8.01823 11.0875 13.153 17.5001 13.153C23.9127 13.153 29.1112 8.01823 29.1112 1.68414V1.00004" stroke="#214759" stroke-width="2" stroke-miterlimit="10" stroke-linecap="round" stroke-linejoin="round"/>
<path d="M21.7778 41V33.0724C21.7778 30.7388 19.8626 28.8471 17.5 28.8471C15.1375 28.8471 13.2222 30.7388 13.2222 33.0724V41" stroke="#214759" stroke-width="2" stroke-miterlimit="10" stroke-linecap="round" stroke-linejoin="round"/>
<path d="M13.2222 33.0724H21.7778" stroke="#214759" stroke-width="2" stroke-miterlimit="10" stroke-linecap="round" stroke-linejoin="round"/>
<path d="M5.88898 41V40.3159C5.88898 33.9818 11.0875 28.8471 17.5001 28.8471C23.9127 28.8471 29.1112 33.9818 29.1112 40.3159V41" stroke="#214759" stroke-width="2" stroke-miterlimit="10" stroke-linecap="round" stroke-linejoin="round"/>
<path d="M1 0.999999H34V41H1V0.999999Z" stroke="#214759" stroke-width="2" stroke-miterlimit="10" stroke-linecap="round" stroke-linejoin="round"/>
</svg>
