<svg width="42" height="42" viewBox="0 0 42 42" fill="none" xmlns="http://www.w3.org/2000/svg">
<path d="M1 41.0001H41" stroke="#214759" stroke-width="2" stroke-linecap="round" stroke-linejoin="round"/>
<rect x="4" y="1.00012" width="34" height="40" stroke="#214759" stroke-width="2" stroke-linecap="round" stroke-linejoin="round"/>
<path d="M13.5265 1.00012C14.6457 7.88107 14.4495 22.0188 5.3006 25.8126C4.86941 25.9914 4.81197 26.6709 5.1985 26.9326C9.77048 30.0281 10.6726 37.4326 10.5181 41.0001" stroke="#214759" stroke-width="2" stroke-linecap="round"/>
<path d="M28.4735 1.00012C27.3543 7.88107 27.5505 22.0188 36.6994 25.8126C37.1306 25.9914 37.188 26.6709 36.8015 26.9326C32.2295 30.0281 31.3274 37.4326 31.4819 41.0001" stroke="#214759" stroke-width="2" stroke-linecap="round"/>
<path d="M26.1707 20.1883C23.3562 18.5633 19.4583 18.8146 17.8333 21.6291L21.586 23.7958M26.1707 20.1883C28.9852 21.8133 30.7163 25.3146 29.0913 28.1291L23.4623 24.8791M26.1707 20.1883L26.7123 19.2501M26.1707 20.1883C24.1979 20.7169 22.9402 21.4504 21.586 23.7958M26.1707 20.1883C26.6993 22.161 26.6928 23.617 25.3387 25.9624M21.586 23.7958L23.4623 24.8791M23.4623 24.8791L20.2123 30.5081M11.3333 38.7501L12.2867 37.6061C12.4961 37.3546 12.7597 37.1537 13.0578 37.0186C13.3559 36.8834 13.6808 36.8176 14.008 36.8259C14.3351 36.8343 14.6562 36.9166 14.947 37.0667C15.2379 37.2168 15.4909 37.4309 15.6873 37.6928C15.8808 37.9511 16.1296 38.1629 16.4155 38.3128C16.7014 38.4627 17.0172 38.5468 17.3397 38.559C17.6623 38.5713 17.9835 38.5114 18.28 38.3836C18.5764 38.2558 18.8406 38.0635 19.0532 37.8206L19.259 37.5844C19.4864 37.3243 19.7667 37.1159 20.0813 36.973C20.3959 36.8302 20.7373 36.7563 21.0828 36.7563C21.4283 36.7563 21.7697 36.8302 22.0843 36.973C22.3989 37.1159 22.6792 37.3243 22.9066 37.5844L23.1135 37.8206C24.0213 38.8574 25.6528 38.7956 26.4794 37.6939C26.6757 37.4318 26.9288 37.2176 27.2198 37.0673C27.5107 36.9171 27.8319 36.8347 28.1593 36.8263C28.4866 36.818 28.8116 36.8839 29.1098 37.0192C29.408 37.1544 29.6717 37.3554 29.8811 37.6072L30.8333 38.7501M14.267 33.3334C15.8488 31.9345 17.8884 31.1636 20 31.1668C22.1117 31.1636 24.1513 31.9345 25.733 33.3334" stroke="#214759" stroke-width="2" stroke-linecap="round" stroke-linejoin="round"/>
</svg>
