<svg width="42" height="42" viewBox="0 0 42 42" fill="none" xmlns="http://www.w3.org/2000/svg">
<path d="M4.80954 34.3889C6.1124 29.029 12.8648 24.9442 21 24.9442C29.1353 24.9442 35.8876 29.029 37.1905 34.3889" stroke="#214759" stroke-width="2" stroke-linecap="round" stroke-linejoin="round"/>
<path d="M31.4762 8.88837C36.02 8.88837 40.0476 12.5784 40.0476 17.3886" stroke="#214759" stroke-width="2" stroke-linecap="round" stroke-linejoin="round"/>
<path d="M31.6095 18.333C34.0591 15.714 33.9248 11.5074 31.4762 8.88837" stroke="#214759" stroke-width="2" stroke-linecap="round" stroke-linejoin="round"/>
<path d="M29.9428 1.00018C32.6457 2.54722 33.0362 6.20796 31.4762 8.88835" stroke="#214759" stroke-width="2" stroke-linecap="round" stroke-linejoin="round"/>
<path d="M31.4762 8.88833C28.6143 4.61935 23.5181 3.792 20.0476 7.31202" stroke="#214759" stroke-width="2" stroke-linecap="round" stroke-linejoin="round"/>
<path d="M16.2381 24.9443C16.2381 16.0767 23.4866 8.88837 32.4285 8.88837C27.66 8.88837 23.7933 16.0767 23.7933 24.9443" stroke="#214759" stroke-width="2" stroke-linecap="round" stroke-linejoin="round"/>
<path d="M1 41.0002C2.8 41.0002 4.6 40.4751 6.1619 39.423C6.60796 39.1295 7.13137 38.973 7.66667 38.973C8.20196 38.973 8.72537 39.1295 9.17143 39.423C10.6937 40.4499 12.4922 40.9995 14.3333 41.0002C16.1333 41.0002 17.9333 40.4751 19.4952 39.423C19.9413 39.1295 20.4647 38.973 21 38.973C21.5353 38.973 22.0587 39.1295 22.5048 39.423C24.0271 40.4499 25.8255 40.9995 27.6667 41.0002C29.4667 41.0002 31.2667 40.4751 32.8286 39.423C33.2746 39.1295 33.798 38.973 34.3333 38.973C34.8686 38.973 35.392 39.1295 35.8381 39.423C37.3604 40.4499 39.1588 40.9995 41 41.0002" stroke="#214759" stroke-width="2" stroke-linecap="round" stroke-linejoin="round"/>
</svg>
