<svg width="42" height="42" viewBox="0 0 42 42" fill="none" xmlns="http://www.w3.org/2000/svg">
<path d="M9.70711 36.7071L2.70711 29.7071C2.07714 29.0771 2.52331 28 3.41421 28H5.58579C5.851 28 6.10536 28.1054 6.29289 28.2929L11.7071 33.7071C11.8946 33.8946 12.149 34 12.4142 34H38.4648C38.7992 34 39.1114 34.1671 39.2969 34.4453L39.9635 35.4453C40.4066 36.1099 39.9302 37 39.1315 37H10.4142C10.149 37 9.89464 36.8946 9.70711 36.7071Z" stroke="#214759" stroke-width="2" stroke-linecap="round" stroke-linejoin="round"/>
<path d="M11 37V41" stroke="#214759" stroke-width="2" stroke-linecap="round"/>
<path d="M34 37V41" stroke="#214759" stroke-width="2" stroke-linecap="round"/>
<path d="M21 11L21 34" stroke="#214759" stroke-width="2" stroke-linecap="round"/>
<path d="M21 37L21 41" stroke="#214759" stroke-width="2" stroke-linecap="round"/>
<path d="M21 1C9.9543 1 1 5.02944 1 10H41C41 5.02944 32.0457 1 21 1Z" stroke="#214759" stroke-width="2" stroke-linecap="round"/>
</svg>
