<svg width="42" height="42" viewBox="0 0 42 42" fill="none" xmlns="http://www.w3.org/2000/svg">
<path d="M26.366 36.0207H38.4566C39.8143 36.0207 40.9641 37.0861 40.9992 38.4446C41.0353 39.8496 39.9082 41 38.5126 41H25.4212C24.3865 41 23.3731 40.7058 22.499 40.1517L10.8416 32.7614C10.195 32.3515 9.44547 32.1339 8.68008 32.1339H1V21" stroke="#214759" stroke-width="2" stroke-miterlimit="10" stroke-linecap="round" stroke-linejoin="round"/>
<path d="M16.8911 27.53L24.6486 35.2915C25.62 36.2638 27.1949 36.2638 28.1663 35.2915C29.1377 34.3192 29.1377 32.7429 28.1663 31.7707L18.8591 22.455C17.9588 21.5542 16.7123 21 15.09 21H1" stroke="#214759" stroke-width="2" stroke-miterlimit="10" stroke-linecap="round" stroke-linejoin="round"/>
<path d="M32.332 9.51385C32.332 4.12498 28.5782 1 28.5782 1C28.5782 1 24.8245 4.34514 24.8245 9.51385" stroke="#214759" stroke-width="2" stroke-miterlimit="10" stroke-linecap="round" stroke-linejoin="round"/>
<path d="M28.5782 19.0442C21.7379 19.0442 16.1929 13.4991 16.1929 6.65889V6.37781H16.8183C23.3131 6.37781 28.5782 11.6429 28.5782 18.1377V19.0442Z" stroke="#214759" stroke-width="2" stroke-miterlimit="10" stroke-linecap="round" stroke-linejoin="round"/>
<path d="M28.5781 19.0441V18.1377C28.5781 11.6429 33.8433 6.37781 40.338 6.37781H40.9634V6.65889C40.9634 13.499 35.4184 19.0441 28.5781 19.0441Z" stroke="#214759" stroke-width="2" stroke-miterlimit="10" stroke-linecap="round" stroke-linejoin="round"/>
<path d="M36.1569 7.13613C35.9536 4.36186 34.8548 2.57166 34.8548 2.57166C34.8548 2.57166 33.1302 3.29016 31.3845 4.96908" stroke="#214759" stroke-width="2" stroke-miterlimit="10" stroke-linecap="round" stroke-linejoin="round"/>
<path d="M21.155 7.19182C21.3591 4.4197 22.4613 2.57166 22.4613 2.57166C22.4613 2.57166 24.131 3.27074 25.8491 4.89472" stroke="#214759" stroke-width="2" stroke-miterlimit="10" stroke-linecap="round" stroke-linejoin="round"/>
</svg>
