<svg width="42" height="40" viewBox="0 0 42 40" fill="none" xmlns="http://www.w3.org/2000/svg">
<path d="M1 25.3518C1 26.2905 1.1882 27.22 1.55387 28.0873C1.91953 28.9545 2.45549 29.7425 3.13115 30.4063C3.8068 31.0701 4.60893 31.5966 5.49172 31.9559C6.3745 32.3151 7.32067 32.5 8.27619 32.5C9.23172 32.5 10.1779 32.3151 11.0607 31.9559C11.9435 31.5966 12.7456 31.0701 13.4212 30.4063C14.0969 29.7425 14.6329 28.9545 14.9985 28.0873C15.3642 27.22 15.5524 26.2905 15.5524 25.3518C15.5524 24.4131 15.3642 23.4835 14.9985 22.6163C14.6329 21.749 14.0969 20.961 13.4212 20.2972C12.7456 19.6334 11.9435 19.1069 11.0607 18.7477C10.1779 18.3884 9.23172 18.2036 8.27619 18.2036C7.32067 18.2036 6.3745 18.3884 5.49172 18.7477C4.60893 19.1069 3.8068 19.6334 3.13115 20.2972C2.45549 20.961 1.91953 21.749 1.55387 22.6163C1.1882 23.4835 1 24.4131 1 25.3518Z" stroke="#214759" stroke-width="2" stroke-miterlimit="10" stroke-linecap="round" stroke-linejoin="round"/>
<path d="M26.4476 25.3518C26.4476 26.2905 26.6358 27.22 27.0015 28.0873C27.3672 28.9545 27.9031 29.7425 28.5788 30.4063C29.2544 31.0701 30.0566 31.5966 30.9393 31.9559C31.8221 32.3151 32.7683 32.5 33.7238 32.5C34.6793 32.5 35.6255 32.3151 36.5083 31.9559C37.3911 31.5966 38.1932 31.0701 38.8689 30.4063C39.5445 29.7425 40.0805 28.9545 40.4461 28.0873C40.8118 27.22 41 26.2905 41 25.3518C41 24.4131 40.8118 23.4835 40.4461 22.6163C40.0805 21.749 39.5445 20.961 38.8689 20.2972C38.1932 19.6334 37.3911 19.1069 36.5083 18.7477C35.6255 18.3884 34.6793 18.2036 33.7238 18.2036C32.7683 18.2036 31.8221 18.3884 30.9393 18.7477C30.0566 19.1069 29.2544 19.6334 28.5788 20.2972C27.9031 20.961 27.3672 21.749 27.0015 22.6163C26.6358 23.4835 26.4476 24.4131 26.4476 25.3518Z" stroke="#214759" stroke-width="2" stroke-miterlimit="10" stroke-linecap="round" stroke-linejoin="round"/>
<path d="M21.0001 25.3518H8.27625L13.7239 12.8518H28.2763L21.0001 25.3518Z" stroke="#214759" stroke-width="2" stroke-linecap="round" stroke-linejoin="round"/>
<path d="M33.7239 25.3518L28.2762 12.8518V7.5H31.9143C32.8792 7.5 33.8046 7.87656 34.4869 8.54683C35.1691 9.21711 35.5524 10.1262 35.5524 11.0741" stroke="#214759" stroke-width="2" stroke-miterlimit="10" stroke-linecap="round" stroke-linejoin="round"/>
<path d="M13.7238 7.5V12.8518" stroke="#214759" stroke-width="2" stroke-miterlimit="10" stroke-linecap="round" stroke-linejoin="round"/>
<path d="M10.0857 7.5H17.3619" stroke="#214759" stroke-width="2" stroke-miterlimit="10" stroke-linecap="round" stroke-linejoin="round"/>
</svg>
