<svg width="42" height="36" viewBox="0 0 42 36" fill="none" xmlns="http://www.w3.org/2000/svg">
<path d="M4.33333 12.3333C3.44929 12.3333 2.60142 12.6047 1.97631 13.0878C1.3512 13.5709 1 14.226 1 14.9091C1 15.5921 1.3512 16.2474 1.97631 16.7305C2.60142 17.2135 3.44929 17.4848 4.33333 17.4848H41V12.3333L4.33333 12.3333Z" stroke="#214759" stroke-width="2" stroke-linecap="round" stroke-linejoin="round"/>
<path d="M36.4185 22.2324C37.7533 21.899 38.9136 21.2612 39.7359 20.4093C40.5579 19.5574 41.0002 18.5343 41 17.4848H4.0769C4.07628 20.0228 5.0166 22.5114 6.794 24.676C8.5714 26.8405 11.1167 28.5965 14.1487 29.7501L12.47 35H34.2922V24.6204C34.2727 24.1074 34.4668 23.6025 34.8475 23.1749C35.228 22.7474 35.7768 22.4181 36.4185 22.2324Z" stroke="#214759" stroke-width="2" stroke-linecap="round" stroke-linejoin="round"/>
<path d="M38.9491 12.333V13.333C39.5014 13.333 39.9491 12.8853 39.9491 12.333H38.9491ZM34.8466 12.333H33.8466C33.8466 12.8853 34.2943 13.333 34.8466 13.333V12.333ZM34.8466 7.18164H35.8466C35.8466 6.62936 35.3988 6.18164 34.8466 6.18164V7.18164ZM24.5897 7.18164H23.5897C23.5897 7.73393 24.0374 8.18164 24.5897 8.18164V7.18164ZM24.5897 3.06055V2.06055C24.0374 2.06055 23.5897 2.50826 23.5897 3.06055H24.5897ZM34.8466 3.06055V4.06055C35.3988 4.06055 35.8466 3.61283 35.8466 3.06055H34.8466ZM34.8466 1V0C34.2943 0 33.8466 0.447715 33.8466 1L34.8466 1ZM38.9491 1H39.9491C39.9491 0.447715 39.5014 0 38.9491 0V1ZM38.9491 12.333V11.333H34.8466V12.333V13.333H38.9491V12.333ZM34.8466 12.333H35.8466V7.18164H34.8466H33.8466V12.333H34.8466ZM34.8466 7.18164V6.18164H24.5897V7.18164V8.18164H34.8466V7.18164ZM24.5897 7.18164H25.5897V3.06055H24.5897H23.5897V7.18164H24.5897ZM24.5897 3.06055V4.06055H34.8466V3.06055V2.06055H24.5897V3.06055ZM34.8466 3.06055H35.8466V1H34.8466H33.8466V3.06055H34.8466ZM34.8466 1V2H38.9491V1V0H34.8466V1ZM38.9491 1H37.9491V12.333H38.9491H39.9491V1H38.9491Z" fill="#214759"/>
</svg>
