<svg width="41" height="42" viewBox="0 0 41 42" fill="none" xmlns="http://www.w3.org/2000/svg">
<path d="M20.0628 26.2763V23.6153" stroke="#214759" stroke-width="2" stroke-miterlimit="10" stroke-linecap="round" stroke-linejoin="round"/>
<path d="M20.0628 31.7228V34.3031" stroke="#214759" stroke-width="2" stroke-miterlimit="10" stroke-linecap="round" stroke-linejoin="round"/>
<path d="M20.0628 31.7228C21.5668 31.7228 22.7861 30.5036 22.7861 28.9996C22.7861 27.4956 21.5668 26.2763 20.0628 26.2763C18.5588 26.2763 17.3396 27.4956 17.3396 28.9996C17.3396 30.5036 18.5588 31.7228 20.0628 31.7228Z" stroke="#214759" stroke-width="2" stroke-miterlimit="10" stroke-linecap="round" stroke-linejoin="round"/>
<path d="M9.34001 40.0628C13.9461 40.0628 17.68 36.3288 17.68 31.7228C17.68 27.1167 13.9461 23.3828 9.34001 23.3828C4.73395 23.3828 1 27.1167 1 31.7228C1 36.3288 4.73395 40.0628 9.34001 40.0628Z" stroke="#214759" stroke-width="2" stroke-miterlimit="10" stroke-linecap="round" stroke-linejoin="round"/>
<path d="M18.4927 6.9806L20.3386 5.13819C20.7694 4.70818 21.0649 4.16467 21.2076 3.57339C21.4035 2.76158 21.8944 2.06415 22.5616 1.60111C23.0946 1.23025 23.7407 1.00972 24.438 1.0003C26.3173 0.974955 27.8552 2.55958 27.8552 4.43545V9.28767C27.8552 13.9824 24.0062 17.8898 19.303 17.8211C18.019 17.8024 16.8044 17.4969 15.7205 16.966C15.5795 16.897 15.4146 16.8959 15.2702 16.9576L11.0077 18.7806C9.9858 19.2176 8.80023 18.9897 8.01412 18.205C7.80218 17.9934 7.80218 17.6506 8.01412 17.4391L15.8103 9.65766" stroke="#214759" stroke-width="2" stroke-miterlimit="10" stroke-linecap="round" stroke-linejoin="round"/>
<path d="M18.8552 18L20.8552 21" stroke="#214759" stroke-width="2" stroke-miterlimit="10" stroke-linecap="round" stroke-linejoin="round"/>
<path d="M24.8573 9C24.8573 13.5853 20.4173 16.6759 16.8573 14.017" stroke="#214759" stroke-width="2" stroke-miterlimit="10" stroke-linecap="round" stroke-linejoin="round"/>
<path d="M27.8552 4H28.8552" stroke="#214759" stroke-width="2" stroke-miterlimit="10" stroke-linecap="round" stroke-linejoin="round"/>
<path d="M26.6156 24.5001C28.464 23.4329 30.7196 23.0708 32.9442 23.6669C37.3933 24.859 40.0336 29.4322 38.8414 33.8813C37.6493 38.3304 33.0762 40.9707 28.6271 39.7785C24.1779 38.5864 21.5376 34.0133 22.7298 29.5642C23.0753 28.2745 23.705 27.1369 24.5334 26.2004" stroke="#214759" stroke-width="2" stroke-miterlimit="10" stroke-linecap="round" stroke-linejoin="round"/>
<path d="M22.4456 31.7228C22.4456 28.7373 24.0144 26.1182 26.3725 24.6448L22.3646 23.8432C20.8451 23.5393 19.2804 23.5393 17.7609 23.8432L13.753 24.6448C16.1111 26.1182 17.6799 28.7373 17.6799 31.7228C17.6799 32.7683 17.4875 33.7688 17.1362 34.691L18.1069 34.4968C19.398 34.2386 20.7274 34.2386 22.0184 34.4968L22.9891 34.691C22.638 33.7688 22.4456 32.7683 22.4456 31.7228Z" stroke="#214759" stroke-width="2" stroke-miterlimit="10" stroke-linecap="round" stroke-linejoin="round"/>
<path d="M23.0414 23.9785C23.0414 22.3335 21.7078 20.9999 20.0628 20.9999C18.4178 20.9999 17.0843 22.3335 17.0843 23.9785" stroke="#214759" stroke-width="2" stroke-miterlimit="10" stroke-linecap="round" stroke-linejoin="round"/>
</svg>
