<svg width="31" height="42" viewBox="0 0 31 42" fill="none" xmlns="http://www.w3.org/2000/svg">
<path d="M9.92309 16.5555H3.23077C2.63914 16.5555 2.07173 16.3214 1.65338 15.9047C1.23503 15.4879 1 14.9227 1 14.3333V5.44442C1 4.85505 1.23503 4.28982 1.65338 3.87307C2.07173 3.45632 2.63914 3.2222 3.23077 3.2222H27.3276C27.6544 3.22215 27.9772 3.29363 28.2732 3.43158C28.5692 3.56952 28.8312 3.77057 29.0406 4.02051C29.25 4.27044 29.4017 4.56315 29.485 4.87794C29.5683 5.19273 29.5812 5.52191 29.5227 5.8422L25.5385 27.6666" stroke="#214759" stroke-width="2" stroke-linecap="round" stroke-linejoin="round"/>
<path d="M7.69238 3.2222L12.1539 27.6666" stroke="#214759" stroke-width="2" stroke-linecap="round" stroke-linejoin="round"/>
<path d="M14.3847 27.6667H23.3078C25.0827 27.6667 26.7849 28.369 28.04 29.6193C29.295 30.8695 30.0001 32.5652 30.0001 34.3333V38.7778C30.0001 39.3671 29.7651 39.9324 29.3467 40.3491C28.9284 40.7659 28.361 41 27.7693 41H9.92316C9.33152 41 8.76411 40.7659 8.34576 40.3491C7.92741 39.9324 7.69238 39.3671 7.69238 38.7778V34.3333C7.69238 32.5652 8.39746 30.8695 9.65252 29.6193C10.9076 28.369 12.6098 27.6667 14.3847 27.6667Z" stroke="#214759" stroke-width="2" stroke-linecap="round" stroke-linejoin="round"/>
<path d="M16.6154 3.22222V1H21.0769V3.22222" stroke="#214759" stroke-width="2" stroke-linecap="round" stroke-linejoin="round"/>
<path d="M18.8462 34.3333V34.3556" stroke="#214759" stroke-width="2" stroke-linecap="round" stroke-linejoin="round"/>
</svg>
