<svg width="35" height="42" viewBox="0 0 35 42" fill="none" xmlns="http://www.w3.org/2000/svg">
<path d="M17.5 18.953C16.4874 14.407 11.421 14.8348 11.421 19.64C11.421 24.0974 17.5 28.4783 17.5 28.4783C17.5 28.4783 23.5789 24.0939 23.5789 19.6365C23.5789 14.8348 18.5125 14.407 17.5 18.953Z" stroke="#214759" stroke-width="2" stroke-linecap="round" stroke-linejoin="round"/>
<path d="M4.47368 1H30.5263C30.5263 1 34 1 34 4.47826V37.5217C34 37.5217 34 41 30.5263 41H4.47368C4.47368 41 1 41 1 37.5217V4.47826C1 4.47826 1 1 4.47368 1Z" stroke="#214759" stroke-width="2" stroke-linecap="round" stroke-linejoin="round"/>
<path d="M5.34216 6.18262C5.34216 4.74088 6.50932 4.47827 7.94743 4.47827C9.38553 4.47827 10.5527 4.74088 10.5527 6.18262C10.5527 7.62436 7.94743 9.69566 7.94743 9.69566C7.94743 9.69566 5.34216 7.62262 5.34216 6.18262Z" stroke="#214759" stroke-width="2" stroke-linecap="round" stroke-linejoin="round"/>
<path d="M24.4474 34.0087C24.4474 32.567 25.6145 32.3044 27.0527 32.3044C28.4908 32.3044 29.6579 32.567 29.6579 34.0087C29.6579 35.4504 27.0527 37.5217 27.0527 37.5217C27.0527 37.5217 24.4474 35.4487 24.4474 34.0087Z" stroke="#214759" stroke-width="2" stroke-linecap="round" stroke-linejoin="round"/>
</svg>
