<svg width="42" height="41" viewBox="0 0 42 41" fill="none" xmlns="http://www.w3.org/2000/svg">
<path d="M1.8864 39.6018L1.00006 35.6434L2.07372 31.5145H17.7886L27.124 28.9368H41L36.0617 38.2086" stroke="#214759" stroke-width="2" stroke-miterlimit="22.926" stroke-linecap="round" stroke-linejoin="round"/>
<path d="M1 40C3.41609 40 3.58398 38.3244 5.99999 38.3244C8.41608 38.3244 8.58397 40 11.0001 40C13.4161 40 13.584 38.3244 16 38.3244C18.4161 38.3244 18.5839 40 21 40C23.4161 40 23.5839 38.3244 26 38.3244C28.416 38.3244 28.5839 40 30.9999 40C33.416 40 33.5839 38.3244 35.9999 38.3244C38.416 38.3244 38.5839 40 41 40" stroke="#214759" stroke-width="2" stroke-miterlimit="22.926" stroke-linecap="round" stroke-linejoin="round"/>
<path d="M1.44415 35.6434H36.9838" stroke="#214759" stroke-width="2" stroke-miterlimit="22.926" stroke-linecap="round" stroke-linejoin="round"/>
<path d="M31.992 28.8554L27.1078 23L13.7431 31.4783" stroke="#214759" stroke-width="2" stroke-miterlimit="22.926" stroke-linecap="round" stroke-linejoin="round"/>
<path d="M3.7774 31.3574L2.0639 24.7677" stroke="#214759" stroke-width="2" stroke-miterlimit="22.926" stroke-linecap="round" stroke-linejoin="round"/>
</svg>
