<svg width="42" height="42" viewBox="0 0 42 42" fill="none" xmlns="http://www.w3.org/2000/svg">
<path d="M3.37117 34.3124C2.07593 34.2743 1.05403 33.4428 1.01117 32.1486C0.996277 31.7004 0.996277 31.2519 1.01117 30.8038C1.05403 29.5086 2.07593 28.6781 3.37117 28.64C4.33033 28.612 5.2901 28.612 6.24926 28.64C7.5445 28.6781 8.56641 29.5095 8.60926 30.8038C8.62423 31.2519 8.62423 31.7004 8.60926 32.1486C8.56641 33.4438 7.5445 34.2743 6.24926 34.3124C5.2901 34.3404 4.33033 34.3404 3.37117 34.3124Z" stroke="#214759" stroke-width="2" stroke-linecap="round" stroke-linejoin="round"/>
<path d="M3.37117 23.8362C2.07593 23.7981 1.05403 22.9667 1.01117 21.6724C0.996277 21.2243 0.996277 20.7758 1.01117 20.3276C1.05403 19.0324 2.07593 18.2019 3.37117 18.1638C4.33033 18.1358 5.2901 18.1358 6.24926 18.1638C7.5445 18.2019 8.56641 19.0334 8.60926 20.3276C8.62423 20.7758 8.62423 21.2243 8.60926 21.6724C8.56641 22.9676 7.5445 23.7981 6.24926 23.8362C5.2901 23.8642 4.33033 23.8642 3.37117 23.8362Z" stroke="#214759" stroke-width="2" stroke-linecap="round" stroke-linejoin="round"/>
<path d="M3.37117 13.36C2.07593 13.3219 1.05403 12.4905 1.01117 11.1962C0.996277 10.7481 0.996277 10.2996 1.01117 9.85144C1.05403 8.5562 2.07593 7.72573 3.37117 7.68763C4.33033 7.65962 5.2901 7.65962 6.24926 7.68763C7.5445 7.72573 8.56641 8.55715 8.60926 9.85144C8.62423 10.2996 8.62423 10.7481 8.60926 11.1962C8.56641 12.4914 7.5445 13.3219 6.24926 13.36C5.2901 13.388 4.33033 13.388 3.37117 13.36Z" stroke="#214759" stroke-width="2" stroke-linecap="round" stroke-linejoin="round"/>
<path d="M5.16356 34.3324C5.2007 34.9362 5.23784 35.4905 5.27499 35.9952C5.45404 38.4267 7.28737 40.3124 9.71689 40.519C12.5169 40.759 16.8397 41 22.9055 41C28.9721 41 33.295 40.759 36.094 40.52C38.5236 40.3124 40.3578 38.4267 40.5359 35.9962C40.7626 32.92 41.0007 28.0143 41.0007 21C41.0007 13.9857 40.7626 9.07905 40.5359 6.00476C40.3569 3.57238 38.5236 1.68857 36.094 1.48095C33.294 1.24 28.9721 1 22.9055 1C16.8388 1 12.5159 1.24095 9.71689 1.48C7.28832 1.68857 5.45404 3.57238 5.27499 6.00381C5.23689 6.50857 5.2007 7.06286 5.16356 7.66762" stroke="#214759" stroke-width="2" stroke-linecap="round" stroke-linejoin="round"/>
<path d="M4.91402 28.6191C4.86866 27.0321 4.8385 25.4447 4.82355 23.8571" stroke="#214759" stroke-width="2" stroke-linecap="round" stroke-linejoin="round"/>
<path d="M4.82355 18.1429C4.83974 16.4057 4.87117 14.821 4.91402 13.381" stroke="#214759" stroke-width="2" stroke-linecap="round" stroke-linejoin="round"/>
<path d="M26.914 22.02C27.9594 21.3586 28.7619 20.3758 29.201 19.2193C29.6401 18.0628 29.692 16.7951 29.349 15.6066C29.006 14.418 28.2866 13.3729 27.2988 12.6282C26.311 11.8835 25.1083 11.4795 23.8712 11.4768C22.6342 11.4741 21.4297 11.8729 20.4387 12.6133C19.4477 13.3537 18.7237 14.3957 18.3755 15.5827C18.0273 16.7697 18.0738 18.0377 18.5078 19.1961C18.9419 20.3545 19.7401 21.3407 20.7826 22.0067C18.0569 22.9914 15.9693 25.26 15.2883 28.06C14.9912 29.279 15.7054 30.439 16.9197 30.759C18.2769 31.1171 20.474 31.4762 23.8293 31.4762C27.1854 31.4762 29.3816 31.1171 30.7388 30.759C31.9531 30.439 32.6674 29.28 32.3702 28.06C31.6921 25.2724 29.6216 23.0124 26.914 22.02Z" stroke="#214759" stroke-width="2" stroke-linecap="round" stroke-linejoin="round"/>
</svg>
