<svg width="42" height="42" viewBox="0 0 42 42" fill="none" xmlns="http://www.w3.org/2000/svg">
<path d="M1 3.50075C1 2.83775 1.26342 2.20191 1.73232 1.7331C2.20121 1.26429 2.83717 1.00092 3.50029 1.00092H8.50086C9.16398 1.00092 9.79994 1.26429 10.2688 1.7331C10.7377 2.20191 11.0012 2.83775 11.0012 3.50075V38.4984C11.0012 39.1614 10.7377 39.7973 10.2688 40.2661C9.79994 40.7349 9.16398 40.9983 8.50086 40.9983H3.50029C2.83717 40.9983 2.20121 40.7349 1.73232 40.2661C1.26342 39.7973 1 39.1614 1 38.4984V3.50075Z" stroke="#214759" stroke-width="2" stroke-linecap="round" stroke-linejoin="round"/>
<path d="M11.0012 3.50075C11.0012 2.83775 11.2646 2.20191 11.7335 1.7331C12.2024 1.26429 12.8384 1.00092 13.5015 1.00092H18.5021C19.1652 1.00092 19.8012 1.26429 20.2701 1.7331C20.7389 2.20191 21.0024 2.83775 21.0024 3.50075V38.4984C21.0024 39.1614 20.7389 39.7973 20.2701 40.2661C19.8012 40.7349 19.1652 40.9983 18.5021 40.9983H13.5015C12.8384 40.9983 12.2024 40.7349 11.7335 40.2661C11.2646 39.7973 11.0012 39.1614 11.0012 38.4984V3.50075Z" stroke="#214759" stroke-width="2" stroke-linecap="round" stroke-linejoin="round"/>
<path d="M1 11.0003H11.0012" stroke="#214759" stroke-width="2" stroke-linecap="round" stroke-linejoin="round"/>
<path d="M11.0012 30.9989H21.0024" stroke="#214759" stroke-width="2" stroke-linecap="round" stroke-linejoin="round"/>
<path d="M23.0101 2.40084L28.4707 1.07593C29.8759 0.738448 31.3036 1.55089 31.6761 2.9058L40.9147 36.4486C41.0777 37.0627 41.0055 37.7155 40.7123 38.2791C40.4191 38.8428 39.9259 39.2767 39.3295 39.4959L38.997 39.5984L33.5363 40.9233C32.1312 41.2608 30.7035 40.4483 30.331 39.0934L21.0924 5.55063C20.9294 4.93654 21.0016 4.28374 21.2948 3.72008C21.588 3.15642 22.0811 2.72251 22.6776 2.50333L23.0101 2.40084Z" stroke="#214759" stroke-width="2" stroke-linecap="round" stroke-linejoin="round"/>
<path d="M23.5026 13.5001L33.5038 11.0003" stroke="#214759" stroke-width="2" stroke-linecap="round" stroke-linejoin="round"/>
<path d="M28.5032 30.9989L38.3119 28.5491" stroke="#214759" stroke-width="2" stroke-linecap="round" stroke-linejoin="round"/>
</svg>
