<svg width="42" height="42" viewBox="0 0 42 42" fill="none" xmlns="http://www.w3.org/2000/svg">
<path d="M30.5238 19.0952C30.5238 24.355 26.2598 28.619 21 28.619C15.7402 28.619 11.4762 24.355 11.4762 19.0952C11.4762 13.8354 15.7402 9.57143 21 9.57143C26.2598 9.57143 30.5238 13.8354 30.5238 19.0952Z" stroke="#214759" stroke-width="2" stroke-linecap="round" stroke-linejoin="round"/>
<path d="M24.8095 19.0952C24.8095 16.9913 23.1039 15.2857 21 15.2857" stroke="#214759" stroke-width="2" stroke-linecap="round" stroke-linejoin="round"/>
<path d="M21 1C9.57143 1 1 11.2946 1 23.8571C1 33.2127 7.06279 41 14.5416 41C17.2934 41 19.8535 39.9732 21.9904 38.2092C24.4122 36.2101 27.5838 35.3183 30.4854 35.3183C36.2925 35.3183 41 29.4294 41 22.1652C41 11.4762 33.8571 1 21 1Z" stroke="#214759" stroke-width="2" stroke-linecap="round" stroke-linejoin="round"/>
</svg>
