<svg width="42" height="42" viewBox="0 0 42 42" fill="none" xmlns="http://www.w3.org/2000/svg">
<path d="M22.0905 41.0018H3.14958C3.14958 41.0018 1 41.0018 1 38.335V3.66679C1 3.66679 1 1 3.14958 1H31.0927C31.0927 1 33.2422 1 33.2422 3.66679V19.5" stroke="#214759" stroke-width="2" stroke-linecap="round" stroke-linejoin="round"/>
<path d="M1 14.3339H33.2408" stroke="#214759" stroke-width="2" stroke-linecap="round" stroke-linejoin="round"/>
<path d="M1.24146 28H23.545" stroke="#214759" stroke-width="2" stroke-linecap="round" stroke-linejoin="round"/>
<path d="M21.4196 33.0014C21.4196 33.355 21.3064 33.6942 21.1048 33.9442C20.9033 34.1943 20.6298 34.3348 20.3448 34.3348H13.8961C13.611 34.3348 13.3376 34.1943 13.1361 33.9442C12.9345 33.6942 12.8213 33.355 12.8213 33.0014" stroke="#214759" stroke-width="2" stroke-linecap="round" stroke-linejoin="round"/>
<path d="M21.4196 19.6675C21.4196 20.0211 21.3064 20.3603 21.1048 20.6103C20.9033 20.8604 20.6298 21.0009 20.3448 21.0009H13.8961C13.611 21.0009 13.3376 20.8604 13.1361 20.6103C12.9345 20.3603 12.8213 20.0211 12.8213 19.6675" stroke="#214759" stroke-width="2" stroke-linecap="round" stroke-linejoin="round"/>
<path d="M21.4196 6.33356C21.4196 6.68719 21.3064 7.02635 21.1048 7.27641C20.9033 7.52646 20.6298 7.66695 20.3448 7.66695H13.8961C13.611 7.66695 13.3376 7.52646 13.1361 7.27641C12.9345 7.02635 12.8213 6.68719 12.8213 6.33356" stroke="#214759" stroke-width="2" stroke-linecap="round" stroke-linejoin="round"/>
<path d="M26.7775 30H39.7071C40.4828 30 41 30.55 41 31.375V39.625C41 40.45 40.4828 41 39.7071 41H26.7775C26.0017 41 25.4845 40.45 25.4845 39.625V31.375C25.4845 30.55 26.0017 30 26.7775 30Z" stroke="#214759" stroke-width="2" stroke-linecap="round" stroke-linejoin="round"/>
<path d="M28.3936 30V27.6667C28.3936 25.1 30.5755 23 33.2422 23C35.9089 23 38.0908 25.1 38.0908 27.6667V30" stroke="#214759" stroke-width="2" stroke-linecap="round" stroke-linejoin="round"/>
</svg>
