<svg width="42" height="42" viewBox="0 0 42 42" fill="none" xmlns="http://www.w3.org/2000/svg">
<path d="M35 37H39C40.2 37 41 36.2 41 35V29C41 27.2 39.6 25.6 38 25.2C34.4 24.2 29 23 29 23C29 23 26.4 20.2 24.6 18.4C23.6 17.6 22.4 17 21 17H7C5.8 17 4.8 17.8 4.2 18.8L1.4 24.6C1.13516 25.3725 1 26.1834 1 27V35C1 36.2 1.8 37 3 37H7" stroke="#214759" stroke-width="2" stroke-linecap="round" stroke-linejoin="round"/>
<path d="M7 37C7 38.0609 7.42143 39.0783 8.17157 39.8284C8.92172 40.5786 9.93913 41 11 41C12.0609 41 13.0783 40.5786 13.8284 39.8284C14.5786 39.0783 15 38.0609 15 37C15 35.9391 14.5786 34.9217 13.8284 34.1716C13.0783 33.4214 12.0609 33 11 33C9.93913 33 8.92172 33.4214 8.17157 34.1716C7.42143 34.9217 7 35.9391 7 37Z" stroke="#214759" stroke-width="2" stroke-linecap="round" stroke-linejoin="round"/>
<path d="M15 37H27" stroke="#214759" stroke-width="2" stroke-linecap="round" stroke-linejoin="round"/>
<path d="M27 37C27 38.0609 27.4214 39.0783 28.1716 39.8284C28.9217 40.5786 29.9391 41 31 41C32.0609 41 33.0783 40.5786 33.8284 39.8284C34.5786 39.0783 35 38.0609 35 37C35 35.9391 34.5786 34.9217 33.8284 34.1716C33.0783 33.4214 32.0609 33 31 33C29.9391 33 28.9217 33.4214 28.1716 34.1716C27.4214 34.9217 27 35.9391 27 37Z" stroke="#214759" stroke-width="2" stroke-linecap="round" stroke-linejoin="round"/>
<path d="M24 9.5C24 11.7543 24.8955 13.9163 26.4896 15.5104C28.0837 17.1045 30.2457 18 32.5 18C34.7543 18 36.9163 17.1045 38.5104 15.5104C40.1045 13.9163 41 11.7543 41 9.5C41 7.24566 40.1045 5.08365 38.5104 3.48959C36.9163 1.89553 34.7543 1 32.5 1C30.2457 1 28.0837 1.89553 26.4896 3.48959C24.8955 5.08365 24 7.24566 24 9.5Z" stroke="#214759" stroke-width="2" stroke-linecap="round" stroke-linejoin="round"/>
<path d="M28 8.66667L30.6667 12L37 7" stroke="#214759" stroke-width="2" stroke-linecap="round" stroke-linejoin="round"/>
</svg>
