<svg width="43" height="42" viewBox="0 0 43 42" fill="none" xmlns="http://www.w3.org/2000/svg">
<path d="M35 37H39C40.2 37 41 36.2 41 35V29C41 27.2 39.6 25.6 38 25.2C34.4 24.2 29 23 29 23C29 23 26.4 20.2 24.6 18.4C23.6 17.6 22.4 17 21 17H7C5.8 17 4.8 17.8 4.2 18.8L1.4 24.6C1.13516 25.3725 1 26.1834 1 27V35C1 36.2 1.8 37 3 37H7" stroke="#214759" stroke-width="2" stroke-linecap="round" stroke-linejoin="round"/>
<path d="M7 37C7 38.0609 7.42143 39.0783 8.17157 39.8284C8.92172 40.5786 9.93913 41 11 41C12.0609 41 13.0783 40.5786 13.8284 39.8284C14.5786 39.0783 15 38.0609 15 37C15 35.9391 14.5786 34.9217 13.8284 34.1716C13.0783 33.4214 12.0609 33 11 33C9.93913 33 8.92172 33.4214 8.17157 34.1716C7.42143 34.9217 7 35.9391 7 37Z" stroke="#214759" stroke-width="2" stroke-linecap="round" stroke-linejoin="round"/>
<path d="M15 37H27" stroke="#214759" stroke-width="2" stroke-linecap="round" stroke-linejoin="round"/>
<path d="M27 37C27 38.0609 27.4214 39.0783 28.1716 39.8284C28.9217 40.5786 29.9391 41 31 41C32.0609 41 33.0783 40.5786 33.8284 39.8284C34.5786 39.0783 35 38.0609 35 37C35 35.9391 34.5786 34.9217 33.8284 34.1716C33.0783 33.4214 32.0609 33 31 33C29.9391 33 28.9217 33.4214 28.1716 34.1716C27.4214 34.9217 27 35.9391 27 37Z" stroke="#214759" stroke-width="2" stroke-linecap="round" stroke-linejoin="round"/>
<path d="M41.1021 15V3.50281" stroke="#214759" stroke-width="2" stroke-miterlimit="10" stroke-linecap="round"/>
<path d="M40.7012 12.4437H39.7344L36.9257 13.7821H30.4555C29.8974 13.7822 29.3553 13.6121 28.9156 13.2993C28.4758 12.9864 28.1638 12.5485 28.0292 12.0555L27.1763 8.93689C27.1221 8.75829 27.0974 8.57342 27.1028 8.38816C27.1028 7.78475 27.3662 7.206 27.835 6.77928C28.3039 6.35256 28.9397 6.11288 29.6027 6.11288H32.6172L31.6319 4.31934C31.3529 3.82198 31.2068 3.27168 31.2055 2.71321C31.2035 2.48885 31.2504 2.26638 31.3435 2.05861C31.4364 1.85082 31.5737 1.66185 31.7473 1.5026C31.9209 1.34333 32.1274 1.21692 32.355 1.13066C32.5825 1.0444 32.8266 1 33.0731 1C33.359 1.00461 33.6401 1.06848 33.8949 1.18676C34.1497 1.30504 34.3714 1.47462 34.5435 1.68261L38.2933 6.0593H41.1019" stroke="#214759" stroke-width="2" stroke-miterlimit="10" stroke-linecap="round"/>
</svg>
