<svg width="42" height="42" viewBox="0 0 42 42" fill="none" xmlns="http://www.w3.org/2000/svg">
<path d="M35 7L33.4 11.5C33.2865 11.9173 32.9871 12.2932 32.5509 12.5658C32.1147 12.8384 31.5677 12.9916 31 13H11C10.4323 12.9916 9.88534 12.8384 9.44913 12.5658C9.01292 12.2932 8.71345 11.9173 8.6 11.5L7 7" stroke="#214759" stroke-width="2" stroke-linecap="round" stroke-linejoin="round"/>
<rect x="1" y="1" width="40" height="5" rx="2.5" stroke="#214759" stroke-width="2" stroke-linecap="round" stroke-linejoin="round"/>
<path d="M9 29C15.9474 33.7958 6.05264 36.2042 13 41" stroke="#214759" stroke-width="2" stroke-miterlimit="10" stroke-linecap="round" stroke-linejoin="round"/>
<path d="M19 24C25.9474 28.7958 16.0526 31.2042 23 36" stroke="#214759" stroke-width="2" stroke-miterlimit="10" stroke-linecap="round" stroke-linejoin="round"/>
<path d="M30 29C35.2105 33.7958 27.7895 36.2042 33 41" stroke="#214759" stroke-width="2" stroke-miterlimit="10" stroke-linecap="round" stroke-linejoin="round"/>
</svg>
