<svg width="45" height="42" viewBox="0 0 45 42" fill="none" xmlns="http://www.w3.org/2000/svg">
<path d="M15.514 23.4156C15.514 25.199 16.2225 26.9095 17.4836 28.1706C18.7447 29.4317 20.4552 30.1402 22.2386 30.1402C24.0221 30.1402 25.7326 29.4317 26.9937 28.1706C28.2548 26.9095 28.9633 25.199 28.9633 23.4156C28.9633 21.6321 28.2548 19.9216 26.9937 18.6605C25.7326 17.3994 24.0221 16.6909 22.2386 16.6909C20.4552 16.6909 18.7447 17.3994 17.4836 18.6605C16.2225 19.9216 15.514 21.6321 15.514 23.4156Z" stroke="#214759" stroke-width="2" stroke-linecap="round" stroke-linejoin="round"/>
<path d="M27.0961 17.8117C28.7145 14.3642 29.6873 10.9906 30.0168 7.69328C30.51 4.03955 28.3088 1 22.2386 1C16.1685 1 13.9673 4.04179 14.4604 7.69328C14.7899 10.9906 15.7628 14.3642 17.3812 17.8117" stroke="#214759" stroke-width="2" stroke-linecap="round" stroke-linejoin="round"/>
<path d="M24.2633 30.5C26.4376 33.627 29.47 37.4791 32.1598 39.4135C35.0738 41.6551 38.8105 41.2807 41.8456 36.0243C44.8806 30.7678 43.3474 27.3405 39.9403 25.9418C36.9186 24.5789 33.5115 23.7338 29.7143 23.4133" stroke="#214759" stroke-width="2" stroke-linecap="round" stroke-linejoin="round"/>
<path d="M14.7607 23.4156C10.9658 23.7361 7.55863 24.5812 4.53926 25.944C1.12761 27.3405 -0.405614 30.7701 2.62945 36.0265C5.66452 41.283 9.39895 41.6685 12.3152 39.4158C15.0051 37.4813 18.0868 33.127 20.2633 30" stroke="#214759" stroke-width="2" stroke-linecap="round" stroke-linejoin="round"/>
</svg>
