<svg width="42" height="40" viewBox="0 0 42 40" fill="none" xmlns="http://www.w3.org/2000/svg">
<path d="M41 2.46154V15.6154C41 28.5354 32.0041 39 21 39C10.0188 39 1 28.5616 1 15.6154V2.46154C1 2.46154 2.12033 0.999999 3.48963 0.999999C4.85892 0.999999 5.97925 2.46154 5.97925 2.46154C5.97925 2.46154 7.09958 0.999999 8.46888 0.999999C9.83817 0.999999 10.9585 2.46154 10.9585 2.46154C10.9585 2.46154 12.1618 0.999999 13.5311 0.999999C14.9004 0.999999 16.0207 2.46154 16.0207 2.46154C16.0207 2.46154 17.1411 0.999999 18.5104 0.999999C19.8797 0.999999 21 2.46154 21 2.46154C21 2.46154 22.1203 0.999999 23.4896 0.999999C24.8589 0.999999 25.9792 2.46154 25.9792 2.46154C25.9792 2.46154 27.0996 0.999999 28.4689 0.999999C29.8382 0.999999 30.9585 2.46154 30.9585 2.46154C30.9585 2.46154 32.1618 0.999999 33.5311 0.999999C34.9004 0.999999 36.0207 2.46154 36.0207 2.46154C36.0207 2.46154 37.1411 0.999999 38.5104 0.999999C39.8797 0.999999 41 2.46154 41 2.46154Z" stroke="#214759" stroke-width="2" stroke-miterlimit="10" stroke-linecap="round" stroke-linejoin="round"/>
<path d="M1 8.30765H8.46888C9.84382 8.30765 10.9585 9.61632 10.9585 11.2307C10.9585 12.8451 9.84382 14.1538 8.46888 14.1538H1" stroke="#214759" stroke-width="2" stroke-miterlimit="10" stroke-linecap="round" stroke-linejoin="round"/>
<path d="M41 8.30775H33.5311C32.1562 8.30775 30.9585 9.61641 30.9585 11.2308C30.9585 12.8452 32.1562 14.1539 33.5311 14.1539H41" stroke="#214759" stroke-width="2" stroke-miterlimit="10" stroke-linecap="round" stroke-linejoin="round"/>
<path d="M1.38326 20.2084C2.06799 20.0714 2.77164 20.0001 3.48964 20.0001C10.3646 20.0001 16.0208 26.5436 16.0208 34.6154C16.0208 35.8336 15.8939 37.017 15.6546 38.1484" stroke="#214759" stroke-width="2" stroke-miterlimit="10" stroke-linecap="round" stroke-linejoin="round"/>
<path d="M26.3456 38.149C26.1062 37.0175 25.9792 35.8338 25.9792 34.6154C25.9792 26.5435 31.6354 20 38.5104 20C39.2281 20 39.9318 20.0713 40.6163 20.2082" stroke="#214759" stroke-width="2" stroke-miterlimit="10" stroke-linecap="round" stroke-linejoin="round"/>
<path d="M10.9585 11.2308H30.9585" stroke="#214759" stroke-width="2" stroke-miterlimit="10" stroke-linecap="round" stroke-linejoin="round"/>
</svg>
