<svg width="29" height="42" viewBox="0 0 29 42" fill="none" xmlns="http://www.w3.org/2000/svg">
<path d="M22.675 14.9726C25.6159 14.9726 28 11.8447 28 7.9863C28 4.12787 25.6159 1 22.675 1C19.7341 1 17.35 4.12787 17.35 7.9863C17.35 11.8447 19.7341 14.9726 22.675 14.9726Z" stroke="#214759" stroke-width="2" stroke-miterlimit="10" stroke-linecap="round"/>
<path d="M24.8607 14.6881V19.7144H20.3607V14.6881" stroke="#214759" stroke-width="2" stroke-linecap="round" stroke-linejoin="round"/>
<path d="M26.3179 36.6902C26.3179 39.0717 24.55 41 22.3643 41C20.1786 41 18.4107 39.0717 18.4107 36.6902L20.3607 19.7144" stroke="#214759" stroke-width="2" stroke-linecap="round" stroke-linejoin="round"/>
<path d="M26.3179 36.5638L24.8607 19.7144" stroke="#214759" stroke-width="2" stroke-linecap="round" stroke-linejoin="round"/>
<path d="M9.15359 14.6881V19.7144H4.66431V14.6881" stroke="#214759" stroke-width="2" stroke-linecap="round" stroke-linejoin="round"/>
<path d="M10.6214 36.6902C10.6214 39.0717 8.85358 41 6.66787 41C4.48215 41 2.71429 39.0717 2.71429 36.6902L4.66429 19.7144" stroke="#214759" stroke-width="2" stroke-linecap="round" stroke-linejoin="round"/>
<path d="M10.6214 36.5638L9.15356 19.7144" stroke="#214759" stroke-width="2" stroke-linecap="round" stroke-linejoin="round"/>
<path d="M12.0786 1V8.78714C12.0786 11.7903 9.60357 14.235 6.53929 14.235C3.48571 14.235 1 11.8008 1 8.78714V1" stroke="#214759" stroke-width="2" stroke-linecap="round" stroke-linejoin="round"/>
<path d="M4.66431 7.79661V1.12643" stroke="#214759" stroke-width="2" stroke-linecap="round" stroke-linejoin="round"/>
<path d="M8.55356 7.79661V1.12643" stroke="#214759" stroke-width="2" stroke-linecap="round" stroke-linejoin="round"/>
</svg>
