<svg width="42" height="42" viewBox="0 0 42 42" fill="none" xmlns="http://www.w3.org/2000/svg">
<path d="M41 18.1457L21 1L1.00003 18.1457" stroke="#214759" stroke-width="2" stroke-miterlimit="10" stroke-linecap="round" stroke-linejoin="round"/>
<path d="M8.91427 41H3.4476V16.5" stroke="#214759" stroke-width="2" stroke-miterlimit="10" stroke-linecap="round" stroke-linejoin="round"/>
<path d="M33.0858 41H38.5525V16.5" stroke="#214759" stroke-width="2" stroke-miterlimit="10" stroke-linecap="round" stroke-linejoin="round"/>
<path d="M17.6901 26.2887H17.7026" stroke="#214759" stroke-width="2" stroke-linecap="round" stroke-linejoin="round"/>
<path d="M25.2159 26.2887H25.2285" stroke="#214759" stroke-width="2" stroke-linecap="round" stroke-linejoin="round"/>
<path d="M18.9444 31.3059C19.5715 31.6822 20.4496 31.9331 21.453 31.9331C22.4564 31.9331 23.3344 31.6822 23.9616 31.3059" stroke="#214759" stroke-width="2" stroke-linecap="round" stroke-linejoin="round"/>
<path d="M30.2331 19.1392C31.3695 20.5637 32.1441 22.2421 32.4908 24.031C32.915 24.2364 33.2727 24.5571 33.523 24.9564C33.7732 25.3557 33.906 25.8174 33.906 26.2887C33.906 26.76 33.7732 27.2217 33.523 27.621C33.2727 28.0203 32.915 28.341 32.4908 28.5464C31.9494 31.072 30.5582 33.3354 28.5494 34.9591C26.5407 36.5828 24.0359 37.4685 21.453 37.4685C18.8701 37.4685 16.3653 36.5828 14.3566 34.9591C12.3478 33.3354 10.9566 31.072 10.4152 28.5464C9.99103 28.341 9.63333 28.0203 9.38305 27.621C9.13277 27.2217 9.00003 26.76 9.00003 26.2887C9.00003 25.8174 9.13277 25.3557 9.38305 24.9564C9.63333 24.5571 9.99103 24.2364 10.4152 24.031C10.9348 21.4854 12.3165 19.1969 14.3274 17.5517C16.3382 15.9065 18.8549 15.0052 21.453 15C23.9616 15 25.8431 16.3797 25.8431 18.1358C25.8431 19.8918 24.7142 21.2715 23.3345 21.2715C22.331 21.2715 21.453 20.7698 21.453 20.0172" stroke="#214759" stroke-width="2" stroke-linecap="round" stroke-linejoin="round"/>
</svg>
