<svg width="42" height="42" viewBox="0 0 42 42" fill="none" xmlns="http://www.w3.org/2000/svg">
<path d="M3.00006 41V21C3.00006 17.2288 3.00006 15.3431 4.17164 14.1716C5.3432 13 7.22882 13 11.0001 13C14.7713 13 16.6569 13 17.8285 14.1716C19.0001 15.3431 19.0001 17.2288 19.0001 21" stroke="#214759" stroke-width="2" stroke-linecap="round"/>
<path d="M31.0001 41V29C31.0001 25.2288 31.0001 23.3432 29.8285 22.1716C28.6569 21 26.7713 21 23.0001 21H19.0001C15.2288 21 13.3432 21 12.1716 22.1716C11.0001 23.3432 11.0001 25.2288 11.0001 29V41" stroke="#214759" stroke-width="2" stroke-linecap="round"/>
<path d="M39.0001 40.9998V12.5439C39.0001 9.8622 39.0001 8.52136 38.2879 7.49352C37.5755 6.46566 36.3201 5.99486 33.8091 5.05326C28.8985 3.21182 26.4433 2.2911 24.7217 3.4842C23.0001 4.67728 23.0001 7.29948 23.0001 12.5439V20.9998" stroke="#214759" stroke-width="2" stroke-linecap="round"/>
<path d="M5.00012 13V10C5.00012 8.11438 5.00012 7.17158 5.5859 6.58578C6.1717 6 7.1145 6 9.00012 6H13.0001C14.8857 6 15.8285 6 16.4143 6.58578C17.0001 7.17158 17.0001 8.11438 17.0001 10V13" stroke="#214759" stroke-width="2" stroke-linecap="round"/>
<path d="M11.0001 5V1" stroke="#214759" stroke-width="2" stroke-linecap="round"/>
<path d="M41 40.9999H1" stroke="#214759" stroke-width="2" stroke-linecap="round"/>
<path d="M17.0001 27H25.0001" stroke="#214759" stroke-width="2" stroke-linecap="round"/>
<path d="M17.0001 33H25.0001" stroke="#214759" stroke-width="2" stroke-linecap="round"/>
</svg>
