<svg width="42" height="42" viewBox="0 0 42 42" fill="none" xmlns="http://www.w3.org/2000/svg">
<path d="M9 6.00021L1 6.00021" stroke="#214759" stroke-width="2" stroke-linecap="round" stroke-linejoin="round"/>
<path d="M9 9.50021L2 11.5002" stroke="#214759" stroke-width="2" stroke-linecap="round" stroke-linejoin="round"/>
<path d="M9 2.50021L2 1.00021" stroke="#214759" stroke-width="2" stroke-linecap="round" stroke-linejoin="round"/>
<path d="M15 4.00021C15 2.34336 16.3431 1.00021 18 1.00021H32C35.3137 1.00021 38 3.68651 38 7.00021V7.00021C38 8.65707 36.6569 10.0002 35 10.0002H18C16.3431 10.0002 15 8.65707 15 7.00021V4.00021Z" stroke="#214759" stroke-width="2" stroke-linecap="round"/>
<path d="M33.6887 10.0002C39.1711 17.2213 40.7132 28.516 40.9615 38.0012C41.0048 39.6575 39.6569 41.0002 38 41.0002H18C16.3431 41.0002 15 39.6571 15 38.0002V27.0751C15 25.9561 15.6227 24.9302 16.6154 24.4137L21.5609 21.8407C22.5536 21.3242 23.1763 20.2983 23.1763 19.1793V10.0002" stroke="#214759" stroke-width="2" stroke-linecap="round" stroke-linejoin="round"/>
<path d="M18.7661 10.0002C19.2271 11.8752 19.3194 16.3002 16 19.0002" stroke="#214759" stroke-width="2" stroke-linecap="round" stroke-linejoin="round"/>
</svg>
