<svg width="40" height="42" viewBox="0 0 40 42" fill="none" xmlns="http://www.w3.org/2000/svg">
<path d="M2.87311 28.0964C4.09315 23.4653 7.82095 19.8687 12.554 19.8687C16.9956 19.8687 19.9622 23.935 19.8638 28.4317L19.8122 30.7927C19.7733 32.5697 20.4619 34.284 21.7146 35.5291L22.7181 36.5264C24.1575 37.957 23.3174 40.4082 21.3076 40.5767C18.7067 40.7946 15.4915 41.0025 12.6867 41.0025C9.07393 41.0025 5.46109 40.6577 3.20392 40.3905C1.86946 40.2326 0.88395 39.0787 1.01125 37.7243C1.30175 34.6337 2.0767 31.1195 2.87311 28.0964Z" stroke="#214759" stroke-width="2" stroke-linecap="round" stroke-linejoin="round"/>
<path d="M16.316 20.8039C17.8401 15.08 19.4571 9.34754 20.7193 3.55395C20.918 2.64176 20.6761 1.707 19.8115 1.38164C19.6236 1.31095 19.4081 1.24073 19.1613 1.17379C18.9146 1.10684 18.6934 1.05854 18.4958 1.02464C17.5863 0.868589 16.9153 1.55566 16.637 2.44626C14.8594 8.13511 13.4231 13.9523 11.9073 19.7132" stroke="#214759" stroke-width="2" stroke-linecap="round" stroke-linejoin="round"/>
<path d="M39.0002 40.0836H29.9266" stroke="#214759" stroke-width="2" stroke-linecap="round" stroke-linejoin="round"/>
<path d="M36.2781 32.7327H27.2045" stroke="#214759" stroke-width="2" stroke-linecap="round" stroke-linejoin="round"/>
<path d="M33.556 25.3818H24.4824" stroke="#214759" stroke-width="2" stroke-linecap="round" stroke-linejoin="round"/>
<path d="M7.28687 33.4218C7.1356 34.8001 7.28687 38.1999 9.10159 40.7727" stroke="#214759" stroke-width="2" stroke-linecap="round" stroke-linejoin="round"/>
<path d="M13.6383 33.6516C13.6383 33.6516 13.6383 38.2458 16.3161 40.543" stroke="#214759" stroke-width="2" stroke-linecap="round" stroke-linejoin="round"/>
</svg>
