<svg width="30" height="42" viewBox="0 0 30 42" fill="none" xmlns="http://www.w3.org/2000/svg">
<path d="M9.75823 6.71429H16.2725C17.2104 6.71423 18.1153 7.06011 18.8139 7.6857C19.5126 8.31129 19.956 9.17263 20.0592 10.1048L23.0211 36.7714C23.08 37.3038 23.026 37.8427 22.8626 38.3528C22.6991 38.8629 22.43 39.3328 22.0726 39.7318C21.7153 40.1309 21.2778 40.4501 20.7888 40.6686C20.2997 40.8871 19.7701 41 19.2344 41H6.79633C6.26068 41 5.73104 40.8871 5.24198 40.6686C4.75293 40.4501 4.31546 40.1309 3.95812 39.7318C3.60078 39.3328 3.33162 38.8629 3.16819 38.3528C3.00476 37.8427 2.95074 37.3038 3.00966 36.7714L5.97157 10.1048C6.07473 9.17263 6.51811 8.31129 7.2168 7.6857C7.91549 7.06011 8.82039 6.71423 9.75823 6.71429Z" stroke="#214759" stroke-width="2" stroke-linecap="round" stroke-linejoin="round"/>
<path d="M4.38681 24.8096L1.40729 15.2496C1.19519 14.9999 1.05917 14.6946 1.01537 14.3699C0.971574 14.0452 1.02184 13.7148 1.1602 13.4178C1.29856 13.1208 1.5192 12.8698 1.79596 12.6945C2.07271 12.5191 2.39396 12.4269 2.72158 12.4286L22.5259 12.4286C23.2774 12.4269 24.0219 12.5734 24.7167 12.8598C25.4116 13.1462 26.0431 13.5668 26.5751 14.0976C27.1071 14.6284 27.5292 15.2589 27.8172 15.9531C28.1052 16.6472 28.2535 17.3914 28.2535 18.1429V23.8572C28.2535 27.0134 25.6897 29.5715 22.5259 29.5715" stroke="#214759" stroke-width="2" stroke-linecap="round" stroke-linejoin="round"/>
<path d="M3.49155 33.3809H22.5392" stroke="#214759" stroke-width="2" stroke-linecap="round" stroke-linejoin="round"/>
<path d="M13.0154 1V6.14286" stroke="#214759" stroke-width="2" stroke-linecap="round"/>
<path d="M16.4439 1L9.5868 1" stroke="#214759" stroke-width="2" stroke-linecap="round"/>
</svg>
