<svg width="42" height="42" viewBox="0 0 42 42" fill="none" xmlns="http://www.w3.org/2000/svg">
<path d="M12.7836 4.55035H4.99463V8.10072H12.7836V4.55035Z" stroke="#214759" stroke-width="2" stroke-miterlimit="10" stroke-linecap="round" stroke-linejoin="round"/>
<path d="M15.8145 4.55035H19.6401" stroke="#214759" stroke-width="2" stroke-miterlimit="10" stroke-linecap="round" stroke-linejoin="round"/>
<ellipse cx="26.3584" cy="4.55034" rx="0.813008" ry="0.819018" fill="#214759"/>
<ellipse cx="23.1872" cy="4.55034" rx="0.813008" ry="0.819018" fill="#214759"/>
<path d="M25.2072 38.1221H4.19301C2.42959 38.1221 1 36.6836 1 34.909V4.21309C1 2.43852 2.42959 1 4.19301 1H27.1599C28.9234 1 30.3529 2.43852 30.3529 4.21309V22.8413" stroke="#214759" stroke-width="2" stroke-miterlimit="10" stroke-linecap="round" stroke-linejoin="round"/>
<path d="M30.2721 8.10077H1.08081" stroke="#214759" stroke-width="2" stroke-miterlimit="10" stroke-linecap="round" stroke-linejoin="round"/>
<path d="M15.6765 32.2652C20.9402 32.2652 25.2072 27.9749 25.2072 22.6826C25.2072 17.3903 20.9402 13.1 15.6765 13.1C10.4129 13.1 6.14587 17.3903 6.14587 22.6826C6.14587 27.9749 10.4129 32.2652 15.6765 32.2652Z" stroke="#214759" stroke-width="2" stroke-miterlimit="10" stroke-linecap="round" stroke-linejoin="round"/>
<path d="M18.4615 22.6826C18.4615 21.1971 19.02 19.8428 19.9373 18.8203C18.8874 17.6501 17.3673 16.9146 15.6764 16.9146C12.5082 16.9146 9.9397 19.497 9.9397 22.6826C9.9397 25.8681 12.5082 28.4506 15.6764 28.4506C17.3673 28.4506 18.8874 27.715 19.9373 26.5448C19.02 25.5223 18.4615 24.168 18.4615 22.6826Z" stroke="#214759" stroke-width="2" stroke-miterlimit="10" stroke-linecap="round" stroke-linejoin="round"/>
<path d="M31.9216 41C36.9355 41 41 36.9208 41 31.8888C41 26.8569 36.9355 22.7776 31.9216 22.7776C26.9077 22.7776 22.8431 26.8569 22.8431 31.8888C22.8431 36.9208 26.9077 41 31.9216 41Z" stroke="#214759" stroke-width="2" stroke-miterlimit="10" stroke-linecap="round" stroke-linejoin="round"/>
<path d="M36.5388 28.822C35.546 27.3214 33.847 26.3303 31.9216 26.3303C28.8676 26.3303 26.3831 28.8238 26.3831 31.8888C26.3831 34.9538 28.8676 37.4473 31.9216 37.4473C33.847 37.4473 35.546 36.4561 36.5388 34.9555" stroke="#214759" stroke-width="2" stroke-miterlimit="10" stroke-linecap="round" stroke-linejoin="round"/>
<path d="M33.086 34.0479C33.086 34.0479 31.0235 34.0739 30.9258 34.0412C30.8281 34.0086 31.0825 33.8359 32.4347 31.8969C32.6872 31.5347 32.8262 31.2292 32.8853 30.9733L32.9063 30.8087C32.9063 30.2075 32.4207 29.7201 31.8216 29.7201C31.2944 29.7201 30.8552 30.0975 30.7572 30.5978" stroke="#214759" stroke-width="2" stroke-miterlimit="10" stroke-linecap="round" stroke-linejoin="round"/>
</svg>
