<svg width="42" height="42" viewBox="0 0 42 42" fill="none" xmlns="http://www.w3.org/2000/svg">
<path d="M8.27618 5.5V4.5429C8.29617 3.59304 8.68888 2.68912 9.36954 2.02628C10.0502 1.36344 10.9642 0.994844 11.9143 1.00005C12.8792 1.00005 13.8045 1.38335 14.4868 2.06563C15.1691 2.7479 15.5524 3.67326 15.5524 4.63814V22.9048" stroke="#214759" stroke-width="2" stroke-miterlimit="10" stroke-linecap="round" stroke-linejoin="round"/>
<path d="M22.9047 1.00005C23.3831 0.997525 23.8573 1.0899 24.2999 1.27184C24.7424 1.45378 25.1445 1.72166 25.4828 2.05999C25.8211 2.39832 26.089 2.80039 26.271 3.24292C26.4529 3.68545 26.5453 4.15967 26.5428 4.63814V22.9048" stroke="#214759" stroke-width="2" stroke-miterlimit="10" stroke-linecap="round" stroke-linejoin="round"/>
<path d="M15.5524 17.3619H26.4476" stroke="#214759" stroke-width="2" stroke-miterlimit="10" stroke-linecap="round" stroke-linejoin="round"/>
<path d="M15.5524 10.0858H26.4476" stroke="#214759" stroke-width="2" stroke-miterlimit="10" stroke-linecap="round" stroke-linejoin="round"/>
<path d="M27 8.27625H40.9999V41H1V8.27625H11.9143" stroke="#214759" stroke-width="2" stroke-miterlimit="10" stroke-linecap="round" stroke-linejoin="round"/>
<path d="M6.44757 26.4476C9.7809 26.4476 9.7809 28.3524 13.1142 28.3524C16.4475 28.3524 16.4475 26.4476 19.7809 26.4476C23.1142 26.4476 23.1142 28.3524 26.4475 28.3524" stroke="#214759" stroke-width="2" stroke-miterlimit="10" stroke-linecap="round" stroke-linejoin="round"/>
<path d="M17.3619 33.7238C20.6952 33.7238 20.6952 35.6286 24.0285 35.6286C27.3619 35.6286 27.3619 33.7238 30.6952 33.7238C34.0285 33.7238 34.0285 35.6286 37.3618 35.6286" stroke="#214759" stroke-width="2" stroke-miterlimit="10" stroke-linecap="round" stroke-linejoin="round"/>
</svg>
