<svg width="52" height="42" viewBox="0 0 52 42" fill="none" xmlns="http://www.w3.org/2000/svg">
<path d="M4.33334 1H47.6667C47.6667 1 51 1 51 4.19999V29.8C51 29.8 51 33 47.6667 33H4.33334C4.33334 33 1 33 1 29.8V4.19999C1 4.19999 0.999997 1 4.33334 1Z" stroke="#214759" stroke-width="2" stroke-linecap="round" stroke-linejoin="round"/>
<path d="M24.2667 33H27.7333C27.7333 33 28 33 28 33.5V37.5C28 37.5 28 38 27.7333 38H24.2667C24.2667 38 24 38 24 37.5V33.5C24 33.5 24 33 24.2667 33Z" stroke="#214759" stroke-width="2" stroke-linecap="round" stroke-linejoin="round"/>
<path d="M42 41C33.5451 37 17.4552 37 9 41" stroke="#214759" stroke-width="2" stroke-linecap="round" stroke-linejoin="round"/>
</svg>
