<svg width="28" height="42" viewBox="0 0 28 42" fill="none" xmlns="http://www.w3.org/2000/svg">
<path d="M27 18C27 14.6863 24.3137 12 21 12H7C3.68629 12 1 14.6863 1 18V37C1 39.2091 2.79086 41 5 41H23C25.2091 41 27 39.2091 27 37V18Z" stroke="#214759" stroke-width="2" stroke-linecap="round"/>
<path d="M17 7C17 6.44772 16.5523 6 16 6H12C11.4477 6 11 6.44772 11 7V12H17V7Z" stroke="#214759" stroke-width="2" stroke-linecap="round"/>
<path d="M10 1H23C23.925 1 26 1.5 26 4" stroke="#214759" stroke-width="2" stroke-linecap="round"/>
<path d="M14 6V1" stroke="#214759" stroke-width="2" stroke-linecap="round" stroke-linejoin="round"/>
</svg>
