<svg width="42" height="33" viewBox="0 0 42 33" fill="none" xmlns="http://www.w3.org/2000/svg">
<circle cx="29.3205" cy="3.5" r="2.5" stroke="#214759" stroke-width="2"/>
<path d="M23.5809 31.4427L22.9357 23.7832L19.9758 18.9025C19.4084 17.9668 19.3634 16.8092 19.8567 15.8332L23.435 8.75285C23.8821 7.86804 24.9401 7.47006 25.8685 7.83738L25.8704 7.83818C26.86 8.22978 27.5901 9.07972 27.8214 10.1091L28.7422 14.2086L33.8631 16.9613" stroke="#214759" stroke-width="2" stroke-miterlimit="10" stroke-linecap="round" stroke-linejoin="round"/>
<path d="M32.8819 18.8629L27.8794 17.1329C27.196 16.8965 26.6443 16.3868 26.359 15.7284L24.8712 12.2937" stroke="#214759" stroke-width="2" stroke-miterlimit="10" stroke-linecap="round" stroke-linejoin="round"/>
<path d="M25.3205 14.5L23.5809 18.0384L25.7529 22.3362C26.0217 22.8679 26.1615 23.4543 26.1615 24.0489V31.4427" stroke="#214759" stroke-width="2" stroke-miterlimit="10" stroke-linecap="round" stroke-linejoin="round"/>
<path d="M24.226 7.82571H17.7744C16.7055 7.82571 15.839 8.68305 15.839 9.74057V15.4852C16.9447 15.4852 17.8774 14.6706 18.0145 13.5852L18.4196 10.3789C18.9235 10.3789 21.8166 10.3789 22.3205 10.3789" stroke="#214759" stroke-width="2" stroke-miterlimit="10" stroke-linecap="round" stroke-linejoin="round"/>
<path d="M19.4949 17.1076L18.6616 24.0224L13.9035 28.8895L15.839 31.4427" stroke="#214759" stroke-width="2" stroke-miterlimit="10" stroke-linecap="round" stroke-linejoin="round"/>
<path d="M17.7745 30.8044L17.1293 29.5278L21.0003 25.698L22.2906 23.1449" stroke="#214759" stroke-width="2" stroke-miterlimit="10" stroke-linecap="round" stroke-linejoin="round"/>
<path d="M6.8067 31.4427H12.6132" stroke="#214759" stroke-width="2" stroke-miterlimit="10" stroke-linecap="round" stroke-linejoin="round"/>
<path d="M15.839 31.4427H38.3738C39.2293 31.4427 40.0498 31.1064 40.6548 30.508L41.0003 30.1661" stroke="#214759" stroke-width="2" stroke-miterlimit="10" stroke-linecap="round" stroke-linejoin="round"/>
<path d="M28.097 31.4427L34.5487 15.4853" stroke="#214759" stroke-width="2" stroke-miterlimit="10" stroke-linecap="round" stroke-linejoin="round"/>
<path d="M1.00024 21.2299L15.8389 15.4852" stroke="#214759" stroke-width="2" stroke-miterlimit="10" stroke-linecap="round" stroke-linejoin="round"/>
<path d="M23.5809 18.0385L19.7099 16.7619" stroke="#214759" stroke-width="2" stroke-miterlimit="10" stroke-linecap="round" stroke-linejoin="round"/>
</svg>
