<svg width="42" height="42" viewBox="0 0 42 42" fill="none" xmlns="http://www.w3.org/2000/svg">
<path d="M21.0023 14.163V38.1131" stroke="#214759" stroke-width="2" stroke-miterlimit="10" stroke-linecap="round" stroke-linejoin="round"/>
<path d="M36.6209 7.12195C38.2388 8.7366 39.7283 10.7641 40.9695 13.305C41.0739 13.5187 40.9163 13.7676 40.6767 13.7676H1.32797C1.08838 13.7676 0.930712 13.5187 1.0351 13.3051C6.27855 2.5688 15.9597 1.00011 21.0023 1.00011C24.3434 1.00011 29.7203 1.68872 34.494 5.27616" stroke="#214759" stroke-width="2" stroke-miterlimit="10" stroke-linecap="round" stroke-linejoin="round"/>
<path d="M33.7112 13.7676H8.29346C11.5597 2.61355 17.7828 1.00003 21.0023 1.00003C24.2219 1.00003 30.4444 2.61355 33.7112 13.7676Z" stroke="#214759" stroke-width="2" stroke-miterlimit="10" stroke-linecap="round" stroke-linejoin="round"/>
<path d="M25.908 13.7676H16.0967C17.3574 2.61355 19.7596 1.00003 21.0023 1.00003C22.2451 1.00003 24.6471 2.61355 25.908 13.7676Z" stroke="#214759" stroke-width="2" stroke-miterlimit="10" stroke-linecap="round" stroke-linejoin="round"/>
<path d="M40.6494 41H1.35523C1.16031 41 1.00232 40.842 1.00232 40.6471V39.6782C1.00232 38.8969 1.63564 38.2636 2.41697 38.2636H39.5876C40.3689 38.2636 41.0023 38.8969 41.0023 39.6782V40.6471C41.0023 40.842 40.8443 41 40.6494 41Z" stroke="#214759" stroke-width="2" stroke-miterlimit="10" stroke-linecap="round" stroke-linejoin="round"/>
<path d="M11.6933 26.9558H16.0376C16.3931 26.9558 16.6814 27.244 16.6814 27.5996V31.7847H7.18445V27.5996C7.18445 27.244 7.47266 26.9558 7.82831 26.9558H8.84078" stroke="#214759" stroke-width="2" stroke-miterlimit="10" stroke-linecap="round" stroke-linejoin="round"/>
<path d="M17.3253 34.1992H6.54059C6.18502 34.1992 5.89673 33.9109 5.89673 33.5554V32.4286C5.89673 32.073 6.18502 31.7847 6.54059 31.7847H17.3253C17.6809 31.7847 17.9692 32.073 17.9692 32.4286V33.5554C17.9692 33.9109 17.6809 34.1992 17.3253 34.1992Z" stroke="#214759" stroke-width="2" stroke-miterlimit="10" stroke-linecap="round" stroke-linejoin="round"/>
<path d="M6.15881 38.2636L7.18449 34.1992" stroke="#214759" stroke-width="2" stroke-miterlimit="10" stroke-linecap="round" stroke-linejoin="round"/>
<path d="M17.7071 38.2636L16.6814 34.1992" stroke="#214759" stroke-width="2" stroke-miterlimit="10" stroke-linecap="round" stroke-linejoin="round"/>
<path d="M34.8202 31.7847H25.3232V27.5996C25.3232 27.244 25.6115 26.9558 25.9671 26.9558H34.1764C34.5319 26.9558 34.8202 27.244 34.8202 27.5996V31.7847Z" stroke="#214759" stroke-width="2" stroke-miterlimit="10" stroke-linecap="round" stroke-linejoin="round"/>
<path d="M35.4641 34.1992H24.6794C24.3238 34.1992 24.0355 33.9109 24.0355 33.5554V32.4286C24.0355 32.073 24.3238 31.7847 24.6794 31.7847H35.4641C35.8197 31.7847 36.1079 32.073 36.1079 32.4286V33.5554C36.1079 33.9109 35.8197 34.1992 35.4641 34.1992Z" stroke="#214759" stroke-width="2" stroke-miterlimit="10" stroke-linecap="round" stroke-linejoin="round"/>
<path d="M24.2976 38.2636L25.3233 34.1992" stroke="#214759" stroke-width="2" stroke-miterlimit="10" stroke-linecap="round" stroke-linejoin="round"/>
<path d="M35.8459 38.2636L34.8202 34.1992" stroke="#214759" stroke-width="2" stroke-miterlimit="10" stroke-linecap="round" stroke-linejoin="round"/>
</svg>
