<svg width="42" height="42" viewBox="0 0 42 42" fill="none" xmlns="http://www.w3.org/2000/svg">
<path d="M33.1924 36.6902C33.416 37.6918 33.8407 38.5601 34.6215 39.341C36.8002 41.5197 40.9261 40.9261 40.9261 40.9261C40.9261 40.9261 41.5197 36.8002 39.341 34.6215C38.535 33.8154 37.4625 33.5518 36.4309 33.3342" stroke="#214759" stroke-width="2" stroke-miterlimit="10" stroke-linecap="round" stroke-linejoin="round"/>
<path d="M36.4309 32.5095C37.4625 32.2919 38.535 32.1096 39.341 31.3035C41.5197 29.1249 40.9261 24.999 40.9261 24.999C40.9261 24.999 36.8002 24.4054 34.6215 26.5841C33.8407 27.365 33.416 28.1519 33.1924 29.1534" stroke="#214759" stroke-width="2" stroke-miterlimit="10" stroke-linecap="round" stroke-linejoin="round"/>
<path d="M19.2501 40.2897C20.4866 40.7301 21.7986 40.9998 23.1576 40.9998C30.5784 40.9998 36.5941 32.9625 36.5941 32.9625C36.5941 32.9625 30.5784 24.9252 23.1576 24.9252C21.7986 24.9252 20.4866 25.1948 19.2501 25.6353" stroke="#214759" stroke-width="2" stroke-miterlimit="10" stroke-linecap="round" stroke-linejoin="round"/>
<path d="M19.25 25.6353C15.1698 27.0886 11.9112 30.4022 10.492 32.0279C10.0246 32.5633 10.0246 33.3617 10.492 33.8971C11.9112 35.5228 15.1698 38.8364 19.25 40.2897C20.5843 38.167 21.3561 35.6549 21.3561 32.9625C21.3561 30.2701 20.5843 27.758 19.25 25.6353Z" stroke="#214759" stroke-width="2" stroke-miterlimit="10" stroke-linecap="round" stroke-linejoin="round"/>
<path d="M30.9459 32.9626C30.9459 32.9626 29.4583 35.1086 27.6232 35.1086C25.7881 35.1086 24.3004 32.9626 24.3004 32.9626C24.3004 32.9626 25.7881 30.8165 27.6232 30.8165C29.4583 30.8165 30.9459 32.9626 30.9459 32.9626Z" stroke="#214759" stroke-width="2" stroke-miterlimit="10" stroke-linecap="round" stroke-linejoin="round"/>
<path d="M16.2825 31.173V32.0206" stroke="#214759" stroke-width="2" stroke-miterlimit="10" stroke-linecap="round" stroke-linejoin="round"/>
<path d="M3.78931 4.57623V0.999971" stroke="#214759" stroke-width="2" stroke-miterlimit="10" stroke-linecap="round" stroke-linejoin="round"/>
<path d="M9.33045 22.2791L11.3492 20.5853V24.2535C11.3492 26.3411 9.65687 28.0334 7.56923 28.0334C5.48158 28.0334 3.78931 26.3411 3.78931 24.2535V10.7698" stroke="#214759" stroke-width="2" stroke-miterlimit="10" stroke-linecap="round" stroke-linejoin="round"/>
<path d="M6.57854 7.58425C6.57854 9.12473 5.32976 10.3736 3.78927 10.3736C2.24878 10.3736 1 9.12473 1 7.58425C1 6.04376 2.24878 4.79498 3.78927 4.79498C5.32976 4.79498 6.57854 6.04376 6.57854 7.58425Z" stroke="#214759" stroke-width="2" stroke-miterlimit="10" stroke-linecap="round" stroke-linejoin="round"/>
<path d="M17.5035 21.4407C17.5035 22.204 16.8848 22.8228 16.1214 22.8228C15.358 22.8228 14.7393 22.204 14.7393 21.4407C14.7393 20.6774 15.358 20.0586 16.1214 20.0586C16.8848 20.0586 17.5035 20.6774 17.5035 21.4407Z" stroke="#214759" stroke-width="2" stroke-miterlimit="10" stroke-linecap="round" stroke-linejoin="round"/>
<path d="M20.9884 16.2656C20.9884 17.4269 20.047 18.3684 18.8857 18.3684C17.7243 18.3684 16.7828 17.4269 16.7828 16.2656C16.7828 15.1042 17.7243 14.1627 18.8857 14.1627C20.047 14.1627 20.9884 15.1042 20.9884 16.2656Z" stroke="#214759" stroke-width="2" stroke-miterlimit="10" stroke-linecap="round" stroke-linejoin="round"/>
</svg>
