<svg width="42" height="40" viewBox="0 0 42 40" fill="none" xmlns="http://www.w3.org/2000/svg">
<path d="M9 26.65C9 25.6006 9.89544 24.75 11 24.75H31C32.1046 24.75 33 25.6006 33 26.65C33 28.7487 31.2092 30.45 29 30.45H13C10.7909 30.45 9 28.7487 9 26.65Z" stroke="#214759" stroke-width="2" stroke-linecap="round"/>
<path d="M10.2561 10.055C10.7389 6.2334 10.9802 4.32257 12.1436 3.01706C12.5128 2.60274 12.9424 2.24066 13.4194 1.94177C14.9225 1 16.9483 1 20.9999 1C25.0515 1 27.0773 1 28.5803 1.94177C29.0573 2.24066 29.4871 2.60274 29.8563 3.01706C31.0195 4.32257 31.2609 6.2334 31.7437 10.055L31.9255 11.4945C32.4265 15.4607 32.6769 17.4437 31.4833 18.7219C30.2897 20 28.1873 20 23.9825 20H18.0173C13.8125 20 11.7101 20 10.5164 18.7219C9.32282 17.4437 9.57332 15.4607 10.0743 11.4945L10.2561 10.055Z" stroke="#214759" stroke-width="2" stroke-linecap="round"/>
<path d="M21 20V23.8" stroke="#214759" stroke-width="2" stroke-linecap="round"/>
<path d="M21 39V35.2M21 35.2V30.45M21 35.2L21.9322 35.4214C23.8428 35.8753 25.3772 37.225 26 39M21 35.2L20.0678 35.4214C18.1572 35.8753 16.6228 37.225 16 39M9 27.6L7.26968 22.6686C7.12346 22.2519 7.05036 22.0435 6.90848 21.7528C6.7666 21.4621 6.70826 21.3709 6.59158 21.1886C5.67884 19.7629 4.465 19.05 1 19.05M33 27.6L34.7304 22.6686C34.8766 22.2519 34.9496 22.0435 35.0916 21.7528C35.2334 21.4621 35.2918 21.3709 35.4084 21.1886C36.3212 19.7629 37.535 19.05 41 19.05" stroke="#214759" stroke-width="2" stroke-linecap="round"/>
</svg>
