<svg width="42" height="42" viewBox="0 0 42 42" fill="none" xmlns="http://www.w3.org/2000/svg">
<path d="M41 41H1V10.8149L21.1641 1L41 10.8149V41Z" stroke="#214759" stroke-width="2" stroke-linecap="round" stroke-linejoin="round"/>
<path d="M32.6045 14C26.4698 14 21.4966 18.9732 21.4966 25.1079C21.4966 31.2426 26.4698 36.2158 32.6045 36.2158" stroke="#214759" stroke-width="2" stroke-linecap="round" stroke-linejoin="round"/>
<path d="M32.6046 18.4432C28.9237 18.4432 25.9398 21.4271 25.9398 25.1079C25.9398 28.7887 28.9237 31.7726 32.6046 31.7726" stroke="#214759" stroke-width="2" stroke-linecap="round" stroke-linejoin="round"/>
<path d="M18.4115 15.3098C18.6672 16.8193 19.0247 19.4565 18.996 22.273C18.9812 23.7265 18.0104 25.0291 16.484 25.3712C16.169 25.4419 15.8327 25.5053 15.4816 25.555L16.4726 33.2933C16.6469 34.6546 15.809 36.0031 14.4481 36.181C14.2797 36.203 14.1262 36.216 13.9988 36.216C13.8714 36.216 13.718 36.203 13.5495 36.181C12.1886 36.0031 11.3506 34.6546 11.525 33.2933L12.516 25.5549C12.165 25.5053 11.8287 25.4418 11.5137 25.3712C9.98728 25.0291 9.01643 23.7263 9.00163 22.2728C8.97294 19.4567 9.32982 16.8198 9.5851 15.3102C9.71521 14.5408 10.388 14 11.1683 14H16.8285C17.6086 14 18.2813 14.5406 18.4115 15.3098Z" stroke="#214759" stroke-width="2" stroke-linecap="round" stroke-linejoin="round"/>
<path d="M12.6103 14L12.3326 20.1093" stroke="#214759" stroke-width="2" stroke-linecap="round" stroke-linejoin="round"/>
<path d="M15.3873 14L15.665 20.1093" stroke="#214759" stroke-width="2" stroke-linecap="round" stroke-linejoin="round"/>
</svg>
