<svg width="42" height="42" viewBox="0 0 42 42" fill="none" xmlns="http://www.w3.org/2000/svg">
<path d="M1 41.0001H41" stroke="#214759" stroke-width="2" stroke-miterlimit="10" stroke-linecap="round" stroke-linejoin="round"/>
<path d="M20.6216 24.582C24.4479 24.582 28.1175 26.1116 30.8231 28.8342C33.5287 31.5568 35.0486 35.2494 35.0486 39.0998V41H6.19464V39.0998C6.19464 35.2494 7.71463 31.5568 10.4202 28.8342C13.1258 26.1116 16.7954 24.582 20.6216 24.582Z" stroke="#214759" stroke-width="2" stroke-miterlimit="10" stroke-linecap="round" stroke-linejoin="round"/>
<path d="M20.6216 20.9526V24.5821" stroke="#214759" stroke-width="2" stroke-miterlimit="10" stroke-linecap="round" stroke-linejoin="round"/>
<path d="M18.8277 19.1474C18.8277 19.6261 19.0167 20.0853 19.3531 20.4238C19.6896 20.7624 20.1459 20.9526 20.6216 20.9526C21.0974 20.9526 21.5537 20.7624 21.8901 20.4238C22.2266 20.0853 22.4156 19.6261 22.4156 19.1474C22.4156 18.6686 22.2266 18.2094 21.8901 17.8709C21.5537 17.5323 21.0974 17.3421 20.6216 17.3421C20.1459 17.3421 19.6896 17.5323 19.3531 17.8709C19.0167 18.2094 18.8277 18.6686 18.8277 19.1474Z" stroke="#214759" stroke-width="2" stroke-miterlimit="10" stroke-linecap="round" stroke-linejoin="round"/>
<path d="M6.19464 4.62955C12.4451 8.98109 3.62648 11.1474 9.80139 15.4989" stroke="#214759" stroke-width="2" stroke-miterlimit="10" stroke-linecap="round" stroke-linejoin="round"/>
<path d="M18.8277 1.00009C25.0593 5.35163 16.184 7.53691 22.4156 11.8884" stroke="#214759" stroke-width="2" stroke-miterlimit="10" stroke-linecap="round" stroke-linejoin="round"/>
<path d="M31.4419 4.62955C37.6735 8.98109 28.7982 11.1664 35.0486 15.5179" stroke="#214759" stroke-width="2" stroke-miterlimit="10" stroke-linecap="round" stroke-linejoin="round"/>
</svg>
