<svg width="42" height="42" viewBox="0 0 42 42" fill="none" xmlns="http://www.w3.org/2000/svg">
<path d="M11 41H5.44442C2.98979 41 1 39.0102 1 36.5556V5.44442C1 2.98979 2.98979 1 5.44442 1H36.5554C39.01 1 40.9998 2.98979 40.9998 5.44442L41 36.5556C41 39.0102 39.0102 41 36.5556 41H31" stroke="#214759" stroke-width="2" stroke-linecap="round" stroke-linejoin="round"/>
<path d="M41 9.88885H1.00018" stroke="#214759" stroke-width="2" stroke-linecap="round" stroke-linejoin="round"/>
<path d="M21 29.8888V40.9999M21 40.9999H16.5556M21 40.9999H25.4445" stroke="#214759" stroke-width="2" stroke-linecap="round" stroke-linejoin="round"/>
<path d="M21 29.8889C24.6821 29.8889 27.6668 26.5726 27.6668 22.4815V16.5556H14.3333V22.4815C14.3333 26.5726 17.318 29.8889 21 29.8889Z" stroke="#214759" stroke-width="2" stroke-linecap="round" stroke-linejoin="round"/>
<path d="M34.3333 5.4667L34.3556 5.44202" stroke="#214759" stroke-width="2" stroke-linecap="round" stroke-linejoin="round"/>
<path d="M27.6668 5.4667L27.6889 5.44202" stroke="#214759" stroke-width="2" stroke-linecap="round" stroke-linejoin="round"/>
</svg>
