<svg width="42" height="42" viewBox="0 0 42 42" fill="none" xmlns="http://www.w3.org/2000/svg">
<path d="M5.00014 17.0001V38.9999C4.99703 39.2634 5.04671 39.5249 5.14618 39.7689C5.24565 40.0129 5.39284 40.2345 5.57906 40.4208C5.76546 40.6072 5.98706 40.7544 6.23115 40.8538C6.47515 40.9532 6.73657 41.0029 7.00012 40.9999C7.2635 41.0029 7.52492 40.9532 7.769 40.8538C8.013 40.7544 8.23469 40.6072 8.421 40.4208C8.60731 40.2345 8.7545 40.0129 8.85388 39.7689C8.95344 39.5249 9.00304 39.2634 9.0001 38.9999" stroke="#214759" stroke-width="2" stroke-miterlimit="10" stroke-linecap="round"/>
<path d="M9.00002 27.6666V38.9999C8.9969 39.2634 9.04659 39.5249 9.14606 39.7689C9.24552 40.0129 9.39272 40.2345 9.57894 40.4208C9.76534 40.6072 9.98694 40.7544 10.231 40.8538C10.475 40.9532 10.7364 41.0029 11 40.9999C11.2634 41.0029 11.5248 40.9532 11.7689 40.8538C12.0129 40.7544 12.2346 40.6072 12.4209 40.4208C12.6072 40.2345 12.7544 40.0129 12.8538 39.7689C12.9533 39.5249 13.0029 39.2634 13 38.9999V17.0001" stroke="#214759" stroke-width="2" stroke-miterlimit="10" stroke-linecap="round"/>
<path d="M5.00008 14.5V22.7499C5.0031 23.0463 4.95359 23.3405 4.85412 23.6151C4.75484 23.8896 4.60755 24.1391 4.42124 24.3487C4.23493 24.5582 4.01316 24.7239 3.76907 24.8357C3.52508 24.9475 3.26357 25.0033 3.00011 24.9998C2.73656 25.0033 2.47505 24.9475 2.23106 24.8357C1.98697 24.7239 1.76529 24.5582 1.57889 24.3487C1.39249 24.1391 1.24539 23.8896 1.14592 23.6151C1.04655 23.3405 0.996946 23.0463 1.00015 22.7499V14.5C1.00015 13.3065 1.42156 12.1619 2.17168 11.318C2.9218 10.4741 3.93912 10 5.00008 10H12.9999C14.0607 10 15.0781 10.4741 15.8283 11.318C16.5784 12.1619 16.9999 13.3065 16.9999 14.5V22.7499C17.003 23.0463 16.9534 23.3405 16.8539 23.6151C16.7546 23.8896 16.6073 24.1391 16.421 24.3487C16.2347 24.5582 16.0129 24.7239 15.7689 24.8357C15.5249 24.9475 15.2634 25.0033 14.9999 24.9998C14.7364 25.0033 14.4749 24.9475 14.2308 24.8357C13.9868 24.7239 13.7651 24.5582 13.5787 24.3487C13.3924 24.1391 13.2452 23.8896 13.1458 23.6151C13.0463 23.3405 12.9967 23.0463 12.9999 22.7499V14.5" stroke="#214759" stroke-width="2" stroke-miterlimit="10" stroke-linecap="round"/>
<path d="M9.0009 7.66731C10.842 7.66731 12.3346 6.17478 12.3346 4.33366C12.3346 2.49253 10.842 1 9.0009 1C7.15985 1 5.66724 2.49253 5.66724 4.33366C5.66724 6.17478 7.15985 7.66731 9.0009 7.66731Z" stroke="#214759" stroke-width="2" stroke-miterlimit="10" stroke-linecap="round"/>
<path d="M16 1H36V39H16" stroke="#214759" stroke-width="2" stroke-linecap="round" stroke-linejoin="round"/>
<path d="M32 20L28 20" stroke="#214759" stroke-width="2" stroke-linecap="round"/>
<path d="M32 39H41" stroke="#214759" stroke-width="2" stroke-linecap="round"/>
</svg>
