<svg width="35" height="42" viewBox="0 0 35 42" fill="none" xmlns="http://www.w3.org/2000/svg">
<path d="M7.95312 16.5292V10.5761C7.95312 5.2881 12.2275 1.00002 17.4998 1.00002C20.1369 1.00002 22.5236 2.07188 24.2507 3.80501C25.9788 5.53824 27.0474 7.9321 27.0474 10.5761V16.5292" stroke="#214759" stroke-width="2" stroke-miterlimit="10" stroke-linecap="round" stroke-linejoin="round"/>
<path d="M10.7048 16.5292V10.5761C10.7048 6.81792 13.7528 3.75993 17.4998 3.75993C21.2467 3.75993 24.2957 6.81792 24.2957 10.5761V16.5292" stroke="#214759" stroke-width="2" stroke-miterlimit="10" stroke-linecap="round" stroke-linejoin="round"/>
<path d="M21.6008 16.5287H29.8274C30.7611 16.5287 31.5458 17.232 31.6505 18.1624L33.9883 38.9539C34.1111 40.0448 33.26 41 32.1654 41H2.83483C1.74028 41 0.88926 40.0448 1.0119 38.9539L3.34986 18.1624C3.45452 17.232 4.23913 16.5287 5.1727 16.5287H21.6008Z" stroke="#214759" stroke-width="2" stroke-miterlimit="10" stroke-linecap="round" stroke-linejoin="round"/>
<path d="M6.29346 21.9244V27.2957" stroke="#214759" stroke-width="2" stroke-miterlimit="10" stroke-linecap="round" stroke-linejoin="round"/>
<path d="M10.0376 24.6515C10.0376 26.1575 9.20424 27.3492 7.88203 27.3723C7.44194 27.3801 6.30446 27.3844 6.30446 27.3844C6.30446 27.3844 6.2974 25.4047 6.2974 24.6456C6.2974 24.022 6.29346 21.9187 6.29346 21.9187H7.83691C9.28707 21.9187 10.0376 23.1455 10.0376 24.6515Z" stroke="#214759" stroke-width="2" stroke-miterlimit="10" stroke-linecap="round" stroke-linejoin="round"/>
<path d="M25.1339 21.7521L26.9277 24.5073L28.7067 21.7664" stroke="#214759" stroke-width="2" stroke-miterlimit="10" stroke-linecap="round" stroke-linejoin="round"/>
<path d="M26.9208 27.3844L26.9278 24.5074" stroke="#214759" stroke-width="2" stroke-miterlimit="10" stroke-linecap="round" stroke-linejoin="round"/>
<path d="M12.7955 21.7521V25.6277C12.7955 26.2877 13.122 26.7321 13.6765 27.0874C13.9466 27.2605 14.2877 27.3838 14.7116 27.3844C15.0787 27.3849 15.3856 27.2997 15.6392 27.1714C16.2855 26.845 16.6976 26.3494 16.6976 25.6237V21.7521" stroke="#214759" stroke-width="2" stroke-miterlimit="10" stroke-linecap="round" stroke-linejoin="round"/>
<path d="M19.4208 21.7521H22.5221" stroke="#214759" stroke-width="2" stroke-miterlimit="10" stroke-linecap="round" stroke-linejoin="round"/>
<path d="M20.9653 21.9319V27.3844" stroke="#214759" stroke-width="2" stroke-miterlimit="10" stroke-linecap="round" stroke-linejoin="round"/>
<path d="M10.7064 30.1856H8.44702V35.7766" stroke="#214759" stroke-width="2" stroke-miterlimit="10" stroke-linecap="round" stroke-linejoin="round"/>
<path d="M8.4469 32.9282H10.5268" stroke="#214759" stroke-width="2" stroke-miterlimit="10" stroke-linecap="round" stroke-linejoin="round"/>
<path d="M21.488 30.1957H19.1433V35.7766H21.488" stroke="#214759" stroke-width="2" stroke-miterlimit="10" stroke-linecap="round" stroke-linejoin="round"/>
<path d="M21.3151 32.9861H19.1433" stroke="#214759" stroke-width="2" stroke-miterlimit="10" stroke-linecap="round" stroke-linejoin="round"/>
<path d="M26.5534 30.1957H24.2089V35.7766H26.5534" stroke="#214759" stroke-width="2" stroke-miterlimit="10" stroke-linecap="round" stroke-linejoin="round"/>
<path d="M26.3805 32.9861H24.2089" stroke="#214759" stroke-width="2" stroke-miterlimit="10" stroke-linecap="round" stroke-linejoin="round"/>
<path d="M14.0398 33.0884L16.3988 35.7766" stroke="#214759" stroke-width="2" stroke-miterlimit="10" stroke-linecap="round" stroke-linejoin="round"/>
<path d="M13.3627 30.1443V35.7766" stroke="#214759" stroke-width="2" stroke-miterlimit="10" stroke-linecap="round" stroke-linejoin="round"/>
<path d="M16.3988 31.6081C16.3988 32.4165 15.6921 33.0719 14.8568 33.0719C14.4425 33.0719 13.375 33.0783 13.375 33.0783C13.375 33.0783 13.3683 32.0156 13.3683 31.6081C13.3683 31.2733 13.3645 30.1443 13.3645 30.1443H14.8568C15.6921 30.1443 16.3988 30.7996 16.3988 31.6081Z" stroke="#214759" stroke-width="2" stroke-miterlimit="10" stroke-linecap="round" stroke-linejoin="round"/>
</svg>
