<svg width="42" height="42" viewBox="0 0 42 42" fill="none" xmlns="http://www.w3.org/2000/svg">
<path d="M1 21C1 26.3044 3.10713 31.3915 6.85787 35.1422C10.6086 38.8928 15.6957 41 21 41C26.3044 41 31.3915 38.8928 35.1422 35.1422C38.8928 31.3915 41 26.3044 41 21C41 15.6957 38.8928 10.6086 35.1422 6.85787C31.3915 3.10713 26.3044 1 21 1C15.6957 1 10.6086 3.10713 6.85787 6.85787C3.10713 10.6086 1 15.6957 1 21Z" stroke="#214759" stroke-width="2" stroke-linecap="round" stroke-linejoin="round"/>
<path d="M18.2871 14.9198L12.8578 2.74915" stroke="#214759" stroke-width="2" stroke-linecap="round" stroke-linejoin="round"/>
<path d="M2.69067 12.9874L14.9005 18.3296" stroke="#214759" stroke-width="2" stroke-linecap="round" stroke-linejoin="round"/>
<path d="M39.3075 29.0125L27.0995 23.6685" stroke="#214759" stroke-width="2" stroke-linecap="round" stroke-linejoin="round"/>
<path d="M23.7129 27.0798L29.1422 39.2505" stroke="#214759" stroke-width="2" stroke-linecap="round" stroke-linejoin="round"/>
<path d="M14.3334 21C14.3334 22.7682 15.0358 24.4638 16.286 25.7141C17.5362 26.9643 19.2319 27.6667 21 27.6667C22.7682 27.6667 24.4639 26.9643 25.7142 25.7141C26.9643 24.4638 27.6667 22.7682 27.6667 21C27.6667 19.2318 26.9643 17.5362 25.7142 16.286C24.4639 15.0357 22.7682 14.3333 21 14.3333C19.2319 14.3333 17.5362 15.0357 16.286 16.286C15.0358 17.5362 14.3334 19.2318 14.3334 21Z" stroke="#214759" stroke-width="2" stroke-linecap="round" stroke-linejoin="round"/>
</svg>
