<svg width="35" height="42" viewBox="0 0 35 42" fill="none" xmlns="http://www.w3.org/2000/svg">
<path d="M27.0189 12.6881C27.9747 12.4032 28.9886 12.25 30.0387 12.25H33.6145C33.8273 12.25 34 12.42 34 12.6297V16.1513C34 21.8131 29.3396 26.4028 23.5908 26.4028H20.0386" stroke="#214759" stroke-width="2" stroke-miterlimit="10" stroke-linecap="round" stroke-linejoin="round"/>
<path d="M20.0381 19.6474C20.749 17.2272 22.3412 15.1755 24.4502 13.8512" stroke="#214759" stroke-width="2" stroke-miterlimit="10" stroke-linecap="round" stroke-linejoin="round"/>
<path d="M30.2019 15.9906L20.0385 26" stroke="#214759" stroke-width="2" stroke-miterlimit="10" stroke-linecap="round" stroke-linejoin="round"/>
<path d="M26.8146 19.3265H30.2018" stroke="#214759" stroke-width="2" stroke-miterlimit="10" stroke-linecap="round" stroke-linejoin="round"/>
<path d="M24.2744 21.8283V18.4925" stroke="#214759" stroke-width="2" stroke-miterlimit="10" stroke-linecap="round" stroke-linejoin="round"/>
<path d="M1 26.2585V15.0669C1 13.5112 2.28057 12.25 3.86023 12.25H17.1782C18.7579 12.25 20.0384 13.5112 20.0384 15.0669V33.1831C20.0384 34.7389 18.7579 36 17.1782 36H3.86023C2.28057 36 1 34.7389 1 33.1831V29.0754" stroke="#214759" stroke-width="2" stroke-miterlimit="10" stroke-linecap="round" stroke-linejoin="round"/>
<path d="M4.80764 41C6.20957 41 7.34606 39.8807 7.34606 38.5C7.34606 37.1193 6.20957 36.0001 4.80764 36.0001C3.40571 36.0001 2.26923 37.1193 2.26923 38.5C2.26923 39.8807 3.40571 41 4.80764 41Z" stroke="#214759" stroke-width="2" stroke-miterlimit="10" stroke-linecap="round" stroke-linejoin="round"/>
<path d="M6.07693 12V3.90237C6.07693 3.68016 5.89396 3.49996 5.66832 3.49996H4.76433C4.08735 3.49996 3.53851 2.95944 3.53851 2.29272V1.40241C3.53851 1.1802 3.72149 1 3.94712 1H5.89208H8.75231H17.0914C17.317 1 17.5 1.1802 17.5 1.40241V2.29272C17.5 2.95944 16.9511 3.49996 16.2741 3.49996H15.3701C15.1444 3.49996 14.9615 3.68016 14.9615 3.90237C14.9615 3.90237 14.9615 11.1809 14.9615 12M8.61535 12C8.61535 11.1809 8.61535 3.90237 8.61535 3.90237C8.61535 3.68016 8.79832 3.49996 9.02395 3.49996H12.0144C12.2401 3.49996 12.423 3.68016 12.423 3.90237C12.423 3.90237 12.423 11.1809 12.423 12" stroke="#214759" stroke-width="2" stroke-miterlimit="10" stroke-linecap="round" stroke-linejoin="round"/>
<path d="M4.80768 38.5V36" stroke="#214759" stroke-width="2" stroke-miterlimit="10" stroke-linecap="round" stroke-linejoin="round"/>
<path d="M16.2307 41C17.6327 41 18.7692 39.8807 18.7692 38.5C18.7692 37.1193 17.6327 36.0001 16.2307 36.0001C14.8288 36.0001 13.6923 37.1193 13.6923 38.5C13.6923 39.8807 14.8288 41 16.2307 41Z" stroke="#214759" stroke-width="2" stroke-miterlimit="10" stroke-linecap="round" stroke-linejoin="round"/>
<path d="M16.2307 38.5V36" stroke="#214759" stroke-width="2" stroke-miterlimit="10" stroke-linecap="round" stroke-linejoin="round"/>
<path d="M4.80768 16V32.25" stroke="#214759" stroke-width="2" stroke-miterlimit="10" stroke-linecap="round" stroke-linejoin="round"/>
<path d="M8.61536 16V32.25" stroke="#214759" stroke-width="2" stroke-miterlimit="10" stroke-linecap="round" stroke-linejoin="round"/>
<path d="M12.423 16V32.25" stroke="#214759" stroke-width="2" stroke-miterlimit="10" stroke-linecap="round" stroke-linejoin="round"/>
<path d="M16.2307 16V32.25" stroke="#214759" stroke-width="2" stroke-miterlimit="10" stroke-linecap="round" stroke-linejoin="round"/>
</svg>
