<svg width="38" height="34" viewBox="0 0 38 34" fill="none" xmlns="http://www.w3.org/2000/svg">
<path d="M32.2143 16.6072C33.3497 17.1961 34.3181 18.0621 35.0298 19.1249C35.7415 20.1878 36.1736 21.413 36.2857 22.6872C36.2857 27.9257 28.3871 32.1872 18.6429 32.1872C8.89857 32.1872 1 27.9529 1 22.7143C1.10775 21.4354 1.53765 20.2046 2.24959 19.1367C2.96153 18.0688 3.93232 17.1985 5.07143 16.6072" stroke="#214759" stroke-width="2" stroke-linecap="round" stroke-linejoin="round"/>
<path d="M10.7172 3.71429C5.28867 10.5 16.1458 13.2143 10.7172 20" stroke="#214759" stroke-width="2" stroke-linecap="round" stroke-linejoin="round"/>
<path d="M18.6428 1C13.2142 7.78571 24.0713 15.9286 18.6428 22.7143" stroke="#214759" stroke-width="2" stroke-linecap="round" stroke-linejoin="round"/>
<path d="M26.5686 3.71429C21.14 10.5 31.9971 13.2143 26.5686 20" stroke="#214759" stroke-width="2" stroke-linecap="round" stroke-linejoin="round"/>
</svg>
