<svg width="37" height="42" viewBox="0 0 37 42" fill="none" xmlns="http://www.w3.org/2000/svg">
<path d="M27.4375 40.9992H9.54416C8.66904 40.9992 7.8295 40.655 7.20898 40.0418C6.58847 39.4285 6.23744 38.5962 6.2326 37.7265V37.3083L8.06219 11.4362H28.9927L30.8223 37.3083V37.7265C30.8199 38.1633 30.7301 38.5953 30.5581 38.9973C30.386 39.3993 30.1351 39.7632 29.8201 40.0678C29.505 40.3724 29.1321 40.6116 28.723 40.7716C28.314 40.9315 27.877 41.0088 27.4375 40.9992Z" stroke="#214759" stroke-width="2" stroke-miterlimit="10" stroke-linecap="round"/>
<path d="M13.2399 4.47266H23.7418C25.1344 4.47266 26.47 5.02242 27.4547 6.001C28.4395 6.97957 28.9927 8.30681 28.9927 9.69073V11.5089H7.98901V9.69073C7.98901 8.30681 8.54223 6.97957 9.52697 6.001C10.5117 5.02242 11.8473 4.47266 13.2399 4.47266Z" stroke="#214759" stroke-width="2" stroke-miterlimit="10" stroke-linecap="round"/>
<path d="M30.0905 28.8177H32.4872C33.4157 28.8177 34.3064 28.4524 34.9647 27.8017C35.623 27.1509 35.9952 26.2677 36 25.345V16.6543C35.9952 15.7316 35.623 14.8484 34.9647 14.1976C34.3064 13.5469 33.4157 13.1816 32.4872 13.1816H29.1025" stroke="#214759" stroke-width="2" stroke-miterlimit="10" stroke-linecap="round"/>
<path d="M7.98902 11.4362H1V13.1816L7.09253 25.745" stroke="#214759" stroke-width="2" stroke-miterlimit="10" stroke-linecap="round"/>
<path d="M18.4908 1V4.47266" stroke="#214759" stroke-width="2" stroke-miterlimit="10" stroke-linecap="round"/>
<path d="M18.4908 18.3997H18.5091C18.5091 18.3997 22.0037 18.3997 22.0037 21.8723V30.5812C22.0037 30.5812 22.0037 34.0539 18.5091 34.0539H18.4908C18.4908 34.0539 14.9963 34.0539 14.9963 30.5812V21.8723C14.9963 21.8723 14.9963 18.3997 18.4908 18.3997Z" stroke="#214759" stroke-width="2" stroke-miterlimit="10" stroke-linecap="round"/>
</svg>
