<svg width="32" height="42" viewBox="0 0 32 42" fill="none" xmlns="http://www.w3.org/2000/svg">
<path d="M31 37.9231L31 4.07692C31 2.37758 29.5076 1 27.6667 1L4.33333 0.999999C2.49233 0.999999 1 2.37758 1 4.07692L1 37.9231C1 39.6225 2.49233 41 4.33333 41L27.6667 41C29.5076 41 31 39.6225 31 37.9231Z" stroke="#214759" stroke-width="2" stroke-linecap="round" stroke-linejoin="round"/>
<path d="M11.2308 13.3077C11.2308 15.8567 13.2971 17.9231 15.8462 17.9231C18.3952 17.9231 20.4615 15.8567 20.4615 13.3077C20.4615 10.7587 18.3952 8.69232 15.8462 8.69232C13.2971 8.69232 11.2308 10.7587 11.2308 13.3077Z" stroke="#214759" stroke-width="2" stroke-linecap="round" stroke-linejoin="round"/>
<path d="M20.4615 25.6154L20.4615 33.3077" stroke="#214759" stroke-width="2" stroke-linecap="round" stroke-linejoin="round"/>
<path d="M11.2308 25.6154L11.2308 33.3077" stroke="#214759" stroke-width="2" stroke-linecap="round" stroke-linejoin="round"/>
</svg>
