<svg width="42" height="42" viewBox="0 0 42 42" fill="none" xmlns="http://www.w3.org/2000/svg">
<path d="M3.85714 35.2857V21.4413C3.85714 14.9847 3.97931 10.2761 4.10789 7.1085C4.23399 4.00149 6.38492 1.47093 9.48419 1.21758C11.0312 1.09111 12.9548 1 15.2857 1C17.6167 1 19.5402 1.0911 21.0872 1.21758C24.1865 1.47093 26.3374 4.00149 26.4635 7.1085C26.5921 10.2761 26.7143 14.9847 26.7143 21.4413V35.2857H27.6063C28.5115 35.2857 29.3303 35.7562 29.4683 36.6509C29.529 37.0446 29.5714 37.5366 29.5714 38.1429C29.5714 38.7491 29.529 39.2411 29.4683 39.6349C29.3303 40.5295 28.5115 41 27.6063 41H2.96516C2.05988 41 1.24113 40.5295 1.1031 39.6349C1.04236 39.2411 1 38.7491 1 38.1429C1 37.5366 1.04236 37.0446 1.1031 36.6509C1.24113 35.7562 2.05988 35.2857 2.96516 35.2857H3.85714Z" stroke="#214759" stroke-width="2" stroke-linecap="round" stroke-linejoin="round"/>
<path d="M19.7341 15.193C20.7314 15.14 21.5624 14.5588 21.7334 13.5749C21.8544 12.8795 21.9524 11.8934 21.9524 10.5238C21.9524 9.15419 21.8544 8.16809 21.7334 7.47276C21.5624 6.48881 20.7314 5.90762 19.7341 5.85458C18.8126 5.80557 17.3987 5.7619 15.2857 5.7619C13.1728 5.7619 11.7589 5.80557 10.8373 5.85458C9.84 5.90762 9.00905 6.48881 8.838 7.47276C8.71705 8.16809 8.61905 9.15419 8.61905 10.5238C8.61905 11.8934 8.71705 12.8795 8.838 13.5749C9.00905 14.5588 9.84 15.14 10.8373 15.193C11.7589 15.242 13.1728 15.2857 15.2857 15.2857C17.3987 15.2857 18.8126 15.242 19.7341 15.193Z" stroke="#214759" stroke-width="2" stroke-linecap="round" stroke-linejoin="round"/>
<path d="M13.6168 29.1633C12.11 28.971 10.8911 28.7498 10.0344 28.5728C9.36238 28.4339 9.10591 27.6535 9.5521 27.132C10.8273 25.6414 13.258 22.9065 15.8844 20.5078C16.4949 19.9503 17.4398 20.4192 17.3863 21.2441C17.2551 23.2662 17.0994 24.9044 16.9547 26.17C18.4614 26.3624 19.6803 26.5835 20.5371 26.7606C21.2091 26.8994 21.4655 27.6798 21.0193 28.2014C19.7441 29.6919 17.3134 32.4269 14.6871 34.8255C14.0766 35.3831 13.1316 34.9142 13.1851 34.0893C13.3164 32.0672 13.472 30.429 13.6168 29.1633Z" stroke="#214759" stroke-width="2" stroke-linecap="round" stroke-linejoin="round"/>
<path d="M26.7143 30.5238H36.5828C39.0223 30.5238 41 28.5461 41 26.1066C41 24.6933 40.3238 23.3654 39.1809 22.5341L37.3308 21.1886C36.3451 20.4717 35.7619 19.3265 35.7619 18.1077V12.4286" stroke="#214759" stroke-width="2" stroke-linecap="round" stroke-linejoin="round"/>
<path d="M33.4128 6.74865C32.4413 6.78228 31.638 7.34015 31.5361 8.30677C31.4999 8.65039 31.4762 9.06763 31.4762 9.57144C31.4762 9.75239 31.4792 9.9221 31.4849 10.0813C31.536 11.5383 32.7114 12.3857 34.1691 12.4144C34.6147 12.4232 35.1413 12.4286 35.7619 12.4286C36.3824 12.4286 36.9091 12.4232 37.3548 12.4144C38.8124 12.3857 39.9878 11.5383 40.039 10.0813C40.0446 9.9221 40.0476 9.75239 40.0476 9.57144C40.0476 9.06763 40.0239 8.65039 39.9877 8.30677C39.8858 7.34015 39.0825 6.78228 38.1111 6.74865C37.5424 6.72895 36.7778 6.71429 35.7619 6.71429C34.746 6.71429 33.9814 6.72895 33.4128 6.74865Z" stroke="#214759" stroke-width="2" stroke-linecap="round" stroke-linejoin="round"/>
<path d="M38.1429 6.71425V2.90472" stroke="#214759" stroke-width="2" stroke-linecap="round" stroke-linejoin="round"/>
<path d="M33.381 6.71425V2.90472" stroke="#214759" stroke-width="2" stroke-linecap="round" stroke-linejoin="round"/>
</svg>
