<svg width="42" height="42" viewBox="0 0 42 42" fill="none" xmlns="http://www.w3.org/2000/svg">
<path d="M2.73913 1H39.2609C39.2609 1 41 1 41 2.73913V39.2609C41 39.2609 41 41 39.2609 41H2.73913C2.73913 41 1 41 1 39.2609V2.73913C1 2.73913 1 1 2.73913 1Z" stroke="#214759" stroke-width="2" stroke-linecap="round" stroke-linejoin="round"/>
<path d="M18.3914 41V11.4348" stroke="#214759" stroke-width="2" stroke-linecap="round" stroke-linejoin="round"/>
<path d="M30.5652 41V12.3043C30.5652 12.0737 30.4736 11.8525 30.3105 11.6895C30.1475 11.5264 29.9263 11.4348 29.6957 11.4348H7.08697C6.85635 11.4348 6.63517 11.5264 6.4721 11.6895C6.30902 11.8525 6.21741 12.0737 6.21741 12.3043V41" stroke="#214759" stroke-width="2" stroke-linecap="round" stroke-linejoin="round"/>
<path d="M34.0435 19.2609C34.0435 19.7221 34.2267 20.1645 34.5528 20.4906C34.879 20.8168 35.3213 21 35.7826 21C36.2438 21 36.6862 20.8168 37.0123 20.4906C37.3385 20.1645 37.5217 19.7221 37.5217 19.2609C37.5217 18.7996 37.3385 18.3573 37.0123 18.0311C36.6862 17.705 36.2438 17.5217 35.7826 17.5217C35.3213 17.5217 34.879 17.705 34.5528 18.0311C34.2267 18.3573 34.0435 18.7996 34.0435 19.2609Z" stroke="#214759" stroke-width="2" stroke-linecap="round" stroke-linejoin="round"/>
<path d="M34.0435 27.9565C34.0435 28.4178 34.2267 28.8601 34.5528 29.1863C34.879 29.5124 35.3213 29.6957 35.7826 29.6957C36.2438 29.6957 36.6862 29.5124 37.0123 29.1863C37.3385 28.8601 37.5217 28.4178 37.5217 27.9565C37.5217 27.4953 37.3385 27.0529 37.0123 26.7268C36.6862 26.4006 36.2438 26.2174 35.7826 26.2174C35.3213 26.2174 34.879 26.4006 34.5528 26.7268C34.2267 27.0529 34.0435 27.4953 34.0435 27.9565Z" stroke="#214759" stroke-width="2" stroke-linecap="round" stroke-linejoin="round"/>
<path d="M14.9131 6.21739H21.8696" stroke="#214759" stroke-width="2" stroke-linecap="round" stroke-linejoin="round"/>
</svg>
