<svg width="42" height="42" viewBox="0 0 42 42" fill="none" xmlns="http://www.w3.org/2000/svg">
<path d="M15.2859 3.85715C15.2859 2.2792 16.565 1 18.143 1H38.1428C39.7207 1 41 2.2792 41 3.85715V38.1427C41 39.7209 39.7207 41 38.1428 41H28.1429" stroke="#214759" stroke-width="2" stroke-linecap="round" stroke-linejoin="round"/>
<path d="M19.5695 16.0015C19.5695 16.6584 19.6988 17.3087 19.9502 17.9156C20.2015 18.5224 20.5699 19.0738 21.0344 19.5382C21.4988 20.0026 22.0502 20.3711 22.657 20.6224C23.2638 20.8738 23.9142 21.0031 24.571 21.0031C25.2278 21.0031 25.8782 20.8738 26.485 20.6224C27.0918 20.3711 27.6432 20.0026 28.1077 19.5382C28.5721 19.0738 28.9405 18.5224 29.1919 17.9156C29.4432 17.3087 29.5726 16.6584 29.5726 16.0015C29.5726 14.675 29.0456 13.4029 28.1077 12.4649C27.1697 11.5269 25.8975 10.9999 24.571 10.9999C23.2445 10.9999 21.9724 11.5269 21.0344 12.4649C20.0964 13.4029 19.5695 14.675 19.5695 16.0015Z" stroke="#214759" stroke-width="2" stroke-linecap="round" stroke-linejoin="round"/>
<path d="M6.71399 18.1429L12.5317 18.143C13.3804 18.143 14.1943 18.4802 14.7944 19.0803L22.9198 27.2058C23.5199 27.8059 24.3339 28.143 25.1826 28.143L29.571 28.1429" stroke="#214759" stroke-width="2" stroke-linecap="round" stroke-linejoin="round"/>
<path d="M18.1427 22.4285L10.5086 30.0627C9.9085 30.6627 9.09456 31 8.24589 31H1" stroke="#214759" stroke-width="2" stroke-linecap="round" stroke-linejoin="round"/>
<path d="M12.4285 28.143L17.2055 32.92C17.8056 33.52 18.1427 34.3341 18.1427 35.1827V41" stroke="#214759" stroke-width="2" stroke-linecap="round" stroke-linejoin="round"/>
</svg>
