<svg width="38" height="42" viewBox="0 0 38 42" fill="none" xmlns="http://www.w3.org/2000/svg">
<path d="M8.88487 36.7113C8.93669 37.2548 8.87352 37.8029 8.6994 38.3207C8.52528 38.8385 8.24406 39.3145 7.87375 39.7183C7.50343 40.122 7.05219 40.4446 6.54892 40.6653C6.04566 40.886 5.50147 41 4.95122 41C4.40096 41 3.85677 40.886 3.3535 40.6653C2.85024 40.4446 2.399 40.122 2.02868 39.7183C1.65837 39.3145 1.37714 38.8385 1.20303 38.3207C1.02891 37.8029 0.96574 37.2548 1.01756 36.7113L2.22927 25.3534C2.29381 24.7718 2.26417 24.1837 2.14146 23.6114L1.43902 21.2074C1.4149 21.08 1.41807 20.9491 1.44832 20.823C1.47858 20.697 1.53524 20.5786 1.61463 20.4757C1.70041 20.3789 1.80566 20.301 1.92361 20.247C2.04157 20.193 2.16961 20.1641 2.29951 20.1622H7.5678C7.69769 20.1641 7.82574 20.193 7.94369 20.247C8.06165 20.301 8.1669 20.3789 8.25267 20.4757C8.33206 20.5786 8.38873 20.697 8.41899 20.823C8.44924 20.9491 8.45241 21.08 8.42828 21.2074L7.93658 23.681C7.75116 24.2434 7.65634 24.8313 7.6556 25.4231L8.88487 36.7113Z" stroke="#214759" stroke-width="2" stroke-linecap="round" stroke-linejoin="round"/>
<path d="M11.9756 11.4521C11.9189 10.104 12.1369 8.7585 12.6164 7.49593C13.096 6.23336 13.8274 5.0797 14.7667 4.10395C15.7061 3.1282 16.8342 2.35041 18.0836 1.81708C19.3329 1.28376 20.6779 1.00585 22.038 1C24.9582 1 27.7589 2.15075 29.8238 4.19911C31.8887 6.24747 33.0487 9.02563 33.0487 11.9224V20.1622" stroke="#214759" stroke-width="2" stroke-linecap="round" stroke-linejoin="round"/>
<path d="M11.9756 11.4521C11.9756 13.3001 12.7156 15.0725 14.0329 16.3793C15.3503 17.686 17.137 18.4202 18.9999 18.4202C20.8629 18.4202 22.6496 17.686 23.9669 16.3793C25.2842 15.0725 26.0243 13.3001 26.0243 11.4521C26.0243 8.68003 24.9142 6.0215 22.9382 4.06135C20.9622 2.1012 18.2822 1 15.4877 1C12.6933 1 10.0133 2.1012 8.03726 4.06135C6.06127 6.0215 4.95117 8.68003 4.95117 11.4521V20.1622" stroke="#214759" stroke-width="2" stroke-linecap="round" stroke-linejoin="round"/>
<path d="M7.67314 25.3882H2.22925" stroke="#214759" stroke-width="2" stroke-linecap="round" stroke-linejoin="round"/>
<path d="M36.9824 36.7113C37.0342 37.2548 36.9711 37.8029 36.7969 38.3207C36.6228 38.8385 36.3416 39.3145 35.9713 39.7183C35.601 40.122 35.1497 40.4446 34.6465 40.6653C34.1432 40.886 33.599 41 33.0487 41C32.4985 41 31.9543 40.886 31.451 40.6653C30.9478 40.4446 30.4965 40.122 30.1262 39.7183C29.7559 39.3145 29.4747 38.8385 29.3006 38.3207C29.1264 37.8029 29.0633 37.2548 29.1151 36.7113L30.3268 25.3534C30.3913 24.7718 30.3617 24.1837 30.239 23.6114L29.5366 21.2074C29.5124 21.08 29.5156 20.9491 29.5459 20.823C29.5761 20.697 29.6328 20.5786 29.7122 20.4757C29.7979 20.3789 29.9032 20.301 30.0211 20.247C30.1391 20.193 30.2671 20.1641 30.397 20.1622H35.6653C35.7952 20.1641 35.9233 20.193 36.0412 20.247C36.1592 20.301 36.2644 20.3789 36.3502 20.4757C36.4296 20.5786 36.4863 20.697 36.5165 20.823C36.5468 20.9491 36.5499 21.08 36.5258 21.2074L35.8409 23.681C35.7182 24.2534 35.6886 24.8415 35.7531 25.4231L36.9824 36.7113Z" stroke="#214759" stroke-width="2" stroke-linecap="round" stroke-linejoin="round"/>
<path d="M35.7707 25.3882H30.3268" stroke="#214759" stroke-width="2" stroke-linecap="round" stroke-linejoin="round"/>
</svg>
