<svg width="42" height="42" viewBox="0 0 42 42" fill="none" xmlns="http://www.w3.org/2000/svg">
<path d="M31.7719 24.425C31.872 25.5491 30.4775 26.5202 28.8839 26.2641L25.6956 25.7513C25.4988 25.7198 25.2975 25.7064 25.0963 25.7116L18.5193 25.8867L11.9421 25.7116C11.7409 25.7064 11.5396 25.7198 11.3428 25.7513L8.15452 26.2641C6.34012 26.5557 4.78348 25.2562 5.39748 23.9514C5.40961 23.9259 5.42201 23.8998 5.4347 23.8735C6.44377 21.8069 5.91966 20.0491 5.70021 19.4866C5.6459 19.3475 5.61337 19.2042 5.60454 19.0595L5.49619 17.2853L5.60454 15.5111C5.61335 15.3665 5.64588 15.2232 5.70021 15.0841C5.91966 14.5216 6.44377 12.7637 5.4347 10.6972C5.42201 10.6709 5.40961 10.6448 5.39748 10.6193C4.78348 9.31451 6.34012 8.01494 8.15452 8.30657L10.1887 8.6337L11.3428 8.81936C11.5396 8.85092 11.7409 8.86432 11.9421 8.85907L13.9316 8.80621L18.5193 8.68394L25.0962 8.85907C25.2975 8.86432 25.4988 8.85092 25.6956 8.81936L28.8839 8.30659C30.6983 8.01496 32.2549 9.31451 31.6409 10.6193C31.6291 10.6448 31.6164 10.6709 31.6037 10.6972C30.5946 12.7638 31.1187 14.5216 31.3382 15.0841C31.3925 15.2232 31.425 15.3665 31.4341 15.5112L31.5422 17.2854L31.4341 19.0596C31.425 19.2042 31.3925 19.3475 31.3382 19.4866C31.291 19.607 31.2301 19.7827 31.173 20.0044C30.9646 20.8169 30.811 22.25 31.6037 23.8735C31.6164 23.8998 31.6291 23.9259 31.6409 23.9514C31.7159 24.1102 31.7584 24.269 31.7719 24.425Z" stroke="#214759" stroke-width="2" stroke-miterlimit="10" stroke-linecap="round" stroke-linejoin="round"/>
<path d="M10.1887 8.63371L10.6323 7.48852C10.685 7.35257 10.76 7.22452 10.8546 7.10644C11.2364 6.62943 12.2747 5.09349 11.9411 2.83624C11.9367 2.80757 11.9328 2.77918 11.929 2.7513C11.7404 1.33238 13.6265 0.521927 15.2733 1.30555L16.7646 2.01528L18.1662 2.68214C18.3449 2.76708 18.5335 2.83571 18.7276 2.88646L25.0726 4.54731L31.3107 6.54292C31.5018 6.60392 31.6983 6.64705 31.8963 6.6715L35.1027 7.06725C36.9276 7.2926 38.0197 8.96819 37.0335 10.0458C37.0142 10.0671 36.9943 10.0884 36.9742 10.1099C35.3773 11.8063 35.3415 13.6336 35.3798 14.2326C35.3892 14.3809 35.3765 14.5269 35.341 14.6678L34.9023 16.3952L34.2566 18.0621C34.204 18.1981 34.129 18.3261 34.0347 18.4442C33.7546 18.7939 33.121 19.7143 32.9352 21.0709C32.8676 21.5634 32.8594 22.1133 32.9481 22.7144C32.9523 22.743 32.9564 22.7715 32.96 22.7993C33.0637 23.5803 32.5393 24.177 31.772 24.4249" stroke="#214759" stroke-width="2" stroke-miterlimit="10" stroke-linecap="round" stroke-linejoin="round"/>
<path d="M30.9091 35.5375H3.86364M3.86364 35.5375C2.28209 35.5375 1 36.7603 1 38.2688C1 39.7772 2.28209 41 3.86364 41H35.1818C38.3951 41 41 38.5156 41 35.4508C41 32.386 38.3951 29.9016 35.1818 29.9016H3.86364C2.28209 29.9016 1 31.1244 1 32.6328V32.8062C1 34.3147 2.28209 35.5375 3.86364 35.5375Z" stroke="#214759" stroke-width="2" stroke-miterlimit="10" stroke-linecap="round" stroke-linejoin="round"/>
<path d="M33.1931 33.359L30.9091 35.5375L33.1875 37.7106" stroke="#214759" stroke-width="2" stroke-miterlimit="10" stroke-linecap="round" stroke-linejoin="round"/>
<path d="M1.13672 31.7981V31.7976L2.36123 22.75C2.36123 21.7416 3.2185 20.9244 4.27575 20.9244H6.01688" stroke="#214759" stroke-width="2" stroke-miterlimit="10" stroke-linecap="round" stroke-linejoin="round"/>
<path d="M40.5973 33.4187V33.4183L38.4838 22.75C38.4838 21.7416 37.6266 20.9244 36.5698 20.9244H32.9577H32.9572" stroke="#214759" stroke-width="2" stroke-miterlimit="10" stroke-linecap="round" stroke-linejoin="round"/>
</svg>
