<svg width="42" height="42" viewBox="0 0 42 42" fill="none" xmlns="http://www.w3.org/2000/svg">
<path d="M5 1L1 5.44444V38.7778C1 40.1111 1.8 41 3 41H7C8.2 41 9 40.1111 9 38.7778V5.44444L5 1Z" stroke="#214759" stroke-width="2" stroke-linecap="round" stroke-linejoin="round"/>
<path d="M8.99988 14H16.9999" stroke="#214759" stroke-width="2" stroke-linecap="round" stroke-linejoin="round"/>
<path d="M8.99988 28H16.9999" stroke="#214759" stroke-width="2" stroke-linecap="round" stroke-linejoin="round"/>
<path d="M8.99988 18.8889H16.9999" stroke="#214759" stroke-width="2" stroke-linecap="round" stroke-linejoin="round"/>
<path d="M8.99988 32.8889H16.9999" stroke="#214759" stroke-width="2" stroke-linecap="round" stroke-linejoin="round"/>
<path d="M21 1L17 5.44444V38.7778C17 40.1111 17.8 41 19 41H23C24.2 41 25 40.1111 25 38.7778V5.44444L21 1Z" stroke="#214759" stroke-width="2" stroke-linecap="round" stroke-linejoin="round"/>
<path d="M25 14H33" stroke="#214759" stroke-width="2" stroke-linecap="round" stroke-linejoin="round"/>
<path d="M25 28H33" stroke="#214759" stroke-width="2" stroke-linecap="round" stroke-linejoin="round"/>
<path d="M25 18.8889H33" stroke="#214759" stroke-width="2" stroke-linecap="round" stroke-linejoin="round"/>
<path d="M25 32.8889H33" stroke="#214759" stroke-width="2" stroke-linecap="round" stroke-linejoin="round"/>
<path d="M37 1L33 5.44444V38.7778C33 40.1111 33.8 41 35 41H39C40.2 41 41 40.1111 41 38.7778V5.44444L37 1Z" stroke="#214759" stroke-width="2" stroke-linecap="round" stroke-linejoin="round"/>
</svg>
