<svg width="38" height="42" viewBox="0 0 38 42" fill="none" xmlns="http://www.w3.org/2000/svg">
<path d="M1 17.8334C1 11.4381 1 8.24056 1.75504 7.16482C2.51006 6.08908 5.51664 5.05992 11.5298 3.00158L12.6754 2.60944C15.81 1.53648 17.3772 1 19 1C20.6228 1 22.19 1.53648 25.3246 2.60944L26.4702 3.00158C32.4834 5.05992 35.49 6.08908 36.245 7.16482C37 8.24056 37 11.4381 37 17.8334V20.9828C37 32.2588 28.522 37.731 23.2028 40.0546C21.76 40.6848 21.0386 41 19 41C16.9614 41 16.24 40.6848 14.7971 40.0546C9.47792 37.731 1 32.2588 1 20.9828V17.8334Z" stroke="#214759" stroke-width="2" stroke-linecap="round"/>
<path d="M27 23.6911C27 24.6509 26.806 25.6014 26.4291 26.4881C26.0522 27.3749 25.4997 28.1806 24.8033 28.8593C24.1069 29.538 23.2801 30.0763 22.3701 30.4436C21.4602 30.811 20.4849 31 19.5 31C18.5151 31 17.5398 30.811 16.6299 30.4436C15.7199 30.0763 14.8931 29.538 14.1967 28.8593C13.5003 28.1806 12.9478 27.3749 12.5709 26.4881C12.194 25.6014 12 24.6509 12 23.6911C12 19.3548 14.6415 16.9952 16.717 14.6048L17.9434 16.3823L19.5 12C19.5 12 27 16.3823 27 23.6911Z" stroke="#214759" stroke-width="2" stroke-miterlimit="10" stroke-linecap="round"/>
<path d="M23.25 28.0929C23.25 28.8639 22.8549 29.6033 22.1516 30.1485C21.4484 30.6937 20.4946 31 19.5 31C18.5054 31 17.5516 30.6937 16.8483 30.1485C16.1451 29.6033 15.75 28.8639 15.75 28.0929C15.75 25.1858 19.5 22.8571 19.5 22.8571C19.5 22.8571 23.25 25.1858 23.25 28.0929Z" stroke="#214759" stroke-width="2" stroke-miterlimit="10" stroke-linecap="round"/>
</svg>
