<svg width="37" height="42" viewBox="0 0 37 42" fill="none" xmlns="http://www.w3.org/2000/svg">
<path d="M26.2411 1.45581V3.91553" stroke="#214759" stroke-width="2" stroke-miterlimit="10" stroke-linecap="round" stroke-linejoin="round"/>
<path d="M6.86084 3.91553V6.37524" stroke="#214759" stroke-width="2" stroke-miterlimit="10" stroke-linecap="round" stroke-linejoin="round"/>
<path d="M31.2178 4.73547V7.19519" stroke="#214759" stroke-width="2" stroke-miterlimit="10" stroke-linecap="round" stroke-linejoin="round"/>
<path d="M22.9073 25.841C23.6482 24.9035 24.091 23.7245 24.091 22.4427C24.091 21.5782 23.7993 20.8274 23.3504 20.049C22.894 20.3474 22.3335 20.5028 21.7339 20.4487C20.5198 20.3395 19.5484 19.3547 19.4662 18.1523C19.45 17.9157 19.4674 17.6855 19.5142 17.4661C19.7673 16.2792 19.6763 15.0447 18.7915 14.2043C18.7637 14.1779 18.749 14.1642 18.749 14.1642C16.5649 17.6616 12.9093 18.1315 12.9093 22.4426C12.9093 23.7245 13.352 24.9034 14.0929 25.8409" stroke="#214759" stroke-width="2" stroke-miterlimit="10" stroke-linecap="round" stroke-linejoin="round"/>
<path d="M18.5 34.8599V41" stroke="#214759" stroke-width="2" stroke-miterlimit="10" stroke-linecap="round" stroke-linejoin="round"/>
<path d="M26.3789 34.8599L27.3179 37.0833C28.005 38.7105 29.6141 39.7702 31.398 39.7702H34.3411" stroke="#214759" stroke-width="2" stroke-miterlimit="10" stroke-linecap="round" stroke-linejoin="round"/>
<path d="M10.6211 34.8599L9.68214 37.0833C8.99498 38.7105 7.38587 39.7702 5.60201 39.7702H2.65881" stroke="#214759" stroke-width="2" stroke-miterlimit="10" stroke-linecap="round" stroke-linejoin="round"/>
<path d="M27.9386 25.841C29.4929 23.851 30.4183 21.3563 30.4183 18.6477C30.4183 15.9132 29.0534 13.7135 27.2475 11.0616C26.6652 11.4062 25.9838 11.6041 25.2553 11.6025C23.1928 11.5978 21.4772 9.964 21.3999 7.92667C21.3976 7.8669 21.3967 7.80738 21.3972 7.74819C21.418 5.20198 20.6235 2.75973 18.7556 1.00639C18.7511 1.00213 18.7488 1 18.7488 1C14.9656 7.57561 6.58154 9.45733 6.58154 18.6477C6.58154 21.3563 7.5069 23.851 9.06127 25.841" stroke="#214759" stroke-width="2" stroke-miterlimit="10" stroke-linecap="round" stroke-linejoin="round"/>
<path d="M9.22039 34.8599H27.7795C32.3196 34.8599 36 31.2218 36 26.7341V25.841H1V26.7341C1 31.2218 4.68036 34.8599 9.22039 34.8599Z" stroke="#214759" stroke-width="2" stroke-miterlimit="10" stroke-linecap="round" stroke-linejoin="round"/>
</svg>
