<svg width="28" height="42" viewBox="0 0 28 42" fill="none" xmlns="http://www.w3.org/2000/svg">
<path d="M21 9.99999V3C21 2.73735 20.9483 2.47728 20.8478 2.23463C20.7473 1.99198 20.5999 1.7715 20.4142 1.58579C20.2285 1.40007 20.008 1.25275 19.7654 1.15224C19.5227 1.05173 19.2627 1 19 1H15C14.4696 1 13.9609 1.21071 13.5858 1.58579C13.2107 1.96086 13 2.46957 13 3V9.99999" stroke="#214759" stroke-width="2" stroke-linecap="round" stroke-linejoin="round"/>
<path d="M9 32.9999H25" stroke="#214759" stroke-width="2" stroke-linecap="round" stroke-linejoin="round"/>
<path d="M27 3H21" stroke="#214759" stroke-width="2" stroke-linecap="round" stroke-linejoin="round"/>
<path d="M13 3C9.81742 3 6.76516 4.26428 4.51472 6.51471C2.26428 8.76515 1 11.8174 1 15V37" stroke="#214759" stroke-width="2" stroke-linecap="round" stroke-linejoin="round"/>
<path d="M1 23H9.00001" stroke="#214759" stroke-width="2" stroke-linecap="round" stroke-linejoin="round"/>
<path d="M25 17.0001C25 14.8783 24.1572 12.8435 22.6569 11.3432C21.1566 9.84291 19.1217 9.00006 17 9.00006C14.8783 9.00006 12.8434 9.84291 11.3431 11.3432C9.84286 12.8435 9 14.8783 9 17.0001V37C9 37.5253 9.10346 38.0455 9.30448 38.5308C9.5055 39.0161 9.80014 39.457 10.1716 39.8285C10.543 40.1999 10.984 40.4945 11.4693 40.6955C11.9546 40.8966 12.4747 41 13 41H21C22.0609 41 23.0783 40.5786 23.8285 39.8285C24.5786 39.0783 25 38.0609 25 37V17.0001Z" stroke="#214759" stroke-width="2" stroke-linecap="round" stroke-linejoin="round"/>
</svg>
