<svg width="46" height="42" viewBox="0 0 46 42" fill="none" xmlns="http://www.w3.org/2000/svg">
<path d="M4.61902 8.27619H40.9809V41H4.61902V8.27619Z" stroke="#214759" stroke-width="2" stroke-miterlimit="10" stroke-linecap="round" stroke-linejoin="round"/>
<path d="M22.8095 19.0952C25.7041 19.0952 28.4802 20.2451 30.527 22.292C32.5738 24.3388 33.7237 27.1149 33.7237 30.0095V41H11.8952V30.0857C11.8851 28.646 12.16 27.2186 12.704 25.8856C13.248 24.5526 14.0503 23.3404 15.0648 22.3188C16.0793 21.2973 17.2859 20.4865 18.6151 19.9333C19.9442 19.38 21.3697 19.0952 22.8095 19.0952Z" stroke="#214759" stroke-width="2" stroke-miterlimit="10" stroke-linecap="round" stroke-linejoin="round"/>
<path d="M1 8.27619H44.619" stroke="#214759" stroke-width="2" stroke-miterlimit="10" stroke-linecap="round" stroke-linejoin="round"/>
<path d="M6.44763 1H39.1714V8.27619H6.44763V1Z" stroke="#214759" stroke-width="2" stroke-miterlimit="10" stroke-linecap="round" stroke-linejoin="round"/>
<path d="M28.2572 35.5524C28.2572 36.9972 27.6832 38.3828 26.6616 39.4044C25.64 40.4261 24.2544 41 22.8096 41C21.3648 41 19.9791 40.4261 18.9575 39.4044C17.9359 38.3828 17.3619 36.9972 17.3619 35.5524C17.3619 32.5238 22.8096 27.3619 22.8096 27.3619C22.8096 27.3619 28.2572 32.5238 28.2572 35.5524Z" stroke="#214759" stroke-width="2" stroke-miterlimit="10" stroke-linecap="round" stroke-linejoin="round"/>
<path d="M1 41H44.619" stroke="#214759" stroke-width="2" stroke-miterlimit="10" stroke-linecap="round" stroke-linejoin="round"/>
</svg>
