<svg width="42" height="42" viewBox="0 0 42 42" fill="none" xmlns="http://www.w3.org/2000/svg">
<path d="M11.0001 11V6.00001C11.0001 4.67392 11.5269 3.40215 12.4646 2.46447C13.4023 1.52679 14.674 1 16.0001 1H26.0001C27.3262 1 28.598 1.52679 29.5357 2.46447C30.4733 3.40215 31.0001 4.67392 31.0001 6.00001V11" stroke="#214759" stroke-width="2" stroke-linecap="round" stroke-linejoin="round"/>
<path d="M1 15.9999C1 14.6739 1.52678 13.4021 2.46447 12.4644C3.40215 11.5267 4.67392 10.9999 6 10.9999H36C37.3261 10.9999 38.5979 11.5267 39.5355 12.4644C40.4732 13.4021 41 14.6739 41 15.9999V36C41 37.3261 40.4732 38.5978 39.5355 39.5355C38.5979 40.4732 37.3261 41 36 41H6C4.67392 41 3.40215 40.4732 2.46447 39.5355C1.52678 38.5978 1 37.3261 1 36V15.9999Z" stroke="#214759" stroke-width="2" stroke-linecap="round" stroke-linejoin="round"/>
<path d="M16 26H26" stroke="#214759" stroke-width="2" stroke-linecap="round" stroke-linejoin="round"/>
<path d="M21 21V31" stroke="#214759" stroke-width="2" stroke-linecap="round" stroke-linejoin="round"/>
</svg>
