<svg width="26" height="42" viewBox="0 0 26 42" fill="none" xmlns="http://www.w3.org/2000/svg">
<path d="M18.5393 8.68433L18.5393 6.72103C18.5393 5.88151 18.312 5.05351 17.8753 4.3026L17.2772 3.27387C17.2587 3.24224 17.2211 3.2222 17.18 3.2222L14.73 3.2222C14.6888 3.2222 14.6512 3.24216 14.6329 3.27387L14.0347 4.3026C13.5981 5.05351 13.3707 5.88151 13.3707 6.72103L13.3707 8.68433C13.3707 8.73592 13.4194 8.77777 13.4794 8.77777L18.4306 8.77777C18.4906 8.77777 18.5393 8.73592 18.5393 8.68433Z" stroke="#214759" stroke-width="2" stroke-miterlimit="10" stroke-linecap="round" stroke-linejoin="round"/>
<path d="M15.955 3.22223L15.955 1.00002" stroke="#214759" stroke-width="2" stroke-miterlimit="10" stroke-linecap="round" stroke-linejoin="round"/>
<path d="M5.18628 29.6046L1.04492 31.1644" stroke="#214759" stroke-width="2" stroke-miterlimit="10" stroke-linecap="round" stroke-linejoin="round"/>
<path d="M6.94154 23.9713L2.35065 25.7009" stroke="#214759" stroke-width="2" stroke-miterlimit="10" stroke-linecap="round" stroke-linejoin="round"/>
<path d="M8.69704 18.338L5.03387 19.718" stroke="#214759" stroke-width="2" stroke-miterlimit="10" stroke-linecap="round" stroke-linejoin="round"/>
<path d="M14.2796 28.4494L11.3094 24.9777" stroke="#214759" stroke-width="2" stroke-miterlimit="10" stroke-linecap="round" stroke-linejoin="round"/>
<path d="M15.4348 22.1144L13.0649 19.3444" stroke="#214759" stroke-width="2" stroke-miterlimit="10" stroke-linecap="round" stroke-linejoin="round"/>
<path d="M1.88403 37.4312C2.69513 39.6623 3.79723 40.9564 3.97675 40.9978C4.24331 41.0592 7.87662 39.6034 10.8369 35.8177C10.8532 35.7969 10.8583 35.7709 10.8509 35.7467L9.2597 30.5476C9.23143 30.4552 9.37239 30.3973 9.43818 30.4742L12.1349 33.626C12.1798 33.6785 12.2739 33.6717 12.3069 33.613C12.8816 32.5909 13.389 31.4482 13.7854 30.176C16.2899 22.1389 16.3629 12.6568 13.0463 11.8926C9.72974 11.1284 4.27944 19.3715 1.77499 27.4088C0.9125 30.1767 0.861117 32.6397 1.17962 34.683" stroke="#214759" stroke-width="2" stroke-miterlimit="10" stroke-linecap="round" stroke-linejoin="round"/>
<path d="M14.0209 8.76449L6.31726 33.4868" stroke="#214759" stroke-width="2" stroke-miterlimit="10" stroke-linecap="round" stroke-linejoin="round"/>
<path d="M14.4161 27.9203C14.4372 27.9988 14.4591 28.077 14.4817 28.1552L14.6628 28.7778L17.2471 28.7778L17.4281 28.1552C17.7369 27.0928 17.8931 26.0018 17.8931 24.9068L17.8931 8.77785" stroke="#214759" stroke-width="2" stroke-miterlimit="10" stroke-linecap="round" stroke-linejoin="round"/>
<path d="M14.0167 8.77777L14.0167 12.4456" stroke="#214759" stroke-width="2" stroke-miterlimit="10" stroke-linecap="round" stroke-linejoin="round"/>
<path d="M25 32.4263L25 29.0137C25 28.9355 24.8854 28.9009 24.8285 28.962L19.9566 34.1987C19.9061 34.2529 19.951 34.3332 20.0317 34.3332L22.3194 34.3332C22.3726 34.3332 22.4157 34.3703 22.4157 34.416L22.4157 36.5556C22.4157 37.7828 21.2587 38.7778 19.8314 38.7778C18.4042 38.7778 17.2471 37.7828 17.2471 36.5556L17.2471 28.7778" stroke="#214759" stroke-width="2" stroke-miterlimit="10" stroke-linecap="round" stroke-linejoin="round"/>
<path d="M14.6628 28.7778L14.6628 36.5556C14.6628 39.0101 16.9769 41 19.8314 41C22.686 41 25 39.0101 25 36.5556L25 35.2434" stroke="#214759" stroke-width="2" stroke-miterlimit="10" stroke-linecap="round" stroke-linejoin="round"/>
</svg>
