<svg width="42" height="27" viewBox="0 0 42 27" fill="none" xmlns="http://www.w3.org/2000/svg">
<path d="M6.81136 3.59733C6.84168 2.33905 7.5534 1.21295 8.80371 1.0681C9.16343 1.02648 9.57705 1 10.0476 1C10.5182 1 10.9318 1.02648 11.2915 1.0681C12.5418 1.21295 13.2535 2.33905 13.2839 3.59733C13.3285 5.44876 13.381 8.63524 13.381 13.3809C13.381 18.1267 13.3285 21.3131 13.2839 23.1646C13.2535 24.4229 12.5418 25.5489 11.2915 25.6938C10.9318 25.7354 10.5182 25.7619 10.0476 25.7619C9.57705 25.7619 9.16343 25.7354 8.80371 25.6938C7.55341 25.5489 6.84169 24.4229 6.81136 23.1646C6.76676 21.3131 6.71429 18.1267 6.71429 13.3809C6.71429 8.63524 6.76675 5.44876 6.81136 3.59733Z" stroke="#214759" stroke-width="2" stroke-linecap="round" stroke-linejoin="round"/>
<path d="M35.1887 3.59733C35.1583 2.33905 34.4466 1.21295 33.1963 1.0681C32.8366 1.02648 32.4229 1 31.9524 1C31.4818 1 31.0682 1.02648 30.7085 1.0681C29.4582 1.21295 28.7465 2.33905 28.7161 3.59733C28.6715 5.44876 28.619 8.63524 28.619 13.3809C28.619 18.1267 28.6715 21.3131 28.7161 23.1646C28.7465 24.4229 29.4582 25.5489 30.7085 25.6938C31.0682 25.7354 31.4818 25.7619 31.9524 25.7619C32.4229 25.7619 32.8366 25.7354 33.1963 25.6938C34.4466 25.5489 35.1583 24.4229 35.1887 23.1646C35.2332 21.3131 35.2857 18.1267 35.2857 13.3809C35.2857 8.63524 35.2332 5.44876 35.1887 3.59733Z" stroke="#214759" stroke-width="2" stroke-linecap="round" stroke-linejoin="round"/>
<path d="M13.3742 16.221C15.2877 16.2313 17.5061 16.2381 20.0475 16.2381C23.4818 16.2381 26.3264 16.2258 28.6255 16.2087" stroke="#214759" stroke-width="2" stroke-linecap="round" stroke-linejoin="round"/>
<path d="M28.6248 10.5532C26.3257 10.5361 23.4811 10.5238 20.0468 10.5238C17.5054 10.5238 15.2869 10.5306 13.3735 10.541" stroke="#214759" stroke-width="2" stroke-linecap="round" stroke-linejoin="round"/>
<path d="M1.05261 8.43117C1.08691 7.01193 1.98924 5.81403 3.40817 5.76888C3.55053 5.76441 3.70014 5.76193 3.85714 5.76193C4.01414 5.76193 4.16374 5.76441 4.30611 5.76888C5.72504 5.81403 6.62736 7.01193 6.66166 8.43117C6.68984 9.5965 6.71428 11.228 6.71428 13.381C6.71428 15.5339 6.68984 17.1655 6.66167 18.3308C6.62737 19.75 5.72505 20.9479 4.30611 20.9931C4.16375 20.9975 4.01414 21 3.85714 21C3.70014 21 3.55053 20.9975 3.40817 20.9931C1.98924 20.9479 1.08691 19.75 1.05261 18.3308C1.02445 17.1655 1 15.5339 1 13.381C1 11.228 1.02445 9.5965 1.05261 8.43117Z" stroke="#214759" stroke-width="2" stroke-linecap="round" stroke-linejoin="round"/>
<path d="M40.9474 8.43117C40.913 7.01193 40.0108 5.81403 38.5918 5.76888C38.4494 5.76441 38.2999 5.76193 38.1429 5.76193C37.9858 5.76193 37.8363 5.76441 37.6939 5.76888C36.275 5.81403 35.3727 7.01193 35.3383 8.43117C35.3102 9.5965 35.2857 11.228 35.2857 13.381C35.2857 15.5339 35.3102 17.1655 35.3383 18.3308C35.3727 19.75 36.275 20.9479 37.6939 20.9931C37.8363 20.9975 37.9858 21 38.1429 21C38.2998 21 38.4494 20.9975 38.5918 20.9931C40.0108 20.9479 40.913 19.75 40.9474 18.3308C40.9755 17.1655 41 15.5339 41 13.381C41 11.228 40.9755 9.5965 40.9474 8.43117Z" stroke="#214759" stroke-width="2" stroke-linecap="round" stroke-linejoin="round"/>
</svg>
