<svg width="24" height="42" viewBox="0 0 24 42" fill="none" xmlns="http://www.w3.org/2000/svg">
<path d="M4.14286 1H19.8571C20.6907 1 21.4901 1.3833 22.0795 2.06557C22.6689 2.74785 23 3.67321 23 4.63809V41H1V4.63809C1 3.67321 1.33112 2.74785 1.92052 2.06557C2.50992 1.3833 3.30932 1 4.14286 1Z" stroke="#214759" stroke-width="2" stroke-miterlimit="10" stroke-linecap="round"/>
<path d="M4.14286 1H19.8571C20.6907 1 21.4901 1.3833 22.0795 2.06557C22.6689 2.74785 23 3.67321 23 4.63809V17.3619H1V4.63809C1 3.67321 1.33112 2.74785 1.92052 2.06557C2.50992 1.3833 3.30932 1 4.14286 1Z" stroke="#214759" stroke-width="2" stroke-miterlimit="10" stroke-linecap="round"/>
<path d="M6 6V11" stroke="#214759" stroke-width="2" stroke-miterlimit="10" stroke-linecap="round"/>
<path d="M6 23V28" stroke="#214759" stroke-width="2" stroke-miterlimit="10" stroke-linecap="round"/>
</svg>
