<svg width="38" height="42" viewBox="0 0 38 42" fill="none" xmlns="http://www.w3.org/2000/svg">
<path d="M16.583 37.239H2.79851C1.80926 37.239 1 36.4416 1 35.4668V7.04011C1 6.06531 1.80926 5.26791 2.79851 5.26791H5.33131" stroke="#214759" stroke-width="2" stroke-miterlimit="10" stroke-linecap="round" stroke-linejoin="round"/>
<path d="M16.7676 23.3334L11.5967 18.4155C10.1747 16.9659 10.1747 14.5899 11.5967 13.1381C12.8362 11.8705 14.892 12.0411 16.19 13.2371C16.784 13.7834 16.7489 13.7834 17.3429 13.2371C18.6432 12.0411 20.6966 11.8705 21.9385 13.1381C23.3605 14.5899 23.3605 16.9659 21.9385 18.4155L16.7676 23.3334Z" stroke="#214759" stroke-width="2" stroke-miterlimit="10" stroke-linecap="round" stroke-linejoin="round"/>
<path d="M18.6807 28.0484H27.6287C28.7817 28.0484 29.7264 28.9795 29.7264 30.1156V38.9328C29.7264 40.069 28.7817 41 27.6287 41H18.6807C17.5277 41 16.5829 40.069 16.5829 38.9328V30.1156C16.5829 28.9795 17.5277 28.0484 18.6807 28.0484Z" stroke="#214759" stroke-width="2" stroke-miterlimit="10" stroke-linecap="round" stroke-linejoin="round"/>
<path d="M23.8588 28.0485V23.0891C23.8588 21.9529 24.8012 21.022 25.9542 21.022H34.9022C36.0575 21.022 37 21.9529 37 23.0891V31.9063C37 33.0425 36.0575 33.9734 34.9022 33.9734H29.7265" stroke="#214759" stroke-width="2" stroke-miterlimit="10" stroke-linecap="round" stroke-linejoin="round"/>
<path d="M27.748 24.8567V24.8503" stroke="#214759" stroke-width="2" stroke-miterlimit="10" stroke-linecap="round" stroke-linejoin="round"/>
<path d="M33.1107 24.8567V24.8503" stroke="#214759" stroke-width="2" stroke-miterlimit="10" stroke-linecap="round" stroke-linejoin="round"/>
<path d="M33.1107 30.1433V30.1369" stroke="#214759" stroke-width="2" stroke-miterlimit="10" stroke-linecap="round" stroke-linejoin="round"/>
<path d="M28.2017 21.0219V2.77212C28.2017 1.79732 27.3925 1.00001 26.4055 1.00001H7.12975C6.14041 1.00001 5.33124 1.79732 5.33124 2.77212V18.9524V26.2532V31.1988C5.33124 32.1713 6.14041 32.9687 7.12975 32.9687H16.5829" stroke="#214759" stroke-width="2" stroke-miterlimit="10" stroke-linecap="round" stroke-linejoin="round"/>
<path d="M23.1548 34.5266V34.5202" stroke="#214759" stroke-width="2" stroke-miterlimit="10" stroke-linecap="round" stroke-linejoin="round"/>
<path d="M20.4722 37.1699V37.1635" stroke="#214759" stroke-width="2" stroke-miterlimit="10" stroke-linecap="round" stroke-linejoin="round"/>
<path d="M25.8373 31.8833V31.8769" stroke="#214759" stroke-width="2" stroke-miterlimit="10" stroke-linecap="round" stroke-linejoin="round"/>
<path d="M9.35156 6.77972V4.95915" stroke="#214759" stroke-width="2" stroke-miterlimit="10" stroke-linecap="round" stroke-linejoin="round"/>
</svg>
