<svg width="42" height="42" viewBox="0 0 42 42" fill="none" xmlns="http://www.w3.org/2000/svg">
<path d="M41 41H1V10.8149L21.1641 1L41 10.8149V41Z" stroke="#214759" stroke-width="2" stroke-linecap="round" stroke-linejoin="round"/>
<path d="M15.2331 22.5001V26.9873" stroke="#214759" stroke-width="2" stroke-linecap="round" stroke-linejoin="round"/>
<path d="M17.5741 24.7439H12.8924" stroke="#214759" stroke-width="2" stroke-linecap="round" stroke-linejoin="round"/>
<path d="M8.8639 22.8741L8.02884 30.0776C7.72443 32.7035 9.869 35 12.6255 35C14.3773 35 15.9788 34.0513 16.7623 32.5495L17.4904 31.1538H23.5097L24.2378 32.5495C25.0212 34.0513 26.6227 35 28.3746 35C31.131 35 33.2756 32.7035 32.9712 30.0776L32.1361 22.8741C31.7941 19.924 29.1924 17.6922 26.0956 17.6922H14.9045C11.8076 17.6922 9.20589 19.924 8.8639 22.8741Z" stroke="#214759" stroke-width="2" stroke-linecap="round" stroke-linejoin="round"/>
<path d="M20.5 17.6924V15.7879C20.5 14.7155 21.4071 13.8462 22.5259 13.8462H25.4966C26.6154 13.8462 27.5224 12.9768 27.5224 11.9044V10" stroke="#214759" stroke-width="2" stroke-linecap="round" stroke-linejoin="round"/>
<path d="M27.5225 23.4616C27.2455 23.4616 27.0211 23.2464 27.0211 22.9809C27.0211 22.7153 27.2455 22.5001 27.5225 22.5001" stroke="#214759" stroke-width="2" stroke-linecap="round" stroke-linejoin="round"/>
<path d="M27.5225 23.4616C27.7996 23.4616 28.0241 23.2464 28.0241 22.9809C28.0241 22.7153 27.7996 22.5001 27.5225 22.5001" stroke="#214759" stroke-width="2" stroke-linecap="round" stroke-linejoin="round"/>
<path d="M24.0113 25.8655C24.0113 25.6 24.2358 25.3848 24.5129 25.3848C24.7899 25.3848 25.0145 25.6 25.0145 25.8655" stroke="#214759" stroke-width="2" stroke-linecap="round" stroke-linejoin="round"/>
<path d="M24.0115 25.8654C24.0115 26.1309 24.236 26.3461 24.5131 26.3461C24.7901 26.3461 25.0147 26.1309 25.0147 25.8654" stroke="#214759" stroke-width="2" stroke-linecap="round" stroke-linejoin="round"/>
</svg>
