<svg width="42" height="42" viewBox="0 0 42 42" fill="none" xmlns="http://www.w3.org/2000/svg">
<path d="M12.5735 21.0002V28.1797" stroke="#214759" stroke-width="2" stroke-linecap="round" stroke-linejoin="round"/>
<path d="M16.3191 24.5901H8.82837" stroke="#214759" stroke-width="2" stroke-linecap="round" stroke-linejoin="round"/>
<path d="M2.38273 21.5986L1.04663 33.1242C0.55957 37.3255 3.99088 41 8.40135 41C11.2042 41 13.7666 39.482 15.0201 37.0792L16.1851 34.846H25.816L26.981 37.0792C28.2345 39.482 30.7969 41 33.5998 41C38.0101 41 41.4415 37.3255 40.9543 33.1242L39.6182 21.5986C39.071 16.8784 34.9083 13.3074 29.9534 13.3074H12.0476C7.09261 13.3074 2.92992 16.8784 2.38273 21.5986Z" stroke="#214759" stroke-width="2" stroke-linecap="round" stroke-linejoin="round"/>
<path d="M21.0005 13.3078V10.2607C21.0005 8.54485 22.4518 7.1539 24.242 7.1539H28.9951C30.7852 7.1539 32.2364 5.76291 32.2364 4.04708V1" stroke="#214759" stroke-width="2" stroke-linecap="round" stroke-linejoin="round"/>
<path d="M32.2363 22.5386C31.7932 22.5386 31.4341 22.1942 31.4341 21.7694C31.4341 21.3445 31.7932 21.0002 32.2363 21.0002" stroke="#214759" stroke-width="2" stroke-linecap="round" stroke-linejoin="round"/>
<path d="M32.2362 22.5386C32.6796 22.5386 33.0388 22.1942 33.0388 21.7694C33.0388 21.3445 32.6796 21.0002 32.2362 21.0002" stroke="#214759" stroke-width="2" stroke-linecap="round" stroke-linejoin="round"/>
<path d="M26.6184 26.3848C26.6184 25.96 26.9777 25.6156 27.421 25.6156C27.8642 25.6156 28.2236 25.96 28.2236 26.3848" stroke="#214759" stroke-width="2" stroke-linecap="round" stroke-linejoin="round"/>
<path d="M26.6189 26.3846C26.6189 26.8094 26.9782 27.1538 27.4215 27.1538C27.8647 27.1538 28.224 26.8094 28.224 26.3846" stroke="#214759" stroke-width="2" stroke-linecap="round" stroke-linejoin="round"/>
</svg>
