<svg width="27" height="42" viewBox="0 0 27 42" fill="none" xmlns="http://www.w3.org/2000/svg">
<path d="M1 27.6667C1 31.2029 2.31696 34.5943 4.66116 37.0948C7.00537 39.5952 10.1848 41 13.5 41C16.8152 41 19.9946 39.5952 22.3388 37.0948C24.683 34.5943 26 31.2029 26 27.6667" stroke="#214759" stroke-width="2" stroke-linecap="round" stroke-linejoin="round"/>
<path d="M26 27.6667C22.6848 27.6667 19.5054 29.0714 17.1612 31.5719C14.817 34.0724 13.5 37.4638 13.5 41" stroke="#214759" stroke-width="2" stroke-linecap="round" stroke-linejoin="round"/>
<path d="M13.5 41C13.5 37.4638 12.183 34.0724 9.83883 31.5719C7.49463 29.0714 4.3152 27.6667 1 27.6667" stroke="#214759" stroke-width="2" stroke-linecap="round" stroke-linejoin="round"/>
<path d="M13.5 41V18.7778" stroke="#214759" stroke-width="2" stroke-linecap="round" stroke-linejoin="round"/>
<path d="M13.5 18.7778C10.7373 18.7778 8.0878 17.6071 6.1343 15.5234C4.18079 13.4397 3.08333 10.6135 3.08333 7.66667V1L9.33332 5.44444L13.5 1L17.6667 5.44444L23.9167 1V7.66667C23.9167 9.1258 23.6472 10.5706 23.1237 11.9187C22.6002 13.2668 21.833 14.4916 20.8657 15.5234C19.8984 16.5552 18.7501 17.3736 17.4863 17.932C16.2225 18.4904 14.8679 18.7778 13.5 18.7778Z" stroke="#214759" stroke-width="2" stroke-linecap="round" stroke-linejoin="round"/>
</svg>
