<svg width="42" height="42" viewBox="0 0 42 42" fill="none" xmlns="http://www.w3.org/2000/svg">
<path d="M1 34C1 34.9193 1.51732 35.8295 2.52241 36.6788C3.5275 37.5281 5.0007 38.2997 6.85787 38.9498C8.71504 39.5998 10.9198 40.1154 13.3463 40.4672C15.7729 40.8189 18.3736 41 21 41C23.6265 41 26.2272 40.8189 28.6537 40.4672C31.0802 40.1154 33.285 39.5998 35.1422 38.9498C36.9993 38.2997 38.4725 37.5281 39.4776 36.6788C40.4827 35.8295 41 34.9193 41 34C41 32.1435 38.8929 30.363 35.1422 29.0503C31.3914 27.7375 26.3043 27 21 27C15.6957 27 10.6086 27.7375 6.85787 29.0503C3.10714 30.363 1 32.1435 1 34Z" stroke="#214759" stroke-width="2" stroke-linecap="round"/>
<path d="M21 33V1" stroke="#214759" stroke-width="2" stroke-linecap="round"/>
<path d="M20.9998 4L31.8444 9.42228C34.9668 10.9834 36.5278 11.7639 36.5278 13C36.5278 14.2361 34.9668 15.0166 31.8444 16.5777L20.9998 22" stroke="#214759" stroke-width="2" stroke-linecap="round"/>
</svg>
