<svg width="41" height="42" viewBox="0 0 41 42" fill="none" xmlns="http://www.w3.org/2000/svg">
<circle cx="14.6816" cy="34.2191" r="6" stroke="#214759" stroke-width="2"/>
<path d="M39.3625 1.00026L34.4259 19.424" stroke="#214759" stroke-width="2" stroke-miterlimit="10" stroke-linecap="round" stroke-linejoin="round"/>
<path d="M30.676 18.4193L35.3434 1.0004" stroke="#214759" stroke-width="2" stroke-miterlimit="10" stroke-linecap="round" stroke-linejoin="round"/>
<path d="M34.7447 24.5502L27.8673 22.7074" stroke="#214759" stroke-width="2" stroke-miterlimit="10" stroke-linecap="round" stroke-linejoin="round"/>
<path d="M20.4366 36.3128H26.7762C29.6173 36.3128 32.1041 34.4045 32.8394 31.6602L35.5489 21.5486C35.8007 20.6089 35.243 19.643 34.3033 19.3912L30.8192 18.4576C29.8794 18.2058 28.9136 18.7635 28.6618 19.7032L27.8563 22.7093C27.3868 24.4616 25.459 25.376 23.8049 24.631L10.1644 18.487C7.16929 17.138 3.6764 18.7755 2.79765 21.9406L1.25851 27.4842C0.0264029 31.9223 3.36398 36.3128 7.96992 36.3128H8.57679" stroke="#214759" stroke-width="2" stroke-miterlimit="10" stroke-linecap="round" stroke-linejoin="round"/>
</svg>
