<svg width="42" height="42" viewBox="0 0 42 42" fill="none" xmlns="http://www.w3.org/2000/svg">
<path d="M11.8271 21.4511H31.0752V40.6992H11.8271V21.4511Z" stroke="#214759" stroke-width="2" stroke-miterlimit="10" stroke-linecap="round" stroke-linejoin="round"/>
<path d="M21.4511 21.4511L21.4511 40.6992" stroke="#214759" stroke-width="2" stroke-miterlimit="10" stroke-linecap="round" stroke-linejoin="round"/>
<path d="M14.2332 9.42107H28.6693" stroke="#214759" stroke-width="2" stroke-miterlimit="10" stroke-linecap="round" stroke-linejoin="round"/>
<path d="M15.4361 7.01505L15.4361 11.8271" stroke="#214759" stroke-width="2" stroke-miterlimit="10" stroke-linecap="round" stroke-linejoin="round"/>
<path d="M26.2632 7.01505V11.8271" stroke="#214759" stroke-width="2" stroke-miterlimit="10" stroke-linecap="round" stroke-linejoin="round"/>
<path d="M37.3619 15.5524V10.0857C37.3569 7.67758 36.398 5.36952 34.6952 3.6667C32.9924 1.96389 30.6843 1.00503 28.2762 1H13.7238C11.3157 1.00503 9.00761 1.96389 7.3048 3.6667C5.60199 5.36952 4.64313 7.67758 4.63809 10.0857V15.5524H1V41H41V15.5524H37.3619Z" stroke="#214759" stroke-width="2" stroke-miterlimit="10" stroke-linecap="round" stroke-linejoin="round"/>
<path d="M10.0857 15.5524H4.63806" stroke="#214759" stroke-width="2" stroke-miterlimit="10" stroke-linecap="round" stroke-linejoin="round"/>
<path d="M31.9142 15.5524H37.3618" stroke="#214759" stroke-width="2" stroke-miterlimit="10" stroke-linecap="round" stroke-linejoin="round"/>
</svg>
