<svg width="42" height="42" viewBox="0 0 42 42" fill="none" xmlns="http://www.w3.org/2000/svg">
<path d="M39.6228 6.55835H34.2971C28.5704 6.42438 22.9652 4.93422 17.9729 2.21852C16.4095 1.45341 14.6881 1.03781 12.9362 1.00246C11.1842 0.96711 9.44645 1.31291 7.85135 2.01429C6.25625 2.71566 4.84463 3.75468 3.72086 5.05452C2.59709 6.35435 1.78991 7.88176 1.35901 9.5238C0.928107 11.1658 0.884502 12.8805 1.23142 14.541C1.57834 16.2016 2.3069 17.7655 3.36325 19.1171C4.41959 20.4688 5.7767 21.5736 7.33422 22.3499C8.89174 23.1262 10.6098 23.5541 12.3615 23.602C14.444 23.6136 16.4902 23.0747 18.279 22.0436C23.4403 19.249 29.2806 17.8392 35.1949 17.9603H39.6228V6.55835Z" stroke="#214759" stroke-width="2" stroke-miterlimit="10" stroke-linecap="round" stroke-linejoin="round"/>
<path d="M7.38449 12.2387C7.38449 13.1928 7.7574 14.1078 8.42117 14.7825C9.08495 15.4572 9.98522 15.8362 10.9239 15.8362C11.8627 15.8362 12.7629 15.4572 13.4267 14.7825C14.0905 14.1078 14.4634 13.1928 14.4634 12.2387C14.4634 11.2846 14.0905 10.3695 13.4267 9.69485C12.7629 9.02018 11.8627 8.64116 10.9239 8.64116C9.98522 8.64116 9.08495 9.02018 8.42117 9.69485C7.7574 10.3695 7.38449 11.2846 7.38449 12.2387Z" stroke="#214759" stroke-width="2" stroke-miterlimit="10" stroke-linecap="round" stroke-linejoin="round"/>
<path d="M6.14288 21.8446L8.40369 32.1663C8.61201 33.1463 9.14557 34.0237 9.91486 34.6513C10.6841 35.2788 11.6424 35.6185 12.6288 35.6131C13.1021 35.6085 13.5714 35.5258 14.0186 35.3683C15.0261 35.0222 15.8716 34.3089 16.3919 33.3662C16.9121 32.4234 17.0701 31.3182 16.8354 30.2639L15 23.5" stroke="#214759" stroke-width="2" stroke-miterlimit="10" stroke-linecap="round" stroke-linejoin="round"/>
<path d="M14.0186 35.3683L14.9452 37.7038C15.3246 38.6775 15.9835 39.5126 16.8362 40.1004C17.6889 40.6883 18.6959 41.0017 19.7262 41H19.9486C21.3149 41 22.6252 40.4483 23.5914 39.4663C24.5575 38.4844 25.1003 37.1525 25.1003 35.7638V31.1115C25.0978 30.5212 25.2101 29.9363 25.4306 29.3903C25.6512 28.8442 25.9757 28.3478 26.3855 27.9295C26.7953 27.5113 27.2823 27.1794 27.8186 26.9529C28.3549 26.7265 28.9299 26.6099 29.5107 26.6099C30.6853 26.6099 31.8118 27.0842 32.6424 27.9284C33.473 28.7726 33.9396 29.9176 33.9396 31.1115C33.9372 31.9368 34.095 32.7544 34.404 33.5175C34.713 34.2807 35.1672 34.9743 35.7405 35.5588C36.3137 36.1432 36.9948 36.6069 37.7447 36.9232C38.4946 37.2396 39.2986 37.4025 40.1105 37.4025H41" stroke="#214759" stroke-width="2" stroke-miterlimit="10" stroke-linecap="round" stroke-linejoin="round"/>
</svg>
