<svg width="42" height="42" viewBox="0 0 42 42" fill="none" xmlns="http://www.w3.org/2000/svg">
<path d="M4.32588 1H2.71122C2.38824 1 2.12634 1.26189 2.12634 1.58487V40.4151C2.12634 40.7381 2.38816 41 2.71122 41H4.32588C4.64894 41 4.91075 40.7382 4.91075 40.4151V1.58487C4.91075 1.26189 4.64886 1 4.32588 1Z" stroke="#214759" stroke-width="2" stroke-miterlimit="10" stroke-linecap="round" stroke-linejoin="round"/>
<path d="M35.9928 15.4791H41" stroke="#214759" stroke-width="2" stroke-miterlimit="10" stroke-linecap="round" stroke-linejoin="round"/>
<path d="M1 15.3264H6.00724" stroke="#214759" stroke-width="2" stroke-miterlimit="10" stroke-linecap="round" stroke-linejoin="round"/>
<path d="M35.9928 17.6469H41" stroke="#214759" stroke-width="2" stroke-miterlimit="10" stroke-linecap="round" stroke-linejoin="round"/>
<path d="M1 17.6469H6.00724" stroke="#214759" stroke-width="2" stroke-miterlimit="10" stroke-linecap="round" stroke-linejoin="round"/>
<path d="M35.9928 13.3112H41" stroke="#214759" stroke-width="2" stroke-miterlimit="10" stroke-linecap="round" stroke-linejoin="round"/>
<path d="M1 13.0058H6.00724" stroke="#214759" stroke-width="2" stroke-miterlimit="10" stroke-linecap="round" stroke-linejoin="round"/>
<path d="M15.4278 22.7098L15.7467 21.5315C15.9664 20.7196 15.4819 19.8756 14.6701 19.6559L10.8893 18.6327C10.0775 18.413 9.23343 18.8975 9.01371 19.7093L8.81299 20.4511C10.8943 21.4692 13.111 22.2348 15.4278 22.7098Z" stroke="#214759" stroke-width="2" stroke-miterlimit="10" stroke-linecap="round" stroke-linejoin="round"/>
<path d="M19.5915 23.2374C14.1687 22.9642 9.14002 21.1237 4.91101 18.1396V20.7535C8.51024 25.9684 14.3751 29.3636 21 29.3636C27.6248 29.3636 33.4897 25.9684 37.0889 20.7536V18.1397C32.86 21.1238 27.8312 22.9643 22.4084 23.2375" stroke="#214759" stroke-width="2" stroke-miterlimit="10" stroke-linecap="round" stroke-linejoin="round"/>
<path d="M39.8734 29.7152V1.58487C39.8734 1.26189 39.6115 1 39.2885 1H37.6739C37.3508 1 37.089 1.26189 37.089 1.58487V40.4151C37.089 40.7381 37.3508 41 37.6739 41H39.2885C39.6115 41 39.8734 40.7382 39.8734 40.4151V32.5322" stroke="#214759" stroke-width="2" stroke-miterlimit="10" stroke-linecap="round" stroke-linejoin="round"/>
</svg>
