<svg width="42" height="42" viewBox="0 0 42 42" fill="none" xmlns="http://www.w3.org/2000/svg">
<path d="M33.7196 26.4326H37.6856C38.5622 26.4326 39.4032 26.0856 40.0249 25.4676C40.6465 24.8495 40.9983 24.0105 41.0033 23.1339C41.0079 22.4969 40.831 21.8717 40.4933 21.3314C40.1557 20.7912 39.6712 20.3582 39.0966 20.0831L20.9826 11.8842L2.90682 20.0831C2.33219 20.3582 1.84774 20.7912 1.51009 21.3314C1.17245 21.8717 0.99555 22.4969 1.00009 23.1339C1.00512 24.0105 1.35689 24.8495 1.97854 25.4676C2.60018 26.0856 3.44118 26.4326 4.3178 26.4326H8.24567" stroke="#214759" stroke-width="2" stroke-miterlimit="10" stroke-linecap="round" stroke-linejoin="round"/>
<path d="M20.9827 11.8842V11.4456C21.017 10.6854 21.2299 9.94397 21.6042 9.28142C21.9786 8.61886 22.5038 8.05385 23.1373 7.63218C23.6534 7.27336 24.0679 6.78706 24.3404 6.22057C24.6129 5.65408 24.7342 5.0267 24.6923 4.39947C24.6505 3.77224 24.447 3.16652 24.1017 2.64125C23.7564 2.11597 23.2809 1.68902 22.7217 1.40194C22.1625 1.11487 21.5384 0.977434 20.9103 1.00302C20.2822 1.0286 19.6714 1.21633 19.1374 1.54794C18.6034 1.87955 18.1642 2.34375 17.8628 2.89537C17.5613 3.44699 17.4078 4.06725 17.4171 4.69581" stroke="#214759" stroke-width="2" stroke-miterlimit="10" stroke-linecap="round" stroke-linejoin="round"/>
<path d="M11.8875 22.886H30.0968C31.0627 22.886 31.989 23.2697 32.672 23.9527C33.355 24.6357 33.7387 25.562 33.7387 26.5279V41H8.24567V26.4326C8.27052 25.4833 8.66517 24.5813 9.34547 23.9188C10.0258 23.2563 10.9379 22.8857 11.8875 22.886Z" stroke="#214759" stroke-width="2" stroke-miterlimit="10" stroke-linecap="round" stroke-linejoin="round"/>
</svg>
