<svg width="38" height="42" viewBox="0 0 38 42" fill="none" xmlns="http://www.w3.org/2000/svg">
<path d="M16.7088 12.579L22.228 16.5506C22.6847 16.8792 22.7827 16.9933 23.2612 17.117L29.4709 18.7219C30.3054 18.9893 31.2056 18.5209 31.4713 17.6816C31.737 16.8423 31.2717 15.9366 30.4372 15.6691L24.3476 14.1026L20.1973 11.0413C19.8189 10.294 18.9202 8.34033 17.1491 8.34033C15.2785 8.34033 13.3279 8.50548 13.3279 10.1732V13.4183V22.398M17.1208 27.8177L19.9415 30.7724L20.1855 38.437M20.1855 38.437V41M20.1855 38.437H25.244C25.9447 38.437 26.5179 39.0137 26.5179 39.7184V41M23.9703 38.437L24.0445 32.5V29.1497L18.8939 22.398L20.0777 15.0034" stroke="#214759" stroke-width="2" stroke-miterlimit="22.9256" stroke-linecap="round" stroke-linejoin="round"/>
<path d="M13.3279 22.398L12.3328 28.2431L8.3233 34.5162M8.3233 34.5162L6.45386 36.2574L10.7558 40.932L11.6906 40.0614C12.2047 39.5826 12.2359 38.7677 11.7599 38.2505L8.3233 34.5162ZM10.8945 37.3101L16.4963 29.7266L18.8939 22.398" stroke="#214759" stroke-width="2" stroke-miterlimit="22.9256" stroke-linecap="round" stroke-linejoin="round"/>
<path d="M13.3279 22.398H18.8939" stroke="#214759" stroke-width="2" stroke-miterlimit="22.9256" stroke-linecap="round" stroke-linejoin="round"/>
<path fill-rule="evenodd" clip-rule="evenodd" d="M16.501 1H17.7973C19.1173 1 20.1973 2.08652 20.1973 3.41449V4.67018C20.1973 6.68877 19.1556 8.34036 17.1491 8.34036C15.1426 8.34036 14.101 6.68877 14.101 4.67018V3.41449C14.101 2.08652 15.181 1 16.501 1Z" stroke="#214759" stroke-width="2" stroke-miterlimit="22.9256" stroke-linecap="round" stroke-linejoin="round"/>
<path d="M14.101 4.67017H22.5973" stroke="#214759" stroke-width="2" stroke-miterlimit="22.9256" stroke-linecap="round" stroke-linejoin="round"/>
<path d="M13.3279 10.1732C13.3279 8.6792 12.113 7.45691 10.6279 7.45691C9.14288 7.45691 7.92792 8.67928 7.92792 10.1732V14.6256" stroke="#214759" stroke-width="2" stroke-miterlimit="22.9256" stroke-linecap="round" stroke-linejoin="round"/>
<path d="M13.3279 20.2853H7.92784C7.26808 20.2853 6.72784 19.7421 6.72784 19.0781V15.8329C6.72784 15.1689 7.26784 14.6256 7.92784 14.6256H9.12784C9.78784 14.6256 10.3278 15.169 10.3278 15.8329V19.0781C10.3278 19.7419 9.78784 20.2853 9.12784 20.2853" stroke="#214759" stroke-width="2" stroke-miterlimit="22.9256" stroke-linecap="round" stroke-linejoin="round"/>
<path d="M13.3279 17.8708C15.4208 17.8708 17.3046 15.3144 18.0873 13.571" stroke="#214759" stroke-width="2" stroke-miterlimit="22.9256" stroke-linecap="round" stroke-linejoin="round"/>
<path d="M13.3279 20.2853C15.8765 20.2853 18.8019 17.8454 20.0777 15.0033" stroke="#214759" stroke-width="2" stroke-miterlimit="22.9256" stroke-linecap="round" stroke-linejoin="round"/>
<path d="M29.4709 12.0822V15.4206M29.4709 18.7218V41" stroke="#214759" stroke-width="2" stroke-miterlimit="22.9256" stroke-linecap="round" stroke-linejoin="round"/>
<path d="M1 41H37" stroke="#214759" stroke-width="2" stroke-miterlimit="22.9256" stroke-linecap="round" stroke-linejoin="round"/>
<path d="M27.671 14.9575V18.2567" stroke="#214759" stroke-width="2" stroke-miterlimit="22.9256" stroke-linecap="round" stroke-linejoin="round"/>
</svg>
