<svg width="42" height="40" viewBox="0 0 42 40" fill="none" xmlns="http://www.w3.org/2000/svg">
<path d="M3.36316 15.1387C3.36316 15.1387 5.57507 13.6521 7.45201 15.5503" stroke="#214759" stroke-width="2" stroke-miterlimit="10" stroke-linecap="round" stroke-linejoin="round"/>
<path d="M17.5001 28.7963L17.4997 22.1607" stroke="#214759" stroke-width="2" stroke-miterlimit="10" stroke-linecap="round" stroke-linejoin="round"/>
<path d="M14.6195 21.8336L15.0942 33.4468C15.0999 33.5669 15.0524 33.6834 14.9633 33.7641C14.6715 34.0282 14.0134 34.7237 13.8528 35.7444C13.8147 35.9865 14.0079 36.2037 14.2529 36.2037H16.1296C16.266 36.2037 16.3931 36.1349 16.4677 36.0208L17.3345 34.6951C17.3768 34.6305 17.3996 34.5551 17.4004 34.4778C17.4004 34.4778 17.4939 33.5687 17.5001 32.7963V28.7963" stroke="#214759" stroke-width="2" stroke-miterlimit="10" stroke-linecap="round" stroke-linejoin="round"/>
<path d="M28.2277 20.9662C28.2277 20.9662 29.1328 22.7307 30.5081 23.7558C30.6956 23.8955 30.7298 24.1623 30.5794 24.3414L28.0269 27.3818C27.95 27.4733 27.9177 27.5942 27.9385 27.7118L28.2077 29.2344C28.2202 29.3052 28.2139 29.3778 28.1888 29.445C28.0448 29.8291 27.5908 31.2654 28.3826 32.3415C28.5207 32.5291 28.793 32.5533 28.9688 32.4001L30.8182 30.7884C30.9182 30.7013 30.969 30.5708 30.9543 30.439L30.742 28.538C30.7295 28.4265 30.764 28.3149 30.8371 28.2298L35.1505 23.2126" stroke="#214759" stroke-width="2" stroke-miterlimit="10" stroke-linecap="round" stroke-linejoin="round"/>
<path d="M35.1505 9.80963C35.1505 9.80963 38.3624 8.38831 40.2985 11.8338C41.6464 14.2326 40.7078 18.6447 40.3134 20.1988C40.2398 20.4885 39.8894 20.5999 39.6608 20.4075C39.0808 19.9195 38.1899 18.8846 38.0754 17.0732" stroke="#214759" stroke-width="2" stroke-miterlimit="10" stroke-linecap="round" stroke-linejoin="round"/>
<path d="M4.71641 4.93227C4.67174 4.96938 8.32414 3.67771 10.7474 7.63763C13.0806 11.4503 12.4258 14.1131 15.7503 15.6771C15.9688 15.7798 16.2294 15.6677 16.3047 15.4383C16.7464 14.0932 17.7901 9.74097 14.2575 6.29976" stroke="#214759" stroke-width="2" stroke-miterlimit="10" stroke-linecap="round" stroke-linejoin="round"/>
<path d="M28.2277 9.80963V13.8084C28.2277 15.1333 27.1537 16.2074 25.8288 16.2074H21.8795C20.5546 16.2074 19.4805 15.1333 19.4805 13.8084V10.0016" stroke="#214759" stroke-width="2" stroke-miterlimit="10" stroke-linecap="round" stroke-linejoin="round"/>
<path d="M29.9728 9.19704C28.7733 9.38513 27.5245 9.74827 26.2322 10.179C23.1396 11.2098 19.5459 9.9543 18.0727 9.20211C16.5995 8.44992 15.2213 7.07422 13.6041 5.75495C11.9869 4.43567 9.23035 3.12613 6.26157 4.18126C5.50785 4.44911 4.79043 4.81579 4.18165 5.33C3.1402 4.46722 1.9493 4.45829 1.35839 4.52251C1.14254 4.54593 0.981975 4.73611 1.00177 4.95229C1.17771 6.87149 2.69884 7.52541 2.69884 7.52541L2.70053 7.52291C1.93666 9.94931 2.7291 11.164 3.08371 13.213C3.21272 13.9586 3.35437 15.0427 3.46672 15.9679C3.58197 16.9168 4.34359 17.6773 5.29739 17.739C6.33666 17.8062 7.23429 17.0637 7.37964 16.0527L7.92419 12.2671C7.94681 12.1097 8.12242 12.0255 8.25948 12.1061C10.5495 13.453 9.81642 16.4142 9.81642 17.7031C9.81642 18.5822 9.96741 19.2966 10.0713 19.6843C10.1215 19.8714 10.0322 20.0671 9.85803 20.152L7.34246 21.3769C6.79542 21.6433 6.3567 22.0898 6.09996 22.6414L4.48556 26.1102C4.25723 26.6007 4.18455 27.1495 4.27727 27.6825L4.63236 29.7245C4.64105 29.7745 4.6396 29.826 4.62946 29.8757C4.4664 30.6711 4.52604 31.338 4.61256 31.7768C4.66825 32.0593 4.99059 32.1969 5.23131 32.0387L7.16733 30.7662C7.29956 30.6793 7.36886 30.5232 7.34463 30.3668L6.85224 27.1884C6.83856 27.1 6.85457 27.0096 6.89779 26.9313L8.61522 23.8213C8.66471 23.7317 8.74648 23.6642 8.84387 23.6325L14.7136 21.7861C15.3194 21.5955 15.9647 21.5712 16.5829 21.7165C18.2705 22.1131 21.7681 22.7378 24.9138 22.044C28.3012 21.2968 30.5224 19.7915 31.3348 19.1663C31.5211 19.023 31.7878 19.0704 31.9177 19.2663C33.2707 21.3049 36.1775 23.67 37.5414 24.7215C38.0056 25.0794 38.2776 25.632 38.2797 26.2181L38.3031 32.9022C38.3037 33.0245 38.2481 33.1405 38.1531 33.2176C37.2258 33.9708 36.9619 34.7471 36.8942 35.2225C36.8595 35.4659 37.0483 35.6832 37.2942 35.6832H39.8123C39.971 35.6832 40.1151 35.5902 40.1805 35.4456L40.7093 34.2758C40.7327 34.2239 40.745 34.1678 40.7452 34.1108L40.775 24.755C40.7765 24.2646 40.5885 23.7928 40.2502 23.438L38.991 22.1176C38.2243 21.3137 37.8331 20.2238 37.9139 19.1158C38.0167 17.7066 38.1339 15.8014 38.0963 14.8623C38.0324 13.2663 37.2057 10.9385 34.684 9.72018C34.055 9.41636 33.4056 9.22867 32.7371 9.1341" stroke="#214759" stroke-width="2" stroke-miterlimit="10" stroke-linecap="round" stroke-linejoin="round"/>
<circle cx="5.13261" cy="10.9472" r="0.603622" fill="#214759"/>
</svg>
