<svg width="42" height="42" viewBox="0 0 42 42" fill="none" xmlns="http://www.w3.org/2000/svg">
<path d="M1 8.20013H20.721V41H1L1 8.20013Z" stroke="#214759" stroke-width="2" stroke-linecap="round" stroke-linejoin="round"/>
<path d="M20.7211 26.5776H35.1668V40.9996H20.7211V26.5776Z" stroke="#214759" stroke-width="2" stroke-linecap="round" stroke-linejoin="round"/>
<path d="M8.2085 22.5678V14.5017M13.513 14.5017V22.5678M8.2085 18.1986H13.513" stroke="#214759" stroke-width="2" stroke-linecap="round" stroke-linejoin="round"/>
<path d="M41 7.70684C41 11.4179 34.3839 20.3753 34.3839 20.3753C34.3839 20.3753 27.7681 11.4179 27.7681 7.70684C27.7681 5.92807 28.4651 4.22215 29.7059 2.96438C30.9465 1.7066 32.6293 1 34.3839 1C36.1385 1 37.8214 1.7066 39.0621 2.96438C40.3029 4.22215 41 5.92807 41 7.70684Z" stroke="#214759" stroke-width="2" stroke-linecap="round" stroke-linejoin="round"/>
<path d="M34.3841 8.56311C33.952 8.56311 33.6016 8.20792 33.6016 7.76978C33.6016 7.33164 33.952 6.97644 34.3841 6.97644" stroke="#214759" stroke-width="2" stroke-linecap="round" stroke-linejoin="round"/>
<path d="M34.3839 8.56311C34.816 8.56311 35.1665 8.20792 35.1665 7.76978C35.1665 7.33164 34.816 6.97644 34.3839 6.97644" stroke="#214759" stroke-width="2" stroke-linecap="round" stroke-linejoin="round"/>
<path d="M10.8612 40.9996V35.3328" stroke="#214759" stroke-width="2" stroke-linecap="round" stroke-linejoin="round"/>
</svg>
