<svg width="42" height="38" viewBox="0 0 42 38" fill="none" xmlns="http://www.w3.org/2000/svg">
<path d="M37.3783 1.00002V9.57159L39.1259 14.6608C39.5673 15.9464 39.7928 17.2977 39.7928 18.6587V24.4057H28.435L17.7855 30.0197H1V27.7396C1 23.6978 4.24298 20.4213 8.24346 20.4213C10.2596 20.4213 12.2261 19.79 13.8724 18.6144L14.7282 18.0032C20.1928 14.1009 23.4419 7.76095 23.4419 1.00002H37.3783Z" stroke="#214759" stroke-width="2" stroke-miterlimit="10" stroke-linecap="round" stroke-linejoin="round"/>
<path d="M39.7927 24.4057V30.0197H28.435V24.4057" stroke="#214759" stroke-width="2" stroke-miterlimit="10" stroke-linecap="round" stroke-linejoin="round"/>
<path d="M22.8679 5.87897H27.5452" stroke="#214759" stroke-width="2" stroke-miterlimit="10" stroke-linecap="round" stroke-linejoin="round"/>
<path d="M21.0381 10.7579H27.5452" stroke="#214759" stroke-width="2" stroke-miterlimit="10" stroke-linecap="round" stroke-linejoin="round"/>
<path d="M17.4907 15.6368H27.5451" stroke="#214759" stroke-width="2" stroke-miterlimit="10" stroke-linecap="round" stroke-linejoin="round"/>
<path d="M41 37H4.25851C2.45891 37 1 35.526 1 33.7078" stroke="#214759" stroke-width="2" stroke-miterlimit="10" stroke-linecap="round" stroke-linejoin="round"/>
<path d="M34.1139 30.0197V36.9999" stroke="#214759" stroke-width="2" stroke-miterlimit="10" stroke-linecap="round" stroke-linejoin="round"/>
<path d="M9.39276 30.0197V36.9999" stroke="#214759" stroke-width="2" stroke-miterlimit="10" stroke-linecap="round" stroke-linejoin="round"/>
</svg>
