<svg width="41" height="42" viewBox="0 0 41 42" fill="none" xmlns="http://www.w3.org/2000/svg">
<path d="M7.79997 13.825V21M4 21V13.825C4 12.6911 4.40035 11.6038 5.11297 10.8021C5.82559 10.0004 6.79205 9.55 7.79997 9.55H15.3999C16.4077 9.55 17.3742 10.0004 18.0869 10.8021C18.7995 11.6038 19.1999 12.6911 19.1999 13.825L19.1999 21M15.3999 21V13.825" stroke="#214759" stroke-width="2" stroke-miterlimit="10" stroke-linecap="round" stroke-linejoin="round"/>
<path d="M11.601 7.33394C13.3501 7.33394 14.768 5.91604 14.768 4.16698C14.768 2.4179 13.3501 1 11.601 1C9.85195 1 8.43396 2.4179 8.43396 4.16698C8.43396 5.91604 9.85195 7.33394 11.601 7.33394Z" stroke="#214759" stroke-width="2" stroke-miterlimit="10" stroke-linecap="round" stroke-linejoin="round"/>
<path d="M24 21L3 21V40H28M39 25V40H36" stroke="#214759" stroke-width="2" stroke-linecap="round" stroke-linejoin="round"/>
<path d="M28.0001 17.0001V38.9999C27.997 39.2634 28.0467 39.5249 28.1461 39.7689C28.2456 40.0129 28.3928 40.2345 28.579 40.4208C28.7654 40.6072 28.987 40.7544 29.2311 40.8538C29.4751 40.9532 29.7365 41.0029 30.0001 40.9999C30.2634 41.0029 30.5249 40.9532 30.7689 40.8538C31.0129 40.7544 31.2346 40.6072 31.4209 40.4208C31.6072 40.2345 31.7544 40.0129 31.8538 39.7689C31.9534 39.5249 32.003 39.2634 32 38.9999" stroke="#214759" stroke-width="2" stroke-miterlimit="10" stroke-linecap="round" stroke-linejoin="round"/>
<path d="M32.0001 27.6666V38.9999C31.997 39.2634 32.0467 39.5249 32.1461 39.7689C32.2456 40.0129 32.3928 40.2345 32.579 40.4208C32.7654 40.6072 32.987 40.7544 33.2311 40.8538C33.4751 40.9532 33.7365 41.0029 34.0001 40.9999C34.2634 41.0029 34.5249 40.9532 34.7689 40.8538C35.0129 40.7544 35.2346 40.6072 35.4209 40.4208C35.6072 40.2345 35.7544 40.0129 35.8538 39.7689C35.9534 39.5249 36.003 39.2634 36 38.9999V17.0001" stroke="#214759" stroke-width="2" stroke-miterlimit="10" stroke-linecap="round" stroke-linejoin="round"/>
<path d="M28.0001 14.5V22.7499C28.0031 23.0463 27.9536 23.3405 27.8541 23.6151C27.7548 23.8896 27.6075 24.1391 27.4212 24.3487C27.2349 24.5582 27.0132 24.7239 26.7691 24.8357C26.5251 24.9475 26.2636 25.0033 26.0001 24.9998C25.7366 25.0033 25.4751 24.9475 25.2311 24.8357C24.987 24.7239 24.7653 24.5582 24.5789 24.3487C24.3925 24.1391 24.2454 23.8896 24.1459 23.6151C24.0465 23.3405 23.9969 23.0463 24.0001 22.7499V14.5C24.0001 13.3065 24.4216 12.1619 25.1717 11.318C25.9218 10.4741 26.9391 10 28.0001 10H35.9999C37.0607 10 38.0781 10.4741 38.8283 11.318C39.5784 12.1619 39.9999 13.3065 39.9999 14.5V22.7499C40.003 23.0463 39.9534 23.3405 39.8539 23.6151C39.7546 23.8896 39.6073 24.1391 39.421 24.3487C39.2347 24.5582 39.0129 24.7239 38.7689 24.8357C38.5249 24.9475 38.2634 25.0033 37.9999 24.9998C37.7364 25.0033 37.4749 24.9475 37.2308 24.8357C36.9868 24.7239 36.7651 24.5582 36.5787 24.3487C36.3924 24.1391 36.2452 23.8896 36.1458 23.6151C36.0463 23.3405 35.9967 23.0463 35.9999 22.7499V14.5" stroke="#214759" stroke-width="2" stroke-miterlimit="10" stroke-linecap="round" stroke-linejoin="round"/>
<path d="M32.001 7.66731C33.8421 7.66731 35.3346 6.17478 35.3346 4.33366C35.3346 2.49253 33.8421 1 32.001 1C30.1599 1 28.6673 2.49253 28.6673 4.33366C28.6673 6.17478 30.1599 7.66731 32.001 7.66731Z" stroke="#214759" stroke-width="2" stroke-miterlimit="10" stroke-linecap="round" stroke-linejoin="round"/>
<line x1="1" y1="21" x2="7" y2="21" stroke="#214759" stroke-width="2" stroke-linecap="round" stroke-linejoin="round"/>
</svg>
