<svg width="42" height="42" viewBox="0 0 42 42" fill="none" xmlns="http://www.w3.org/2000/svg">
<path d="M21.2037 36.2941V41" stroke="#214759" stroke-width="2" stroke-linecap="round" stroke-linejoin="round"/>
<path d="M14.4691 1H31.2135C32.8076 1.00012 34.3501 1.59298 35.5664 2.67311C36.7827 3.75325 37.594 5.25061 37.856 6.89882L39.1513 15.0494L40.9696 26.4965C41.023 26.8332 41.0059 27.1781 40.9194 27.5072C40.8329 27.8363 40.6792 28.1417 40.4688 28.4023C40.2584 28.6629 39.9965 28.8723 39.7011 29.0162C39.4058 29.16 39.0841 29.2348 38.7584 29.2353H1C1 24.867 2.65557 20.6777 5.60252 17.5888C8.54946 14.5 12.5464 12.7647 16.714 12.7647H38.7135" stroke="#214759" stroke-width="2" stroke-linecap="round" stroke-linejoin="round"/>
<path d="M12.2243 36.2941L9.97943 41" stroke="#214759" stroke-width="2" stroke-linecap="round" stroke-linejoin="round"/>
<path d="M30.1831 36.2941L32.428 41" stroke="#214759" stroke-width="2" stroke-linecap="round" stroke-linejoin="round"/>
</svg>
