<svg width="50" height="40" viewBox="0 0 50 40" fill="none" xmlns="http://www.w3.org/2000/svg">
<path d="M49.1667 0C48.7065 0 48.3333 0.426319 48.3333 0.952128V3.80851H43.3333V0.952128C43.3333 0.426319 42.9602 0 42.5 0H2.5C1.11938 0 0 1.27896 0 2.85638C0 4.43381 1.11938 5.71277 2.5 5.71277H7.16675L22.1216 21.8989L6.92668 38.3459C6.70492 38.5784 6.6097 38.9294 6.67806 39.2641C6.74642 39.5993 6.96777 39.8657 7.25667 39.9619C7.54557 40.0582 7.85726 39.9689 8.07251 39.7285L23.3333 23.21L38.5933 39.7285C38.8086 39.9689 39.1203 40.0582 39.4092 39.9619C39.6981 39.8657 39.9194 39.5993 39.9878 39.2641C40.0562 38.9294 39.9609 38.5784 39.7392 38.3459L24.5451 21.8989L39.4999 5.71277H49.1667C49.6269 5.71277 50 5.28645 50 4.76064V0.952128C50 0.426319 49.6269 0 49.1667 0ZM23.3333 20.587L9.59147 5.71277H37.0752L23.3333 20.587ZM39.1667 3.80851H2.5C2.03979 3.80851 1.66667 3.38219 1.66667 2.85638C1.66667 2.33057 2.03979 1.90426 2.5 1.90426H41.6667V3.80851H39.1667Z" fill="#214759"/>
</svg>
