<svg width="42" height="40" viewBox="0 0 42 40" fill="none" xmlns="http://www.w3.org/2000/svg">
<path d="M33.5617 25.4699L41 20H1L3.24074 26.6599" stroke="#214759" stroke-width="2" stroke-miterlimit="22.926" stroke-linecap="round" stroke-linejoin="round"/>
<path d="M1 19.9156L4.26381 15.9032C4.69327 15.3752 5.24182 15.0331 5.91609 14.9982L20.0438 14.2675C22.0951 13.0668 24.1466 10.1802 26.198 8.97945C32.601 8.45053 40.0854 14.5203 40.917 19.6628" stroke="#214759" stroke-width="2" stroke-miterlimit="22.926" stroke-linecap="round" stroke-linejoin="round"/>
<path d="M1.00085 28.015C4.31993 26.7443 7.56557 25.4859 11.0006 25.4859C14.4356 25.4859 17.5654 28.015 21.0004 28.015C24.4353 28.015 27.5651 25.4859 31.0001 25.4859C34.4351 25.4859 37.8468 26.8286 40.9999 28.015" stroke="#214759" stroke-width="2" stroke-miterlimit="22.926" stroke-linecap="round" stroke-linejoin="round"/>
<path d="M7.88843 34.5C11.0005 33.4041 12.2326 32.814 14.4444 32.814C16.6563 32.814 18.7886 34.5 21.0004 34.5C23.2123 34.5 25.3446 32.814 27.5564 32.814C29.7683 32.814 32.3697 33.8256 34.1124 34.5" stroke="#214759" stroke-width="2" stroke-miterlimit="22.926" stroke-linecap="round" stroke-linejoin="round"/>
<path d="M23.8954 10.0536L20.4969 6.6013" stroke="#214759" stroke-width="2" stroke-miterlimit="22.926" stroke-linecap="round" stroke-linejoin="round"/>
<path d="M21.4149 5.5L19.4232 7.52325" stroke="#214759" stroke-width="2" stroke-miterlimit="22.926" stroke-linecap="round" stroke-linejoin="round"/>
</svg>
