<svg width="42" height="42" viewBox="0 0 42 42" fill="none" xmlns="http://www.w3.org/2000/svg">
<path d="M13.5355 13.5354C6.35987 20.711 2.16376 29.6571 1.01848 38.6825C0.844087 40.0564 1.94401 41.1563 3.31791 40.982C12.3434 39.8367 21.2895 35.6406 28.465 28.465C35.6406 21.2894 39.8367 12.3433 40.982 3.31785C41.1563 1.94394 40.0565 0.844025 38.6826 1.01842C29.6571 2.1637 20.711 6.3598 13.5355 13.5354Z" stroke="#214759" stroke-width="2" stroke-miterlimit="10" stroke-linecap="round" stroke-linejoin="round"/>
<path d="M7.28083 21.3594C7.06839 24.9469 8.25156 28.4933 10.8701 31.1119C13.5012 33.7429 17.0691 34.9253 20.6742 34.6983" stroke="#214759" stroke-width="2" stroke-miterlimit="10" stroke-linecap="round" stroke-linejoin="round"/>
<path d="M28.1457 8.72137C26.0622 7.62804 23.7033 7.15853 21.327 7.30145" stroke="#214759" stroke-width="2" stroke-miterlimit="10" stroke-linecap="round" stroke-linejoin="round"/>
<path d="M34.6777 20.7065C34.8306 18.3128 34.3621 15.935 33.2607 13.8365" stroke="#214759" stroke-width="2" stroke-miterlimit="10" stroke-linecap="round" stroke-linejoin="round"/>
<path d="M26.2474 15.7347C24.6332 14.1205 22.0163 14.1205 20.4022 15.7347L15.7165 20.4205C14.1023 22.0345 14.1023 24.6516 15.7165 26.2656C17.3305 27.8798 19.9475 27.8798 21.5616 26.2656L26.2474 21.5799C27.8615 19.9658 27.8615 17.3488 26.2474 15.7347Z" stroke="#214759" stroke-width="2" stroke-miterlimit="10" stroke-linecap="round" stroke-linejoin="round"/>
<path d="M11.1132 11.1131L30.8688 30.8688" stroke="#214759" stroke-width="2" stroke-miterlimit="10" stroke-linecap="round" stroke-linejoin="round"/>
<path d="M40.9447 36.7432L35.4989 31.2973L30.8688 30.8688L31.2972 35.4988L36.7431 40.9447L40.9447 36.7432Z" stroke="#214759" stroke-width="2" stroke-miterlimit="10" stroke-linecap="round" stroke-linejoin="round"/>
<path d="M5.23886 1.03729L10.6847 6.48315L11.1131 11.1132L6.48317 10.6848L1.03723 5.23892L5.23886 1.03729Z" stroke="#214759" stroke-width="2" stroke-miterlimit="10" stroke-linecap="round" stroke-linejoin="round"/>
<path d="M34.7047 7.29559L35.5137 6.48657" stroke="#214759" stroke-width="2" stroke-miterlimit="10" stroke-linecap="round" stroke-linejoin="round"/>
<path d="M7.29572 34.7046L6.48669 35.5137" stroke="#214759" stroke-width="2" stroke-miterlimit="10" stroke-linecap="round" stroke-linejoin="round"/>
</svg>
