<svg width="42" height="42" viewBox="0 0 42 42" fill="none" xmlns="http://www.w3.org/2000/svg">
<path d="M1 41H41" stroke="#214759" stroke-width="2" stroke-linecap="round" stroke-linejoin="round"/>
<path d="M41 3.66667C41 2.95943 40.7191 2.28114 40.219 1.78105C39.7189 1.28095 39.0405 1 38.3333 1H7.66667C6.95943 1 6.28114 1.28095 5.78105 1.78105C5.28096 2.28114 5 2.95943 5 3.66667V14.3333C5 15.0406 5.28096 15.7189 5.78105 16.219C6.28114 16.719 6.95943 17 7.66667 17H21C21.7072 17 22.3856 17.281 22.8857 17.781C23.3858 18.2811 23.6667 18.9595 23.6667 19.6667V41H41V3.66667Z" stroke="#214759" stroke-width="2" stroke-linecap="round" stroke-linejoin="round"/>
<path d="M33 41H41V22.3333H35.6667C34.9595 22.3333 34.2811 22.6142 33.781 23.1143C33.2809 23.6144 33 24.2928 33 25V41Z" stroke="#214759" stroke-width="2" stroke-linecap="round" stroke-linejoin="round"/>
<path d="M11.6667 17V22.3333" stroke="#214759" stroke-width="2" stroke-linecap="round" stroke-linejoin="round"/>
<path d="M10.3333 9.00001C10.3333 9.70725 10.6143 10.3855 11.1144 10.8856C11.6145 11.3857 12.2927 11.6667 13 11.6667C13.7072 11.6667 14.3855 11.3857 14.8856 10.8856C15.3857 10.3855 15.6666 9.70725 15.6666 9.00001C15.6666 8.29277 15.3857 7.61448 14.8856 7.11439C14.3855 6.6143 13.7072 6.33334 13 6.33334C12.2927 6.33334 11.6145 6.6143 11.1144 7.11439C10.6143 7.61448 10.3333 8.29277 10.3333 9.00001Z" stroke="#214759" stroke-width="2" stroke-linecap="round" stroke-linejoin="round"/>
<path d="M41 9H33" stroke="#214759" stroke-width="2" stroke-linecap="round" stroke-linejoin="round"/>
<path d="M41 14.3333H33" stroke="#214759" stroke-width="2" stroke-linecap="round" stroke-linejoin="round"/>
<path d="M5.16711 31.6667C5.16711 35.3484 5.16711 41 11.8338 41C17.1671 41 17.5511 36.2089 18.2907 33.3324C18.3414 33.1353 18.3463 32.9292 18.3051 32.7299C18.264 32.5307 18.1776 32.3435 18.0528 32.1826C17.9282 32.0219 17.7682 31.8917 17.5854 31.8023C17.4026 31.7129 17.2017 31.6665 16.9982 31.6667H5.16711Z" stroke="#214759" stroke-width="2" stroke-linecap="round" stroke-linejoin="round"/>
<path d="M5.16711 31.6667C4.10625 31.6667 3.08883 32.0882 2.33868 32.8382C1.58855 33.5884 1.16711 34.6059 1.16711 35.6667" stroke="#214759" stroke-width="2" stroke-linecap="round" stroke-linejoin="round"/>
</svg>
