<svg width="45" height="42" viewBox="0 0 45 42" fill="none" xmlns="http://www.w3.org/2000/svg">
<path d="M11.9892 17.0204C12.1135 18.2116 12.8792 19.2024 13.9724 19.7025C16.2421 20.7408 20.2269 22.4011 22.5002 22.4011C24.7736 22.4011 28.7584 20.7408 31.0281 19.7025C32.1213 19.2024 32.887 18.2116 33.0113 17.0204C33.1334 15.8511 33.2502 14.1039 33.2502 11.7005C33.2502 9.29719 33.1334 7.54995 33.0113 6.38059C32.887 5.18942 32.1213 4.19864 31.0281 3.69854C28.7584 2.66024 24.7736 1 22.5002 1C20.2269 1 16.2421 2.66024 13.9724 3.69854C12.8792 4.19864 12.1135 5.18942 11.9892 6.3806C11.8671 7.54995 11.7502 9.29719 11.7502 11.7005C11.7502 14.1039 11.8671 15.8511 11.9892 17.0204Z" stroke="#214759" stroke-width="2" stroke-linecap="round" stroke-linejoin="round"/>
<path d="M11.7502 5.28061C11.7502 5.28061 20.3297 9.56083 22.5002 9.56083C24.6708 9.56083 33.2502 5.28061 33.2502 5.28061" stroke="#214759" stroke-width="2" stroke-linecap="round" stroke-linejoin="round"/>
<path d="M22.5002 9.56082V22.4015" stroke="#214759" stroke-width="2" stroke-linecap="round" stroke-linejoin="round"/>
<path d="M1.23915 35.619C1.36347 36.8102 2.12922 37.801 3.22242 38.301C5.49214 39.3394 9.47687 40.9996 11.7502 40.9996C14.0236 40.9996 18.0084 39.3394 20.2781 38.301C21.3713 37.801 22.137 36.8102 22.2613 35.619C22.3834 34.4497 22.5002 32.7024 22.5002 30.2991C22.5002 27.8957 22.3834 26.1485 22.2613 24.9792C22.137 23.788 21.3713 22.7972 20.2781 22.2971C18.0084 21.2588 14.0236 19.5985 11.7502 19.5985C9.47687 19.5985 5.49214 21.2588 3.22243 22.2971C2.12922 22.7972 1.36347 23.788 1.23915 24.9792C1.1171 26.1485 1.00024 27.8957 1.00024 30.2991C1.00024 32.7024 1.1171 34.4497 1.23915 35.619Z" stroke="#214759" stroke-width="2" stroke-linecap="round" stroke-linejoin="round"/>
<path d="M1.00024 23.8792C1.00024 23.8792 9.57966 28.1594 11.7502 28.1594C13.9208 28.1594 22.5002 23.8792 22.5002 23.8792" stroke="#214759" stroke-width="2" stroke-linecap="round" stroke-linejoin="round"/>
<path d="M11.7502 28.1594V41" stroke="#214759" stroke-width="2" stroke-linecap="round" stroke-linejoin="round"/>
<path d="M22.7392 35.619C22.8635 36.8102 23.6292 37.801 24.7224 38.301C26.9921 39.3394 30.9769 40.9996 33.2502 40.9996C35.5236 40.9996 39.5084 39.3394 41.7781 38.301C42.8713 37.801 43.637 36.8102 43.7613 35.619C43.8834 34.4497 44.0002 32.7024 44.0002 30.2991C44.0002 27.8957 43.8834 26.1485 43.7613 24.9792C43.637 23.788 42.8713 22.7972 41.7781 22.2971C39.5084 21.2588 35.5236 19.5985 33.2502 19.5985C30.9769 19.5985 26.9921 21.2588 24.7224 22.2971C23.6292 22.7972 22.8635 23.788 22.7392 24.9792C22.6171 26.1485 22.5002 27.8957 22.5002 30.2991C22.5002 32.7024 22.6171 34.4497 22.7392 35.619Z" stroke="#214759" stroke-width="2" stroke-linecap="round" stroke-linejoin="round"/>
<path d="M22.5002 23.8792C22.5002 23.8792 31.0797 28.1594 33.2502 28.1594C35.4208 28.1594 44.0002 23.8792 44.0002 23.8792" stroke="#214759" stroke-width="2" stroke-linecap="round" stroke-linejoin="round"/>
<path d="M33.2502 28.1594V41" stroke="#214759" stroke-width="2" stroke-linecap="round" stroke-linejoin="round"/>
</svg>
