<svg width="42" height="42" viewBox="0 0 42 42" fill="none" xmlns="http://www.w3.org/2000/svg">
<rect x="1" y="24" width="40" height="17" stroke="#214759" stroke-width="2" stroke-linecap="round" stroke-linejoin="round"/>
<path d="M4.5625 1H16.4375L20 7H1L4.5625 1Z" stroke="#214759" stroke-width="2" stroke-linecap="round" stroke-linejoin="round"/>
<path d="M20.5 24V41" stroke="#214759" stroke-width="2" stroke-linecap="round"/>
<path d="M11 24V41" stroke="#214759" stroke-width="2" stroke-linecap="round"/>
<path d="M15 32V34" stroke="#214759" stroke-width="2" stroke-linecap="round"/>
<path d="M11 22V24" stroke="#214759" stroke-width="2" stroke-linecap="round"/>
<path d="M35 21L31 21" stroke="#214759" stroke-width="2" stroke-linecap="round"/>
<path d="M7 23.5V21.5H8" stroke="#214759" stroke-width="2" stroke-linecap="round" stroke-linejoin="round"/>
<path d="M15 23.5V21.5H14" stroke="#214759" stroke-width="2" stroke-linecap="round" stroke-linejoin="round"/>
<path d="M32 28L30 28" stroke="#214759" stroke-width="2" stroke-linecap="round"/>
<path d="M32 36L30 36" stroke="#214759" stroke-width="2" stroke-linecap="round"/>
<path d="M7 32V34" stroke="#214759" stroke-width="2" stroke-linecap="round"/>
<path d="M41 32H21" stroke="#214759" stroke-width="2" stroke-linecap="round"/>
<path d="M27 17C27 15.3431 28.3431 14 30 14C31.6569 14 33 15.3431 33 17V24" stroke="#214759" stroke-width="2" stroke-linecap="round"/>
</svg>
