<svg width="38" height="42" viewBox="0 0 38 42" fill="none" xmlns="http://www.w3.org/2000/svg">
<path d="M1 38.1571C1 38.5304 1.07311 38.9 1.21517 39.2449C1.35723 39.5899 1.56543 39.9032 1.82793 40.1672C2.09041 40.4312 2.40202 40.6407 2.74497 40.7836C3.08794 40.9264 3.4555 41 3.82672 41H24.7974C25.1955 40.9989 25.5887 40.9129 25.9511 40.7475C26.3136 40.5821 26.6369 40.341 26.8998 40.0405C27.1685 39.7467 27.3694 39.3968 27.4885 39.016C27.6075 38.6353 27.6418 38.2328 27.5888 37.8373C26.8839 31.8295 24.1872 26.2357 19.9339 21.9581C15.6806 17.6805 10.1184 14.9684 4.14472 14.2594C3.75155 14.2108 3.35259 14.2476 2.97471 14.3671C2.59683 14.4866 2.24879 14.6862 1.95402 14.9523C1.65599 15.2174 1.41698 15.5427 1.25258 15.9071C1.08819 16.2714 1.00212 16.6666 1 17.0667V38.1571Z" stroke="#214759" stroke-width="2" stroke-linecap="round" stroke-linejoin="round"/>
<path d="M6.63586 29.6641L12.2716 23.9962" stroke="#214759" stroke-width="2" stroke-linecap="round" stroke-linejoin="round"/>
<path d="M12.2716 35.3319L17.9074 29.664" stroke="#214759" stroke-width="2" stroke-linecap="round" stroke-linejoin="round"/>
<path d="M27.2888 2.83471L25.6811 1.32445C25.4145 1.09509 25.0695 0.979694 24.7195 1.00294C24.3695 1.02618 24.0425 1.18622 23.8084 1.44882L16.2292 9.94183L19.7626 13.2289L27.3418 4.7181C27.5829 4.46125 27.7128 4.11856 27.7029 3.76537C27.693 3.4122 27.5441 3.07744 27.2888 2.83471Z" stroke="#214759" stroke-width="2" stroke-linecap="round" stroke-linejoin="round"/>
<path d="M10.8759 15.9651L16.1759 9.94177L21.476 14.7568C21.7525 15.0335 21.9302 15.3945 21.9813 15.7834C22.0325 16.1723 21.9543 16.5673 21.7587 16.9068C21.7587 16.9068 20.2923 18.6835 18.455 20.6557" stroke="#214759" stroke-width="2" stroke-linecap="round" stroke-linejoin="round"/>
<path d="M36.5636 12.7492L34.9029 11.2567C34.6478 11.0537 34.328 10.9509 34.0029 10.9672C33.678 10.9835 33.3701 11.118 33.1362 11.3456L25.5747 19.8563L29.1081 23.1434L36.6696 14.6326C36.8998 14.3669 37.0176 14.0211 36.9978 13.6692C36.978 13.3173 36.8222 12.9871 36.5636 12.7492Z" stroke="#214759" stroke-width="2" stroke-linecap="round" stroke-linejoin="round"/>
<path d="M21.7941 24.0318L25.5041 19.8563L30.8042 24.6892C31.0984 24.9553 31.2872 25.3194 31.336 25.7144C31.3846 26.1093 31.2899 26.5088 31.0692 26.8391L26.2815 32.2583" stroke="#214759" stroke-width="2" stroke-linecap="round" stroke-linejoin="round"/>
</svg>
