<svg width="43" height="43" viewBox="0 0 43 43" fill="none" xmlns="http://www.w3.org/2000/svg">
<path d="M38.0814 36.9111L38.6958 37.7L38.0814 36.9111ZM33.8857 38.415L33.917 39.4145L33.8857 38.415ZM29.5457 39.5683L30.0242 40.4463L29.5457 39.5683ZM25.3602 40.9342L25.2313 39.9425L25.3602 40.9342ZM20.966 40.594L21.2413 39.6326L20.966 40.594ZM12.2067 39.8427L12.4671 38.8772L12.2067 39.8427ZM4.17624 36.1873L3.78368 37.107L4.17624 36.1873ZM1.28361 33.0469L0.338971 33.375L1.28361 33.0469ZM1.85725 29.0326L1.0612 28.4274L1.85725 29.0326ZM40.7804 28.9019L41.7426 28.6297L40.7804 28.9019ZM40.4684 33.2423L39.4973 33.0034C39.1843 34.2755 38.5156 35.3054 37.4669 36.1221L38.0814 36.9111L38.6958 37.7C40.0954 36.61 41.0179 35.1942 41.4394 33.4812L40.4684 33.2423ZM38.0814 36.9111L37.4669 36.1221C36.4125 36.9433 35.2189 37.3727 33.8544 37.4155L33.8857 38.415L33.917 39.4145C35.6985 39.3587 37.302 38.7855 38.6958 37.7L38.0814 36.9111ZM33.8857 38.415L33.8544 37.4155C32.1324 37.4694 30.5314 37.8922 29.0671 38.6902L29.5457 39.5683L30.0242 40.4463C31.2006 39.8052 32.493 39.4591 33.917 39.4145L33.8857 38.415ZM29.5457 39.5683L29.0671 38.6902C27.8537 39.3515 26.5769 39.7676 25.2313 39.9425L25.3602 40.9342L25.4891 41.9259C27.0834 41.7186 28.5969 41.2242 30.0242 40.4463L29.5457 39.5683ZM25.3602 40.9342L25.2313 39.9425C23.9001 40.1156 22.5728 40.0138 21.2413 39.6326L20.966 40.594L20.6908 41.5553C22.2783 42.0099 23.8805 42.135 25.4891 41.9259L25.3602 40.9342ZM20.966 40.594L21.2413 39.6326C19.6622 39.1805 18.0647 39.0341 16.4553 39.1971L16.556 40.192L16.6568 41.1869C18.0084 41.0501 19.3508 41.1717 20.6908 41.5553L20.966 40.594ZM16.556 40.192L16.4553 39.1971C15.0945 39.3349 13.7671 39.2279 12.4671 38.8772L12.2067 39.8427L11.9463 40.8082C13.4845 41.2231 15.0567 41.3489 16.6568 41.1869L16.556 40.192ZM12.2067 39.8427L12.4671 38.8772C11.1306 38.5167 9.87017 37.9953 8.68356 37.3126L8.18488 38.1794L7.68621 39.0462C9.02389 39.8158 10.4447 40.4032 11.9463 40.8082L12.2067 39.8427ZM8.18488 38.1794L8.68356 37.3126C7.38537 36.5658 6.01356 35.8843 4.5688 35.2676L4.17624 36.1873L3.78368 37.107C5.15949 37.6943 6.46011 38.3408 7.68621 39.0462L8.18488 38.1794ZM4.17624 36.1873L4.5688 35.2676C3.42632 34.78 2.65705 33.9533 2.22824 32.7188L1.28361 33.0469L0.338971 33.375C0.946427 35.1238 2.10558 36.3908 3.78368 37.107L4.17624 36.1873ZM1.28361 33.0469L2.22824 32.7188C1.81198 31.5204 1.96981 30.5369 2.6533 29.6379L1.85725 29.0326L1.0612 28.4274C-0.0564283 29.8974 -0.281026 31.5901 0.338971 33.375L1.28361 33.0469ZM1.85725 29.0326L2.6533 29.6379C3.48856 28.5393 4.43977 27.6502 5.50583 26.9607L4.96275 26.121L4.41966 25.2813C3.14618 26.105 2.02707 27.157 1.0612 28.4274L1.85725 29.0326ZM4.96275 26.121L5.50583 26.9607C6.65957 26.2145 7.85525 25.488 9.09297 24.7814L8.59716 23.9129L8.10136 23.0445C6.83273 23.7688 5.60546 24.5144 4.41966 25.2813L4.96275 26.121ZM8.59716 23.9129L9.09297 24.7814C10.2711 24.1088 11.5238 23.5934 12.8532 23.2354L12.5931 22.2698L12.333 21.3042C10.8409 21.7061 9.42957 22.2862 8.10136 23.0445L8.59716 23.9129ZM12.5931 22.2698L12.8532 23.2354C14.2096 22.87 15.5888 22.6206 16.9914 22.4873L16.8968 21.4918L16.8021 20.4962C15.288 20.6402 13.7981 20.9095 12.333 21.3042L12.5931 22.2698ZM16.8968 21.4918L16.9914 22.4873C18.4523 22.3483 19.9213 22.203 21.3986 22.0513L21.2964 21.0565L21.1942 20.0618C19.7219 20.213 18.2579 20.3578 16.8021 20.4962L16.8968 21.4918ZM21.2964 21.0565L21.3986 22.0513C22.7312 21.9144 24.0348 22.0585 25.3189 22.4859L25.6348 21.5371L25.9506 20.5883C24.3997 20.072 22.8111 19.8957 21.1942 20.0618L21.2964 21.0565ZM25.6348 21.5371L25.3189 22.4859C26.7977 22.9782 28.2984 23.3196 29.8201 23.5093L29.9438 22.517L30.0675 21.5246C28.6788 21.3516 27.3068 21.0397 25.9506 20.5883L25.6348 21.5371ZM29.9438 22.517L29.8201 23.5093C31.1369 23.6734 32.3536 24.0947 33.4791 24.7751L33.9964 23.9193L34.5137 23.0634C33.1462 22.2368 31.661 21.7233 30.0675 21.5246L29.9438 22.517ZM33.9964 23.9193L33.4791 24.7751C34.7738 25.5576 36.1647 26.2495 37.6504 26.8517L38.026 25.9249L38.4017 24.9981C37.0076 24.4331 35.7121 23.7878 34.5137 23.0634L33.9964 23.9193ZM38.026 25.9249L37.6504 26.8517C38.8263 27.3283 39.5121 28.0924 39.8182 29.1742L40.7804 28.9019L41.7426 28.6297C41.2559 26.9093 40.1054 25.6887 38.4017 24.9981L38.026 25.9249ZM40.7804 28.9019L39.8182 29.1742C40.0149 29.8696 40.1397 30.3633 40.201 30.6726C40.2159 30.7479 40.2258 30.8058 40.2318 30.8484C40.2383 30.8938 40.2384 30.9084 40.2382 30.9011C40.2381 30.8969 40.2376 30.8769 40.2402 30.846C40.2424 30.8189 40.2492 30.7558 40.2742 30.6749C40.2969 30.6018 40.3557 30.4437 40.5045 30.2929C40.6792 30.1159 40.926 30.0035 41.1971 30.0035V31.0035V32.0035C41.483 32.0035 41.7427 31.8856 41.9281 31.6976C42.0878 31.5358 42.1554 31.3613 42.1848 31.2664C42.2416 31.0829 42.2395 30.9157 42.2374 30.8431C42.2323 30.6683 42.1996 30.4694 42.1628 30.2836C42.0852 29.8923 41.9423 29.3353 41.7426 28.6297L40.7804 28.9019ZM41.1971 31.0035V30.0035C40.9216 30.0035 40.7168 30.1117 40.6025 30.1912C40.4882 30.2707 40.411 30.3576 40.3668 30.4127C40.2791 30.522 40.2201 30.6347 40.1849 30.7074C40.1095 30.8631 40.0398 31.0548 39.9751 31.2537C39.8419 31.6627 39.6824 32.2512 39.4973 33.0034L40.4684 33.2423L41.4394 33.4812C41.6216 32.7408 41.7671 32.2099 41.8769 31.8727C41.9336 31.6985 41.9699 31.6103 41.9848 31.5794C41.9948 31.5588 41.9771 31.6015 41.9268 31.6642C41.9013 31.696 41.8419 31.7654 41.7444 31.8332C41.6468 31.9011 41.4578 32.0035 41.1971 32.0035V31.0035Z" fill="#214759"/>
<path d="M3.01923 12.1572C4.68589 11.5947 6.90811 12.5947 8.01923 14.8447" stroke="#214759" stroke-width="2" stroke-linecap="round"/>
<path d="M13.0192 12.1572C11.3526 11.5947 9.13034 12.5947 8.01923 14.8447" stroke="#214759" stroke-width="2" stroke-linecap="round"/>
<path d="M11.0192 1.15724C12.6859 0.594717 14.9081 1.59472 16.0192 3.84473" stroke="#214759" stroke-width="2" stroke-linecap="round"/>
<path d="M21.0192 1.15724C19.3526 0.594717 17.1303 1.59469 16.0192 3.8447" stroke="#214759" stroke-width="2" stroke-linecap="round"/>
<path d="M31.0192 4.15724C32.6859 3.59472 34.9081 4.59472 36.0192 6.84473" stroke="#214759" stroke-width="2" stroke-linecap="round"/>
<path d="M41.0192 4.15724C39.3526 3.59472 37.1303 4.59469 36.0192 6.8447" stroke="#214759" stroke-width="2" stroke-linecap="round"/>
<path d="M11.0192 32.9353C15.8812 30.6418 16.5909 35.9539 21.4528 33.6604" stroke="#214759" stroke-width="2" stroke-miterlimit="10" stroke-linecap="round" stroke-linejoin="round"/>
<path d="M21.0192 28.9353C25.8812 26.6418 26.5909 31.9539 31.4528 29.6604" stroke="#214759" stroke-width="2" stroke-miterlimit="10" stroke-linecap="round" stroke-linejoin="round"/>
</svg>
