<svg width="42" height="42" viewBox="0 0 42 42" fill="none" xmlns="http://www.w3.org/2000/svg">
<path d="M15.7826 13.1739H9.11654C8.73567 13.1739 8.35854 13.2489 8.0067 13.3948C7.65483 13.5406 7.33516 13.7543 7.06593 14.0237C6.7967 14.2931 6.58318 14.6128 6.4376 14.9648C6.292 15.3167 6.21718 15.6939 6.21741 16.0748V35.7826" stroke="#214759" stroke-width="2" stroke-linecap="round" stroke-linejoin="round"/>
<path d="M35.7827 35.7843V24.48" stroke="#214759" stroke-width="2" stroke-linecap="round" stroke-linejoin="round"/>
<path d="M41 35.7826C41 37.1663 40.4503 38.4934 39.4718 39.4718C38.4934 40.4503 37.1663 41 35.7826 41H6.21739C4.83365 41 3.50659 40.4503 2.52814 39.4718C1.54969 38.4934 1 37.1663 1 35.7826H41Z" stroke="#214759" stroke-width="2" stroke-linecap="round" stroke-linejoin="round"/>
<path d="M30.4488 1C29.0754 1.0046 27.7166 1.28238 26.4515 1.81716C25.1865 2.35195 24.0404 3.13304 23.0802 4.11501C22.1199 5.09696 21.3646 6.26012 20.8581 7.5368C20.3517 8.81346 20.1044 10.1781 20.1305 11.5513C20.0522 13.4932 20.523 15.4178 21.4887 17.1044L18.3914 23.6087L24.8974 20.5096C26.2844 21.3694 27.8519 21.8955 29.4768 22.0468C31.1014 22.1981 32.7392 21.9701 34.2611 21.381C35.7828 20.792 37.1472 19.8579 38.2467 18.652C39.3461 17.4463 40.1508 16.0018 40.5975 14.4323C41.0441 12.8628 41.1204 11.2111 40.8204 9.60708C40.5204 8.00308 39.8522 6.49057 38.8684 5.18861C37.8848 3.88663 36.6124 2.83068 35.1514 2.10386C33.6903 1.37704 32.0806 0.999179 30.4488 1Z" stroke="#214759" stroke-width="2" stroke-linecap="round" stroke-linejoin="round"/>
<path d="M25.3937 14.4096C27.5561 17.3387 33.1168 17.3387 35.2793 14.4096" stroke="#214759" stroke-width="2" stroke-linecap="round" stroke-linejoin="round"/>
<path d="M26.4921 7.81921V8.91761" stroke="#214759" stroke-width="2" stroke-linecap="round" stroke-linejoin="round"/>
<path d="M34.1808 7.81921V8.91761" stroke="#214759" stroke-width="2" stroke-linecap="round" stroke-linejoin="round"/>
</svg>
