<svg width="42" height="42" viewBox="0 0 42 42" fill="none" xmlns="http://www.w3.org/2000/svg">
<path d="M40.9978 31.4377L41.0009 34.0466C41.0016 34.7946 40.5211 35.4655 39.7923 35.7346L25.9527 40.8351C25.2333 41.1006 24.4282 41.0433 23.7586 40.6789L2.47225 29.1191C1.52243 28.6029 1.00134 27.6598 1.00134 26.697C1.00134 26.1354 1.17807 25.567 1.5508 25.0728C1.87461 24.6424 2.31989 24.3102 2.83498 24.1152L6.50086 22.9048" stroke="#214759" stroke-width="2" stroke-linecap="round" stroke-linejoin="round"/>
<path d="M36.501 28.1429L39.9877 29.8363C40.6681 30.178 40.9995 30.8086 40.9979 31.4377C40.9965 32.1291 40.5923 32.8177 39.807 33.1154L27.1085 37.9337C26.9241 38.0041 26.7305 38.0386 26.5368 38.0386C26.2614 38.0386 25.9865 37.9682 25.7439 37.8304C24.6334 37.1991 24.7643 35.6217 25.9643 35.1664L35.277 31.6328" stroke="#214759" stroke-width="2" stroke-linecap="round" stroke-linejoin="round"/>
<path d="M40.9978 22.5727L41.0009 25.1817C41.0016 25.9297 40.5211 26.6005 39.7923 26.869L25.9527 31.9704C25.2333 32.2351 24.4282 32.1778 23.7586 31.8141L2.47225 20.2541C1.52243 19.738 1.00134 18.7949 1.00134 17.8314C1.00134 17.2698 1.17807 16.7013 1.5508 16.2071C1.87461 15.7774 2.31989 15.4452 2.83498 15.2503L7.00086 13.8571" stroke="#214759" stroke-width="2" stroke-linecap="round" stroke-linejoin="round"/>
<path d="M37.001 19.5714L39.9877 20.9704C40.6688 21.3122 41.0003 21.9435 40.9979 22.5725C40.9955 23.2639 40.5915 23.9525 39.807 24.2502L27.1085 29.0686C26.9241 29.1383 26.7305 29.1727 26.5368 29.1727C26.2614 29.1727 25.9865 29.1031 25.7439 28.9646C24.6334 28.3333 24.7643 26.7559 25.9643 26.3006L35.277 22.7676" stroke="#214759" stroke-width="2" stroke-linecap="round" stroke-linejoin="round"/>
<path d="M35.2769 13.9021L25.9647 17.4354C24.7647 17.8907 24.634 19.4681 25.7438 20.0992C26.1574 20.3344 26.6614 20.3729 27.1087 20.203L39.8072 15.3847C41.3068 14.8156 41.4165 12.8222 39.9876 12.1054L18.2605 1.20601C17.7745 0.962303 17.202 0.933386 16.692 1.12692L2.83492 6.38475C2.32037 6.58003 1.87474 6.91222 1.55074 7.34197C0.538739 8.68451 0.968738 10.5718 2.47237 11.3884L23.7585 22.9486C24.4287 23.3125 25.2338 23.37 25.9529 23.1048L39.7927 18.0036C40.5212 17.735 41.0017 17.064 41.0008 16.3161L40.9981 13.707" stroke="#214759" stroke-width="2" stroke-linecap="round" stroke-linejoin="round"/>
</svg>
