<svg width="42" height="42" viewBox="0 0 42 42" fill="none" xmlns="http://www.w3.org/2000/svg">
<path d="M34.8462 8.76501H7.15385C3.75517 8.76501 1 11.8034 1 15.5513V34.2137C1 37.9618 3.75517 41 7.15385 41H34.8462C38.2449 41 41 37.9618 41 34.2137V15.5513C41 11.8034 38.2449 8.76501 34.8462 8.76501Z" stroke="#214759" stroke-width="2" stroke-linecap="round" stroke-linejoin="round"/>
<path d="M11 41V8.76501" stroke="#214759" stroke-width="2" stroke-linecap="round" stroke-linejoin="round"/>
<path d="M31 41V8.76501" stroke="#214759" stroke-width="2" stroke-linecap="round" stroke-linejoin="round"/>
<path d="M13.3077 8.76494C13.3077 6.70556 14.1181 4.7305 15.5607 3.27429C17.0033 1.81808 18.9599 1 21 1C23.0401 1 24.9967 1.81808 26.4393 3.27429C27.8819 4.7305 28.6923 6.70556 28.6923 8.76494" stroke="#214759" stroke-width="2" stroke-linecap="round" stroke-linejoin="round"/>
</svg>
