<svg width="36" height="42" viewBox="0 0 36 42" fill="none" xmlns="http://www.w3.org/2000/svg">
<path d="M12.2175 10.5755C11.0662 9.74171 10.1065 8.6698 9.41697 7.43706C8.64517 6.05739 8.20532 4.47829 8.20532 2.80645V1H11.9483V2.80645C11.9483 3.84376 12.2184 4.81845 12.6921 5.66539C12.914 6.06204 13.1792 6.43127 13.4811 6.76637" stroke="#214759" stroke-width="2" stroke-miterlimit="2.6131" stroke-linecap="round" stroke-linejoin="round"/>
<path d="M23.599 11.027C23.4338 13.2037 21.9768 15.0954 19.872 15.8284V19.4559H22.572C23.6056 19.4559 24.4435 20.2813 24.4435 21.2995C24.4435 22.3177 23.6056 23.1431 22.572 23.1431H19.872V34.7141C21.9408 34.4012 23.8586 33.5771 25.4687 32.36C26.7344 31.4032 27.8111 30.2023 28.6224 28.815C28.0254 28.6751 27.5104 28.2486 27.2912 27.6362C26.948 26.6776 27.4586 25.6265 28.4316 25.2885L31.4428 24.2365C32.4158 23.8984 33.4827 24.4014 33.8259 25.3599L34.8938 28.3263C35.2369 29.2848 34.7263 30.3359 33.7534 30.674C33.1383 30.8877 32.4856 30.7651 32.002 30.4039C30.0225 35.4119 23.8264 41 18.0007 41C12.1749 41 5.97883 35.4119 3.9992 30.4041C3.5156 30.7652 2.86296 30.8877 2.24786 30.674C1.27486 30.336 0.764333 29.2848 1.10748 28.3264L2.17535 25.3599C2.51858 24.4014 3.58554 23.8984 4.55845 24.2365L7.56967 25.2885C8.54266 25.6265 9.05319 26.6777 8.71005 27.6362C8.49079 28.2487 7.97587 28.6752 7.37875 28.815C8.19007 30.2023 9.26673 31.4033 10.5324 32.36C12.1425 33.5771 14.0604 34.4012 16.1292 34.7141V23.1432H13.4291C12.3956 23.1432 11.5577 22.3178 11.5577 21.2996C11.5577 20.2815 12.3955 19.456 13.4291 19.456H16.1292V15.8285C13.8917 15.0492 12.3863 12.961 12.3863 10.6126C12.3863 7.55828 14.9002 5.08179 18.0006 5.08179C19.562 5.08179 20.9746 5.71011 21.9922 6.72383" stroke="#214759" stroke-width="2" stroke-miterlimit="2.6131" stroke-linecap="round" stroke-linejoin="round"/>
<path fill-rule="evenodd" clip-rule="evenodd" d="M27.7961 1V2.80645C27.7961 5.46204 26.6946 7.87494 24.9202 9.6231C23.1456 11.3712 20.6963 12.4562 18.0006 12.4562C16.9671 12.4562 16.1292 11.6308 16.1292 10.6126C16.1292 9.59437 16.9671 8.7689 18.0006 8.7689C19.6631 8.7689 21.1758 8.09755 22.2737 7.016C23.3716 5.93445 24.0531 4.44416 24.0531 2.80645V1H27.7961Z" stroke="#214759" stroke-width="2" stroke-miterlimit="2.6131" stroke-linecap="round" stroke-linejoin="round"/>
</svg>
