<svg width="42" height="31" viewBox="0 0 42 31" fill="none" xmlns="http://www.w3.org/2000/svg">
<path d="M39.4615 1H2.53846C1.68879 1 1 1.64671 1 2.44445V25.5556C1 26.3532 1.68879 27 2.53846 27H39.4615C40.3111 27 41 26.3532 41 25.5556V2.44445C41 1.64671 40.3111 1 39.4615 1Z" stroke="#214759" stroke-width="2" stroke-linecap="round" stroke-linejoin="round"/>
<path d="M28 4H6C4.89544 4 4 4.89544 4 6V22C4 23.1046 4.89544 24 6 24H28C29.1046 24 30 23.1046 30 22V6C30 4.89544 29.1046 4 28 4Z" stroke="#214759" stroke-width="2" stroke-linecap="round" stroke-linejoin="round"/>
<path d="M33.3077 8.22223H34.8462" stroke="#214759" stroke-width="2" stroke-linecap="round" stroke-linejoin="round"/>
<path d="M33.3077 14.0001H34.8462" stroke="#214759" stroke-width="2" stroke-linecap="round" stroke-linejoin="round"/>
<path d="M4.521 27.0305L4.00005 29.9849" stroke="#214759" stroke-width="2" stroke-linecap="round" stroke-linejoin="round"/>
<path d="M37 27.0305L37.5209 29.9849" stroke="#214759" stroke-width="2" stroke-linecap="round" stroke-linejoin="round"/>
<path d="M10 12C13.4737 14.7976 8.52632 16.2024 12 19" stroke="#214759" stroke-width="2" stroke-miterlimit="10" stroke-linecap="round" stroke-linejoin="round"/>
<path d="M16 9C19.4737 11.7976 14.5263 13.2024 18 16" stroke="#214759" stroke-width="2" stroke-miterlimit="10" stroke-linecap="round" stroke-linejoin="round"/>
<path d="M22 12C25.4737 14.7976 20.5263 16.2024 24 19" stroke="#214759" stroke-width="2" stroke-miterlimit="10" stroke-linecap="round" stroke-linejoin="round"/>
</svg>
