<svg width="42" height="42" viewBox="0 0 42 42" fill="none" xmlns="http://www.w3.org/2000/svg">
<rect x="1" y="1" width="40" height="40" stroke="#214759" stroke-width="2" stroke-linecap="round" stroke-linejoin="round"/>
<path d="M1 25.5L16 41" stroke="#214759" stroke-width="2" stroke-linecap="round"/>
<path d="M1 35.5L6.24999 41" stroke="#214759" stroke-width="2" stroke-linecap="round"/>
<path d="M1.00012 15.5L26 41" stroke="#214759" stroke-width="2" stroke-linecap="round"/>
<path d="M1.5 6.50002L35.5 40.5" stroke="#214759" stroke-width="2" stroke-linecap="round"/>
<path d="M6 1.00002L41 36" stroke="#214759" stroke-width="2" stroke-linecap="round"/>
<path d="M15.5001 1.00002L41 26" stroke="#214759" stroke-width="2" stroke-linecap="round"/>
<path d="M26.5001 1.00002L41.0001 15.5" stroke="#214759" stroke-width="2" stroke-linecap="round"/>
<path d="M37 1L41 5" stroke="#214759" stroke-width="2" stroke-linecap="round"/>
<path d="M25.5 41L40.5 26" stroke="#214759" stroke-width="2" stroke-linecap="round"/>
<path d="M35 41L41 35" stroke="#214759" stroke-width="2" stroke-linecap="round"/>
<path d="M15.5 41L41 15.5" stroke="#214759" stroke-width="2" stroke-linecap="round"/>
<path d="M5.99988 40.5L40.9999 5.5" stroke="#214759" stroke-width="2" stroke-linecap="round"/>
<path d="M1.5 35L35.5 1.00001" stroke="#214759" stroke-width="2" stroke-linecap="round"/>
<path d="M1 26L25.5002 1.00002" stroke="#214759" stroke-width="2" stroke-linecap="round"/>
<path d="M1 15.5L15.0001 1.00002" stroke="#214759" stroke-width="2" stroke-linecap="round"/>
<path d="M1 5.5L5.24999 1.00001" stroke="#214759" stroke-width="2" stroke-linecap="round"/>
</svg>
