<svg width="42" height="38" viewBox="0 0 42 38" fill="none" xmlns="http://www.w3.org/2000/svg">
<path d="M9.0151 16.5793C13.4404 16.5793 17.028 20.1862 17.028 24.6355C17.028 29.0847 13.4404 32.6915 9.0151 32.6915C4.58979 32.6915 1.00232 29.0847 1.00232 24.6355C1.00232 20.1862 4.58979 16.5793 9.0151 16.5793Z" stroke="#214759" stroke-width="2" stroke-miterlimit="10" stroke-linecap="round" stroke-linejoin="round"/>
<path d="M24.9725 14.6529C24.9725 10.2037 28.56 6.59681 32.9854 6.59681C37.4107 6.59681 40.9981 10.2037 40.9981 14.6529C40.9981 19.1021 37.4107 22.709 32.9854 22.709C28.56 22.709 24.9725 19.1021 24.9725 14.6529Z" stroke="#214759" stroke-width="2" stroke-miterlimit="10" stroke-linecap="round" stroke-linejoin="round"/>
<path d="M22.7845 4.74346L16.3146 20.9174L9.35242 23.8168L10.4327 9.87335" stroke="#214759" stroke-width="2" stroke-miterlimit="10" stroke-linecap="round" stroke-linejoin="round"/>
<path d="M32.5083 14.1735L18.9244 1.00001L15.4625 2.44178" stroke="#214759" stroke-width="2" stroke-miterlimit="10" stroke-linecap="round" stroke-linejoin="round"/>
<path d="M4.48413 10.7146L11.4159 5.3746" stroke="#214759" stroke-width="2" stroke-miterlimit="10" stroke-linecap="round" stroke-linejoin="round"/>
<path d="M7.8407 8.5L18.9787 14.2577" stroke="#214759" stroke-width="2" stroke-miterlimit="10" stroke-linecap="round" stroke-linejoin="round"/>
<path d="M41.0002 24.438L36.0517 22.0959L18.9787 32.6932L9.0151 32.6915L1.00024 36.1279" stroke="#214759" stroke-width="2" stroke-miterlimit="10" stroke-linecap="round" stroke-linejoin="round"/>
</svg>
