<svg width="38" height="42" viewBox="0 0 38 42" fill="none" xmlns="http://www.w3.org/2000/svg">
<path d="M23.6077 1.00018L18.2321 10.2898M16.6622 14.1747L15.3392 19.101" stroke="#214759" stroke-width="2" stroke-miterlimit="2.6131" stroke-linecap="round" stroke-linejoin="round"/>
<path d="M11.9134 23.9684H8.10462M5.17945 25.6653C3.10249 27.7376 3.59855 30.2953 1 32.888" stroke="#214759" stroke-width="2" stroke-miterlimit="2.6131" stroke-linecap="round" stroke-linejoin="round"/>
<path d="M26.7036 36.5378L28.7129 30.7483L31.6944 29.0874V22.8234" stroke="#214759" stroke-width="2" stroke-miterlimit="2.6131" stroke-linecap="round" stroke-linejoin="round"/>
<path fill-rule="evenodd" clip-rule="evenodd" d="M16.8277 10.4127C17.6996 10.1802 18.5954 10.697 18.8284 11.567C19.0614 12.437 18.5434 13.3307 17.6714 13.5632L12.6489 14.9059L14.7395 19.6154L18.5659 19.203C19.0409 19.1518 19.4956 19.1668 19.8687 19.4048L25.3538 22.5644C26.1339 23.0153 26.4001 24.0118 25.9482 24.7902C25.4964 25.5687 24.4976 25.8341 23.7174 25.3834L18.7594 22.5274L13.5483 23.9205C12.836 24.1109 12.0831 23.7978 11.7137 23.1616L7.8605 16.5027C6.86542 14.7831 7.68238 12.8577 9.36456 12.4079L16.8277 10.4127Z" stroke="#214759" stroke-width="2" stroke-miterlimit="2.6131" stroke-linecap="round" stroke-linejoin="round"/>
<path d="M15.9858 23.2688L17.5729 26.7786C17.7572 27.1863 17.7978 27.7907 17.6904 28.1911L16.0812 34.1831C15.8482 35.0531 14.9524 35.5699 14.0805 35.3375C13.2085 35.105 12.6905 34.2113 12.9235 33.3413L14.4084 27.8123L11.7662 23.2464" stroke="#214759" stroke-width="2" stroke-miterlimit="2.6131" stroke-linecap="round" stroke-linejoin="round"/>
<path d="M8.81828 18.1581L7.79776 19.9216V23.9684C7.79776 24.8701 7.06516 25.601 6.16139 25.601C5.25763 25.601 4.52502 24.8701 4.52502 23.9684V19.4982C4.52478 19.2133 4.60684 18.9346 4.74872 18.6883L8.30119 12.5493" stroke="#214759" stroke-width="2" stroke-miterlimit="2.6131" stroke-linecap="round" stroke-linejoin="round"/>
<path d="M8.6118 12.5156C10.2364 12.2525 11.3397 10.7252 11.076 9.10421C10.8123 7.48324 9.28158 6.38244 7.65696 6.6455C6.03234 6.90857 4.92908 8.43588 5.19275 10.0569C5.45642 11.6778 6.98718 12.7786 8.6118 12.5156Z" stroke="#214759" stroke-width="2" stroke-miterlimit="2.6131" stroke-linecap="round" stroke-linejoin="round"/>
<path d="M16.2738 34.1012L19.6871 32.6505L21.5373 27.3014L23.5324 25.5459M25.4652 22.3565L26.9578 15.2623L30.7592 12.2835L33.4691 5.74111L37 5.08185V41.0002L10.9476 40.9274L13.9428 35.5831" stroke="#214759" stroke-width="2" stroke-miterlimit="2.6131" stroke-linecap="round" stroke-linejoin="round"/>
<path d="M14.7394 19.6155L11.2804 21.608" stroke="#214759" stroke-width="2" stroke-miterlimit="2.6131" stroke-linecap="round" stroke-linejoin="round"/>
</svg>
