<svg width="38" height="41" viewBox="0 0 38 41" fill="none" xmlns="http://www.w3.org/2000/svg">
<path d="M33.3999 22.7303H4.59998V0.99997H33.3999V22.7303Z" stroke="#214759" stroke-width="2" stroke-miterlimit="10" stroke-linecap="round" stroke-linejoin="round"/>
<path d="M7.00007 29.9738C7.00007 31.3073 5.92551 32.3883 4.60007 32.3883C3.27463 32.3883 2.20007 31.3073 2.20007 29.9738C2.20007 28.6404 3.27463 27.5593 4.60007 27.5593C5.92551 27.5593 7.00007 28.6404 7.00007 29.9738Z" stroke="#214759" stroke-width="2" stroke-miterlimit="10" stroke-linecap="round" stroke-linejoin="round"/>
<path d="M4.5 32.3883V39.3883" stroke="#214759" stroke-width="2" stroke-miterlimit="10" stroke-linecap="round" stroke-linejoin="round"/>
<path d="M21.4 29.9738C21.4 31.3073 20.3254 32.3883 19 32.3883C17.6745 32.3883 16.6 31.3073 16.6 29.9738C16.6 28.6404 17.6745 27.5593 19 27.5593C20.3254 27.5593 21.4 28.6404 21.4 29.9738Z" stroke="#214759" stroke-width="2" stroke-miterlimit="10" stroke-linecap="round" stroke-linejoin="round"/>
<path d="M19 33V39" stroke="#214759" stroke-width="2" stroke-miterlimit="10" stroke-linecap="round" stroke-linejoin="round"/>
<path d="M35.7999 29.9738C35.7999 31.3073 34.7253 32.3883 33.3999 32.3883C32.0744 32.3883 30.9999 31.3073 30.9999 29.9738C30.9999 28.6404 32.0744 27.5593 33.3999 27.5593C34.7253 27.5593 35.7999 28.6404 35.7999 29.9738Z" stroke="#214759" stroke-width="2" stroke-miterlimit="10" stroke-linecap="round" stroke-linejoin="round"/>
<path d="M33.5 32.3883V39.3883" stroke="#214759" stroke-width="2" stroke-miterlimit="10" stroke-linecap="round" stroke-linejoin="round"/>
<path d="M4.59998 13.0724H12.2733C15.0945 13.0724 17.8526 13.9125 20.2 15.4869C22.5473 17.0613 25.3054 17.9014 28.1266 17.9014H33.3999" stroke="#214759" stroke-width="2" stroke-miterlimit="10" stroke-linecap="round" stroke-linejoin="round"/>
<path d="M23.8 8.24347C23.8 9.57691 22.7254 10.658 21.4 10.658C20.0746 10.658 19 9.57691 19 8.24347C19 6.91003 20.0746 5.82899 21.4 5.82899C22.7254 5.82899 23.8 6.91003 23.8 8.24347Z" stroke="#214759" stroke-width="2" stroke-miterlimit="10" stroke-linecap="round" stroke-linejoin="round"/>
<path d="M33.3998 13.1096C29.2874 13.3202 25.2748 14.4222 21.6349 16.3324" stroke="#214759" stroke-width="2" stroke-miterlimit="10" stroke-linecap="round" stroke-linejoin="round"/>
<path d="M1 39.7927H8.19999" stroke="#214759" stroke-width="2" stroke-miterlimit="10" stroke-linecap="round" stroke-linejoin="round"/>
<path d="M15.4 39.7927H22.6" stroke="#214759" stroke-width="2" stroke-miterlimit="10" stroke-linecap="round" stroke-linejoin="round"/>
<path d="M29.8 39.7927H37" stroke="#214759" stroke-width="2" stroke-miterlimit="10" stroke-linecap="round" stroke-linejoin="round"/>
<path d="M4.59998 32.3883C8.95997 35.3125 14.64 35.3125 19 32.3883" stroke="#214759" stroke-width="2" stroke-miterlimit="10" stroke-linecap="round" stroke-linejoin="round"/>
<path d="M19 32.3883C23.36 35.3125 29.04 35.3125 33.4 32.3883" stroke="#214759" stroke-width="2" stroke-miterlimit="10" stroke-linecap="round" stroke-linejoin="round"/>
</svg>
