<svg width="42" height="42" viewBox="0 0 42 42" fill="none" xmlns="http://www.w3.org/2000/svg">
<path d="M1.76702 24.586C0.874961 18.2588 0.428941 15.0953 2.32464 13.0477C4.22034 11 7.59516 11 14.3448 11H27.6552C34.4048 11 37.7796 11 39.6754 13.0477C41.571 15.0953 41.125 18.2588 40.233 24.586L39.387 30.586C38.6874 35.5478 38.3378 38.0286 36.5434 39.5144C34.749 41 32.1024 41 26.8092 41H15.1907C9.89761 41 7.25106 41 5.45668 39.5144C3.6623 38.0286 3.31252 35.5478 2.61296 30.586L1.76702 24.586Z" stroke="#214759" stroke-width="2" stroke-linecap="round"/>
<path d="M21 31C21 32.6568 19.6568 34 18 34C16.3431 34 15 32.6568 15 31C15 29.3432 16.3431 28 18 28C19.6568 28 21 29.3432 21 31ZM21 31V18C21 21.3138 24.7908 24 27 24" stroke="#214759" stroke-width="2" stroke-linecap="round" stroke-linejoin="round"/>
<path d="M36.1239 11C36.5811 8.39046 34.5731 6 31.9239 6H10.0762C7.42694 6 5.41892 8.39046 5.87618 11" stroke="#214759" stroke-width="2" stroke-linecap="round"/>
<path d="M32.0001 6C32.0569 5.48184 32.0853 5.2227 32.0857 5.0087C32.0901 2.96144 30.5481 1.24128 28.5125 1.02284C28.2997 1 28.0391 1 27.5177 1H14.4822C13.9609 1 13.7003 1 13.4875 1.02284C11.4519 1.24128 9.90986 2.96144 9.91432 5.00868C9.91478 5.2227 9.94316 5.4818 9.9999 6" stroke="#214759" stroke-width="2" stroke-linecap="round"/>
</svg>
