<svg width="42" height="42" viewBox="0 0 42 42" fill="none" xmlns="http://www.w3.org/2000/svg">
<path d="M1.00024 40.5111C2.02977 40.2052 2.97818 39.6739 3.77652 38.956C4.57486 38.2378 5.20314 37.3511 5.61564 36.36C6.25008 37.8391 7.3348 39.0809 8.71567 39.9089C10.0965 40.7369 11.7034 41.1089 13.3079 40.9723C14.9125 41.1089 16.5193 40.7369 17.9002 39.9089C19.2811 39.0809 20.3658 37.8391 21.0002 36.36C21.6347 37.8391 22.7194 39.0809 24.1003 39.9089C25.4812 40.7369 27.088 41.1089 28.6926 40.9723C30.2971 41.1089 31.9041 40.7369 33.2847 39.9089C34.6657 39.0809 35.7504 37.8391 36.3847 36.36C36.7973 37.3511 37.4258 38.2378 38.2239 38.956C39.0223 39.6739 39.9706 40.2052 41.0002 40.5111" stroke="#214759" stroke-width="2" stroke-linecap="round" stroke-linejoin="round"/>
<path d="M1.00024 28.2121C3.05928 27.6003 4.79061 26.0432 5.61564 24.0611C6.90229 27.0607 10.231 28.6733 13.3079 28.6733C19.4618 28.6733 24.0772 24.0611 24.0772 19.4489C24.0772 13.2993 21.0003 7.14962 13.3079 10.2244C13.8207 7.14962 17.0002 1 25.6156 1C34.2309 1 39.4616 7.14962 41.0002 10.2244" stroke="#214759" stroke-width="2" stroke-linecap="round" stroke-linejoin="round"/>
</svg>
