<svg width="29" height="42" viewBox="0 0 29 42" fill="none" xmlns="http://www.w3.org/2000/svg">
<path d="M24.6342 15.6666C24.9357 15.6668 25.2334 15.7325 25.5061 15.8591C25.779 15.9857 26.0202 16.1702 26.2126 16.3993C26.405 16.6284 26.544 16.8966 26.6198 17.1848C26.6954 17.4729 26.7058 17.7741 26.6502 18.0667C26.0281 20.7855 24.4882 23.2144 22.2836 24.9547C20.0788 26.695 17.3404 27.6429 14.5182 27.6429C11.696 27.6429 8.95767 26.695 6.753 24.9547C4.54834 23.2144 3.00846 20.7855 2.38629 18.0667C2.32704 17.7721 2.33539 17.4683 2.41072 17.1774C2.48605 16.8865 2.62645 16.616 2.82157 16.3858C3.01671 16.1555 3.26162 15.9714 3.53827 15.8469C3.81493 15.7225 4.11632 15.6609 4.42029 15.6666H24.6342Z" stroke="#214759" stroke-width="2" stroke-linecap="round" stroke-linejoin="round"/>
<path d="M28.0002 41L22.1143 25.1423" stroke="#214759" stroke-width="2" stroke-linecap="round" stroke-linejoin="round"/>
<path d="M1.00024 41L6.88623 25.1423" stroke="#214759" stroke-width="2" stroke-linecap="round" stroke-linejoin="round"/>
<path d="M26.0201 35.6667H2.9801" stroke="#214759" stroke-width="2" stroke-linecap="round" stroke-linejoin="round"/>
<path d="M5.3562 1.00005L4.24021 2.45782C3.79462 3.03505 3.59095 3.75944 3.67137 4.48093C3.7518 5.20243 4.11016 5.86572 4.6722 6.33338C4.98494 6.59005 5.2391 6.90922 5.41794 7.26988C5.59681 7.63053 5.69631 8.02453 5.70992 8.42589C5.72351 8.82726 5.65092 9.22694 5.49687 9.59861C5.34283 9.97029 5.11086 10.3055 4.8162 10.5823" stroke="#214759" stroke-width="2" stroke-linecap="round" stroke-linejoin="round"/>
<path d="M15.5083 1.00005L14.3923 2.45782C13.9468 3.03505 13.743 3.75944 13.8235 4.48093C13.9039 5.20243 14.2623 5.86572 14.8243 6.33338C15.1321 6.5932 15.3817 6.9135 15.5574 7.27386C15.7331 7.63423 15.8307 8.02677 15.8443 8.42648C15.8578 8.8262 15.7869 9.22431 15.6361 9.59548C15.4852 9.96662 15.2579 10.3027 14.9683 10.5823" stroke="#214759" stroke-width="2" stroke-linecap="round" stroke-linejoin="round"/>
<path d="M24.9581 1.00005L23.8421 2.45782C23.3966 3.03505 23.1928 3.75944 23.2733 4.48093C23.3538 5.20243 23.7121 5.86572 24.2741 6.33338C24.5819 6.5932 24.8316 6.9135 25.0072 7.27386C25.1829 7.63423 25.2805 8.02677 25.2942 8.42648C25.3077 8.8262 25.2367 9.22431 25.0859 9.59548C24.9351 9.96662 24.7077 10.3027 24.4181 10.5823" stroke="#214759" stroke-width="2" stroke-linecap="round" stroke-linejoin="round"/>
</svg>
