<svg width="42" height="42" viewBox="0 0 42 42" fill="none" xmlns="http://www.w3.org/2000/svg">
<path d="M1.00012 16.8551C1.00012 22.8913 2.20737 22.8913 2.20737 28.9276V31.3421L1.00012 41" stroke="#214759" stroke-width="2" stroke-miterlimit="10" stroke-linecap="round" stroke-linejoin="round"/>
<path d="M12.5494 31.342H2.2074" stroke="#214759" stroke-width="2" stroke-miterlimit="10" stroke-linecap="round" stroke-linejoin="round"/>
<path d="M2.2074 28.9276H10.135C11.4684 28.9276 12.5494 30.0086 12.5494 31.3421V41" stroke="#214759" stroke-width="2" stroke-miterlimit="10" stroke-linecap="round" stroke-linejoin="round"/>
<path d="M29.4509 31.342H39.793" stroke="#214759" stroke-width="2" stroke-miterlimit="10" stroke-linecap="round" stroke-linejoin="round"/>
<path d="M21.0002 38.5855V25.3058" stroke="#214759" stroke-width="2" stroke-miterlimit="10" stroke-linecap="round" stroke-linejoin="round"/>
<path d="M27.0364 41C27.0364 33.1529 23.4147 33.1529 23.4147 25.3058" stroke="#214759" stroke-width="2" stroke-miterlimit="10" stroke-linecap="round" stroke-linejoin="round"/>
<path d="M14.964 41C14.964 33.1529 18.5857 33.1529 18.5857 25.3058" stroke="#214759" stroke-width="2" stroke-miterlimit="10" stroke-linecap="round" stroke-linejoin="round"/>
<path d="M36.1712 25.3058H5.8291V22.8914H36.1712V25.3058Z" stroke="#214759" stroke-width="2" stroke-miterlimit="10" stroke-linecap="round" stroke-linejoin="round"/>
<path d="M41.0002 16.8551C41.0002 22.8913 39.793 22.8913 39.793 28.9276V31.3421L41.0002 41" stroke="#214759" stroke-width="2" stroke-miterlimit="10" stroke-linecap="round" stroke-linejoin="round"/>
<path d="M39.793 28.9276H31.8654C30.532 28.9276 29.4509 30.0086 29.4509 31.3421V41" stroke="#214759" stroke-width="2" stroke-miterlimit="10" stroke-linecap="round" stroke-linejoin="round"/>
<path d="M17.562 31.342H24.4385" stroke="#214759" stroke-width="2" stroke-miterlimit="10" stroke-linecap="round" stroke-linejoin="round"/>
<path d="M21.0002 3.41449V1" stroke="#214759" stroke-width="2" stroke-miterlimit="10" stroke-linecap="round" stroke-linejoin="round"/>
<path d="M31.0002 9.45068C31.0002 8.28247 30.5854 7.30815 30.0344 7.08457L21.0002 3.41447L11.9661 7.08457C11.4151 7.30815 11.0002 8.28247 11.0002 9.45068" stroke="#214759" stroke-width="2" stroke-miterlimit="10" stroke-linecap="round" stroke-linejoin="round"/>
<path d="M1.00012 9.45068H41.0001" stroke="#214759" stroke-width="2" stroke-miterlimit="10" stroke-linecap="round" stroke-linejoin="round"/>
<path d="M21.0001 11.8652H28.5856C29.9191 11.8652 31.0001 10.7842 31.0001 9.45071C31.0001 10.7842 32.0811 11.8652 33.4146 11.8652H38.5856C39.9191 11.8652 41.0001 10.7842 41.0001 9.45071C41.0001 8.2825 40.1705 7.30818 39.0684 7.0846L21.0001 3.4145L2.93187 7.0846C1.82974 7.30818 1.00012 8.2825 1.00012 9.45071C1.00012 10.7842 2.08117 11.8652 3.41461 11.8652H8.58563C9.91908 11.8652 11.0001 10.7842 11.0001 9.45071C11.0001 10.7842 12.0812 11.8652 13.4146 11.8652H21.0001ZM21.0001 11.8652V22.8914" stroke="#214759" stroke-width="2" stroke-miterlimit="10" stroke-linecap="round" stroke-linejoin="round"/>
</svg>
