<svg width="42" height="42" viewBox="0 0 42 42" fill="none" xmlns="http://www.w3.org/2000/svg">
<rect x="1" y="24" width="40" height="17" stroke="#214759" stroke-width="2" stroke-linecap="round" stroke-linejoin="round"/>
<path d="M12.0477 4.14201C12.4349 4.01194 12.8516 3.94118 13.2857 3.94118C13.7113 3.94118 14.12 4.00918 14.5008 4.13436M14.5008 4.13436C15.9555 4.61265 17 5.92569 17 7.47056C17 9.41981 15.337 11 13.2857 11H6.78571C5.24721 11 4 9.81488 4 8.35294C4 6.891 5.24721 5.70587 6.78571 5.70587C6.97039 5.70587 7.15088 5.72294 7.3255 5.75556M14.5008 4.13436C14.2941 2.37107 12.7203 1 10.8095 1C8.75818 1 7.09523 2.58017 7.09523 4.52941C7.09523 4.96056 7.17659 5.37362 7.3255 5.75556M7.3255 5.75556C7.69238 5.824 8.03343 5.96087 8.33334 6.15162" stroke="#214759" stroke-width="2" stroke-linecap="round"/>
<path d="M20.5 24V41" stroke="#214759" stroke-width="2" stroke-linecap="round"/>
<path d="M11 24V41" stroke="#214759" stroke-width="2" stroke-linecap="round"/>
<path d="M15 32V34" stroke="#214759" stroke-width="2" stroke-linecap="round"/>
<path d="M11 22V24" stroke="#214759" stroke-width="2" stroke-linecap="round"/>
<path d="M35 21L31 21" stroke="#214759" stroke-width="2" stroke-linecap="round"/>
<path d="M7 23.5V21.5H8" stroke="#214759" stroke-width="2" stroke-linecap="round" stroke-linejoin="round"/>
<path d="M15 23.5V21.5H14" stroke="#214759" stroke-width="2" stroke-linecap="round" stroke-linejoin="round"/>
<path d="M32 28L30 28" stroke="#214759" stroke-width="2" stroke-linecap="round"/>
<path d="M32 36L30 36" stroke="#214759" stroke-width="2" stroke-linecap="round"/>
<path d="M7 32V34" stroke="#214759" stroke-width="2" stroke-linecap="round"/>
<path d="M41 32H21" stroke="#214759" stroke-width="2" stroke-linecap="round"/>
<path d="M27 17C27 15.3431 28.3431 14 30 14C31.6569 14 33 15.3431 33 17V24" stroke="#214759" stroke-width="2" stroke-linecap="round"/>
</svg>
