<svg width="32" height="42" viewBox="0 0 32 42" fill="none" xmlns="http://www.w3.org/2000/svg">
<path d="M13.1436 36.0208H1L3.5 11.0415H28.5L31 36.0208H18.8564" stroke="#214759" stroke-width="2" stroke-miterlimit="10" stroke-linecap="round" stroke-linejoin="round"/>
<path d="M8.49994 14.7759V8.46888C8.49994 4.3439 11.8578 1 15.9999 1C20.1421 1 23.4999 4.3439 23.4999 8.46888V14.7759" stroke="#214759" stroke-width="2" stroke-miterlimit="10" stroke-linecap="round" stroke-linejoin="round"/>
<path d="M9.74994 41H22.2499" stroke="#214759" stroke-width="2" stroke-miterlimit="10" stroke-linecap="round" stroke-linejoin="round"/>
<path d="M16 41L9.9955 30.5331C9.05667 29.2858 8.5 27.7376 8.5 26.0622C8.5 21.9436 11.8642 18.5934 16 18.5934C20.1358 18.5934 23.5 21.9436 23.5 26.0622C23.5 27.7376 22.9433 29.2858 22.0045 30.5331L16 41Z" stroke="#214759" stroke-width="2" stroke-miterlimit="10" stroke-linecap="round" stroke-linejoin="round"/>
<path d="M18.4999 26.0623C18.4999 27.4372 17.3806 28.5519 15.9999 28.5519C14.6193 28.5519 13.4999 27.4372 13.4999 26.0623C13.4999 24.6872 14.6193 23.5726 15.9999 23.5726C17.3806 23.5726 18.4999 24.6872 18.4999 26.0623Z" stroke="#214759" stroke-width="2" stroke-miterlimit="10" stroke-linecap="round" stroke-linejoin="round"/>
<path d="M16 41L9.50058 29.7919C8.86417 28.6944 8.5 27.4207 8.5 26.0622C8.5 21.9373 11.8578 18.5934 16 18.5934C20.1422 18.5934 23.5 21.9373 23.5 26.0622C23.5 27.4207 23.1358 28.6944 22.4994 29.7919L16 41Z" stroke="#214759" stroke-width="2" stroke-miterlimit="10" stroke-linecap="round" stroke-linejoin="round"/>
</svg>
