<svg width="42" height="42" viewBox="0 0 42 42" fill="none" xmlns="http://www.w3.org/2000/svg">
<path d="M11.4889 11.7555C12.1604 10.8602 13.2142 10.3333 14.3333 10.3333H27.6667C28.7858 10.3333 29.8396 10.8602 30.5111 11.7555L36.6444 19.9333C37.1186 20.5655 37.1186 21.4345 36.6444 22.0666L30.5111 30.2444C29.8396 31.1397 28.7858 31.6666 27.6667 31.6666H14.3333C13.2142 31.6666 12.1604 31.1397 11.4889 30.2444L5.35556 22.0666C4.88148 21.4345 4.88148 20.5655 5.35556 19.9333L11.4889 11.7555Z" stroke="#214759" stroke-width="2" stroke-linecap="round" stroke-linejoin="round" stroke-dasharray="5 5"/>
<path d="M35.6667 1H6.33333C3.38782 1 1 3.38782 1 6.33333V35.6667C1 38.6123 3.38782 41 6.33333 41H35.6667C38.6123 41 41 38.6123 41 35.6667V6.33333C41 3.38782 38.6123 1 35.6667 1Z" stroke="#214759" stroke-width="2" stroke-linecap="round" stroke-linejoin="round" stroke-dasharray="7 7"/>
<path d="M13.6663 21.888C13.1756 21.888 12.7778 21.4903 12.7778 20.9996C12.7778 20.509 13.1756 20.1111 13.6663 20.1111" stroke="#214759" stroke-width="2" stroke-linecap="round" stroke-linejoin="round"/>
<path d="M13.6671 21.888C14.1578 21.888 14.5556 21.4903 14.5556 20.9996C14.5556 20.509 14.1578 20.1111 13.6671 20.1111" stroke="#214759" stroke-width="2" stroke-linecap="round" stroke-linejoin="round"/>
<path d="M20.9996 25.7769C20.509 25.7769 20.1111 25.3792 20.1111 24.8885C20.1111 24.3979 20.509 24 20.9996 24" stroke="#214759" stroke-width="2" stroke-linecap="round" stroke-linejoin="round"/>
<path d="M21.0005 25.7769C21.4912 25.7769 21.889 25.3792 21.889 24.8885C21.889 24.3979 21.4912 24 21.0005 24" stroke="#214759" stroke-width="2" stroke-linecap="round" stroke-linejoin="round"/>
<path d="M28.333 21.888C27.8423 21.888 27.4445 21.4903 27.4445 20.9996C27.4445 20.509 27.8423 20.1111 28.333 20.1111" stroke="#214759" stroke-width="2" stroke-linecap="round" stroke-linejoin="round"/>
<path d="M28.3337 21.888C28.8244 21.888 29.2223 21.4903 29.2223 20.9996C29.2223 20.509 28.8244 20.1111 28.3337 20.1111" stroke="#214759" stroke-width="2" stroke-linecap="round" stroke-linejoin="round"/>
</svg>
