<svg width="42" height="42" viewBox="0 0 42 42" fill="none" xmlns="http://www.w3.org/2000/svg">
<path d="M17.4709 24.2946H17.4901" stroke="#214759" stroke-width="2" stroke-linecap="round" stroke-linejoin="round"/>
<path d="M11.9812 18.8049C13.4373 17.3493 15.4119 16.5315 17.4708 16.5315C19.5298 16.5315 21.5044 17.3493 22.9605 18.8049" stroke="#214759" stroke-width="2" stroke-linecap="round" stroke-linejoin="round"/>
<path d="M6.48975 13.3134C7.9318 11.8713 9.64378 10.7273 11.5279 9.94682C13.4121 9.16634 15.4316 8.76463 17.471 8.76463C19.5104 8.76463 21.5298 9.16634 23.414 9.94682C25.2982 10.7273 27.0102 11.8713 28.4522 13.3134" stroke="#214759" stroke-width="2" stroke-linecap="round" stroke-linejoin="round"/>
<path d="M1 7.82372C10.0964 -1.27457 24.8454 -1.27457 34 7.82372" stroke="#214759" stroke-width="2" stroke-linecap="round" stroke-linejoin="round"/>
<path d="M21.8373 31.7692C21.8373 32.9814 22.076 34.1818 22.5399 35.3017C23.0038 36.4216 23.6838 37.4392 24.5409 38.2964C25.3981 39.1535 26.4157 39.8335 27.5356 40.2974C28.6555 40.7612 29.8558 41 31.068 41C32.2803 41 33.4806 40.7612 34.6005 40.2974C35.7204 39.8335 36.738 39.1535 37.5952 38.2964C38.4523 37.4392 39.1323 36.4216 39.5962 35.3017C40.0601 34.1818 40.2988 32.9814 40.2988 31.7692C40.2988 30.557 40.0601 29.3567 39.5962 28.2368C39.1323 27.1168 38.4523 26.0993 37.5952 25.2421C36.738 24.3849 35.7204 23.705 34.6005 23.2411C33.4806 22.7772 32.2803 22.5385 31.068 22.5385C29.8558 22.5385 28.6555 22.7772 27.5356 23.2411C26.4157 23.705 25.3981 24.3849 24.5409 25.2421C23.6838 26.0993 23.0038 27.1168 22.5399 28.2368C22.076 29.3567 21.8373 30.557 21.8373 31.7692Z" stroke="#214759" stroke-width="2" stroke-linecap="round" stroke-linejoin="round"/>
<path d="M33.9399 28.6923C33.7541 28.37 33.4842 28.1043 33.159 27.9237C32.8338 27.743 32.4656 27.6542 32.0938 27.6667H30.0425C29.4985 27.6667 28.9767 27.8828 28.592 28.2675C28.2073 28.6522 27.9912 29.1739 27.9912 29.718C27.9912 30.262 28.2073 30.7837 28.592 31.1684C28.9767 31.5531 29.4985 31.7692 30.0425 31.7692H32.0938C32.6378 31.7692 33.1596 31.9854 33.5443 32.37C33.9289 32.7547 34.1451 33.2765 34.1451 33.8205C34.1451 34.3646 33.9289 34.8863 33.5443 35.271C33.1596 35.6557 32.6378 35.8718 32.0938 35.8718H30.0425C29.6707 35.8843 29.3025 35.7955 28.9773 35.6148C28.6521 35.4342 28.3821 35.1685 28.1963 34.8462" stroke="#214759" stroke-width="2" stroke-linecap="round" stroke-linejoin="round"/>
<path d="M31.0681 26.641V36.8974" stroke="#214759" stroke-width="2" stroke-linecap="round" stroke-linejoin="round"/>
</svg>
