<svg width="42" height="42" viewBox="0 0 42 42" fill="none" xmlns="http://www.w3.org/2000/svg">
<path d="M41.0001 35.6307C39.3893 35.6307 39.2775 34.2885 37.6667 34.2885C36.056 34.2885 35.9441 35.6307 34.3334 35.6307C32.7226 35.6307 32.6108 34.2885 31.0001 34.2885C29.3894 34.2885 29.2775 35.6307 27.6667 35.6307C26.0561 35.6307 25.9442 34.2885 24.3334 34.2885C22.7227 34.2885 22.6108 35.6307 21.0001 35.6307C19.3894 35.6307 19.2775 34.2885 17.6667 34.2885C16.0561 34.2885 15.9441 35.6307 14.3334 35.6307C12.7228 35.6307 12.6108 34.2885 11.0001 34.2885C9.38944 34.2885 9.27749 35.6307 7.66677 35.6307C6.05612 35.6307 5.94417 34.2885 4.33344 34.2885C2.7228 34.2885 2.61085 35.6307 1.00012 35.6307" stroke="#214759" stroke-width="2" stroke-miterlimit="22.926" stroke-linecap="round" stroke-linejoin="round"/>
<path d="M24.6584 39.6796C25.9492 39.8525 26.1564 41 27.6397 41C29.2438 41 29.3552 39.6577 30.9594 39.6577C32.5635 39.6577 32.675 41 34.2792 41C35.8833 41 35.9948 39.6577 37.599 39.6577C39.203 39.6577 39.3146 41 40.9187 41M1.08154 41C2.6856 41 2.79707 39.6577 4.40129 39.6577C6.00543 39.6577 6.11681 41 7.72103 41C9.32517 41 9.43664 39.6577 11.0408 39.6577C12.6449 39.6577 12.7564 41 14.3606 41C15.8436 41 16.051 39.8529 17.3413 39.6796" stroke="#214759" stroke-width="2" stroke-miterlimit="22.926" stroke-linecap="round" stroke-linejoin="round"/>
<path d="M20.8523 7.94269C21.7464 7.94072 22.4698 7.14127 22.468 6.15721C22.4662 5.17307 21.7399 4.37684 20.8457 4.37881C17.2096 4.37881 13.6469 5.42246 10.4972 7.42404C7.34755 9.42553 4.74504 12.2998 2.927 15.7657C2.4783 16.6169 2.74155 17.7074 3.51504 18.2011C4.28854 18.6949 5.2791 18.4051 5.7278 17.5538C7.25723 14.6381 9.47486 12.2069 12.1232 10.5239C14.7716 8.84093 17.7934 7.94269 20.8523 7.94269Z" stroke="#214759" stroke-width="2" stroke-miterlimit="2.613" stroke-linecap="round" stroke-linejoin="round"/>
<path d="M22.468 6.15718C22.5021 -8.14317 -7.75385 11.0834 3.51506 18.2011" stroke="#214759" stroke-width="2" stroke-miterlimit="2.613" stroke-linecap="round" stroke-linejoin="round"/>
<path d="M22.5063 19.7253C23.3692 19.9878 23.8755 20.9707 23.6369 21.9204C23.3984 22.8702 22.5054 23.4273 21.6426 23.1649L21.0979 22.9982L22.0259 24.6413L23.8556 24.3472C24.4915 24.2476 25.0936 24.5681 25.4304 25.1171L27.8386 28.7446C28.3683 29.5399 28.2119 30.6573 27.4892 31.2404C26.7666 31.8234 25.7514 31.6512 25.2217 30.8559L23.3517 28.0391L21.2174 28.8544C20.5133 29.1233 19.5696 28.5861 19.1928 27.8395L16.091 21.6948C15.0822 19.7715 16.927 18.2313 18.6688 18.7612L22.5063 19.7253Z" stroke="#214759" stroke-width="2" stroke-miterlimit="2.613" stroke-linecap="round" stroke-linejoin="round"/>
<path d="M19.8499 19.017C20.6288 18.4339 21.095 17.4642 21.095 16.4274C21.095 14.6977 19.8211 13.2955 18.2494 13.2955C16.6779 13.2955 15.4039 14.6977 15.4039 16.4274C15.4039 17.4581 15.8647 18.4228 16.636 19.0072" stroke="#214759" stroke-width="2" stroke-miterlimit="22.926" stroke-linecap="round" stroke-linejoin="round"/>
<path d="M5.72778 17.5538L16.0112 21.663" stroke="#214759" stroke-width="2" stroke-miterlimit="2.613" stroke-linecap="round" stroke-linejoin="round"/>
<path d="M20.8523 7.9427L20.0104 13.8163" stroke="#214759" stroke-width="2" stroke-miterlimit="2.613" stroke-linecap="round" stroke-linejoin="round"/>
<path d="M23.6368 21.9205L41 25.774" stroke="#214759" stroke-width="2" stroke-miterlimit="2.613" stroke-linecap="round" stroke-linejoin="round"/>
<path d="M22.0258 24.6413L18.7899 26.6201" stroke="#214759" stroke-width="2" stroke-miterlimit="2.613" stroke-linecap="round" stroke-linejoin="round"/>
<path d="M23.3518 28.0391L25.8181 26.0556" stroke="#214759" stroke-width="2" stroke-miterlimit="2.613" stroke-linecap="round" stroke-linejoin="round"/>
</svg>
