<svg width="42" height="38" viewBox="0 0 42 38" fill="none" xmlns="http://www.w3.org/2000/svg">
<path d="M21 15.2105C14.9676 15.2105 9.87048 20.4504 8.22477 27.1805C7.50096 30.1401 8.59239 33.2816 11.2714 34.7576C13.3952 35.9276 16.5543 37 21 37C25.4457 37 28.6057 35.9276 30.7295 34.7576C33.4086 33.2816 34.4991 30.1401 33.7753 27.1805C32.1295 20.4495 27.0324 15.2105 21 15.2105Z" stroke="#214759" stroke-width="2" stroke-linecap="round" stroke-linejoin="round"/>
<path d="M1 13.7364C1 16.353 2.70476 19 4.80952 19C6.91429 19 8.61905 16.353 8.61905 13.7364C8.61905 11.1207 6.91429 9.52631 4.80952 9.52631C2.70476 9.52631 1 11.1207 1 13.7364Z" stroke="#214759" stroke-width="2" stroke-linecap="round" stroke-linejoin="round"/>
<path d="M41 13.7364C41 16.353 39.2952 19 37.1905 19C35.0857 19 33.381 16.353 33.381 13.7364C33.381 11.1207 35.0857 9.52631 37.1905 9.52631C39.2952 9.52631 41 11.1207 41 13.7364Z" stroke="#214759" stroke-width="2" stroke-linecap="round" stroke-linejoin="round"/>
<path d="M11 5.21011C11 7.82674 12.7048 10.4737 14.8095 10.4737C16.9143 10.4737 18.6191 7.82674 18.6191 5.21011C18.6191 2.59442 16.9143 1 14.8095 1C12.7048 1 11 2.59442 11 5.21011Z" stroke="#214759" stroke-width="2" stroke-linecap="round" stroke-linejoin="round"/>
<path d="M31 5.21011C31 7.82674 29.2952 10.4737 27.1905 10.4737C25.0857 10.4737 23.381 7.82674 23.381 5.21011C23.381 2.59442 25.0857 1 27.1905 1C29.2952 1 31 2.59442 31 5.21011Z" stroke="#214759" stroke-width="2" stroke-linecap="round" stroke-linejoin="round"/>
</svg>
