<svg width="42" height="42" viewBox="0 0 42 42" fill="none" xmlns="http://www.w3.org/2000/svg">
<path d="M3.66667 35.6344H38.3333C39.0405 35.6344 39.7189 35.3516 40.219 34.8485C40.7191 34.3453 41 33.663 41 32.9515V24.9029C41 24.1915 40.7191 23.5089 40.219 23.0058C39.7189 22.5027 39.0405 22.2201 38.3333 22.2201H11.6667C10.9594 22.2201 10.2811 22.5027 9.78105 23.0058C9.28096 23.5089 9 24.1915 9 24.9029C9 25.6144 8.71904 26.2968 8.21895 26.7999C7.71886 27.303 7.04057 27.5858 6.33333 27.5858H3.66667C2.95943 27.5858 2.28114 27.8684 1.78105 28.3715C1.28095 28.8746 1 29.5572 1 30.2686V32.9515C1 33.663 1.28095 34.3453 1.78105 34.8485C2.28114 35.3516 2.95943 35.6344 3.66667 35.6344Z" stroke="#214759" stroke-width="2" stroke-linecap="round" stroke-linejoin="round"/>
<path d="M11.6666 22.2199L18.4222 2.74234C18.5656 2.35145 18.798 1.99983 19.1009 1.7157C19.4039 1.43159 19.7688 1.22288 20.1664 1.10635C20.564 0.98982 20.9832 0.968709 21.3905 1.04472C21.7976 1.12072 22.1815 1.29172 22.5111 1.544L23.4888 2.27731C24.4677 3.01576 25.1644 4.07033 25.4622 5.26422C25.9777 7.37473 26.0666 8.69827 27.72 9.25272L30.4044 10.147C34.4933 11.7925 37.5155 16.8541 38.1733 21.2183L38.3333 22.2199" stroke="#214759" stroke-width="2" stroke-linecap="round" stroke-linejoin="round"/>
<path d="M25 22.2201L21 15.5129" stroke="#214759" stroke-width="2" stroke-linecap="round" stroke-linejoin="round"/>
<path d="M9 35.6343V41" stroke="#214759" stroke-width="2" stroke-linecap="round" stroke-linejoin="round"/>
<path d="M35.6666 35.6343V41" stroke="#214759" stroke-width="2" stroke-linecap="round" stroke-linejoin="round"/>
</svg>
