<svg width="42" height="42" viewBox="0 0 42 42" fill="none" xmlns="http://www.w3.org/2000/svg">
<path d="M22.6044 40.3593C18.9873 41.382 15.1331 41.1758 11.6457 39.7731C8.15836 38.3703 5.23489 35.8503 3.33338 32.6078C1.43188 29.3653 0.65978 25.5837 1.13808 21.8553C1.61637 18.127 3.31803 14.6626 5.97642 12.0051L7.57697 10.4046C10.1843 7.79723 13.569 6.10888 17.2203 5.59438C20.8715 5.07988 24.591 5.76716 27.8173 7.55246L33.1236 2.33955C33.9686 1.50209 35.104 1.02259 36.2935 1.00078C37.4831 0.978964 38.6352 1.41651 39.5104 2.22243C40.3856 3.02834 40.9165 4.1406 40.9926 5.3279C41.0688 6.5152 40.6843 7.68616 39.9192 8.59727L39.6614 8.87736L34.4462 14.1836C36.1699 17.299 36.8715 20.8771 36.4519 24.4127C36.0322 27.9483 34.5127 31.2628 32.1077 33.8882" stroke="#214759" stroke-width="2" stroke-linecap="round" stroke-linejoin="round"/>
<path d="M18.7853 34.3284C18.7853 36.0971 19.4879 37.7934 20.7386 39.044C21.9892 40.2947 23.6855 40.9973 25.4542 40.9973C27.223 40.9973 28.9192 40.2947 30.1699 39.044C31.4206 37.7934 32.1232 36.0971 32.1232 34.3284C32.1232 32.5596 31.4206 30.8634 30.1699 29.6127C28.9192 28.362 27.223 27.6594 25.4542 27.6594C23.6855 27.6594 21.9892 28.362 20.7386 29.6127C19.4879 30.8634 18.7853 32.5596 18.7853 34.3284Z" stroke="#214759" stroke-width="2" stroke-linecap="round" stroke-linejoin="round"/>
<path d="M15.0061 6.09641L35.9022 26.9925" stroke="#214759" stroke-width="2" stroke-linecap="round" stroke-linejoin="round"/>
</svg>
