<svg width="43" height="42" viewBox="0 0 43 42" fill="none" xmlns="http://www.w3.org/2000/svg">
<path d="M4.69255 5.15403L3.46914 6.46451C2.68773 7.24039 1.75076 7.94346 1.26652 8.96024C0.462589 10.6494 1.53463 12.683 3.47528 12.786C4.75895 12.8543 5.91205 11.9415 7.11549 11.6208C7.11549 11.6208 10.1208 10.8077 9.60546 13.6805C9.60546 13.6805 8.23256 18.5857 9.66481 21.4851C10.3136 22.7988 11.4262 23.5788 12.4483 24.0385C13.4094 24.4708 14.4548 24.6827 15.5089 24.6827H26.4589C27.6771 24.6827 28.8814 24.389 29.9489 23.8025C31.1393 23.1481 32.366 22.0274 32.7398 20.1301C33.5314 16.112 31.3296 13.8699 28.8613 13.6261C26.393 13.3824 21.4168 13.4368 21.4168 13.4368C21.4168 13.4368 17.7414 13.7615 17.145 9.2903C16.5682 4.96797 13.6345 2.08942 10.206 2.5381C9.92883 2.5745 9.6468 2.55282 9.37828 2.4747C7.8969 2.04361 6.32056 1.17408 5.65253 1.01497C5.26243 0.92213 4.91041 1.28164 5.02093 1.66651C5.11262 1.98553 5.57639 2.83503 5.72866 3.55365C5.80193 3.89966 5.68937 4.25917 5.43804 4.50866L4.69255 5.15403Z" stroke="#214759" stroke-width="2" stroke-miterlimit="10" stroke-linecap="round"/>
<path d="M19.1065 12.8416V15.4212C19.1065 17.9456 21.1544 19.9918 23.6808 19.9918C26.2072 19.9918 28.2551 17.9456 28.2551 15.4212V13.5631" stroke="#214759" stroke-width="2" stroke-miterlimit="10" stroke-linecap="round"/>
<path d="M30.5674 14.1513C30.5674 14.1513 32.2461 7.93079 37.9236 10.9885C39.3521 11.8376 39.8581 12.9832 39.5507 14.555C39.2433 16.1268 38.9903 17.9043 40.9973 19.2794C40.3734 19.6925 37.3812 20.5411 36.2961 18.0859C36.2961 18.0859 35.6088 17.0364 35.9309 15.1595C36.0153 14.6683 35.7492 14.1742 35.319 13.9218C34.7267 13.5746 34.0189 13.7983 33.5654 14.2765C32.9146 14.9632 32.4491 16.2233 32.4491 16.2233" stroke="#214759" stroke-width="2" stroke-miterlimit="10" stroke-linecap="round"/>
<path d="M23.9555 25.0002C23.9555 25.0002 24.697 27.9487 18.5251 28.393C18.3381 28.4064 18.3136 28.6891 18.4954 28.7385C21.7846 29.6319 23.1384 30.11 23.6679 30.3246C23.8002 30.3783 23.8127 30.572 23.6882 30.6434C22.9258 31.0823 20.8018 32.2112 18.696 32.4838C18.5111 32.508 18.5027 32.7913 18.6856 32.8304C21.4178 33.4132 23.6783 33.5961 23.9831 34.5529C24.3349 35.6571 17.9973 37.0002 17.9973 37.0002" stroke="#214759" stroke-width="2" stroke-miterlimit="10" stroke-linecap="round"/>
<path d="M28.9973 37.0002H12.9973V41.0002H28.9973V37.0002Z" stroke="#214759" stroke-width="2" stroke-linecap="round" stroke-linejoin="round"/>
<path d="M7.40854 7.80725C7.93776 7.80725 8.36679 7.37857 8.36679 6.84978C8.36679 6.32098 7.93776 5.8923 7.40854 5.8923C6.87931 5.8923 6.45029 6.32098 6.45029 6.84978C6.45029 7.37857 6.87931 7.80725 7.40854 7.80725Z" fill="#214759"/>
</svg>
