<svg width="42" height="42" viewBox="0 0 42 42" fill="none" xmlns="http://www.w3.org/2000/svg">
<path d="M16 16C16 17.3261 16.5268 18.5979 17.4645 19.5356C18.4021 20.4732 19.6739 21 21 21C22.3261 21 23.5979 20.4732 24.5355 19.5356C25.4732 18.5979 26 17.3261 26 16C26 14.6739 25.4732 13.4022 24.5355 12.4645C23.5979 11.5268 22.3261 11 21 11C19.6739 11 18.4021 11.5268 17.4645 12.4645C16.5268 13.4022 16 14.6739 16 16Z" stroke="#214759" stroke-width="2" stroke-linecap="round" stroke-linejoin="round"/>
<path d="M16 26C16 27.3261 16.5268 28.5979 17.4645 29.5355C18.4021 30.4732 19.6739 31 21 31C22.3261 31 23.5979 30.4732 24.5355 29.5355C25.4732 28.5979 26 27.3261 26 26C26 24.6739 25.4732 23.4021 24.5355 22.4645C23.5979 21.5268 22.3261 21 21 21C19.6739 21 18.4021 21.5268 17.4645 22.4645C16.5268 23.4021 16 24.6739 16 26Z" stroke="#214759" stroke-width="2" stroke-linecap="round" stroke-linejoin="round"/>
<path d="M1 21C1 26.3043 3.10714 31.3914 6.85787 35.1421C10.6086 38.8929 15.6957 41 21 41C26.3043 41 31.3914 38.8929 35.1421 35.1421C38.8929 31.3914 41 26.3043 41 21C41 15.6957 38.8929 10.6086 35.1421 6.85787C31.3914 3.10714 26.3043 1 21 1C15.6957 1 10.6086 3.10714 6.85787 6.85787C3.10714 10.6086 1 15.6957 1 21Z" stroke="#214759" stroke-width="2" stroke-linecap="round" stroke-linejoin="round"/>
</svg>
