<svg width="42" height="42" viewBox="0 0 42 42" fill="none" xmlns="http://www.w3.org/2000/svg">
<path d="M31.7692 33.3077H37.9231C38.7391 33.3077 39.5219 32.9834 40.0988 32.4065C40.6757 31.8296 41 31.0468 41 30.2308V16.3846C41 15.5686 40.6757 14.786 40.0988 14.2089C39.5219 13.6319 38.7391 13.3077 37.9231 13.3077H4.07692C3.26086 13.3077 2.47825 13.6319 1.90121 14.2089C1.32418 14.786 1 15.5686 1 16.3846V30.2308C1 31.0468 1.32418 31.8296 1.90121 32.4065C2.47825 32.9834 3.26086 33.3077 4.07692 33.3077H10.2308" stroke="#214759" stroke-width="2" stroke-linecap="round" stroke-linejoin="round"/>
<path d="M10.2307 28.6923V39.4615C10.2307 39.8695 10.3928 40.2609 10.6813 40.5495C10.9698 40.8379 11.3611 41 11.7692 41H30.2307C30.6387 41 31.0301 40.8379 31.3187 40.5495C31.607 40.2609 31.7692 39.8695 31.7692 39.4615V28.6923H10.2307Z" stroke="#214759" stroke-width="2" stroke-linecap="round" stroke-linejoin="round"/>
<path d="M31.7692 13.3077V2.53846C31.7692 2.13044 31.607 1.73912 31.3187 1.45061C31.0301 1.16209 30.6387 1 30.2307 1H11.7692C11.3611 1 10.9698 1.16209 10.6813 1.45061C10.3928 1.73912 10.2307 2.13044 10.2307 2.53846V13.3077" stroke="#214759" stroke-width="2" stroke-linecap="round" stroke-linejoin="round"/>
<path d="M33.3078 21H30.2308" stroke="#214759" stroke-width="2" stroke-linecap="round" stroke-linejoin="round"/>
</svg>
