<svg width="42" height="42" viewBox="0 0 42 42" fill="none" xmlns="http://www.w3.org/2000/svg">
<path d="M7 19V8.71429C7 6.66833 7.63214 4.70617 8.75736 3.25946C9.88258 1.81275 11.4087 1 13 1H29C30.5913 1 32.1174 1.81275 33.2426 3.25946C34.3679 4.70617 35 6.66833 35 8.71429V19" stroke="#214759" stroke-width="2" stroke-linecap="round" stroke-linejoin="round"/>
<path d="M29 29V25C29 23.8133 29.3519 22.6533 30.0112 21.6666C30.6705 20.6799 31.6075 19.9109 32.7039 19.4567C33.8003 19.0026 35.0067 18.8838 36.1705 19.1153C37.3344 19.3468 38.4035 19.9182 39.2426 20.7574C40.0818 21.5965 40.6532 22.6656 40.8847 23.8295C41.1162 24.9933 40.9974 26.1997 40.5433 27.2961C40.0891 28.3925 39.3201 29.3295 38.3334 29.9888C37.3467 30.6481 36.1867 31 35 31V37H7V31C5.81331 31 4.65328 30.6481 3.66658 29.9888C2.67989 29.3295 1.91085 28.3925 1.45673 27.2961C1.0026 26.1997 0.88378 24.9933 1.11529 23.8295C1.3468 22.6656 1.91825 21.5965 2.75736 20.7574C3.59648 19.9182 4.66557 19.3468 5.82946 19.1153C6.99335 18.8838 8.19975 19.0026 9.2961 19.4567C10.3925 19.9109 11.3295 20.6799 11.9888 21.6666C12.6481 22.6533 13 23.8133 13 25V29" stroke="#214759" stroke-width="2" stroke-linecap="round" stroke-linejoin="round"/>
<path d="M13 26H29" stroke="#214759" stroke-width="2" stroke-linecap="round" stroke-linejoin="round"/>
<path d="M11 37V41" stroke="#214759" stroke-width="2" stroke-linecap="round" stroke-linejoin="round"/>
<path d="M31 37V41" stroke="#214759" stroke-width="2" stroke-linecap="round" stroke-linejoin="round"/>
</svg>
