<svg width="42" height="42" viewBox="0 0 42 42" fill="none" xmlns="http://www.w3.org/2000/svg">
<path d="M1 21C1 26.3043 3.10714 31.3914 6.85786 35.1421C10.6086 38.8929 15.6957 41 21 41C26.3043 41 31.3914 38.8929 35.1421 35.1421C38.8929 31.3914 41 26.3043 41 21C41 15.6957 38.8929 10.6086 35.1421 6.85786C31.3914 3.10714 26.3043 1 21 1C15.6957 1 10.6086 3.10714 6.85786 6.85786C3.10714 10.6086 1 15.6957 1 21Z" stroke="#214759" stroke-width="2" stroke-linecap="round" stroke-linejoin="round"/>
<path d="M15 31.0001V11.0001H23C24.5913 11.0001 26.1174 11.6322 27.2426 12.7574C28.3679 13.8826 29 15.4088 29 17.0001C29 18.5914 28.3679 20.1175 27.2426 21.2427C26.1174 22.3679 24.5913 23.0001 23 23.0001H15" stroke="#214759" stroke-width="2" stroke-linecap="round" stroke-linejoin="round"/>
</svg>
