<svg width="42" height="42" viewBox="0 0 42 42" fill="none" xmlns="http://www.w3.org/2000/svg">
<path d="M23 4.00203H29C30.0609 4.00203 31.0783 4.44201 31.8284 5.22519C32.5786 6.00837 33 7.07059 33 8.17818V37.4112" stroke="#214759" stroke-width="2" stroke-linecap="round" stroke-linejoin="round"/>
<path d="M1 37.4112H7.00001" stroke="#214759" stroke-width="2" stroke-linecap="round" stroke-linejoin="round"/>
<path d="M23 37.4112H41" stroke="#214759" stroke-width="2" stroke-linecap="round" stroke-linejoin="round"/>
<path d="M17 20.7066V20.7276" stroke="#214759" stroke-width="2" stroke-linecap="round" stroke-linejoin="round"/>
<path d="M23 5.17551V38.9125C23 39.2297 22.9307 39.5427 22.7974 39.8277C22.6642 40.1127 22.4705 40.3624 22.2311 40.5576C21.9917 40.7528 21.7128 40.8885 21.4156 40.9544C21.1184 41.0203 20.8108 41.0147 20.516 40.9379L7 37.4112V7.26359C7.00014 6.33233 7.29841 5.42783 7.84741 4.69386C8.39642 3.95989 9.16465 3.43856 10.03 3.21273L18.03 1.12465C18.6195 0.970811 19.2349 0.95921 19.8293 1.09073C20.4237 1.22225 20.9817 1.49343 21.4607 1.8837C21.9398 2.27396 22.3274 2.77304 22.5941 3.34305C22.8608 3.91307 22.9996 4.53903 23 5.17343V5.17551Z" stroke="#214759" stroke-width="2" stroke-linecap="round" stroke-linejoin="round"/>
</svg>
