<svg width="44" height="42" viewBox="0 0 44 42" fill="none" xmlns="http://www.w3.org/2000/svg">
<path d="M39.3478 6.45453H41.1739C41.6582 6.45453 42.1228 6.64609 42.4651 6.98706C42.8075 7.32804 43 7.79049 43 8.27271V39.1818C43 39.664 42.8075 40.1265 42.4651 40.4674C42.1228 40.8084 41.6582 41 41.1739 41H2.82609C2.34177 41 1.87731 40.8084 1.53485 40.4674C1.19239 40.1265 1 39.664 1 39.1818V8.27271C1 7.79049 1.19239 7.32804 1.53485 6.98706C1.87731 6.64609 2.34177 6.45453 2.82609 6.45453H32.0435" stroke="#214759" stroke-width="2" stroke-linecap="round" stroke-linejoin="round"/>
<path d="M22.9131 36.5891C20.3542 37.4866 17.5854 37.6071 14.9577 36.9355C12.33 36.2637 9.96184 34.8302 8.15356 32.8166C6.34526 30.8029 5.17833 28.3 4.80077 25.6251C4.42321 22.9502 4.85203 20.224 6.03283 17.792C7.21364 15.3602 9.09323 13.3322 11.4332 11.9654C13.7732 10.5986 16.4682 9.95461 19.1762 10.115C21.8845 10.2754 24.4837 11.2329 26.6446 12.8662C28.8052 14.4996 30.4302 16.735 31.3131 19.2891" stroke="#214759" stroke-width="2" stroke-linecap="round" stroke-linejoin="round"/>
<path d="M18.3478 28.2727C20.8691 28.2727 22.913 26.2376 22.913 23.7273C22.913 21.2169 20.8691 19.1818 18.3478 19.1818C15.8265 19.1818 13.7826 21.2169 13.7826 23.7273C13.7826 26.2376 15.8265 28.2727 18.3478 28.2727Z" stroke="#214759" stroke-width="2" stroke-linecap="round" stroke-linejoin="round"/>
<path d="M35.6956 10.0909V21.9091L30.6447 27.9327" stroke="#214759" stroke-width="2" stroke-linecap="round" stroke-linejoin="round"/>
<path d="M35.6958 1C34.7272 1 33.7983 1.38311 33.1133 2.06507C32.4283 2.74702 32.0436 3.67195 32.0436 4.63637V8.27273C32.0436 8.75495 32.236 9.2174 32.5784 9.55839C32.9208 9.89935 33.3854 10.0909 33.8697 10.0909H37.5218C38.0061 10.0909 38.4707 9.89935 38.8131 9.55839C39.1555 9.2174 39.3479 8.75495 39.3479 8.27273V4.63637C39.3479 3.67195 38.9632 2.74702 38.2782 2.06507C37.5932 1.38311 36.6643 1 35.6958 1Z" stroke="#214759" stroke-width="2" stroke-linecap="round" stroke-linejoin="round"/>
<path d="M27.4783 27.3818C27.8207 27.0409 28.2851 26.8495 28.7694 26.8495C29.2537 26.8495 29.718 27.0409 30.0604 27.3818L31.1415 28.4582C31.4839 28.7991 31.6761 29.2615 31.6761 29.7436C31.6761 30.2258 31.4839 30.6882 31.1415 31.0291L29.9363 32.2291C29.7325 32.5687 29.4542 32.8582 29.1222 33.0758C28.7904 33.2936 28.4135 33.4338 28.0196 33.4864C27.6257 33.5387 27.2249 33.502 26.8472 33.3787C26.4696 33.2555 26.1248 33.0489 25.8385 32.7745C25.5683 32.4942 25.361 32.1598 25.2306 31.7936C25.1 31.4275 25.0493 31.0378 25.0816 30.6505C25.1137 30.2633 25.2284 29.8875 25.4178 29.5476C25.6071 29.2078 25.867 28.9122 26.18 28.68L27.4783 27.3818Z" stroke="#214759" stroke-width="2" stroke-linecap="round" stroke-linejoin="round"/>
<path d="M18.3479 24.1818C18.0958 24.1818 17.8914 23.9783 17.8914 23.7273C17.8914 23.4762 18.0958 23.2727 18.3479 23.2727" stroke="#214759" stroke-width="2" stroke-linecap="round"/>
<path d="M18.3479 24.1818C18.6001 24.1818 18.8044 23.9783 18.8044 23.7273C18.8044 23.4762 18.6001 23.2727 18.3479 23.2727" stroke="#214759" stroke-width="2" stroke-linecap="round"/>
</svg>
