<svg width="42" height="42" viewBox="0 0 42 42" fill="none" xmlns="http://www.w3.org/2000/svg">
<path d="M41 10H1L4.92 1H37.08L41 10Z" stroke="#214759" stroke-width="2" stroke-linecap="round" stroke-linejoin="round"/>
<path d="M40.3403 30.717H1.67969C1.31536 30.717 1.02002 31.0053 1.02002 31.3609V33.7805C1.02002 34.1361 1.31536 34.4244 1.67969 34.4244H40.3403C40.7047 34.4244 41 34.1361 41 33.7805V31.3609C41 31.0053 40.7047 30.717 40.3403 30.717Z" stroke="#214759" stroke-width="2" stroke-linecap="round" stroke-linejoin="round"/>
<path d="M16.1024 15.1951H9.40576C9.04144 15.1951 8.74609 15.4834 8.74609 15.839V30.0634C8.74609 30.419 9.04144 30.7073 9.40576 30.7073H16.1024C16.4667 30.7073 16.7621 30.419 16.7621 30.0634V15.839C16.7621 15.4834 16.4667 15.1951 16.1024 15.1951Z" stroke="#214759" stroke-width="2" stroke-linecap="round" stroke-linejoin="round"/>
<path d="M32.0845 15.1854H22.6492C22.2848 15.1854 21.9895 15.4736 21.9895 15.8293V22.9805C21.9895 23.3361 22.2848 23.6244 22.6492 23.6244H32.0845C32.4488 23.6244 32.7441 23.3361 32.7441 22.9805V15.8293C32.7441 15.4736 32.4488 15.1854 32.0845 15.1854Z" stroke="#214759" stroke-width="2" stroke-linecap="round" stroke-linejoin="round"/>
<path d="M5.01807 10.0244V30.7171" stroke="#214759" stroke-width="2" stroke-linecap="round" stroke-linejoin="round"/>
<path d="M41 41C39.001 41 39.001 39.0488 37.002 39.0488C35.003 39.0488 35.003 41 33.004 41C31.005 41 31.005 39.0488 29.006 39.0488C27.007 39.0488 27.007 41 25.008 41C23.009 41 23.009 39.0488 21.01 39.0488C19.011 39.0488 19.011 41 17.012 41C15.013 41 15.013 39.0488 13.014 39.0488C11.015 39.0488 11.015 41 9.01599 41C7.01699 41 7.01699 39.0488 5.00799 39.0488C2.999 39.0488 3.00899 41 1 41" stroke="#214759" stroke-width="2" stroke-linecap="round" stroke-linejoin="round"/>
<path d="M5.01001 34.6879V38.6879" stroke="#214759" stroke-width="2" stroke-linecap="round" stroke-linejoin="round"/>
<path d="M13.01 34.6879V38.6879" stroke="#214759" stroke-width="2" stroke-linecap="round" stroke-linejoin="round"/>
<path d="M21.01 34.6879V38.6879" stroke="#214759" stroke-width="2" stroke-linecap="round" stroke-linejoin="round"/>
<path d="M37.01 34.6879V38.6879" stroke="#214759" stroke-width="2" stroke-linecap="round" stroke-linejoin="round"/>
<path d="M29.01 34.6879V38.6879" stroke="#214759" stroke-width="2" stroke-linecap="round" stroke-linejoin="round"/>
<path d="M37.002 10.0244V30.7171" stroke="#214759" stroke-width="2" stroke-linecap="round" stroke-linejoin="round"/>
</svg>
