<svg width="43" height="42" viewBox="0 0 43 42" fill="none" xmlns="http://www.w3.org/2000/svg">
<path d="M32.9445 11.4167C30.7123 9.59702 27.8673 8.50664 24.7688 8.50664H14.8248C13.4795 8.50664 12.3889 7.41084 12.3889 6.0591V1.00002" stroke="#214759" stroke-width="2" stroke-miterlimit="10" stroke-linecap="round" stroke-linejoin="round"/>
<path d="M33.9166 30.5834C36.318 28.2398 37.8055 24.9898 37.8055 21.3978C37.8055 18.424 36.7861 15.6847 35.0725 13.5" stroke="#214759" stroke-width="2" stroke-miterlimit="10" stroke-linecap="round" stroke-linejoin="round"/>
<path d="M21.1389 41.0001V36.6513C21.1389 35.4456 22.116 34.4682 23.3212 34.4682H24.8022C26.6629 34.4682 28.4312 34.0727 30.0278 33.3612" stroke="#214759" stroke-width="2" stroke-miterlimit="10" stroke-linecap="round" stroke-linejoin="round"/>
<path d="M13.4987 16.5556H24.8032C27.5352 16.5556 29.75 18.7503 29.75 21.4576C29.75 24.1648 27.5352 26.3595 24.8032 26.3595H22.2457C17.1088 26.3595 12.9445 30.486 12.9445 35.5763V41.0001" stroke="#214759" stroke-width="2" stroke-miterlimit="10" stroke-linecap="round" stroke-linejoin="round"/>
<path d="M4.33337 1.00004V7.31336C4.33337 10.9379 6.42677 14.0742 9.47226 15.5834" stroke="#214759" stroke-width="2" stroke-miterlimit="10" stroke-linecap="round" stroke-linejoin="round"/>
<path d="M41.7777 8.64949C41.7777 10.5 40.4346 12.0001 38.7777 12.0001C37.1209 12.0001 35.7777 10.5 35.7777 8.64949C35.7777 6.79909 37.1209 1.00006 38.7777 1.00006C40.4346 1.00006 41.7777 6.79909 41.7777 8.64949Z" stroke="#214759" stroke-width="2" stroke-miterlimit="10" stroke-linecap="round" stroke-linejoin="round"/>
<path d="M38.7777 8.00006V15.0001" stroke="#214759" stroke-width="2" stroke-miterlimit="10" stroke-linecap="round" stroke-linejoin="round"/>
<path d="M5.58333 21.91C5.58333 23.1717 4.55727 24.1945 3.29167 24.1945C2.02598 24.1945 1 23.1717 1 21.91C1 20.6483 2.02598 16.6945 3.29167 16.6945C4.55727 16.6945 5.58333 20.6483 5.58333 21.91Z" stroke="#214759" stroke-width="2" stroke-miterlimit="10" stroke-linecap="round" stroke-linejoin="round"/>
<path d="M3.36108 21.8333V26.6945" stroke="#214759" stroke-width="2" stroke-miterlimit="10" stroke-linecap="round" stroke-linejoin="round"/>
<path d="M10.1182 28.6526C10.2387 29.2041 10.3055 29.6921 10.3055 30.0079C10.3055 31.2462 9.27944 32.2501 8.01383 32.2501C6.74815 32.2501 5.72217 31.2462 5.72217 30.0079C5.72217 28.7696 6.74815 24.8889 8.01383 24.8889C8.47455 24.8889 8.90352 25.4032 9.26276 26.1171" stroke="#214759" stroke-width="2" stroke-miterlimit="10" stroke-linecap="round" stroke-linejoin="round"/>
<path d="M7.94446 30.0278L8.08335 34.8889" stroke="#214759" stroke-width="2" stroke-miterlimit="10" stroke-linecap="round" stroke-linejoin="round"/>
<path d="M13.5 18.5767C13.5 19.8384 12.474 20.8611 11.2083 20.8611C9.94269 20.8611 8.91663 19.8384 8.91663 18.5767C8.91663 17.315 9.94269 13.3611 11.2083 13.3611C12.474 13.3611 13.5 17.315 13.5 18.5767Z" stroke="#214759" stroke-width="2" stroke-miterlimit="10" stroke-linecap="round" stroke-linejoin="round"/>
<path d="M11.2778 18.5001V23.5001" stroke="#214759" stroke-width="2" stroke-miterlimit="10" stroke-linecap="round" stroke-linejoin="round"/>
<path d="M34.6112 34.2711C34.6112 35.5328 33.5852 36.5556 32.3195 36.5556C31.0539 36.5556 30.0278 35.5328 30.0278 34.2711C30.0278 33.0095 31.0539 29.0556 32.3195 29.0556C33.5852 29.0556 34.6112 33.0095 34.6112 34.2711Z" stroke="#214759" stroke-width="2" stroke-miterlimit="10" stroke-linecap="round" stroke-linejoin="round"/>
<path d="M32.3889 34.1945V39.1945" stroke="#214759" stroke-width="2" stroke-miterlimit="10" stroke-linecap="round" stroke-linejoin="round"/>
<path d="M37.8352 31.7427C38.1213 31.2926 38.4408 31 38.7778 31C40.0051 31 41 34.8807 41 36.119C41 37.3573 40.0051 38.3611 38.7778 38.3611C37.5505 38.3611 36.5555 37.3573 36.5555 36.119C36.5555 35.7712 36.634 35.2151 36.774 34.5951" stroke="#214759" stroke-width="2" stroke-miterlimit="10" stroke-linecap="round" stroke-linejoin="round"/>
<path d="M38.7778 36.1389V41.0001" stroke="#214759" stroke-width="2" stroke-miterlimit="10" stroke-linecap="round" stroke-linejoin="round"/>
<path d="M7.11108 3.36118V5.72229" stroke="#214759" stroke-width="2" stroke-miterlimit="10" stroke-linecap="round" stroke-linejoin="round"/>
<path d="M9.75 6.27782V8.08337" stroke="#214759" stroke-width="2" stroke-miterlimit="10" stroke-linecap="round" stroke-linejoin="round"/>
<path d="M17.8055 13.9167H20.1667" stroke="#214759" stroke-width="2" stroke-miterlimit="10" stroke-linecap="round" stroke-linejoin="round"/>
<path d="M21.8334 11.1389H24.8889" stroke="#214759" stroke-width="2" stroke-miterlimit="10" stroke-linecap="round" stroke-linejoin="round"/>
<path d="M18.3611 39.0556V36.8334" stroke="#214759" stroke-width="2" stroke-miterlimit="10" stroke-linecap="round" stroke-linejoin="round"/>
<path d="M15.7222 36.5556V34.4723" stroke="#214759" stroke-width="2" stroke-miterlimit="10" stroke-linecap="round" stroke-linejoin="round"/>
<path d="M30.7222 26.1389C30.7222 26.1389 32.0018 25.017 32.2499 23.2222" stroke="#214759" stroke-width="2" stroke-miterlimit="10" stroke-linecap="round" stroke-linejoin="round"/>
<path d="M34.75 19.4722C34.75 19.4722 35.2092 20.8647 34.9468 22.6667" stroke="#214759" stroke-width="2" stroke-miterlimit="10" stroke-linecap="round" stroke-linejoin="round"/>
</svg>
