<svg width="38" height="42" viewBox="0 0 38 42" fill="none" xmlns="http://www.w3.org/2000/svg">
<path d="M14.6554 24.0457L11.0221 24.9998" stroke="#214759" stroke-width="2" stroke-miterlimit="22.9256" stroke-linecap="round" stroke-linejoin="round"/>
<path d="M20.0187 13.9304C21.5919 15.9824 23.1685 15.1881 24.1155 17.6942C25.0902 20.2735 22.7281 23.0156 24.9302 26.0531C27.0324 28.9528 25.9908 30.8212 25.4414 32.0334" stroke="#214759" stroke-width="2" stroke-miterlimit="22.9256" stroke-linecap="round" stroke-linejoin="round"/>
<path d="M24.0376 35.513C23.925 37.8443 21.2111 38.0847 21.2907 41H37V1H1C1 4.27975 4.21855 3.00269 5.49274 4.25151C6.92427 5.65453 8.34898 5.77478 9.52705 5.3129C11.2562 4.63502 12.7751 5.03029 13.9572 6.88955C15.0189 8.55943 14.49 9.99918 16.508 11.6259" stroke="#214759" stroke-width="2" stroke-miterlimit="22.9256" stroke-linecap="round" stroke-linejoin="round"/>
<path d="M22.6233 1.35052C22.7435 3.83812 24.1714 4.6422 26.3883 5.5475C28.7061 6.49404 27.7226 9.61118 30.9887 10.4689C34.4735 11.3841 33.9201 8.3311 36.6024 8.23306" stroke="#214759" stroke-width="2" stroke-miterlimit="22.9256" stroke-linecap="round" stroke-linejoin="round"/>
<path d="M17.636 5.42694H19.4684" stroke="#214759" stroke-width="2" stroke-miterlimit="22.9256" stroke-linecap="round" stroke-linejoin="round"/>
<path d="M28.7833 15.8148H30.6157" stroke="#214759" stroke-width="2" stroke-miterlimit="22.9256" stroke-linecap="round" stroke-linejoin="round"/>
<path d="M31.3384 26.2948H33.1708" stroke="#214759" stroke-width="2" stroke-miterlimit="22.9256" stroke-linecap="round" stroke-linejoin="round"/>
<path d="M29.9089 37.3262H31.7413" stroke="#214759" stroke-width="2" stroke-miterlimit="22.9256" stroke-linecap="round" stroke-linejoin="round"/>
<path fill-rule="evenodd" clip-rule="evenodd" d="M16.7175 11.7884C17.2683 10.9323 18.4229 10.6758 19.2964 11.2156C20.1699 11.7553 20.4316 12.887 19.8808 13.7432L17.228 17.8904C16.9669 18.2964 16.5704 18.5692 16.1321 18.6846L14.1685 19.2002L15.4772 25.5981L19.8694 27.1291C20.223 27.2524 20.6091 27.5141 20.843 27.7682L25.3668 32.2019C26.0971 32.9188 26.0964 34.0803 25.3649 34.7961C24.6335 35.5119 23.4485 35.5111 22.7181 34.7943L18.487 30.6475L12.7305 29.5844C12.0872 29.4148 11.5808 28.9167 11.408 28.2864L8.79125 18.7147C8.52305 17.7363 9.11484 16.7301 10.1131 16.4673L14.4541 15.3273L16.7175 11.7884Z" stroke="#214759" stroke-width="2" stroke-miterlimit="22.9256" stroke-linecap="round" stroke-linejoin="round"/>
<path fill-rule="evenodd" clip-rule="evenodd" d="M12.594 12.9919C12.9808 14.4068 12.1241 15.8612 10.6803 16.2403C9.23663 16.6194 7.75271 15.7798 7.36582 14.3647C6.97902 12.9498 7.83575 11.4954 9.27945 11.1163C10.7233 10.7372 12.2071 11.5769 12.594 12.9919Z" stroke="#214759" stroke-width="2" stroke-miterlimit="22.9256" stroke-linecap="round" stroke-linejoin="round"/>
</svg>
