<svg width="42" height="42" viewBox="0 0 42 42" fill="none" xmlns="http://www.w3.org/2000/svg">
<path d="M23.0002 40.8218C25.8014 38.3838 29.7329 36.8644 34.0804 36.8644C36.5678 36.8644 38.9188 37.3623 41.0002 38.2444" stroke="#214759" stroke-width="2" stroke-miterlimit="10" stroke-linecap="round" stroke-linejoin="round"/>
<path d="M17.631 40.9999C21.1038 35.5313 27.2549 31.8881 34.2508 31.8881C36.6213 31.8881 38.8949 32.3065 41.0002 33.0722" stroke="#214759" stroke-width="2" stroke-miterlimit="10" stroke-linecap="round" stroke-linejoin="round"/>
<path d="M40.1667 28.0565C38.2727 27.584 36.291 27.3322 34.2508 27.3322C24.6185 27.3322 16.2823 32.9249 12.3832 40.9999" stroke="#214759" stroke-width="2" stroke-miterlimit="10" stroke-linecap="round" stroke-linejoin="round"/>
<path d="M1.00037 38.0327C3.03055 37.0172 5.32366 36.444 7.74982 36.444C10.0536 36.444 12.2374 36.9607 14.1901 37.8823C13.5124 38.8714 12.908 39.9134 12.3833 40.9999" stroke="#214759" stroke-width="2" stroke-miterlimit="10" stroke-linecap="round" stroke-linejoin="round"/>
<path d="M1.83398 28.0565C3.72791 27.584 5.70963 27.3322 7.74979 27.3322C12.6373 27.3322 17.1904 28.7734 21.0003 31.2468C17.3017 33.6478 14.3042 37.0227 12.3831 40.9999" stroke="#214759" stroke-width="2" stroke-miterlimit="10" stroke-linecap="round" stroke-linejoin="round"/>
<path d="M15.6873 1.25019C15.3255 0.91662 14.675 0.91662 14.3133 1.25019L6.00024 8.91492H24.0002L15.6873 1.25019Z" stroke="#214759" stroke-width="2" stroke-miterlimit="10" stroke-linecap="round" stroke-linejoin="round"/>
<path d="M15.0002 24.0027V24.9921" stroke="#214759" stroke-width="2" stroke-miterlimit="10" stroke-linecap="round" stroke-linejoin="round"/>
<path d="M27.5791 1.25013C27.3958 1.08339 27.1396 1.00001 26.8832 1.00001H15.0002C15.2566 1.00001 15.5128 1.08339 15.6961 1.25013L24.1171 8.91492H36.0002L27.5791 1.25013Z" stroke="#214759" stroke-width="2" stroke-miterlimit="10" stroke-linecap="round" stroke-linejoin="round"/>
<path d="M25.0002 28.9495V8.91486H6.00024V27.1174" stroke="#214759" stroke-width="2" stroke-miterlimit="10" stroke-linecap="round" stroke-linejoin="round"/>
<path d="M20.0002 29.9388V18.123C20.0002 17.5454 19.5658 17.0771 19.0299 17.0771H12.9706C12.4348 17.0771 12.0002 17.5454 12.0002 18.123V26.7122" stroke="#214759" stroke-width="2" stroke-miterlimit="10" stroke-linecap="round" stroke-linejoin="round"/>
<path d="M6.28322 31.9429C4.44048 32.0784 2.66745 32.4659 1.00024 33.0723M12.3841 41C13.594 38.4949 15.2299 36.2282 17.2 34.2938C14.7671 32.9648 12.0205 32.1318 9.10012 31.9342" stroke="#214759" stroke-width="2" stroke-miterlimit="10" stroke-linecap="round" stroke-linejoin="round"/>
<path d="M36.0002 15.0599V8.91492M36.0002 26.7234V19.248" stroke="#214759" stroke-width="2" stroke-miterlimit="10" stroke-linecap="round" stroke-linejoin="round"/>
</svg>
