<svg width="42" height="42" viewBox="0 0 42 42" fill="none" xmlns="http://www.w3.org/2000/svg">
<path d="M1 37C1 37.5253 1.10346 38.0455 1.30448 38.5307C1.50549 39.016 1.80014 39.4571 2.17157 39.8284C2.54301 40.1998 2.98397 40.4946 3.46927 40.6955C3.95456 40.8965 4.47472 41 5.00001 41C5.52529 41 6.04545 40.8965 6.53074 40.6955C7.01604 40.4946 7.457 40.1998 7.82844 39.8284C8.19987 39.4571 8.49452 39.016 8.69553 38.5307C8.89654 38.0455 9.00001 37.5253 9.00001 37C9.00001 36.4747 8.89654 35.9545 8.69553 35.4693C8.49452 34.984 8.19987 34.5429 7.82844 34.1716C7.457 33.8002 7.01604 33.5054 6.53074 33.3045C6.04545 33.1035 5.52529 33 5.00001 33C4.47472 33 3.95456 33.1035 3.46927 33.3045C2.98397 33.5054 2.54301 33.8002 2.17157 34.1716C1.80014 34.5429 1.50549 34.984 1.30448 35.4693C1.10346 35.9545 1 36.4747 1 37Z" stroke="#214759" stroke-width="2" stroke-linecap="round" stroke-linejoin="round"/>
<path d="M17 37C17 38.0608 17.4214 39.0782 18.1716 39.8284C18.9218 40.5785 19.9392 41 21 41C22.0608 41 23.0782 40.5785 23.8285 39.8284C24.5785 39.0782 25 38.0608 25 37C25 35.9392 24.5785 34.9218 23.8285 34.1716C23.0782 33.4215 22.0608 33 21 33C19.9392 33 18.9218 33.4215 18.1716 34.1716C17.4214 34.9218 17 35.9392 17 37Z" stroke="#214759" stroke-width="2" stroke-linecap="round" stroke-linejoin="round"/>
<path d="M33 37C33 38.0608 33.4215 39.0782 34.1716 39.8284C34.9218 40.5785 35.9392 41 37 41C38.0608 41 39.0782 40.5785 39.8285 39.8284C40.5785 39.0782 41 38.0608 41 37C41 35.9392 40.5785 34.9218 39.8285 34.1716C39.0782 33.4215 38.0608 33 37 33C35.9392 33 34.9218 33.4215 34.1716 34.1716C33.4215 34.9218 33 35.9392 33 37Z" stroke="#214759" stroke-width="2" stroke-linecap="round" stroke-linejoin="round"/>
<path d="M15.6667 10.3334H26.3334C26.3334 10.3334 29 10.3334 29 13V19.6667C29 19.6667 29 22.3334 26.3334 22.3334H15.6667C15.6667 22.3334 13 22.3334 13 19.6667V13C13 13 13 10.3334 15.6667 10.3334Z" stroke="#214759" stroke-width="2" stroke-linecap="round" stroke-linejoin="round"/>
<path d="M21 33V22.3334" stroke="#214759" stroke-width="2" stroke-linecap="round" stroke-linejoin="round"/>
<path d="M5 33V27.6667H37V33" stroke="#214759" stroke-width="2" stroke-linecap="round" stroke-linejoin="round"/>
<path d="M15.6667 10.3333V6.33333C15.6667 4.91884 16.2287 3.56229 17.2288 2.5621C18.2291 1.5619 19.5857 1 21.0001 1C22.4145 1 23.7711 1.5619 24.7713 2.5621C25.7715 3.56229 26.3334 4.91884 26.3334 6.33333V10.3333" stroke="#214759" stroke-width="2" stroke-linecap="round" stroke-linejoin="round"/>
</svg>
