<svg width="28" height="42" viewBox="0 0 28 42" fill="none" xmlns="http://www.w3.org/2000/svg">
<path d="M25 18C25 14.6863 22.3137 12 19 12H7C3.68629 12 1 14.6863 1 18V37C1 39.2091 2.79086 41 5 41H21C23.2091 41 25 39.2091 25 37V18Z" stroke="#214759" stroke-width="2" stroke-linecap="round"/>
<path d="M19 9C19 7.34315 17.6569 6 16 6H10C8.34315 6 7 7.34315 7 9V12H19V9Z" stroke="#214759" stroke-width="2" stroke-linecap="round"/>
<path d="M16 2C16 1.44772 15.5523 1 15 1H11C10.4477 1 10 1.44772 10 2V6H16V2Z" stroke="#214759" stroke-width="2" stroke-linecap="round"/>
<path d="M16 3H24C24.925 3 27 3.5 27 6" stroke="#214759" stroke-width="2" stroke-linecap="round"/>
</svg>
