<svg width="42" height="42" viewBox="0 0 42 42" fill="none" xmlns="http://www.w3.org/2000/svg">
<path d="M8.46722 14.9453V7.74326C8.46722 4.01907 11.4863 1 15.2105 1C18.9347 1 21.9537 4.01907 21.9537 7.74326V14.9453" stroke="#214759" stroke-width="2" stroke-miterlimit="10" stroke-linecap="round" stroke-linejoin="round"/>
<path d="M7.24127 15.1063H9.9455" stroke="#214759" stroke-width="2" stroke-miterlimit="10" stroke-linecap="round" stroke-linejoin="round"/>
<path d="M20.6016 15.1063H23.3058" stroke="#214759" stroke-width="2" stroke-miterlimit="10" stroke-linecap="round" stroke-linejoin="round"/>
<path d="M27.9856 24.7573V27.7488C27.9856 29.834 29.676 31.5244 31.7612 31.5244C33.8464 31.5244 35.5368 29.834 35.5368 27.7488V24.7573" stroke="#214759" stroke-width="2" stroke-miterlimit="10" stroke-linecap="round" stroke-linejoin="round"/>
<path d="M27.2993 24.6292H28.8134" stroke="#214759" stroke-width="2" stroke-miterlimit="10" stroke-linecap="round" stroke-linejoin="round"/>
<path d="M34.7798 24.6292H36.2938" stroke="#214759" stroke-width="2" stroke-miterlimit="10" stroke-linecap="round" stroke-linejoin="round"/>
<path d="M19.2042 27.516L21.0922 25.628C22.4734 24.2467 22.4734 22.0072 21.0922 20.6259C19.7109 19.2447 17.4714 19.2447 16.0901 20.6259L15.7318 20.9842C15.4438 21.2722 14.977 21.2722 14.6891 20.9842L14.3308 20.6259C12.9494 19.2447 10.71 19.2447 9.32866 20.6259C7.94741 22.0072 7.94741 24.2467 9.32866 25.628L14.6891 30.9884C14.977 31.2764 15.4439 31.2764 15.7318 30.9884L17.3267 29.3934" stroke="#214759" stroke-width="2" stroke-miterlimit="10" stroke-linecap="round" stroke-linejoin="round"/>
<path d="M23.1929 41H2.12506C1.45512 41 0.933756 40.4181 1.007 39.7522L2.00012 31L2.50012 27" stroke="#214759" stroke-width="2" stroke-miterlimit="10" stroke-linecap="round" stroke-linejoin="round"/>
<path d="M27.5825 21.9625L26.5712 12.7712C26.5084 12.2011 26.0267 11.7695 25.4531 11.7695H5.09402C4.52042 11.7695 4.03873 12.2011 3.97603 12.7712L2.50012 27" stroke="#214759" stroke-width="2" stroke-miterlimit="10" stroke-linecap="round" stroke-linejoin="round"/>
<path d="M30.7195 22.1462H25.2526C24.8702 22.1462 24.5491 22.434 24.5072 22.8141L22.5976 40.1681C22.5488 40.6121 22.8964 41 23.343 41H40.2502C40.6968 41 41.0444 40.6121 40.9956 40.1681L39.086 22.8141C39.0441 22.434 38.723 22.1462 38.3406 22.1462H33.3503" stroke="#214759" stroke-width="2" stroke-miterlimit="10" stroke-linecap="round" stroke-linejoin="round"/>
</svg>
