<svg width="32" height="42" viewBox="0 0 32 42" fill="none" xmlns="http://www.w3.org/2000/svg">
<path d="M26.0109 41V7.96364C26.0159 6.12472 25.276 4.35894 23.9536 3.05353C22.6312 1.74811 20.8342 1.00962 18.9567 1H17.1003C15.2228 1.00962 13.4258 1.74811 12.1034 3.05353C10.781 4.35894 10.0411 6.12472 10.046 7.96364" stroke="#214759" stroke-width="2" stroke-miterlimit="10" stroke-linecap="round" stroke-linejoin="round"/>
<path d="M9.67566 7.96364C10.8156 7.95885 11.9453 8.18011 12.9999 8.61473C14.0545 9.04934 15.0131 9.68875 15.8209 10.4963C16.6287 11.3038 17.2696 12.2635 17.707 13.3203C18.1443 14.3771 18.3694 15.5102 18.3694 16.6545V18.4727H1V16.6545C0.999998 15.5117 1.22453 14.3801 1.66075 13.3245C2.09696 12.2689 2.73629 11.31 3.54214 10.5027C4.34799 9.69544 5.30452 9.05566 6.357 8.61997C7.40947 8.18428 8.53721 7.96125 9.67566 7.96364Z" stroke="#214759" stroke-width="2" stroke-miterlimit="10" stroke-linecap="round" stroke-linejoin="round"/>
<path d="M24.0154 32C24.0154 32.5304 24.2256 33.0391 24.5999 33.4142C24.9741 33.7893 25.4817 34 26.011 34C26.5403 34 27.0479 33.7893 27.4221 33.4142C27.7964 33.0391 28.0066 32.5304 28.0066 32C28.0066 31.4696 27.7964 30.9609 27.4221 30.5858C27.0479 30.2107 26.5403 30 26.011 30C25.4817 30 24.9741 30.2107 24.5999 30.5858C24.2256 30.9609 24.0154 31.4696 24.0154 32Z" stroke="#214759" stroke-width="2" stroke-miterlimit="10" stroke-linecap="round" stroke-linejoin="round"/>
<path d="M2.73877 22V25.4909" stroke="#214759" stroke-width="2" stroke-miterlimit="10" stroke-linecap="round" stroke-linejoin="round"/>
<path d="M9.67566 22V25.4909" stroke="#214759" stroke-width="2" stroke-miterlimit="10" stroke-linecap="round" stroke-linejoin="round"/>
<path d="M16.5944 22V25.4909" stroke="#214759" stroke-width="2" stroke-miterlimit="10" stroke-linecap="round" stroke-linejoin="round"/>
<path d="M2.73877 30V33.4727" stroke="#214759" stroke-width="2" stroke-miterlimit="10" stroke-linecap="round" stroke-linejoin="round"/>
<path d="M9.67566 30V33.4727" stroke="#214759" stroke-width="2" stroke-miterlimit="10" stroke-linecap="round" stroke-linejoin="round"/>
<path d="M16.5944 30V33.4727" stroke="#214759" stroke-width="2" stroke-miterlimit="10" stroke-linecap="round" stroke-linejoin="round"/>
<path d="M2.73877 37.5273V41" stroke="#214759" stroke-width="2" stroke-miterlimit="10" stroke-linecap="round" stroke-linejoin="round"/>
<path d="M9.67566 37.5273V41" stroke="#214759" stroke-width="2" stroke-miterlimit="10" stroke-linecap="round" stroke-linejoin="round"/>
<path d="M16.5944 37.5273V41" stroke="#214759" stroke-width="2" stroke-miterlimit="10" stroke-linecap="round" stroke-linejoin="round"/>
<path d="M31 32H27.0088" stroke="#214759" stroke-width="2" stroke-miterlimit="10" stroke-linecap="round" stroke-linejoin="round"/>
</svg>
