<svg width="42" height="42" viewBox="0 0 42 42" fill="none" xmlns="http://www.w3.org/2000/svg">
<path d="M14.7759 41C12.7134 41 11.0415 39.3281 11.0415 37.2656V4.73444C11.0415 2.67195 12.7134 1 14.7759 1C16.8384 1 18.5104 2.67195 18.5104 4.73444V37.2656C18.5104 39.3281 16.8384 41 14.7759 41Z" stroke="#214759" stroke-width="2" stroke-miterlimit="10" stroke-linecap="round" stroke-linejoin="round"/>
<path d="M5.97925 10.2946C5.97925 8.9196 4.86465 7.80499 3.48963 7.80499C2.11461 7.80499 1 8.9196 1 10.2946V16.9336H5.97925V10.2946Z" stroke="#214759" stroke-width="2" stroke-miterlimit="10" stroke-linecap="round" stroke-linejoin="round"/>
<path d="M3.48963 16.9336V41" stroke="#214759" stroke-width="2" stroke-miterlimit="10" stroke-linecap="round" stroke-linejoin="round"/>
<path d="M1.41494 36.8506H5.56432" stroke="#214759" stroke-width="2" stroke-miterlimit="10" stroke-linecap="round" stroke-linejoin="round"/>
<path d="M41 10.2946C41 8.9196 39.8854 7.80499 38.5104 7.80499C37.1354 7.80499 36.0208 8.9196 36.0208 10.2946V16.9336H41V10.2946Z" stroke="#214759" stroke-width="2" stroke-miterlimit="10" stroke-linecap="round" stroke-linejoin="round"/>
<path d="M38.5104 16.9336V41" stroke="#214759" stroke-width="2" stroke-miterlimit="10" stroke-linecap="round" stroke-linejoin="round"/>
<path d="M36.4357 36.8506H40.5851" stroke="#214759" stroke-width="2" stroke-miterlimit="10" stroke-linecap="round" stroke-linejoin="round"/>
<path d="M14.7759 8.46887C12.7134 8.46887 11.0415 10.1408 11.0415 12.2033V16.3527C11.0415 18.4152 12.7134 20.0871 14.7759 20.0871C16.8384 20.0871 18.5104 18.4152 18.5104 16.3527V12.2033C18.5104 10.1408 16.8384 8.46887 14.7759 8.46887Z" stroke="#214759" stroke-width="2" stroke-miterlimit="10" stroke-linecap="round" stroke-linejoin="round"/>
<path d="M27.2241 1C29.2866 1 30.9585 2.67195 30.9585 4.73444V37.2656C30.9585 39.3281 29.2866 41 27.2241 41C25.1616 41 23.4896 39.3281 23.4896 37.2656V4.73444C23.4896 2.67195 25.1616 1 27.2241 1Z" stroke="#214759" stroke-width="2" stroke-miterlimit="10" stroke-linecap="round" stroke-linejoin="round"/>
<path d="M27.2241 20.0871C29.2866 20.0871 30.9585 18.4152 30.9585 16.3527V12.2033C30.9585 10.1408 29.2866 8.46887 27.2241 8.46887C25.1616 8.46887 23.4896 10.1408 23.4896 12.2033V16.3527C23.4896 18.4152 25.1616 20.0871 27.2241 20.0871Z" stroke="#214759" stroke-width="2" stroke-miterlimit="10" stroke-linecap="round" stroke-linejoin="round"/>
<path d="M30.9585 31.0415L23.4896 34.361" stroke="#214759" stroke-width="2" stroke-miterlimit="10" stroke-linecap="round" stroke-linejoin="round"/>
<path d="M30.9585 25.2324L23.4896 28.5519" stroke="#214759" stroke-width="2" stroke-miterlimit="10" stroke-linecap="round" stroke-linejoin="round"/>
<path d="M11.0415 31.0415L18.5104 34.361" stroke="#214759" stroke-width="2" stroke-miterlimit="10" stroke-linecap="round" stroke-linejoin="round"/>
<path d="M11.0415 25.2324L18.5104 28.5519" stroke="#214759" stroke-width="2" stroke-miterlimit="10" stroke-linecap="round" stroke-linejoin="round"/>
</svg>
