<svg width="42" height="42" viewBox="0 0 42 42" fill="none" xmlns="http://www.w3.org/2000/svg">
<path d="M41 41H1V10.8149L21.1641 1L41 10.8149V41Z" stroke="#214759" stroke-width="2" stroke-linecap="round" stroke-linejoin="round"/>
<path d="M16.6432 37C15.1994 37 14.0291 35.8296 14.0291 34.3859V11.6141C14.0291 10.1704 15.1994 9 16.6432 9C18.0869 9 19.2573 10.1704 19.2573 11.6141V34.3859C19.2573 35.8296 18.0869 37 16.6432 37Z" stroke="#214759" stroke-width="2" stroke-miterlimit="10" stroke-linecap="round" stroke-linejoin="round"/>
<path d="M10.4855 15.5062C10.4855 14.5437 9.70525 13.7635 8.74274 13.7635C7.78022 13.7635 7 14.5437 7 15.5062V20.1535H10.4855V15.5062Z" stroke="#214759" stroke-width="2" stroke-miterlimit="10" stroke-linecap="round" stroke-linejoin="round"/>
<path d="M8.74274 20.1536V37" stroke="#214759" stroke-width="2" stroke-miterlimit="10" stroke-linecap="round" stroke-linejoin="round"/>
<path d="M7.29047 34.0955H10.195" stroke="#214759" stroke-width="2" stroke-miterlimit="10" stroke-linecap="round" stroke-linejoin="round"/>
<path d="M35 15.5062C35 14.5437 34.2198 13.7635 33.2573 13.7635C32.2948 13.7635 31.5145 14.5437 31.5145 15.5062V20.1535H35V15.5062Z" stroke="#214759" stroke-width="2" stroke-miterlimit="10" stroke-linecap="round" stroke-linejoin="round"/>
<path d="M33.2573 20.1536V37" stroke="#214759" stroke-width="2" stroke-miterlimit="10" stroke-linecap="round" stroke-linejoin="round"/>
<path d="M31.805 34.0955H34.7096" stroke="#214759" stroke-width="2" stroke-miterlimit="10" stroke-linecap="round" stroke-linejoin="round"/>
<path d="M16.6432 14.2282C15.1994 14.2282 14.0291 15.3986 14.0291 16.8423V19.7469C14.0291 21.1906 15.1994 22.361 16.6432 22.361C18.0869 22.361 19.2573 21.1906 19.2573 19.7469V16.8423C19.2573 15.3986 18.0869 14.2282 16.6432 14.2282Z" stroke="#214759" stroke-width="2" stroke-miterlimit="10" stroke-linecap="round" stroke-linejoin="round"/>
<path d="M25.3568 9C26.8006 9 27.971 10.1704 27.971 11.6141V34.3859C27.971 35.8296 26.8006 37 25.3568 37C23.9131 37 22.7427 35.8296 22.7427 34.3859V11.6141C22.7427 10.1704 23.9131 9 25.3568 9Z" stroke="#214759" stroke-width="2" stroke-miterlimit="10" stroke-linecap="round" stroke-linejoin="round"/>
<path d="M25.3568 22.361C26.8006 22.361 27.971 21.1906 27.971 19.7469V16.8423C27.971 15.3986 26.8006 14.2282 25.3568 14.2282C23.9131 14.2282 22.7427 15.3986 22.7427 16.8423V19.7469C22.7427 21.1906 23.9131 22.361 25.3568 22.361Z" stroke="#214759" stroke-width="2" stroke-miterlimit="10" stroke-linecap="round" stroke-linejoin="round"/>
<path d="M27.971 30.0291L22.7427 32.3527" stroke="#214759" stroke-width="2" stroke-miterlimit="10" stroke-linecap="round" stroke-linejoin="round"/>
<path d="M27.971 25.9626L22.7427 28.2863" stroke="#214759" stroke-width="2" stroke-miterlimit="10" stroke-linecap="round" stroke-linejoin="round"/>
<path d="M14.0291 30.0291L19.2573 32.3527" stroke="#214759" stroke-width="2" stroke-miterlimit="10" stroke-linecap="round" stroke-linejoin="round"/>
<path d="M14.0291 25.9626L19.2573 28.2863" stroke="#214759" stroke-width="2" stroke-miterlimit="10" stroke-linecap="round" stroke-linejoin="round"/>
</svg>
