<svg width="42" height="42" viewBox="0 0 42 42" fill="none" xmlns="http://www.w3.org/2000/svg">
<path d="M33.3644 15.1086L32.4552 7.40462C32.2595 5.74604 30.7331 4.61619 29.1522 4.95983C27.7183 5.27152 26.7707 6.68899 26.995 8.18663L28.1503 15.8999C28.4247 17.7319 29.4942 19.3333 31.0536 20.2471L35.0029 22.5614C36.9572 23.7067 39.4401 22.9548 40.4887 20.9002L41.0002 19.8979L33.3644 15.1086Z" stroke="#214759" stroke-width="2" stroke-miterlimit="10" stroke-linecap="round" stroke-linejoin="round"/>
<path d="M24.3018 16.6225C28.2993 18.7505 28.5266 24.577 24.718 27.0478L20.0125 30.0983L20.6081 30.3468C22.7442 31.2382 23.2354 34.1384 21.5193 35.7277L21.0379 36.1735" stroke="#214759" stroke-width="2" stroke-miterlimit="10" stroke-linecap="round" stroke-linejoin="round"/>
<path d="M33.3992 21.6172L36.0648 16.8349" stroke="#214759" stroke-width="2" stroke-miterlimit="10" stroke-linecap="round" stroke-linejoin="round"/>
<path d="M32.8878 8.047C31.8023 6.52812 32.1127 4.38671 33.5811 3.26388L35.7281 1.67039C37.1965 0.547568 39.2669 0.868681 40.3524 2.38748C41.4378 3.90636 41.1275 6.04778 39.6591 7.1706L37.512 8.76409C36.0436 9.88691 33.9733 9.56589 32.8878 8.047Z" stroke="#214759" stroke-width="2" stroke-miterlimit="10" stroke-linecap="round" stroke-linejoin="round"/>
<path d="M34.9263 2.26105L38.8572 7.76125" stroke="#214759" stroke-width="2" stroke-miterlimit="10" stroke-linecap="round" stroke-linejoin="round"/>
<path d="M31.0536 20.2472L5.27673 6.40863" stroke="#214759" stroke-width="2" stroke-miterlimit="10" stroke-linecap="round" stroke-linejoin="round"/>
<path d="M1.00024 27.7457L30.8484 40.2997C33.5176 41.4112 36.5327 41.1913 39.0249 39.7035" stroke="#214759" stroke-width="2" stroke-miterlimit="10" stroke-linecap="round" stroke-linejoin="round"/>
<path d="M23.7326 27.6883L18.1598 24.6066" stroke="#214759" stroke-width="2" stroke-miterlimit="10" stroke-linecap="round" stroke-linejoin="round"/>
<path d="M12.9817 32.7851C11.1566 32.0191 10.9192 29.4532 12.5722 28.3468L21.4979 22.3721L18.5965 20.8938C15.2607 19.1941 15.0391 14.3705 18.2041 12.3527L27.2039 6.61499" stroke="#214759" stroke-width="2" stroke-miterlimit="10" stroke-linecap="round" stroke-linejoin="round"/>
</svg>
