<svg width="42" height="37" viewBox="0 0 42 37" fill="none" xmlns="http://www.w3.org/2000/svg">
<path d="M38.3333 36H6.33331V25.2308H38.3333C39.0405 25.2308 39.7189 25.5144 40.219 26.0193C40.7191 26.5242 41 27.2091 41 27.9231V33.3077C41 34.0217 40.7191 34.7066 40.219 35.2115C39.7189 35.7164 39.0405 36 38.3333 36Z" stroke="#214759" stroke-width="2" stroke-linecap="round" stroke-linejoin="round"/>
<path d="M27.6667 25.2308V36" stroke="#214759" stroke-width="2" stroke-linecap="round" stroke-linejoin="round"/>
<path d="M1 25.2308V36" stroke="#214759" stroke-width="2" stroke-linecap="round" stroke-linejoin="round"/>
<path d="M14.3333 1C14.3333 3.14213 13.4905 5.19653 11.9902 6.71124C10.4899 8.22596 8.45506 9.07692 6.33333 9.07692C4.91884 9.07692 3.56229 9.64423 2.5621 10.654C1.5619 11.6639 1 13.0334 1 14.4615" stroke="#214759" stroke-width="2" stroke-linecap="round" stroke-linejoin="round"/>
<path d="M22.3333 1C22.3333 5.28427 20.6476 9.39305 17.6471 12.4225C14.6464 15.4519 10.5768 17.1538 6.33331 17.1538" stroke="#214759" stroke-width="2" stroke-linecap="round" stroke-linejoin="round"/>
</svg>
