<svg width="41" height="41" viewBox="0 0 41 41" fill="none" xmlns="http://www.w3.org/2000/svg">
<path d="M3.4609 37.1365C0.160717 33.8363 0.182819 28.7071 3.50806 26.1994L10.1537 21.1876C14.331 18.0374 18.0374 14.3311 21.1876 10.1538L26.1994 3.50803C28.707 0.182862 33.8363 0.160761 37.1365 3.46094C40.4367 6.76112 40.4146 11.8904 37.0893 14.398L30.4436 19.4098C26.2663 22.56 22.56 26.2664 19.4098 30.4437L14.398 37.0893C11.8903 40.4146 6.76108 40.4367 3.4609 37.1365Z" stroke="#214759" stroke-width="2" stroke-miterlimit="10" stroke-linecap="round" stroke-linejoin="round"/>
<path d="M19.9499 29.2429L19.9488 29.244C18.7884 30.4044 16.9071 30.4044 15.7467 29.244L11.3535 24.8508C10.1932 23.6904 10.1932 21.8092 11.3535 20.6487L11.3546 20.6476C12.5151 19.4873 14.3963 19.4873 15.5567 20.6476L19.9499 25.0408C21.1103 26.2012 21.1103 28.0826 19.9499 29.2429Z" stroke="#214759" stroke-width="2" stroke-miterlimit="10" stroke-linecap="round" stroke-linejoin="round"/>
<path d="M29.0572 20.1355L29.0561 20.1366C27.8957 21.297 26.0144 21.297 24.854 20.1366L20.4608 15.7434C19.3005 14.583 19.3005 12.7017 20.4608 11.5413L20.4619 11.5402C21.6224 10.3799 23.5036 10.3799 24.664 11.5402L29.0572 15.9334C30.2175 17.0938 30.2175 18.9751 29.0572 20.1355Z" stroke="#214759" stroke-width="2" stroke-miterlimit="10" stroke-linecap="round" stroke-linejoin="round"/>
<path d="M13.55 27.0475L11.4011 29.1964" stroke="#214759" stroke-width="2" stroke-miterlimit="10" stroke-linecap="round" stroke-linejoin="round"/>
<path d="M29.0096 11.5879L26.8607 13.7368" stroke="#214759" stroke-width="2" stroke-miterlimit="10" stroke-linecap="round" stroke-linejoin="round"/>
<path d="M7.8047 32.7928L3.46094 37.1365" stroke="#214759" stroke-width="2" stroke-miterlimit="10" stroke-linecap="round" stroke-linejoin="round"/>
<path d="M37.1366 3.46093L32.7928 7.80469" stroke="#214759" stroke-width="2" stroke-miterlimit="10" stroke-linecap="round" stroke-linejoin="round"/>
</svg>
