<svg width="34" height="42" viewBox="0 0 34 42" fill="none" xmlns="http://www.w3.org/2000/svg">
<path d="M5 1H29C29 1 33 1 33 5V37C33 37 33 41 29 41H5C5 41 1 41 1 37V5C1 5 1 1 5 1Z" stroke="#214759" stroke-width="2" stroke-linecap="round" stroke-linejoin="round"/>
<path d="M7 27C7 29.6522 8.05357 32.1957 9.92893 34.0711C11.8043 35.9464 14.3478 37 17 37C19.6522 37 22.1957 35.9464 24.0711 34.0711C25.9464 32.1957 27 29.6522 27 27C27 24.3478 25.9464 21.8043 24.0711 19.9289C22.1957 18.0536 19.6522 17 17 17C14.3478 17 11.8043 18.0536 9.92893 19.9289C8.05357 21.8043 7 24.3478 7 27Z" stroke="#214759" stroke-width="2" stroke-linecap="round" stroke-linejoin="round"/>
<path d="M13 27C13 28.0609 13.4214 29.0783 14.1716 29.8284C14.9217 30.5786 15.9391 31 17 31C18.0609 31 19.0783 30.5786 19.8284 29.8284C20.5786 29.0783 21 28.0609 21 27C21 25.9391 20.5786 24.9217 19.8284 24.1716C19.0783 23.4214 18.0609 23 17 23C15.9391 23 14.9217 23.4214 14.1716 24.1716C13.4214 24.9217 13 25.9391 13 27Z" stroke="#214759" stroke-width="2" stroke-linecap="round" stroke-linejoin="round"/>
<path d="M13 9C13 10.0609 13.4214 11.0783 14.1716 11.8284C14.9217 12.5786 15.9391 13 17 13C18.0609 13 19.0783 12.5786 19.8284 11.8284C20.5786 11.0783 21 10.0609 21 9C21 7.93913 20.5786 6.92172 19.8284 6.17157C19.0783 5.42143 18.0609 5 17 5C15.9391 5 14.9217 5.42143 14.1716 6.17157C13.4214 6.92172 13 7.93913 13 9Z" stroke="#214759" stroke-width="2" stroke-linecap="round" stroke-linejoin="round"/>
</svg>
