<svg width="42" height="42" viewBox="0 0 42 42" fill="none" xmlns="http://www.w3.org/2000/svg">
<path d="M35.7704 24.6514C35.7962 24.5249 35.7936 24.3943 35.7626 24.2689C35.7316 24.1436 35.6731 24.0267 35.5914 23.9268C35.5096 23.8269 35.4066 23.7464 35.2899 23.6913C35.1731 23.6361 35.0456 23.6076 34.9165 23.6079H1.87152C1.74241 23.6076 1.61485 23.6361 1.49812 23.6913C1.38138 23.7464 1.27839 23.8269 1.19662 23.9268C1.11485 24.0267 1.05636 24.1436 1.02539 24.2689C0.994418 24.3943 0.991747 24.5249 1.01757 24.6514C1.54104 27.3635 2.76289 29.8921 4.56245 31.9875C6.36201 34.0829 8.67703 35.6727 11.2789 36.5998C11.3911 36.6397 11.4939 36.7023 11.581 36.7837C11.668 36.865 11.7374 36.9633 11.7848 37.0726C11.8323 37.1818 11.8568 37.2997 11.8568 37.4188C11.8568 37.5379 11.8324 37.6558 11.785 37.7651C11.4601 38.5114 11.2914 39.3164 11.2893 40.1304C11.2893 40.361 11.3809 40.5822 11.544 40.7453C11.7071 40.9084 11.9283 41 12.1589 41H24.629C24.8597 41 25.0809 40.9084 25.2439 40.7453C25.407 40.5822 25.4986 40.361 25.4986 40.1304C25.4983 39.3136 25.3301 38.5055 25.0047 37.7564C24.9568 37.6466 24.9321 37.5282 24.9321 37.4085C24.9321 37.2888 24.9568 37.1704 25.0047 37.0607C25.0527 36.9517 25.1223 36.8536 25.2093 36.7722C25.2963 36.6909 25.3988 36.6281 25.5108 36.5876C28.1108 35.6613 30.4245 34.0733 32.2236 31.9801C34.0227 29.887 35.2452 27.3611 35.7704 24.6514Z" stroke="#214759" stroke-width="2" stroke-linecap="round" stroke-linejoin="round"/>
<path d="M40.8472 8.35334C40.9414 8.56161 40.9937 8.78642 41.001 9.01492C41.0083 9.24342 40.9705 9.47111 40.8898 9.68499C40.809 9.89886 40.6869 10.0947 40.5303 10.2613C40.3738 10.428 40.186 10.5621 39.9776 10.656L30.0815 15.1502C29.9256 15.2213 29.7573 15.2609 29.5861 15.2669C29.4149 15.2729 29.2442 15.245 29.0838 15.1849C28.9233 15.1248 28.7763 15.0337 28.6512 14.9167C28.526 14.7997 28.4252 14.6592 28.3544 14.5032L25.1178 7.37243C25.0467 7.21658 25.007 7.04823 25.001 6.87703C24.9951 6.70583 25.0229 6.53513 25.083 6.37471C25.1431 6.21429 25.2343 6.0673 25.3513 5.94215C25.4682 5.81701 25.6088 5.71616 25.7648 5.64539L35.6678 1.15476C35.8761 1.06049 36.1009 1.0082 36.3294 1.00089C36.5579 0.993579 36.7856 1.03139 36.9994 1.11216C37.2133 1.19292 37.4092 1.31506 37.5758 1.47159C37.7424 1.62811 37.8765 1.81595 37.9705 2.02437L40.8472 8.35334Z" stroke="#214759" stroke-width="2" stroke-linecap="round" stroke-linejoin="round"/>
<path d="M17.8357 12.0839L20.0306 10.6717" stroke="#214759" stroke-width="2" stroke-linecap="round" stroke-linejoin="round"/>
<path d="M21.3142 19.0408L22.6395 17.6285" stroke="#214759" stroke-width="2" stroke-linecap="round" stroke-linejoin="round"/>
<path d="M17.4218 16.7589L19.2775 15.1467" stroke="#214759" stroke-width="2" stroke-linecap="round" stroke-linejoin="round"/>
</svg>
