<svg width="42" height="42" viewBox="0 0 42 42" fill="none" xmlns="http://www.w3.org/2000/svg">
<path d="M41 41H1" stroke="#214759" stroke-width="2" stroke-linecap="round" stroke-linejoin="round"/>
<path d="M1 13.1739H12.3044C12.535 13.1739 12.7562 13.2655 12.9192 13.4286C13.0823 13.5917 13.1739 13.8128 13.1739 14.0435V20.1304H19.2609C19.3751 20.1304 19.4881 20.1529 19.5936 20.1966C19.6991 20.2403 19.795 20.3044 19.8758 20.3851C19.9565 20.4658 20.0206 20.5617 20.0643 20.6672C20.108 20.7727 20.1304 20.8858 20.1304 21V27.0869H26.2174C26.448 27.0869 26.6692 27.1785 26.8323 27.3416C26.9954 27.5047 27.087 27.7259 27.087 27.9565V34.0435H33.1739C33.4046 34.0435 33.6257 34.1351 33.7888 34.2981C33.9519 34.4612 34.0435 34.6824 34.0435 34.913V41" stroke="#214759" stroke-width="2" stroke-linecap="round" stroke-linejoin="round"/>
<path d="M21.8695 1L41 20.1304" stroke="#214759" stroke-width="2" stroke-linecap="round" stroke-linejoin="round"/>
<path d="M41.0001 11.4348V20.1304H32.3044" stroke="#214759" stroke-width="2" stroke-linecap="round" stroke-linejoin="round"/>
<path d="M10 13V1" stroke="#214759" stroke-width="2" stroke-linecap="round"/>
</svg>
