<svg width="38" height="42" viewBox="0 0 38 42" fill="none" xmlns="http://www.w3.org/2000/svg">
<path d="M16.745 19.1521V21.3541C16.745 21.9288 17.1023 22.4438 17.6402 22.6434L22.3308 24.3867" stroke="#214759" stroke-width="2" stroke-miterlimit="10" stroke-linecap="round" stroke-linejoin="round"/>
<path d="M8.91741 19.1512V21.3541C8.91741 21.9287 8.56092 22.4438 8.02298 22.6434L2.83784 24.571C1.73305 24.9814 1 26.0373 1 27.218V41" stroke="#214759" stroke-width="2" stroke-miterlimit="10" stroke-linecap="round" stroke-linejoin="round"/>
<path d="M6.51929 40.9999V30.3472C6.51929 27.5038 8.39005 25.0989 10.9642 24.2997" stroke="#214759" stroke-width="2" stroke-miterlimit="10" stroke-linecap="round" stroke-linejoin="round"/>
<path d="M14.6984 24.2997C17.2733 25.0981 19.144 27.5038 19.144 30.3472V40.9999" stroke="#214759" stroke-width="2" stroke-miterlimit="10" stroke-linecap="round" stroke-linejoin="round"/>
<path d="M8.26978 22.5211C9.32543 23.7767 10.9755 24.5858 12.8314 24.5858C14.6873 24.5858 16.3373 23.7767 17.393 22.5211" stroke="#214759" stroke-width="2" stroke-miterlimit="10" stroke-linecap="round" stroke-linejoin="round"/>
<path d="M20.1482 11V6.45542C20.1482 6.30521 20.2169 6.16825 20.3271 6.08946C20.702 5.82439 20.9522 5.34725 20.9522 4.80163C20.9522 3.93793 20.3264 3.25315 19.5893 3.29365C19.476 3.29954 19.3646 3.24652 19.292 3.14491C19.0042 2.7414 18.5695 2.48369 18.0812 2.48369C17.8877 2.48369 17.7024 2.52566 17.5312 2.60003C17.3727 2.66924 17.1963 2.60592 17.097 2.44687C16.7724 1.92629 16.2427 1.58685 15.645 1.58685C15.3369 1.58685 15.0466 1.67742 14.7932 1.83646C14.6417 1.93145 14.4539 1.89537 14.3432 1.74221C14.0153 1.28864 13.5226 1 12.9713 1C12.4201 1 11.9273 1.28864 11.5995 1.74221C11.4887 1.89537 11.3003 1.93145 11.1488 1.83646C10.8954 1.67742 10.6058 1.58685 10.297 1.58685C9.69929 1.58685 9.17029 1.92629 8.84563 2.44687C8.74633 2.60592 8.56999 2.66924 8.41148 2.60003C8.24024 2.52492 8.055 2.48369 7.86084 2.48369C7.37321 2.48369 6.93843 2.7414 6.65005 3.14491C6.57748 3.24652 6.46672 3.29954 6.35341 3.29365C5.61688 3.25388 4.99048 3.93646 4.99048 4.80163C4.99048 5.34725 5.24066 5.82439 5.61497 6.08946C5.72573 6.16825 5.79448 6.30521 5.79448 6.45542V11" stroke="#214759" stroke-width="2" stroke-miterlimit="10" stroke-linecap="round" stroke-linejoin="round"/>
<path d="M6.51921 14.9123H4.87246C3.93949 14.9123 3.18396 14.1549 3.18396 13.2197C3.18396 12.2853 3.93949 11.528 4.87246 11.528H6.51921" stroke="#214759" stroke-width="2" stroke-miterlimit="10" stroke-linecap="round" stroke-linejoin="round"/>
<path d="M19.1439 11.528H20.7907C21.7228 11.528 22.4792 12.2853 22.4792 13.2197C22.4792 14.1549 21.7228 14.9123 20.7907 14.9123H19.1439" stroke="#214759" stroke-width="2" stroke-miterlimit="10" stroke-linecap="round" stroke-linejoin="round"/>
<path d="M17.2123 6.82251C18.2793 6.82251 19.1443 7.68955 19.1443 8.75909V15.1728C19.1443 18.118 14.9315 20.874 12.8314 20.874C10.7312 20.874 6.51929 18.118 6.51929 15.1728V8.75909C6.51929 7.68955 7.38425 6.82251 8.45123 6.82251H17.2123Z" stroke="#214759" stroke-width="2" stroke-miterlimit="10" stroke-linecap="round" stroke-linejoin="round"/>
<path d="M11.1117 15.5877C12.0146 16.5554 13.6485 16.5554 14.5513 15.5877" stroke="#214759" stroke-width="2" stroke-miterlimit="10" stroke-linecap="round" stroke-linejoin="round"/>
<path d="M6.51883 32.1172H1.00049" stroke="#214759" stroke-width="2" stroke-miterlimit="10" stroke-linecap="round" stroke-linejoin="round"/>
<path d="M19.1439 32.1171H21.8088" stroke="#214759" stroke-width="2" stroke-miterlimit="10" stroke-linecap="round" stroke-linejoin="round"/>
<path d="M22.1127 40.6104C21.9047 38.4159 21.7947 36.1349 21.7947 33.7934C21.7947 19.9613 24.3817 14.9508 28.2504 10.3586C28.8508 9.64593 29.944 9.64593 30.5444 10.3586C31.2919 11.2458 31.9915 12.1487 32.6339 13.1279C33.0513 13.8476 33.9144 15.3467 34.0274 15.5857C35.8862 19.4396 36.9999 24.7175 36.9999 33.7935C36.9999 36.1349 36.89 38.4159 36.6819 40.6104" stroke="#214759" stroke-width="2" stroke-miterlimit="10" stroke-linecap="round" stroke-linejoin="round"/>
<path d="M29.3971 41V9.82416" stroke="#214759" stroke-width="2" stroke-miterlimit="10" stroke-linecap="round" stroke-linejoin="round"/>
<path d="M36.7363 26.8925L24.2772 16.6796" stroke="#214759" stroke-width="2" stroke-miterlimit="10" stroke-linecap="round" stroke-linejoin="round"/>
<path d="M22.8949 21.1511L36.9944 32.7085" stroke="#214759" stroke-width="2" stroke-miterlimit="10" stroke-linecap="round" stroke-linejoin="round"/>
</svg>
