<svg width="41" height="40" viewBox="0 0 41 40" fill="none" xmlns="http://www.w3.org/2000/svg">
<path d="M31.0101 17.5394C29.6246 19.0091 27.3783 19.0091 25.9928 17.5394C24.6074 16.0698 24.6074 13.6871 25.9928 12.2174C27.3783 10.7479 29.6246 10.7479 31.0101 12.2174C32.3955 13.6871 32.3955 16.0698 31.0101 17.5394Z" stroke="#214759" stroke-width="2.34375" stroke-miterlimit="10" stroke-linecap="round" stroke-linejoin="round"/>
<path d="M29.6724 23.9511L18.244 11.8286L24.0084 8.16021C25.1288 7.44645 25.4921 5.90547 24.8201 4.71789C24.1546 3.53207 22.6953 3.14488 21.5749 3.85687L14.5096 8.35422C13.5664 8.95449 12.9499 9.96361 12.816 11.1209C12.6812 12.279 13.0512 13.4163 13.8286 14.2409L16.9382 17.5395L10.7823 24.0692" stroke="#214759" stroke-width="2.34375" stroke-miterlimit="10" stroke-linecap="round" stroke-linejoin="round"/>
<path d="M1.17188 29.0115C3.78434 31.7826 8.09883 31.7826 10.7113 29.0115C13.3238 31.7826 17.5594 31.7826 20.1719 29.0115C22.7843 31.7826 27.02 31.7826 29.6325 29.0115C32.2449 31.7826 36.5594 31.7826 39.1719 29.0115" stroke="#214759" stroke-width="2.34375" stroke-miterlimit="10" stroke-linecap="round" stroke-linejoin="round"/>
<path d="M1.17188 34.4217C3.78434 37.1928 8.09883 37.1928 10.7113 34.4217C13.3238 37.1928 17.5594 37.1928 20.1719 34.4217C22.7843 37.1928 27.02 37.1928 29.6325 34.4217C32.2449 37.1928 36.5594 37.1928 39.1719 34.4217" stroke="#214759" stroke-width="2.34375" stroke-miterlimit="10" stroke-linecap="round" stroke-linejoin="round"/>
<path d="M1.17188 23.9939C3.78434 26.765 8.09883 26.765 10.7113 23.9939C13.3238 26.765 17.5594 26.765 20.1719 23.9939C22.7843 26.765 27.02 26.765 29.6325 23.9939C32.2449 26.765 36.5594 26.765 39.1719 23.9939" stroke="#214759" stroke-width="2.34375" stroke-miterlimit="10" stroke-linecap="round" stroke-linejoin="round"/>
</svg>
