<svg width="38" height="42" viewBox="0 0 38 42" fill="none" xmlns="http://www.w3.org/2000/svg">
<path d="M1 17.8334C1 11.4381 1 8.24056 1.75504 7.16482C2.51006 6.08908 5.51664 5.05992 11.5298 3.00158L12.6754 2.60944C15.81 1.53648 17.3772 1 19 1C20.6228 1 22.19 1.53648 25.3246 2.60944L26.4702 3.00158C32.4834 5.05992 35.49 6.08908 36.245 7.16482C37 8.24056 37 11.4381 37 17.8334V20.9828C37 32.2588 28.522 37.731 23.2028 40.0546C21.76 40.6848 21.0386 41 19 41C16.9614 41 16.24 40.6848 14.7971 40.0546C9.47792 37.731 1 32.2588 1 20.9828V17.8334Z" stroke="#214759" stroke-width="2" stroke-linecap="round"/>
<path d="M9.57143 12H28.4286L31 15H7L9.57143 12Z" stroke="#214759" stroke-width="2" stroke-linecap="round" stroke-linejoin="round"/>
<path d="M10 15L8 27" stroke="#214759" stroke-width="2" stroke-linecap="round"/>
<path d="M28 15L30 27" stroke="#214759" stroke-width="2" stroke-linecap="round"/>
<path d="M10 20H28" stroke="#214759" stroke-width="2" stroke-linecap="round"/>
</svg>
