<svg width="42" height="42" viewBox="0 0 42 42" fill="none" xmlns="http://www.w3.org/2000/svg">
<path d="M35.1413 29.2854C38.377 29.2854 41 31.9084 41 35.1441C41 38.3797 38.377 41.0028 35.1413 41.0028C31.9057 41.0028 29.2825 38.3797 29.2825 35.1441C29.2825 31.9084 31.9057 29.2854 35.1413 29.2854Z" stroke="#214759" stroke-width="2" stroke-miterlimit="10" stroke-linecap="round" stroke-linejoin="round"/>
<path d="M33.7031 21.7194C28.306 27.1165 20.3252 27.8862 15.8774 23.4385C11.4298 18.9909 12.1995 11.0101 17.5966 5.61294C22.9937 0.215847 30.9745 -0.553863 35.4223 3.89385C39.8699 8.34149 39.1002 16.3222 33.7031 21.7194Z" stroke="#214759" stroke-width="2" stroke-miterlimit="10" stroke-linecap="round" stroke-linejoin="round"/>
<path d="M9.42307 26.4531L1 34.8762L4.52091 38.3971L12.944 29.974L9.42307 26.4531Z" stroke="#214759" stroke-width="2" stroke-miterlimit="10" stroke-linecap="round" stroke-linejoin="round"/>
<path d="M13.1955 18.3034C12.5242 23.5519 9.42358 26.4531 9.42358 26.4531" stroke="#214759" stroke-width="2" stroke-miterlimit="10" stroke-linecap="round" stroke-linejoin="round"/>
<path d="M12.9449 29.9745C12.9449 29.9745 15.8298 26.8233 21.06 26.1303" stroke="#214759" stroke-width="2" stroke-miterlimit="10" stroke-linecap="round" stroke-linejoin="round"/>
<path d="M14.1448 21.0637L18.6193 16.5893L19.4884 15.7202L23.596 11.6125L27.7038 7.50489L28.5722 6.63634L33.0472 2.16141" stroke="#214759" stroke-width="2" stroke-miterlimit="10" stroke-linecap="round" stroke-linejoin="round"/>
<path d="M18.2526 25.1714L22.727 20.6969L23.596 19.8279L27.7038 15.7203L31.8114 11.6126L32.6799 10.7441L37.1548 6.26907" stroke="#214759" stroke-width="2" stroke-miterlimit="10" stroke-linecap="round" stroke-linejoin="round"/>
<path d="M22.4483 2.24955L25.65 5.45121L29.7576 9.55884L33.8652 13.6666L37.0663 16.8676" stroke="#214759" stroke-width="2" stroke-miterlimit="10" stroke-linecap="round" stroke-linejoin="round"/>
<path d="M17.5966 5.61321L21.5423 9.55885L25.65 13.6666L29.7576 17.7743L33.7028 21.7194" stroke="#214759" stroke-width="2" stroke-miterlimit="10" stroke-linecap="round" stroke-linejoin="round"/>
<path d="M14.233 10.4649L17.4346 13.6666L21.5423 17.7742L25.65 21.882L28.851 25.0829" stroke="#214759" stroke-width="2" stroke-miterlimit="10" stroke-linecap="round" stroke-linejoin="round"/>
<path d="M29.7361 37.4065C30.8997 35.6605 32.8864 34.5111 35.1411 34.5111C37.3967 34.5111 39.3834 35.6613 40.5461 37.4073" stroke="#214759" stroke-width="2" stroke-miterlimit="10" stroke-linecap="round" stroke-linejoin="round"/>
</svg>
