<svg width="42" height="42" viewBox="0 0 42 42" fill="none" xmlns="http://www.w3.org/2000/svg">
<path d="M31.1069 7.24218C31.0244 6.17426 30.9313 5.25171 30.8467 4.51341C30.7017 3.24776 29.9436 2.20291 28.7152 1.92777C26.7992 1.49862 23.0853 1 16.1714 1C9.2574 1 5.54352 1.49862 3.62748 1.92777C2.39911 2.20291 1.64096 3.24776 1.49602 4.51341C1.27682 6.42734 1 9.57944 1 13.2923C1 17.3906 2.26189 21.3333 4.55059 24.5282" stroke="#214759" stroke-width="2" stroke-linecap="round" stroke-linejoin="round"/>
<path d="M12.6105 10.6739C13.0739 9.48945 14.0732 8.67893 15.3301 8.73511C17.2905 8.82288 21.0052 9.31477 27.6837 11.1271C34.362 12.9395 37.8219 14.3946 39.563 15.3114C40.6793 15.8991 41.1446 17.1071 40.9611 18.3676C40.6837 20.2738 40.1456 23.3911 39.1967 26.9773C37.4243 33.6772 32.2742 38.999 25.5811 40.4687C23.3452 40.9596 21.2289 41.1902 19.8304 40.8107C18.4318 40.4311 16.7129 39.1598 15.019 37.6024C9.94815 32.9402 8.11536 25.7235 9.88794 19.0237C10.8367 15.4374 11.9097 12.4652 12.6105 10.6739Z" stroke="#214759" stroke-width="2" stroke-linecap="round" stroke-linejoin="round"/>
<path d="M27.9564 20.7876C27.9564 20.7876 29.8222 19.3439 32.1683 20.7159C34.5146 22.0877 34.2129 24.446 34.2129 24.446" stroke="#214759" stroke-width="2" stroke-linecap="round" stroke-linejoin="round"/>
<path d="M22.6781 19.3548C22.6781 19.3548 21.7751 17.1596 19.0659 17.1596C16.3567 17.1596 15.4537 19.3548 15.4537 19.3548" stroke="#214759" stroke-width="2" stroke-linecap="round" stroke-linejoin="round"/>
<path d="M29.432 30.4913C27.5087 32.9519 23.838 34.9385 21.5482 34.3171C19.2585 33.6957 17.0601 30.1165 16.6094 27.0115" stroke="#214759" stroke-width="2" stroke-linecap="round" stroke-linejoin="round"/>
</svg>
