<svg width="42" height="42" viewBox="0 0 42 42" fill="none" xmlns="http://www.w3.org/2000/svg">
<path d="M20.7239 0.722658V2.68048" stroke="#214759" stroke-width="1.44531" stroke-miterlimit="10" stroke-linecap="round" stroke-linejoin="round"/>
<path d="M18.6152 2.68048H22.8328" stroke="#214759" stroke-width="1.44531" stroke-miterlimit="10" stroke-linecap="round" stroke-linejoin="round"/>
<path d="M23.3113 18.1347V38.6047H18.1367V18.1347" stroke="#214759" stroke-width="1.44531" stroke-miterlimit="10" stroke-linecap="round" stroke-linejoin="round"/>
<path d="M12.5239 9.66277C10.1694 11.0206 7.5152 12.2544 4.6748 13.3635H36.773C29.6535 10.5835 23.6979 7.02245 20.7239 2.68049C19.2935 4.76877 17.1721 6.67581 14.5646 8.40281" stroke="#214759" stroke-width="1.44531" stroke-miterlimit="10" stroke-linecap="round" stroke-linejoin="round"/>
<path d="M20.724 2.68049C19.9053 7.02245 18.2656 10.5835 16.3054 13.3635H25.1426C23.1825 10.5835 21.5428 7.02245 20.724 2.68049Z" stroke="#214759" stroke-width="1.44531" stroke-miterlimit="10" stroke-linecap="round" stroke-linejoin="round"/>
<path d="M13.4227 23.7768L14.31 23.5017C14.5032 23.4419 14.6706 23.6483 14.5721 23.825L14.0084 24.8364C13.8931 25.0434 13.8643 25.2877 13.9287 25.5159L14.7127 28.2964C14.8519 28.79 14.5406 29.2975 14.0376 29.397C13.843 29.4356 13.641 29.4071 13.4646 29.3163L11.8231 28.4711C11.5233 28.3167 11.1598 28.4967 11.1006 28.8286L10.7674 30.6971C10.7625 30.7241 10.7568 30.7507 10.7503 30.777C10.571 31.5006 9.73252 31.8545 9.0753 31.5027C7.57848 30.7015 5.55683 30.4184 3.90195 30.7494C3.40312 30.8491 2.80658 30.5732 2.60634 30.1055C2.56537 30.0096 2.53624 29.9074 2.52094 29.8005L2.43273 29.1865C2.21921 27.6996 3.49631 26.4259 4.98251 26.6434L8.38097 27.1407C9.22668 25.4918 10.116 23.9869 11.8642 23.9937C12.3921 23.9958 12.9183 23.933 13.4227 23.7768Z" stroke="#214759" stroke-width="1.44531" stroke-miterlimit="10" stroke-linecap="round" stroke-linejoin="round"/>
<path d="M10.8018 30.5043L12.9356 32.4114L11.6193 33.8585" stroke="#214759" stroke-width="1.44531" stroke-miterlimit="10" stroke-linecap="round" stroke-linejoin="round"/>
<path d="M9.83971 31.7539L10.2787 33.1813L9.78772 34.725" stroke="#214759" stroke-width="1.44531" stroke-miterlimit="10" stroke-linecap="round" stroke-linejoin="round"/>
<path d="M4.00304 30.856L3.01318 32.4243L3.53214 34.0744" stroke="#214759" stroke-width="1.44531" stroke-miterlimit="10" stroke-linecap="round" stroke-linejoin="round"/>
<path d="M5.04822 30.7197L5.49466 32.7179" stroke="#214759" stroke-width="1.44531" stroke-miterlimit="10" stroke-linecap="round" stroke-linejoin="round"/>
<path d="M2.03436 25.8876C2.03436 25.8876 1.74542 27.371 2.74051 27.6926" stroke="#214759" stroke-width="1.44531" stroke-miterlimit="10" stroke-linecap="round" stroke-linejoin="round"/>
<path d="M6.51453 26.8676V16.9887" stroke="#214759" stroke-width="1.44531" stroke-miterlimit="10" stroke-linecap="round" stroke-linejoin="round"/>
<path d="M35.9464 22.4845L36.7067 21.9507C36.8723 21.8345 37.0949 21.9797 37.0553 22.1779L36.829 23.3135C36.7826 23.546 36.8302 23.7873 36.9613 23.9847L38.5602 26.3909C38.844 26.8181 38.7033 27.3964 38.255 27.6455C38.0816 27.7418 37.8806 27.7767 37.6849 27.7444L35.8633 27.4432C35.5307 27.3882 35.2397 27.6709 35.2851 28.0049L35.5409 29.8857C35.5446 29.9129 35.5473 29.94 35.5492 29.9669C35.6005 30.7107 34.9109 31.3046 34.1774 31.1714C32.507 30.8676 30.4959 31.2182 29.0223 32.0405C28.5779 32.2884 27.9256 32.2087 27.5917 31.825C27.5233 31.7463 27.4641 31.6578 27.4168 31.5607L27.1446 31.0034C26.4855 29.6537 27.3105 28.0497 28.7918 27.8011L32.179 27.2322C32.4784 25.4036 32.8635 23.6985 34.5296 23.1689C35.0327 23.009 35.5143 22.788 35.9464 22.4845Z" stroke="#214759" stroke-width="1.44531" stroke-miterlimit="10" stroke-linecap="round" stroke-linejoin="round"/>
<path d="M35.5145 29.6916L38.1303 30.8526L37.3212 32.6336" stroke="#214759" stroke-width="1.44531" stroke-miterlimit="10" stroke-linecap="round" stroke-linejoin="round"/>
<path d="M34.9819 31.176L35.8375 32.4002L35.8434 34.02" stroke="#214759" stroke-width="1.44531" stroke-miterlimit="10" stroke-linecap="round" stroke-linejoin="round"/>
<path d="M29.1512 32.111L28.6899 33.9074L29.6898 35.3188" stroke="#214759" stroke-width="1.44531" stroke-miterlimit="10" stroke-linecap="round" stroke-linejoin="round"/>
<path d="M30.1042 31.6608L31.1418 33.4258" stroke="#214759" stroke-width="1.44531" stroke-miterlimit="10" stroke-linecap="round" stroke-linejoin="round"/>
<path d="M25.754 27.9855C25.754 27.9855 25.9338 29.4861 26.9796 29.487" stroke="#214759" stroke-width="1.44531" stroke-miterlimit="10" stroke-linecap="round" stroke-linejoin="round"/>
<path d="M30.9163 27.0459V16.9886" stroke="#214759" stroke-width="1.44531" stroke-miterlimit="10" stroke-linecap="round" stroke-linejoin="round"/>
<path d="M20.4285 16.2007H21.0194" stroke="#214759" stroke-width="1.44531" stroke-miterlimit="10" stroke-linecap="round" stroke-linejoin="round"/>
<path d="M5.47913 15.0908H6.07003" stroke="#214759" stroke-width="1.44531" stroke-miterlimit="10" stroke-linecap="round" stroke-linejoin="round"/>
<path d="M35.3779 15.0908H35.9688" stroke="#214759" stroke-width="1.44531" stroke-miterlimit="10" stroke-linecap="round" stroke-linejoin="round"/>
<path d="M17.599 21.9094H23.8489" stroke="#214759" stroke-width="1.44531" stroke-miterlimit="10" stroke-linecap="round" stroke-linejoin="round"/>
<path d="M17.599 35.3188H23.8489" stroke="#214759" stroke-width="1.44531" stroke-miterlimit="10" stroke-linecap="round" stroke-linejoin="round"/>
<path d="M20.7239 26.2156V29.7378" stroke="#214759" stroke-width="1.44531" stroke-miterlimit="10" stroke-linecap="round" stroke-linejoin="round"/>
<path d="M8.86618 38.6046H4.08728C3.64172 38.6046 3.28052 38.9659 3.28052 39.4114V40.7227H38.1674V39.4114C38.1674 38.9659 37.8062 38.6046 37.3607 38.6046H11.2002" stroke="#214759" stroke-width="1.44531" stroke-miterlimit="10" stroke-linecap="round" stroke-linejoin="round"/>
<path d="M28.7007 16.8976C31.5048 16.6311 34.5149 16.7913 37.7295 17.3749C37.8352 17.394 37.9432 17.3532 38.0088 17.268L40.6635 13.8274C40.8095 13.6381 40.6745 13.3635 40.4355 13.3635H1.01243C0.773401 13.3635 0.638431 13.6381 0.784507 13.8274L3.43907 17.268C3.50466 17.3532 3.61259 17.394 3.71843 17.3749C10.1752 16.2027 15.8078 16.7375 20.6013 19.0104C20.679 19.0472 20.7689 19.0472 20.8466 19.0104C22.5773 18.1898 24.4179 17.5969 26.3667 17.228" stroke="#214759" stroke-width="1.44531" stroke-miterlimit="10" stroke-linecap="round" stroke-linejoin="round"/>
<path d="M0.723999 40.7227H40.7239" stroke="#214759" stroke-width="1.44531" stroke-miterlimit="10" stroke-linecap="round" stroke-linejoin="round"/>
</svg>
