<svg width="42" height="42" viewBox="0 0 42 42" fill="none" xmlns="http://www.w3.org/2000/svg">
<path d="M10.2438 16.1638C10.1917 15.3333 10.159 14.4933 10.159 13.6452C10.159 12.5125 10.2173 11.3941 10.3024 10.2934C8.38041 9.87423 6.60864 8.53658 6.60864 6.63114C6.60864 4.22995 8.8477 2.46791 11.206 1.9091C16.3215 0.696968 21.166 0.696968 26.2815 1.9091C28.6398 2.46791 30.8787 4.22995 30.8787 6.63114C30.8787 8.53677 29.1067 9.87448 27.1845 10.2935C27.2696 11.3942 27.3279 12.5125 27.3279 13.6452C27.3279 14.4933 27.2952 15.3333 27.2431 16.1638" stroke="#214759" stroke-width="2" stroke-linecap="round" stroke-linejoin="round"/>
<path d="M1.55718 34.7275C2.01129 37.7913 4.60562 40.1599 7.72229 40.4161C11.2878 40.7092 14.9729 41 18.7438 41C22.5147 41 26.1998 40.7092 29.7653 40.4161C32.882 40.1599 35.4763 37.7913 35.9306 34.7275C36.2363 32.664 36.4876 30.5482 36.4876 28.3929C36.4876 26.2377 36.2363 24.1221 35.9306 22.0586C35.4763 18.9946 32.882 16.6261 29.7653 16.3699C26.1998 16.0767 22.5147 15.786 18.7438 15.786C14.9729 15.786 11.2878 16.0767 7.72229 16.3699C4.60562 16.6261 2.01129 18.9946 1.55718 22.0586C1.25132 24.1221 1 26.2377 1 28.3929C1 30.5482 1.25132 32.664 1.55718 34.7275Z" stroke="#214759" stroke-width="2" stroke-linecap="round" stroke-linejoin="round"/>
<path d="M1.11471 31.0461C1.49498 31.1382 1.88646 31.1986 2.28575 31.2241C2.6264 31.2458 2.96799 31.2677 3.31044 31.2897C8.06313 31.5954 12.9847 31.9117 18.026 31.9117C23.0673 31.9117 27.9889 31.5954 32.7417 31.2897C33.084 31.2677 33.4257 31.2458 33.7664 31.2241C34.7065 31.164 35.6039 30.911 36.4128 30.5034C36.3162 31.9324 36.1355 33.3412 35.9299 34.7271C35.476 37.791 32.8817 40.1595 29.7649 40.4158C26.1994 40.7088 22.5143 40.9997 18.7434 40.9997C14.9725 40.9997 11.2874 40.7088 7.72192 40.4158C4.60525 40.1595 2.01092 37.791 1.55678 34.7271C1.37746 33.517 1.21688 32.2895 1.11471 31.0461Z" stroke="#214759" stroke-width="2" stroke-linecap="round" stroke-linejoin="round"/>
<path d="M35.9012 21.862H41" stroke="#214759" stroke-width="2" stroke-linecap="round" stroke-linejoin="round"/>
</svg>
