<svg width="42" height="42" viewBox="0 0 42 42" fill="none" xmlns="http://www.w3.org/2000/svg">
<path d="M10 19H32V20.9549C32 23.8842 30.8573 26.6936 28.8232 28.765C26.7891 30.8363 24.0302 32 21.1536 32H20.8464C17.9698 32 15.2109 30.8363 13.1768 28.765C11.1427 26.6936 10 23.8842 10 20.9549V19Z" stroke="#214759" stroke-width="2" stroke-miterlimit="10" stroke-linecap="round"/>
<path d="M33 19L9 19" stroke="#214759" stroke-width="2" stroke-miterlimit="10" stroke-linecap="round"/>
<path d="M27 31L29 41H14L16 31" stroke="#214759" stroke-width="2" stroke-miterlimit="10" stroke-linecap="round"/>
<path d="M14.4 1H27.6C27.6 1 32 1 32 4V13C32 13 32 16 27.6 16H14.4C14.4 16 10 16 10 13V4C10 4 10 1 14.4 1Z" stroke="#214759" stroke-width="2" stroke-miterlimit="10" stroke-linecap="round"/>
<path d="M7 6L10 6" stroke="#214759" stroke-width="2" stroke-miterlimit="10" stroke-linecap="round"/>
<path d="M23 6H26.6381" stroke="#214759" stroke-width="2" stroke-miterlimit="10" stroke-linecap="round"/>
<path d="M19 17L19 19" stroke="#214759" stroke-width="2" stroke-miterlimit="10" stroke-linecap="round"/>
<path d="M24 17L24 19" stroke="#214759" stroke-width="2" stroke-miterlimit="10" stroke-linecap="round"/>
<path d="M1 41H41" stroke="#214759" stroke-width="2" stroke-miterlimit="10" stroke-linecap="round"/>
</svg>
