<svg width="42" height="42" viewBox="0 0 42 42" fill="none" xmlns="http://www.w3.org/2000/svg">
<path d="M40.8882 28.133V28.1337L40.9717 28.8821C40.9749 28.9134 40.9774 28.944 40.98 28.9746C41.1591 31.1443 40.0538 33.1925 38.2602 34.0533L25.8194 40.0212C25.0635 40.384 24.2757 40.6635 23.4668 40.8343C21.6215 41.2227 20.9854 40.8065 20.9854 40.8065L3.52319 31.1373C2.83416 30.7552 2.22097 30.2124 1.76459 29.521C0.791279 28.0477 0.882418 26.5786 1.29291 25.3935C1.56252 24.6152 1.98703 23.9259 2.52118 23.361" stroke="#214759" stroke-width="2" stroke-miterlimit="10" stroke-linecap="round" stroke-linejoin="round"/>
<path d="M40.3222 25.1038C40.6148 25.5698 40.8201 26.1035 40.9143 26.6761C40.9872 27.1208 40.9991 27.5951 40.9024 28.0697C40.8979 28.0911 40.8932 28.1124 40.8882 28.1331V28.1337C40.486 29.9698 39.2991 30.1293 39.2991 30.1293L24.3062 37.6814C24.1145 37.7782 23.9142 37.8236 23.7181 37.8236C23.1144 37.8236 22.5464 37.3948 22.3514 36.7052C22.1295 35.9214 22.4666 35.0763 23.1374 34.7362L23.6627 34.4694C23.6632 34.4694 23.6632 34.4694 23.6638 34.4694L25.8355 33.3673C25.8361 33.3673 25.8361 33.3667 25.8366 33.3667L26.0297 33.2687L26.1974 33.184" stroke="#214759" stroke-width="2" stroke-miterlimit="10" stroke-linecap="round" stroke-linejoin="round"/>
<path d="M2.17056 16.7187C1.80044 17.1961 1.50066 17.7425 1.29289 18.342C0.882576 19.5279 0.791439 20.9963 1.7647 22.4703C1.98384 22.8017 2.23817 23.0992 2.52132 23.3611C2.82662 23.6456 3.1649 23.8874 3.52312 24.0859L20.9856 33.7551C20.9856 33.7551 21.8173 34.8587 23.6627 34.4694C23.6633 34.4694 23.6633 34.4694 23.6638 34.4694" stroke="#214759" stroke-width="2" stroke-miterlimit="10" stroke-linecap="round" stroke-linejoin="round"/>
<path d="M25.8354 33.3674C25.836 33.3674 25.836 33.3667 25.8365 33.3667C25.9017 33.3318 25.9659 33.2993 26.0296 33.2687L26.1973 33.184L38.3164 27.0546C39.1724 26.6439 39.8581 25.9519 40.3222 25.1038C40.8314 24.1749 41.0738 23.0587 40.9799 21.9239C40.9774 21.8933 40.9749 21.862 40.9716 21.8314L40.8882 21.0825" stroke="#214759" stroke-width="2" stroke-miterlimit="10" stroke-linecap="round" stroke-linejoin="round"/>
<path d="M38.2602 20.7203L35.5532 21.9666L23.6019 27.4714H23.6013L23.1373 27.6855C22.4667 28.0256 22.1295 28.8707 22.3513 29.6547C22.5464 30.3433 23.1143 30.7723 23.7179 30.7723C23.9142 30.7723 24.1144 30.7268 24.3062 30.63L38.461 23.5004L39.2992 23.0778C39.2992 23.0778 40.486 22.9192 40.8882 21.0823C40.8933 21.0617 40.8978 21.0397 40.9022 21.0183C40.9991 20.5438 40.987 20.07 40.9143 19.6254C40.841 19.1808 40.7014 18.7611 40.5058 18.3776" stroke="#214759" stroke-width="2" stroke-miterlimit="10" stroke-linecap="round" stroke-linejoin="round"/>
<path d="M40.8882 14.8C40.486 16.6369 39.2991 16.7955 39.2991 16.7955L39.1787 16.856L32.3681 20.287L24.3062 24.3477C24.1144 24.4445 23.9142 24.49 23.7179 24.49C23.1143 24.49 22.5464 24.061 22.3513 23.3724C22.1295 22.5884 22.4667 21.7433 23.1372 21.4032L28.921 18.4687L35.7355 15.0113L37.988 13.8688" stroke="#214759" stroke-width="2" stroke-miterlimit="10" stroke-linecap="round" stroke-linejoin="round"/>
<path d="M23.6019 27.4714H23.6014C23.5568 27.4822 23.5113 27.4921 23.4667 27.5014C21.6216 27.8898 20.9855 27.4736 20.9855 27.4736L7.97931 20.2715L3.52304 17.8037C3.02159 17.526 2.56057 17.1627 2.1705 16.7187C2.02477 16.5529 1.88875 16.3758 1.76464 16.1881C0.791378 14.7141 0.882515 13.2457 1.29283 12.0599C1.78374 10.644 2.78584 9.52434 4.02809 8.90532L19.3753 1.26138C20.0923 0.903632 20.9146 0.913515 21.6252 1.28859L38.8051 10.3481C39.8906 10.9207 40.6982 12.0249 40.9142 13.343C40.9871 13.7877 40.999 14.2623 40.9023 14.736C40.8979 14.7574 40.8932 14.7787 40.8882 14.8L40.9716 15.5492C40.9749 15.5804 40.9774 15.6111 40.9799 15.6417C41.0597 16.6092 40.8843 17.5532 40.5059 18.3776C40.0366 19.402 39.2539 20.2436 38.2602 20.7201" stroke="#214759" stroke-width="2" stroke-miterlimit="10" stroke-linecap="round" stroke-linejoin="round"/>
</svg>
