<svg width="42" height="43" viewBox="0 0 42 43" fill="none" xmlns="http://www.w3.org/2000/svg">
<path d="M5.80688 9.40857V31.5485" stroke="#214759" stroke-width="2" stroke-miterlimit="10" stroke-linecap="round"/>
<path d="M37 29.8334V41.3334H21V30.3334" stroke="#214759" stroke-width="2" stroke-miterlimit="10" stroke-linecap="round"/>
<path d="M40.2968 32.0323L29.3006 22.3334L18.3043 32.0323" stroke="#214759" stroke-width="2" stroke-miterlimit="10" stroke-linecap="round"/>
<path d="M27.4664 12.3523L14.9736 1.33337L2.48071 12.3523" stroke="#214759" stroke-width="2" stroke-miterlimit="10" stroke-linecap="round"/>
<path d="M31.7566 32.8985H26.8445V41.3334H31.7566V32.8985Z" stroke="#214759" stroke-width="2" stroke-miterlimit="10" stroke-linecap="round"/>
<path d="M25 25.3334L25 10.3334" stroke="#214759" stroke-width="2" stroke-miterlimit="10" stroke-linecap="round"/>
<path d="M10 17.3334H12.3437" stroke="#214759" stroke-width="2" stroke-miterlimit="10" stroke-linecap="round"/>
<path d="M10 22.3334H12.3437" stroke="#214759" stroke-width="2" stroke-miterlimit="10" stroke-linecap="round"/>
<path d="M19 17.3334H21.3437" stroke="#214759" stroke-width="2" stroke-miterlimit="10" stroke-linecap="round"/>
<path d="M19 22.3334H21.3437" stroke="#214759" stroke-width="2" stroke-miterlimit="10" stroke-linecap="round"/>
<path d="M10 12.3334H12.3437" stroke="#214759" stroke-width="2" stroke-miterlimit="10" stroke-linecap="round"/>
<path d="M19 12.3334H21.3437" stroke="#214759" stroke-width="2" stroke-miterlimit="10" stroke-linecap="round"/>
<path d="M1 41.3333H21.3594" stroke="#214759" stroke-width="2" stroke-miterlimit="10" stroke-linecap="round"/>
<path d="M13.1971 35.6129C13.1676 34.0681 12.0986 32.8263 10.7833 32.8263C10.619 32.8263 10.4586 32.8459 10.3035 32.8828C9.68057 31.9054 8.69003 31.2732 7.57432 31.2732C5.68909 31.2732 4.16073 33.0778 4.16073 35.304C4.16073 35.6686 4.20245 36.0217 4.27933 36.3576C3.82214 36.8843 3.53784 37.6194 3.53784 38.4332C3.53784 40.0349 4.63745 41.3333 5.99393 41.3333H12.6253C13.9817 41.3333 15.0814 40.0349 15.0814 38.4332C15.0814 37.0641 14.2776 35.9172 13.1971 35.6129Z" stroke="#214759" stroke-width="2" stroke-miterlimit="10" stroke-linecap="round"/>
<path d="M41 41.3333H21.3594" stroke="#214759" stroke-width="2" stroke-miterlimit="10" stroke-linecap="round"/>
</svg>
