<svg width="48" height="42" viewBox="0 0 48 42" fill="none" xmlns="http://www.w3.org/2000/svg">
<path d="M31.2144 12.2823C31.2144 14.3508 30.9741 18.4458 30.4309 22.917C30.1071 25.6122 29.6683 28.4537 29.1146 31.0549C28.5714 33.5829 27.9133 35.8812 27.1298 37.6362C26.2 39.7046 25.1031 41 23.7973 41C22.5333 40.9478 21.4573 39.6628 20.5589 37.6362C19.7649 35.8812 19.0964 33.5725 18.5427 31.0549C17.9681 28.4537 17.5294 25.6226 17.1951 22.917C16.6414 18.4563 16.3907 14.3612 16.3907 12.2823C16.3907 12.1465 16.3907 12.0212 16.4116 11.8958C16.6205 8.22906 19.8485 5.33536 23.7973 5.33536C27.7461 5.33536 30.995 8.23951 31.1935 11.9063C31.2144 12.0316 31.2144 12.157 31.2144 12.2823Z" stroke="#214759" stroke-width="2" stroke-miterlimit="10" stroke-linecap="round"/>
<path d="M23.7973 23.9616C26.1628 23.9616 28.0804 21.595 28.0804 18.6756C28.0804 15.7563 26.1628 13.3896 23.7973 13.3896C21.4318 13.3896 19.5142 15.7563 19.5142 18.6756C19.5142 21.595 21.4318 23.9616 23.7973 23.9616Z" stroke="#214759" stroke-width="2" stroke-miterlimit="10" stroke-linecap="round"/>
<path d="M23.7974 23.9616C25.8167 23.9616 27.4537 22.3246 27.4537 20.3053C27.4537 18.2859 25.8167 16.649 23.7974 16.649C21.778 16.649 20.1411 18.2859 20.1411 20.3053C20.1411 22.3246 21.778 23.9616 23.7974 23.9616Z" stroke="#214759" stroke-width="2" stroke-miterlimit="10" stroke-linecap="round"/>
<path d="M25.3748 2.61922C25.3748 1.72495 24.6522 1 23.7608 1C22.8694 1 22.1468 1.72495 22.1468 2.61922V3.70567C22.1468 4.59994 22.8694 5.32489 23.7608 5.32489C24.6522 5.32489 25.3748 4.59994 25.3748 3.70567V2.61922Z" stroke="#214759" stroke-width="2" stroke-miterlimit="10" stroke-linecap="round"/>
<path d="M22.1468 1.77302V5.00101H16.3803C15.4923 5.00101 14.7611 4.2802 14.7611 3.38179C14.7611 2.49383 15.4819 1.76257 16.3803 1.76257L22.1468 1.76257V1.77302Z" stroke="#214759" stroke-width="2" stroke-miterlimit="10" stroke-linecap="round"/>
<path d="M32.7605 3.38181C32.7605 4.26977 32.0397 5.00103 31.1413 5.00103H25.3748V1.77304L31.1517 1.77304C32.0397 1.77304 32.7605 2.48341 32.7605 3.38181Z" stroke="#214759" stroke-width="2" stroke-miterlimit="10" stroke-linecap="round"/>
<path d="M17 23C7.75577 22.3118 1 20.1014 1 17.4739C1 14.8464 7.40583 12.7507 16.271 12" stroke="#214759" stroke-width="2" stroke-miterlimit="10" stroke-linecap="round"/>
<path d="M31.4004 12C40.2763 12.7514 46.6899 14.9222 46.6899 17.4687C46.6899 20.0152 39.9357 22.3112 30.6899 23" stroke="#214759" stroke-width="2" stroke-miterlimit="10" stroke-linecap="round"/>
<path d="M18.5427 31.0548C19.0964 33.5725 19.7649 35.8812 20.5589 37.6362H16.9444C15.1267 37.6362 13.6537 36.1632 13.6537 34.3455C13.6537 33.4367 14.0193 32.6114 14.6148 32.0159C15.2102 31.4205 16.0355 31.0548 16.9444 31.0548H18.5427Z" stroke="#214759" stroke-width="2" stroke-miterlimit="10" stroke-linecap="round"/>
<path d="M33.6484 34.3455C33.6484 35.2544 33.2828 36.0796 32.6873 36.6751C32.0919 37.2706 31.2666 37.6362 30.3578 37.6362H27.1298C27.9133 35.8812 28.5714 33.5829 29.1146 31.0548H30.3578C32.1755 31.0548 33.6484 32.5278 33.6484 34.3455Z" stroke="#214759" stroke-width="2" stroke-miterlimit="10" stroke-linecap="round"/>
</svg>
