<svg width="34" height="42" viewBox="0 0 34 42" fill="none" xmlns="http://www.w3.org/2000/svg">
<path d="M1 37C1 37.5251 1.10347 38.0453 1.30448 38.5307C1.50549 39.016 1.80014 39.4569 2.17157 39.8284C2.543 40.1998 2.98396 40.4944 3.46926 40.6955C3.95456 40.8965 4.47471 41 4.99999 41C5.52527 41 6.04543 40.8965 6.53073 40.6955C7.01603 40.4944 7.45698 40.1998 7.82842 39.8284C8.19985 39.4569 8.49449 39.016 8.69551 38.5307C8.89652 38.0453 8.99999 37.5251 8.99999 37C8.99999 36.4747 8.89652 35.9545 8.69551 35.4692C8.49449 34.9838 8.19985 34.5429 7.82842 34.1716C7.45698 33.8 7.01603 33.5054 6.53073 33.3044C6.04543 33.1035 5.52527 33 4.99999 33C4.47471 33 3.95456 33.1035 3.46926 33.3044C2.98396 33.5054 2.543 33.8 2.17157 34.1716C1.80014 34.5429 1.50549 34.9838 1.30448 35.4692C1.10347 35.9545 1 36.4747 1 37Z" stroke="#214759" stroke-width="2" stroke-linecap="round" stroke-linejoin="round"/>
<path d="M8.76706 38.3333L22.3333 41L30.3332 9H3.66663V33.2276" stroke="#214759" stroke-width="2" stroke-linecap="round" stroke-linejoin="round"/>
<path d="M24.9999 1H6.33329C5.62605 1 4.94776 1.28095 4.44767 1.78105C3.94759 2.28114 3.66663 2.95943 3.66663 3.66666V8.99999H32.9999C32.9999 6.87827 32.1571 4.84342 30.6568 3.34314C29.1565 1.84286 27.1217 1 24.9999 1Z" stroke="#214759" stroke-width="2" stroke-linecap="round" stroke-linejoin="round"/>
</svg>
