<svg width="42" height="42" viewBox="0 0 42 42" fill="none" xmlns="http://www.w3.org/2000/svg">
<path d="M8 37L6 41" stroke="#214759" stroke-width="2" stroke-linecap="round"/>
<path d="M34.7916 37L36.7916 41" stroke="#214759" stroke-width="2" stroke-linecap="round"/>
<path d="M1 24H41" stroke="#214759" stroke-width="2" stroke-linecap="round"/>
<path d="M10 4.5C10 2.567 8.433 1 6.5 1C4.567 1 3 2.567 3 4.5V24" stroke="#214759" stroke-width="2" stroke-linecap="round"/>
<path d="M10.8296 4.2941C8.1623 5.00881 6.57939 7.75049 7.2941 10.4178L16.9534 7.82963C16.2386 5.1623 13.497 3.57939 10.8296 4.2941Z" stroke="#214759" stroke-width="2" stroke-linecap="round" stroke-linejoin="round"/>
<rect x="17" y="24" width="9" height="6" stroke="#214759" stroke-width="2" stroke-linecap="round" stroke-linejoin="round"/>
<path d="M3 24H39V28C39 33.5228 34.5228 38 29 38H13C7.47715 38 3 33.5228 3 28V24Z" stroke="#214759" stroke-width="2" stroke-linecap="round" stroke-linejoin="round"/>
</svg>
