<svg width="42" height="42" viewBox="0 0 42 42" fill="none" xmlns="http://www.w3.org/2000/svg">
<path d="M36.1239 11.0001C36.5811 8.39052 34.5731 6.00006 31.9239 6.00006H10.0762C7.42694 6.00006 5.41892 8.39052 5.87618 11.0001" stroke="#214759" stroke-width="2" stroke-linecap="round"/>
<path d="M32.0001 6C32.0569 5.48184 32.0853 5.2227 32.0857 5.0087C32.0901 2.96144 30.5481 1.24128 28.5125 1.02284C28.2997 1 28.0391 1 27.5177 1H14.4822C13.9609 1 13.7003 1 13.4875 1.02284C11.4519 1.24128 9.90986 2.96144 9.91432 5.00868C9.91478 5.2227 9.94316 5.4818 9.9999 6" stroke="#214759" stroke-width="2" stroke-linecap="round"/>
<path d="M26.1625 24.2319C27.2793 24.9243 27.2793 26.7165 26.1625 27.4089L19.4193 31.5891C18.3339 32.2619 17.0001 31.3863 17.0001 30.0007V21.6401C17.0001 20.2547 18.3339 19.3789 19.4193 20.0517L26.1625 24.2319Z" stroke="#214759" stroke-width="2" stroke-linecap="round"/>
<path d="M1.76702 24.5861C0.87496 18.2589 0.428941 15.0954 2.32464 13.0478C4.22034 11.0001 7.59517 11.0001 14.3448 11.0001H27.6552C34.4048 11.0001 37.7796 11.0001 39.6754 13.0478C41.571 15.0954 41.125 18.2589 40.233 24.5861L39.387 30.5861C38.6874 35.5479 38.3378 38.0287 36.5434 39.5145C34.749 41.0001 32.1024 41.0001 26.8092 41.0001H15.1907C9.89763 41.0001 7.25107 41.0001 5.45668 39.5145C3.6623 38.0287 3.31252 35.5479 2.61296 30.5861L1.76702 24.5861Z" stroke="#214759" stroke-width="2" stroke-linecap="round"/>
</svg>
