<svg width="43" height="43" viewBox="0 0 43 43" fill="none" xmlns="http://www.w3.org/2000/svg">
<path d="M20.4824 10.901L17.2841 13.4228C16.4324 14.0627 15.3468 14.3061 14.3033 14.0909L11.4895 13.4719" stroke="#214759" stroke-width="2.01764" stroke-miterlimit="10" stroke-linecap="round" stroke-linejoin="round"/>
<path d="M22.4488 8.6219L22.4486 8.62208C20.7301 9.91346 18.29 9.56744 16.9983 7.84905L16.5414 7.24128C15.2493 5.52252 15.5955 3.08173 17.3146 1.78998L17.3148 1.7898C19.0333 0.498413 21.4734 0.844438 22.7651 2.56283L23.222 3.1706C24.514 4.88944 24.1678 7.33024 22.4488 8.6219Z" stroke="#214759" stroke-width="2.01764" stroke-miterlimit="10" stroke-linecap="round" stroke-linejoin="round"/>
<path d="M27.2098 27.5141C27.1887 27.3939 27.1566 27.2739 27.1128 27.1554L25.7532 23.4722L31.7139 18.2516C32.5629 17.508 32.6951 16.2356 32.0169 15.3336L26.5768 8.09656C25.8932 7.18724 24.6019 7.00409 23.6924 7.68752L21.4869 9.34483C20.376 10.1796 20.1523 11.7566 20.9872 12.8673L24.9101 18.086L21.8311 20.3997C21.0426 20.9922 20.7429 22.0359 21.0972 22.9563L22.8494 27.5088" stroke="#214759" stroke-width="2.01764" stroke-miterlimit="10" stroke-linecap="round" stroke-linejoin="round"/>
<path d="M24.9102 18.0858L30.0958 13.7047" stroke="#214759" stroke-width="2.01764" stroke-miterlimit="10" stroke-linecap="round" stroke-linejoin="round"/>
<path d="M41.0088 36.9584C40.177 37.0732 39.3207 36.9921 38.5235 36.7148L37.3394 36.3029C36.212 35.9108 34.9662 35.9108 33.8389 36.303L32.6555 36.7146C31.5281 37.1068 30.2823 37.1068 29.1549 36.7146L27.9715 36.303C26.8441 35.9108 25.5982 35.9108 24.4708 36.303L23.2876 36.7146C22.1601 37.1068 20.9143 37.1068 19.7868 36.7146L18.6038 36.303C17.4763 35.9108 16.2304 35.9108 15.103 36.303L13.9197 36.7146C12.7923 37.1068 11.5464 37.1068 10.419 36.7146L9.23583 36.3031C8.10843 35.9109 6.86249 35.9109 5.73508 36.3031L4.55179 36.7147C3.73626 36.9984 2.85871 37.0769 2.00879 36.95" stroke="#214759" stroke-width="2.01764" stroke-miterlimit="10" stroke-linecap="round" stroke-linejoin="round"/>
<path d="M7.00879 31.0089C5.62973 30.0445 5.05041 29.3362 4.99493 27.5429C4.95118 26.1303 6.03896 24.9073 7.45251 24.9031C8.22801 24.9008 8.92052 25.2561 9.37449 25.8133C10.3437 27.003 12.4413 27.9356 13.9759 27.9356H34.2683C35.6543 27.9356 36.7734 29.078 36.7351 30.4723C36.7278 30.7352 36.6786 30.987 36.5939 31.222" stroke="#214759" stroke-width="2.01764" stroke-miterlimit="10" stroke-linecap="round" stroke-linejoin="round"/>
<path d="M41.0088 32.0899C40.0641 32.3215 39.0728 32.2464 38.1585 31.8647L36.9629 31.3654C35.8246 30.8901 34.5668 30.8901 33.4285 31.3655L32.2337 31.8645C31.0954 32.3399 29.8375 32.3399 28.6992 31.8645L27.5044 31.3655C26.3661 30.8901 25.1082 30.8901 23.9699 31.3655L22.7753 31.8644C21.637 32.3398 20.379 32.3398 19.2407 31.8644L18.0462 31.3655C16.9079 30.89 15.65 30.89 14.5117 31.3655L13.317 31.8645C12.1787 32.3399 10.9207 32.3399 9.78247 31.8645L8.58793 31.3656C7.44958 30.8901 6.19165 30.8901 5.05339 31.3656L3.85869 31.8646C2.94458 32.2463 1.95328 32.3215 1.00879 32.09V41.0089H41.0088V32.0899Z" stroke="#214759" stroke-width="2.01764" stroke-miterlimit="10" stroke-linecap="round" stroke-linejoin="round"/>
<path d="M11.0025 17.3694L4.86499 13.1488L11.0025 8.92828V17.3694Z" stroke="#214759" stroke-width="2.01764" stroke-miterlimit="10" stroke-linecap="round" stroke-linejoin="round"/>
<path d="M4.86501 13.1488H1.50879" stroke="#214759" stroke-width="2.01764" stroke-miterlimit="10" stroke-linecap="round" stroke-linejoin="round"/>
</svg>
