<svg width="42" height="42" viewBox="0 0 42 42" fill="none" xmlns="http://www.w3.org/2000/svg">
<path d="M29.7805 32.9692V26.3658H33.0325V31.4065" stroke="#214759" stroke-width="2" stroke-miterlimit="10" stroke-linecap="round" stroke-linejoin="round"/>
<path d="M21.2709 32.9692V26.3658H24.5229V31.7004" stroke="#214759" stroke-width="2" stroke-miterlimit="10" stroke-linecap="round" stroke-linejoin="round"/>
<path d="M12.7616 32.9692V26.3658H16.0136V32.0383" stroke="#214759" stroke-width="2" stroke-miterlimit="10" stroke-linecap="round" stroke-linejoin="round"/>
<path d="M4.25208 32.9692V26.3658H7.50411V32.3283" stroke="#214759" stroke-width="2" stroke-miterlimit="10" stroke-linecap="round" stroke-linejoin="round"/>
<path d="M33.439 41H41V31.4065C38.7909 33.6156 35.2091 33.6156 33 31.4065C30.7909 33.6156 27.2091 33.6156 25 31.4065C22.7909 33.6156 19.2091 33.6156 17 31.4065C14.7909 33.6156 11.2091 33.6156 9 31.4065C6.79089 33.6156 3.20911 33.6156 1 31.4065V41H26.122" stroke="#214759" stroke-width="2" stroke-miterlimit="10" stroke-linecap="round" stroke-linejoin="round"/>
<path d="M36.7724 22.7886H1V26.3659H36.7724V22.7886Z" stroke="#214759" stroke-width="2" stroke-miterlimit="10" stroke-linecap="round" stroke-linejoin="round"/>
<path d="M2.62561 19.1278V22.705" stroke="#214759" stroke-width="2" stroke-miterlimit="10" stroke-linecap="round" stroke-linejoin="round"/>
<path d="M9.12976 19.1278V22.705" stroke="#214759" stroke-width="2" stroke-miterlimit="10" stroke-linecap="round" stroke-linejoin="round"/>
<path d="M15.6338 19.1278V22.705" stroke="#214759" stroke-width="2" stroke-miterlimit="10" stroke-linecap="round" stroke-linejoin="round"/>
<path d="M22.1378 19.1278V22.705" stroke="#214759" stroke-width="2" stroke-miterlimit="10" stroke-linecap="round" stroke-linejoin="round"/>
<path d="M28.642 19.1278V22.705" stroke="#214759" stroke-width="2" stroke-miterlimit="10" stroke-linecap="round" stroke-linejoin="round"/>
<path d="M35.146 19.1278V22.705" stroke="#214759" stroke-width="2" stroke-miterlimit="10" stroke-linecap="round" stroke-linejoin="round"/>
<path d="M1 19.0465H36.7724" stroke="#214759" stroke-width="2" stroke-miterlimit="10" stroke-linecap="round" stroke-linejoin="round"/>
<path d="M34.4612 10.5935C35.6735 10.5935 36.6563 11.5763 36.6563 12.7886C36.6563 11.5763 37.6391 10.5935 38.8514 10.5935" stroke="#214759" stroke-width="2" stroke-miterlimit="10" stroke-linecap="round" stroke-linejoin="round"/>
<path d="M36.6097 1C37.8221 1 38.8049 1.98276 38.8049 3.19512C38.8049 1.98276 39.7876 1 41 1" stroke="#214759" stroke-width="2" stroke-miterlimit="10" stroke-linecap="round" stroke-linejoin="round"/>
<path d="M29.2114 4.29266C30.4238 4.29266 31.4065 5.27543 31.4065 6.48779C31.4065 5.27543 32.3893 4.29266 33.6017 4.29266" stroke="#214759" stroke-width="2" stroke-miterlimit="10" stroke-linecap="round" stroke-linejoin="round"/>
<path d="M15.6337 10.5935C17.2502 10.5935 18.5606 9.28308 18.5606 7.66664C18.5606 6.05019 17.2502 4.73981 15.6337 4.73981C14.0173 4.73981 12.7069 6.05019 12.7069 7.66664C12.7069 9.28308 14.0173 10.5935 15.6337 10.5935Z" stroke="#214759" stroke-width="2" stroke-miterlimit="10" stroke-linecap="round" stroke-linejoin="round"/>
<path d="M15.6337 10.5935C17.2502 10.5935 18.5606 9.28308 18.5606 7.66664C18.5606 6.05019 17.2502 4.73981 15.6337 4.73981C14.0173 4.73981 12.7069 6.05019 12.7069 7.66664C12.7069 9.28308 14.0173 10.5935 15.6337 10.5935Z" stroke="#214759" stroke-width="2" stroke-miterlimit="10" stroke-linecap="round" stroke-linejoin="round"/>
</svg>
