<svg width="43" height="43" viewBox="0 0 43 43" fill="none" xmlns="http://www.w3.org/2000/svg">
<path d="M20.4825 10.901L17.2842 13.4228C16.4324 14.0627 15.3469 14.3061 14.3034 14.0909L11.4896 13.4719" stroke="#214759" stroke-width="2.01764" stroke-miterlimit="10" stroke-linecap="round" stroke-linejoin="round"/>
<path d="M22.4488 8.6219L22.4486 8.62208C20.73 9.91346 18.29 9.56744 16.9982 7.84905L16.5413 7.24128C15.2493 5.52252 15.5955 3.08173 17.3145 1.78998L17.3147 1.7898C19.0333 0.498413 21.4734 0.844438 22.7651 2.56283L23.222 3.1706C24.5139 4.88944 24.1677 7.33024 22.4488 8.6219Z" stroke="#214759" stroke-width="2.01764" stroke-miterlimit="10" stroke-linecap="round" stroke-linejoin="round"/>
<path d="M27.2098 27.5141C27.1887 27.3939 27.1566 27.2739 27.1129 27.1554L25.7533 23.4722L31.7139 18.2516C32.563 17.508 32.6951 16.2356 32.0169 15.3336L26.5768 8.09656C25.8933 7.18724 24.6019 7.00409 23.6924 7.68752L21.487 9.34483C20.3761 10.1796 20.1524 11.7566 20.9872 12.8673L24.9102 18.086L21.8311 20.3997C21.0426 20.9922 20.743 22.0359 21.0973 22.9563L22.8494 27.5088" stroke="#214759" stroke-width="2.01764" stroke-miterlimit="10" stroke-linecap="round" stroke-linejoin="round"/>
<path d="M24.9102 18.0858L30.0958 13.7047" stroke="#214759" stroke-width="2.01764" stroke-miterlimit="10" stroke-linecap="round" stroke-linejoin="round"/>
<path d="M41.0088 36.9584C40.177 37.0732 39.3207 36.9921 38.5236 36.7148L37.3395 36.3029C36.2121 35.9108 34.9663 35.9108 33.8389 36.303L32.6556 36.7146C31.5282 37.1068 30.2823 37.1068 29.1549 36.7146L27.9715 36.303C26.8441 35.9108 25.5982 35.9108 24.4708 36.303L23.2877 36.7146C22.1602 37.1068 20.9143 37.1068 19.7868 36.7146L18.6038 36.303C17.4764 35.9108 16.2304 35.9108 15.103 36.303L13.9197 36.7146C12.7923 37.1068 11.5464 37.1068 10.419 36.7146L9.23586 36.3031C8.10846 35.9109 6.86252 35.9109 5.73512 36.3031L4.55183 36.7147C3.73629 36.9984 2.85874 37.0769 2.00882 36.95" stroke="#214759" stroke-width="2.01764" stroke-miterlimit="10" stroke-linecap="round" stroke-linejoin="round"/>
<path d="M7.00884 31.0089C5.62978 30.0445 5.05046 29.3362 4.99498 27.5429C4.95123 26.1303 6.03901 24.9073 7.45256 24.9031C8.22806 24.9008 8.92057 25.2561 9.37454 25.8133C10.3437 27.003 12.4414 27.9356 13.976 27.9356H34.2683C35.6543 27.9356 36.7735 29.078 36.7351 30.4723C36.7279 30.7352 36.6787 30.987 36.5939 31.222" stroke="#214759" stroke-width="2.01764" stroke-miterlimit="10" stroke-linecap="round" stroke-linejoin="round"/>
<path d="M41.0088 32.0899C40.0642 32.3215 39.0728 32.2464 38.1585 31.8647L36.9629 31.3654C35.8247 30.8901 34.5668 30.8901 33.4285 31.3655L32.2338 31.8645C31.0954 32.3399 29.8376 32.3399 28.6992 31.8645L27.5044 31.3655C26.3661 30.8901 25.1082 30.8901 23.9699 31.3655L22.7754 31.8644C21.637 32.3398 20.3791 32.3398 19.2407 31.8644L18.0463 31.3655C16.9079 30.89 15.65 30.89 14.5117 31.3655L13.317 31.8645C12.1787 32.3399 10.9208 32.3399 9.7825 31.8645L8.58796 31.3656C7.44962 30.8901 6.19168 30.8901 5.05342 31.3656L3.85872 31.8646C2.94461 32.2463 1.95331 32.3215 1.00882 32.09V41.0089H41.0088V32.0899Z" stroke="#214759" stroke-width="2.01764" stroke-miterlimit="10" stroke-linecap="round" stroke-linejoin="round"/>
<path d="M11.0025 17.3694L4.86505 13.1488L11.0025 8.92828V17.3694Z" stroke="#214759" stroke-width="2.01764" stroke-miterlimit="10" stroke-linecap="round" stroke-linejoin="round"/>
<path d="M4.86509 13.1488H1.50887" stroke="#214759" stroke-width="2.01764" stroke-miterlimit="10" stroke-linecap="round" stroke-linejoin="round"/>
</svg>
