<svg width="42" height="42" viewBox="0 0 42 42" fill="none" xmlns="http://www.w3.org/2000/svg">
<path d="M39.7878 24.6367V36.5922" stroke="#214759" stroke-width="2" stroke-miterlimit="10" stroke-linecap="round" stroke-linejoin="round"/>
<path d="M36.1519 36.617V24.7728" stroke="#214759" stroke-width="2" stroke-miterlimit="10" stroke-linecap="round" stroke-linejoin="round"/>
<path d="M27.6664 36.6414V30.2806" stroke="#214759" stroke-width="2" stroke-miterlimit="10" stroke-linecap="round" stroke-linejoin="round"/>
<path d="M24.0306 36.6415V30.7907" stroke="#214759" stroke-width="2" stroke-miterlimit="10" stroke-linecap="round" stroke-linejoin="round"/>
<path d="M32.665 24.6366H39.7878V4.69379" stroke="#214759" stroke-width="2" stroke-miterlimit="10" stroke-linecap="round" stroke-linejoin="round"/>
<path d="M24.0306 9.80618V4.81757" stroke="#214759" stroke-width="2" stroke-miterlimit="10" stroke-linecap="round" stroke-linejoin="round"/>
<path d="M36.1519 14.6982V11.3031C36.1519 8.95993 34.2523 7.0603 31.9092 7.0603C30.0692 7.0603 28.494 8.23364 27.9088 9.88753" stroke="#214759" stroke-width="2" stroke-miterlimit="10" stroke-linecap="round" stroke-linejoin="round"/>
<path d="M37.0478 4.63666H39.1817C40.1858 4.63666 41 3.82288 41 2.81833C41 1.81378 40.1862 1 39.1817 1H24.6367C23.6312 1 22.8183 1.81378 22.8183 2.81833C22.8183 3.82207 23.6321 4.63666 24.6367 4.63666H34.2306" stroke="#214759" stroke-width="2" stroke-miterlimit="10" stroke-linecap="round" stroke-linejoin="round"/>
<path d="M39.6589 14.9398H32.5839" stroke="#214759" stroke-width="2" stroke-miterlimit="10" stroke-linecap="round" stroke-linejoin="round"/>
<path d="M30.8045 19.9912C32.0764 18.6906 32.7249 16.8516 32.4549 14.9397C32.0262 11.9252 29.3058 9.37942 25.5056 9.88451L12.2118 11.7796C9.25613 12.2013 7.06029 14.7328 7.06029 17.7183C7.06029 18.8822 7.38951 19.96 7.95456 20.872" stroke="#214759" stroke-width="2" stroke-miterlimit="10" stroke-linecap="round" stroke-linejoin="round"/>
<path d="M7.15608 20.9863L14.9872 19.8674L17.9095 19.4547" stroke="#214759" stroke-width="2" stroke-miterlimit="10" stroke-linecap="round" stroke-linejoin="round"/>
<path d="M17.7835 19.4682C25.1253 18.4191 24.6057 18.4925 25.667 18.3421C29.5265 17.7953 32.7543 20.9815 32.504 24.6366C32.3376 27.4855 30.1772 29.8217 27.3638 30.2204L9.80831 32.7286" stroke="#214759" stroke-width="2" stroke-miterlimit="10" stroke-linecap="round" stroke-linejoin="round"/>
<path d="M13.1214 27.0611C13.1214 23.6919 10.3866 21 7.06029 21C3.71341 21 1 23.7134 1 27.0611C1 28.502 1.50316 29.8243 2.34238 30.8649" stroke="#214759" stroke-width="2" stroke-miterlimit="10" stroke-linecap="round" stroke-linejoin="round"/>
<path d="M34.848 41H39.7926C40.4591 41 41 40.4591 41 39.7926V36.9045C41 36.4308 40.4265 36.1934 40.0912 36.5286C39.59 37.0299 38.7762 37.0319 38.2729 36.5286C37.7697 36.0254 36.9559 36.0273 36.4546 36.5286C35.9534 37.0299 35.1395 37.0319 34.6363 36.5286C34.133 36.0254 33.3192 36.0273 32.8179 36.5286C32.3156 37.031 31.5027 37.0309 31.0004 36.5286C30.4989 36.0271 29.6835 36.0256 29.1821 36.5286C28.6788 37.0319 27.8651 37.0299 27.3638 36.5286C26.8625 36.0274 26.0487 36.0254 25.5454 36.5286C25.0422 37.0319 24.2284 37.0299 23.7271 36.5286C23.2259 36.0274 22.412 36.0254 21.9088 36.5286C21.4081 37.0309 20.5919 37.0309 20.0912 36.5286C19.588 36.0254 18.7742 36.0273 18.2729 36.5286C17.7717 37.0299 16.9578 37.0319 16.4546 36.5286C15.9513 36.0254 15.1376 36.0273 14.6363 36.5286C14.135 37.0299 13.3212 37.0319 12.8179 36.5286C12.3173 36.0264 11.502 36.0263 10.9996 36.5286C10.4972 37.031 9.68435 37.0309 9.18208 36.5286C8.68085 36.0274 7.86699 36.0254 7.36375 36.5286C6.86051 37.0319 6.04673 37.0299 5.54542 36.5286C5.0392 36.0224 4.22301 36.0295 3.72468 36.531C3.21717 37.0402 2.38753 37.0065 1.88542 36.5045C1.55862 36.1777 1 36.4095 1 36.8715V39.7926C1 40.4591 1.54091 41 2.20739 41H32.0307" stroke="#214759" stroke-width="2" stroke-miterlimit="10" stroke-linecap="round" stroke-linejoin="round"/>
<path d="M1.76098 36.3793C1.97959 35.705 1.92486 34.971 1.60611 34.3336C0.693321 32.508 2.07232 30.5127 3.9895 29.9146L13.1214 27.0603C13.1214 28.937 12.2626 30.6743 10.8169 31.8174L9.44126 32.9379C8.70556 33.552 8.51479 34.6564 9.11607 35.4573C9.16759 35.5499 9.62237 35.9837 9.62237 36.7573" stroke="#214759" stroke-width="2" stroke-miterlimit="10" stroke-linecap="round" stroke-linejoin="round"/>
</svg>
