<svg width="45" height="42" viewBox="0 0 45 42" fill="none" xmlns="http://www.w3.org/2000/svg">
<path d="M25.1666 30.1585C25.6717 30.1585 26.1828 30.1492 26.6813 30.1194C28.692 29.9992 30.4977 29.5454 30.8698 28.0201C30.9556 27.6681 30.9652 27.2591 30.8832 26.7839C30.8056 26.3334 30.6602 25.8877 30.4597 25.4588C29.7564 23.9542 28.3741 22.6551 26.8494 22.0715C26.2986 21.8607 25.7293 21.7432 25.1666 21.7432C24.6039 21.7432 24.0346 21.8606 23.4838 22.0715C21.9591 22.6551 20.5768 23.9542 19.8735 25.4588C19.6729 25.8877 19.5277 26.3334 19.4499 26.7839C19.368 27.2591 19.3775 27.6681 19.4634 28.0201C19.8355 29.5454 21.6412 29.9992 23.6518 30.1194C24.1504 30.1492 24.6615 30.1585 25.1666 30.1585Z" stroke="#214759" stroke-width="2" stroke-miterlimit="10" stroke-linecap="round" stroke-linejoin="round"/>
<path d="M20.5122 29.3782C19.3465 29.7066 17.7388 29.9772 16.0243 29.9773C15.1048 29.9774 14.155 29.8996 13.2265 29.7114C12.1816 29.4996 11.1636 29.1478 10.2462 28.6094C9.30651 28.0577 8.535 27.2346 7.97225 26.2193C7.32219 25.0467 6.9506 23.618 6.91953 22.0556C6.88284 20.2046 7.3052 18.4575 8.09062 17.0191C8.70467 15.8945 9.54078 14.9586 10.5529 14.3092C12.3114 13.1809 15.6908 12.5688 21.3065 12.3898C22.4917 12.352 23.7763 12.3334 25.1665 12.3334C26.5567 12.3334 27.8413 12.352 29.0265 12.3898C30.4631 12.4356 31.7533 12.5098 32.9075 12.6136L36 13" stroke="#214759" stroke-width="2" stroke-miterlimit="10" stroke-linecap="round" stroke-linejoin="round"/>
<path d="M29.821 29.3783C30.9866 29.7067 32.5944 29.9773 34.3088 29.9774C35.2282 29.9775 36.178 29.8997 37.1066 29.7115C38.1515 29.4997 39.1695 29.1479 40.0868 28.6095C41.0266 28.0578 41.7981 27.2346 42.3608 26.2194C43.0109 25.0468 43.3826 23.618 43.4135 22.0557C43.4502 20.2047 43.0279 18.4576 42.2425 17.0192C41.6284 15.8946 40.7923 14.9586 39.7802 14.3093C38.9093 13.7505 37.6406 13.3183 35.8996 13.0026" stroke="#214759" stroke-width="2" stroke-miterlimit="10" stroke-linecap="round" stroke-linejoin="round"/>
<path d="M19.8114 25.597C18.9739 25.8861 17.0299 26.2679 15.1126 26.1203C14.0674 26.0398 13.0304 25.802 12.1853 25.306C11.3303 24.8041 10.7801 23.5296 10.7493 21.9797C10.7114 20.0629 11.4637 18.2759 12.6213 17.5331C13.2915 17.1032 15.2992 16.4284 21.3048 16.2244C22.4425 16.1857 23.7238 16.1639 25.1665 16.1639C26.6092 16.1639 27.8906 16.1857 29.0283 16.2244C35.0339 16.4284 37.0416 17.1032 37.7117 17.5331C38.8693 18.2759 39.6216 20.0629 39.5838 21.9797C39.5529 23.5296 39.0027 24.8041 38.1478 25.306C37.3027 25.802 36.2657 26.0398 35.2205 26.1203C33.3032 26.2678 31.3592 25.886 30.5216 25.597" stroke="#214759" stroke-width="2" stroke-miterlimit="10" stroke-linecap="round" stroke-linejoin="round"/>
<path d="M26.8588 41H23.4743C22.2761 41 21.3048 40.0287 21.3048 38.8305V35.4697C21.3048 34.2715 22.2761 33.3002 23.4743 33.3002H26.8588C28.057 33.3002 29.0283 34.2715 29.0283 35.4697V38.8305C29.0284 40.0287 28.057 41 26.8588 41Z" stroke="#214759" stroke-width="2" stroke-miterlimit="10" stroke-linecap="round" stroke-linejoin="round"/>
<path d="M7.3668 18.752H3.19871C1.98435 18.752 1 19.7364 1 20.9507V23.1605C1 24.3749 1.98435 25.3593 3.19871 25.3593H7.5648" stroke="#214759" stroke-width="2" stroke-miterlimit="10" stroke-linecap="round" stroke-linejoin="round"/>
<path d="M3.38605 8.53717V18.7519" stroke="#214759" stroke-width="2" stroke-miterlimit="10" stroke-linecap="round" stroke-linejoin="round"/>
<path d="M8.78967 15.946V8.53717" stroke="#214759" stroke-width="2" stroke-miterlimit="10" stroke-linecap="round" stroke-linejoin="round"/>
<path d="M15.7877 39.8519H21.5601" stroke="#214759" stroke-width="2" stroke-miterlimit="10" stroke-linecap="round" stroke-linejoin="round"/>
<path d="M3.38605 25.3593V32.3112C3.38605 36.4758 6.76215 39.8519 10.9267 39.8519L15.5 39.8519" stroke="#214759" stroke-width="2" stroke-miterlimit="10" stroke-linecap="round" stroke-linejoin="round"/>
<path d="M21.5601 34.4483H12.1089C10.2758 34.4483 8.78967 32.9622 8.78967 31.1291V27.3909" stroke="#214759" stroke-width="2" stroke-miterlimit="10" stroke-linecap="round" stroke-linejoin="round"/>
<path d="M3.28135 8.5372H8.89448C9.62835 8.5372 10.2233 7.94227 10.2233 7.2084V3.8876C10.2233 2.29278 8.93041 1 7.33568 1H4.84024C3.24542 1 1.95264 2.29287 1.95264 3.8876V7.2084C1.95247 7.94227 2.54748 8.5372 3.28135 8.5372Z" stroke="#214759" stroke-width="2" stroke-miterlimit="10" stroke-linecap="round" stroke-linejoin="round"/>
<path d="M23.7303 25.9509H26.6029" stroke="#214759" stroke-width="2" stroke-miterlimit="10" stroke-linecap="round" stroke-linejoin="round"/>
</svg>
