<svg width="42" height="42" viewBox="0 0 42 42" fill="none" xmlns="http://www.w3.org/2000/svg">
<path d="M28.7778 21.3142C29.3223 21.1464 29.9337 21.0002 30.9994 21.0002C33.4996 21.0002 33.4996 21.805 35.9997 21.805C36.7252 21.805 37.2401 21.7372 37.6667 21.6411" stroke="#214759" stroke-width="2" stroke-miterlimit="10" stroke-linecap="round" stroke-linejoin="round"/>
<path d="M5.44434 32.7904C5.61512 32.7999 5.79935 32.805 5.99967 32.805C8.49963 32.805 8.49963 32.0002 10.9996 32.0002C12.0659 32.0002 12.6774 32.1466 13.2221 32.3146" stroke="#214759" stroke-width="2" stroke-miterlimit="10" stroke-linecap="round" stroke-linejoin="round"/>
<path d="M3.22217 23.5368C3.95448 23.7626 4.56599 24.0273 5.99972 24.0273C8.49968 24.0273 8.49968 23.2225 10.9996 23.2225C12.066 23.2225 12.6775 23.3689 13.2222 23.5368" stroke="#214759" stroke-width="2" stroke-miterlimit="10" stroke-linecap="round" stroke-linejoin="round"/>
<path d="M28.7778 26.8698C29.3223 26.702 29.9337 26.5558 30.9994 26.5558C33.4996 26.5558 33.4996 27.3606 35.9997 27.3606C37.4338 27.3606 38.0453 27.0958 38.7778 26.87" stroke="#214759" stroke-width="2" stroke-miterlimit="10" stroke-linecap="round" stroke-linejoin="round"/>
<path d="M7 27.7904C8.96024 27.6811 9.14463 27.0002 11.4442 27.0002C13.9442 27.0002 13.9442 27.805 16.4441 27.805C17.8782 27.805 18.4897 27.5401 19.2223 27.3142" stroke="#214759" stroke-width="2" stroke-miterlimit="10" stroke-linecap="round" stroke-linejoin="round"/>
<path d="M18.7777 30.5094C19.3222 30.3416 19.9335 30.1953 20.9993 30.1953C23.4992 30.1953 23.4992 31.0001 25.9992 31.0001C28.4992 31.0001 28.4993 30.1953 30.9993 30.1953C32.0659 30.1953 32.6774 30.3418 33.2222 30.5098" stroke="#214759" stroke-width="2" stroke-miterlimit="10" stroke-linecap="round" stroke-linejoin="round"/>
<path d="M23.5235 30.6056L22 27.0002L21 24.5002" stroke="#214759" stroke-width="2" stroke-miterlimit="10" stroke-linecap="round" stroke-linejoin="round"/>
<path d="M22.5 6.00018L19.8598 8.1814C18.1245 9.6099 17.3541 11.8219 17.7086 13.9338C17.7322 14.0744 17.6922 14.2223 17.5867 14.3181C17.4322 14.4583 17.2062 14.4578 17.0531 14.3307C15.4005 12.9592 13.093 12.516 10.9827 13.3066L6.16801 15.1103C5.66708 15.298 5.10378 15.096 4.83634 14.6327C4.37646 13.8361 3.35786 13.5631 2.56124 14.023L2.15504 14.2575C2.11311 14.2818 2.09879 14.3354 2.12293 14.3773L3.70209 17.1125C5.10523 19.5428 7.69356 21.0448 10.4997 21.0575L16.7837 21.0856C18.5515 21.0935 20.1382 22.1717 20.7968 23.8123L21 24.5002" stroke="#214759" stroke-width="2" stroke-miterlimit="10" stroke-linecap="round" stroke-linejoin="round"/>
<path d="M30.5435 30.205L24.0507 21.9334C22.9592 20.5429 22.8189 18.6296 23.696 17.0947L26.8136 11.6385C28.2058 9.20208 28.1991 6.2094 26.796 3.77921L25.2168 1.044C25.1926 1.00207 25.139 0.987739 25.0971 1.01196L24.7117 1.23442C23.9155 1.69414 23.6077 2.7203 24.0755 3.51177C24.3502 3.97656 24.245 4.57133 23.8291 4.9137L22.6041 5.92215" stroke="#214759" stroke-width="2" stroke-miterlimit="10" stroke-linecap="round" stroke-linejoin="round"/>
<path d="M35.9996 32.805C38.4699 32.805 38.4994 32.0192 40.9113 32.0005" stroke="#214759" stroke-width="2" stroke-miterlimit="10" stroke-linecap="round" stroke-linejoin="round"/>
<path d="M25.9993 37.8051C28.4993 37.8051 28.4993 37.0003 30.9994 37.0003C33.4996 37.0003 33.4996 37.8051 35.9997 37.8051" stroke="#214759" stroke-width="2" stroke-miterlimit="10" stroke-linecap="round" stroke-linejoin="round"/>
<path d="M15.4445 37.7904C15.6152 37.7999 15.7994 37.805 15.9996 37.805C18.4995 37.805 18.4995 37.0002 20.9993 37.0002C20.9996 37.0002 20.9998 37.0002 21 37.0002" stroke="#214759" stroke-width="2" stroke-miterlimit="10" stroke-linecap="round" stroke-linejoin="round"/>
<path d="M1.08862 37.0006C3.50022 37.0194 3.52975 37.8051 5.9997 37.8051C7.43374 37.8051 8.04517 37.5403 8.77773 37.3145" stroke="#214759" stroke-width="2" stroke-miterlimit="10" stroke-linecap="round" stroke-linejoin="round"/>
<path d="M31.34 17.2697C31.2317 17.2663 31.1184 17.2644 30.9993 17.2644C28.4992 17.2644 28.4992 18.0692 25.9992 18.0692C24.7037 18.0692 24.0795 17.8531 23.4309 17.6448" stroke="#214759" stroke-width="2" stroke-miterlimit="10" stroke-linecap="round" stroke-linejoin="round"/>
<path d="M4.20258 17.8744C3.2602 17.6403 2.71839 17.2774 1.08869 17.2647C1.04008 17.2643 1 17.3039 1 17.3525V40.9125C1 40.9609 1.03928 41.0002 1.08765 41.0002H40.9124C40.9608 41.0002 41 40.9609 41 40.9125V17.3525C41 17.3039 40.96 17.2643 40.9114 17.2647C38.4995 17.2835 38.47 18.0692 35.9997 18.0692C35.1244 18.0692 34.5555 17.9705 34.0784 17.8423" stroke="#214759" stroke-width="2" stroke-miterlimit="10" stroke-linecap="round" stroke-linejoin="round"/>
</svg>
