<svg width="42" height="42" viewBox="0 0 42 42" fill="none" xmlns="http://www.w3.org/2000/svg">
<path d="M10.5072 39.5153L10.354 39.5289L2.4711 31.646L2.48473 31.4928C2.99622 25.7456 5.51195 20.3611 9.59197 16.2811L16.8797 8.99331C22.432 3.441 30.5047 1.23554 38.1088 3.19343L38.6636 3.3363L38.8065 3.89115C40.7644 11.4952 38.5589 19.568 33.0066 25.1202L25.7188 32.4079C21.6389 36.488 16.2544 39.0038 10.5072 39.5153Z" stroke="#214759" stroke-width="2" stroke-miterlimit="10" stroke-linecap="round" stroke-linejoin="round"/>
<path d="M12.1557 33.7542L11.8601 33.8058L8.19431 30.14L8.24593 29.8444C8.93249 25.9118 10.8157 22.2868 13.6384 19.464L20.8882 12.2143C24.1684 8.93404 28.8733 7.51431 33.4205 8.43252L33.543 8.45722L33.5677 8.57973C34.4859 13.1269 33.0661 17.8318 29.7859 21.112L22.5361 28.3618C19.7133 31.1844 16.0883 33.0675 12.1557 33.7542Z" stroke="#214759" stroke-width="2" stroke-miterlimit="10" stroke-linecap="round" stroke-linejoin="round"/>
<path d="M10.2162 24.0948L17.9051 31.7838" stroke="#214759" stroke-width="2" stroke-miterlimit="10" stroke-linecap="round" stroke-linejoin="round"/>
<path d="M13.2326 19.8821L22.1179 28.7674" stroke="#214759" stroke-width="2" stroke-miterlimit="10" stroke-linecap="round" stroke-linejoin="round"/>
<path d="M19.8759 13.2264L28.7736 22.1241" stroke="#214759" stroke-width="2" stroke-miterlimit="10" stroke-linecap="round" stroke-linejoin="round"/>
<path d="M23.8425 9.96381L32.0362 18.1574" stroke="#214759" stroke-width="2" stroke-miterlimit="10" stroke-linecap="round" stroke-linejoin="round"/>
<path d="M25.4602 25.4602L34.1956 34.1956" stroke="#214759" stroke-width="2" stroke-miterlimit="10" stroke-linecap="round" stroke-linejoin="round"/>
<path d="M37.3853 41L33.9919 37.6064L34.1955 34.1955L37.6065 33.9918L41 37.3853L37.3853 41Z" stroke="#214759" stroke-width="2" stroke-miterlimit="10" stroke-linecap="round" stroke-linejoin="round"/>
<path d="M16.5511 16.5511L7.80447 7.80444" stroke="#214759" stroke-width="2" stroke-miterlimit="10" stroke-linecap="round" stroke-linejoin="round"/>
<path d="M1 4.61462L4.39354 8.00816L7.80446 7.80446L8.00816 4.39354L4.61462 1L1 4.61462Z" stroke="#214759" stroke-width="2" stroke-miterlimit="10" stroke-linecap="round" stroke-linejoin="round"/>
</svg>
