<svg width="49" height="42" viewBox="0 0 49 42" fill="none" xmlns="http://www.w3.org/2000/svg">
<path d="M18.2877 15.0948L20.5741 17.3124C20.7943 17.5252 20.918 17.817 20.918 18.1227V20.0933" stroke="#214759" stroke-width="2" stroke-miterlimit="10" stroke-linecap="round" stroke-linejoin="round"/>
<path d="M20.0724 16.8252L20.918 15.0948" stroke="#214759" stroke-width="2" stroke-miterlimit="10" stroke-linecap="round" stroke-linejoin="round"/>
<path d="M24.7914 20.0933V18.1227C24.7914 17.817 24.915 17.5252 25.1341 17.3124L27.4217 15.0948" stroke="#214759" stroke-width="2" stroke-miterlimit="10" stroke-linecap="round" stroke-linejoin="round"/>
<path d="M25.6367 16.8252L24.7913 15.0948" stroke="#214759" stroke-width="2" stroke-miterlimit="10" stroke-linecap="round" stroke-linejoin="round"/>
<path d="M20.6522 33.7232V30.7379" stroke="#214759" stroke-width="2" stroke-miterlimit="10" stroke-linecap="round" stroke-linejoin="round"/>
<path d="M25.057 33.9935V30.7379" stroke="#214759" stroke-width="2" stroke-miterlimit="10" stroke-linecap="round" stroke-linejoin="round"/>
<path d="M26.1935 21.2175L28.7318 19.3314C29.0031 19.129 29.3886 19.3231 29.3886 19.6612V21.4618C29.3886 22.4273 28.6063 23.2095 27.641 23.2095H26.9358" stroke="#214759" stroke-width="2" stroke-miterlimit="10" stroke-linecap="round" stroke-linejoin="round"/>
<path d="M18.7726 23.2095H18.0684C17.1031 23.2095 16.3198 22.4272 16.3198 21.4617V19.6612C16.3198 19.3231 16.7063 19.1289 16.9776 19.3314L19.5159 21.2175" stroke="#214759" stroke-width="2" stroke-miterlimit="10" stroke-linecap="round" stroke-linejoin="round"/>
<path d="M21.3953 25.0775V25.3533" stroke="#214759" stroke-width="2" stroke-miterlimit="10" stroke-linecap="round" stroke-linejoin="round"/>
<path d="M24.3137 25.0775V25.3533" stroke="#214759" stroke-width="2" stroke-miterlimit="10" stroke-linecap="round" stroke-linejoin="round"/>
<path d="M26.9361 22.7591V27.6855C26.9361 29.5732 25.406 31.1032 23.5189 31.1032H22.1903C20.3031 31.1032 18.7732 29.5732 18.7732 27.6855V22.7586C18.7732 21.9876 19.7461 20.8119 20.3921 20.3908C21.9286 19.3892 23.7808 19.389 25.3171 20.3908C25.9633 20.8121 26.9361 21.9877 26.9361 22.7591Z" stroke="#214759" stroke-width="2" stroke-miterlimit="10" stroke-linecap="round" stroke-linejoin="round"/>
<path d="M26.286 29.6899C26.6749 29.1534 26.4432 28.3938 25.8254 28.1545C24.8786 27.7875 23.7624 27.5754 22.5666 27.5754C21.5893 27.5754 20.6649 27.717 19.8425 27.969C19.2204 28.1596 18.9241 28.8845 19.259 29.4425" stroke="#214759" stroke-width="2" stroke-miterlimit="10" stroke-linecap="round" stroke-linejoin="round"/>
<path d="M7.02148 35.9725V31.1236" stroke="#214759" stroke-width="2" stroke-miterlimit="10" stroke-linecap="round" stroke-linejoin="round"/>
<path d="M10.0419 35.703V31.1235" stroke="#214759" stroke-width="2" stroke-miterlimit="10" stroke-linecap="round" stroke-linejoin="round"/>
<path d="M5.93611 17.4921L2.56776 22.5417C2.28578 22.9646 2.43768 23.5389 2.89183 23.7669L4.30898 24.4785C4.59254 24.621 4.6875 24.9795 4.51134 25.2434L1.46483 29.8106C1.09068 30.3715 1.49279 31.1232 2.16713 31.1232H14.8969C15.5711 31.1232 15.9733 30.3715 15.5991 29.8106L12.5526 25.2434C12.3765 24.9795 12.4714 24.621 12.7549 24.4785L14.1721 23.7669C14.6262 23.5389 14.7782 22.9646 14.4962 22.5417L9.52029 15.0822C9.05008 14.3771 8.01385 14.3771 7.54364 15.0822L5.93611 17.4921Z" stroke="#214759" stroke-width="2" stroke-miterlimit="10" stroke-linecap="round" stroke-linejoin="round"/>
<path d="M2.28027 40.9998C2.97143 37.9664 5.68449 35.703 8.92704 35.703H13.5354C14.3566 35.703 15.1426 35.848 15.871 36.1137" stroke="#214759" stroke-width="2" stroke-miterlimit="10" stroke-linecap="round" stroke-linejoin="round"/>
<path d="M36.6745 41C36.6745 40.0101 36.3656 39.0927 35.8389 38.3386C35.5331 37.8924 34.6215 36.9001 33.4215 36.5001" stroke="#214759" stroke-width="2" stroke-miterlimit="10" stroke-linecap="round" stroke-linejoin="round"/>
<path d="M9.75342 41C10.0903 38.761 12.0222 37.0448 14.3555 37.0448C14.7347 37.0448 15.1022 37.0916 15.4553 37.1769C15.9675 35.1625 17.7923 33.6728 19.9659 33.6728C21.4754 33.6728 22.816 34.3915 23.6668 35.5048C24.4701 34.1085 25.9759 33.1677 27.702 33.1677C29.7578 33.1677 31.5001 34.5002 32.1173 36.3476C32.4898 36.3553 33.0754 36.4099 33.4215 36.5001" stroke="#214759" stroke-width="2" stroke-miterlimit="10" stroke-linecap="round" stroke-linejoin="round"/>
<path d="M39.735 40.9998V26.3879" stroke="#214759" stroke-width="2" stroke-miterlimit="10" stroke-linecap="round" stroke-linejoin="round"/>
<path d="M39.7357 22.5102C38.1443 22.5102 36.8263 22.0945 36.5953 20.9452C36.5549 20.7441 36.6532 20.5381 36.8382 20.4493C38.3545 19.7207 38.0765 18.4965 39.7357 18.4965C41.3948 18.4965 41.1169 19.7207 42.6332 20.4493C42.8181 20.5381 42.9164 20.7441 42.8761 20.9452C42.6451 22.0945 41.3271 22.5102 39.7357 22.5102Z" stroke="#214759" stroke-width="2" stroke-miterlimit="10" stroke-linecap="round" stroke-linejoin="round"/>
<path d="M41.354 14.6612C41.4784 15.3241 41.4552 16.0654 41.3765 16.2503" stroke="#214759" stroke-width="2" stroke-miterlimit="10" stroke-linecap="round" stroke-linejoin="round"/>
<path d="M38.0947 16.2504C38.016 16.0655 37.9928 15.3241 38.1172 14.6612" stroke="#214759" stroke-width="2" stroke-miterlimit="10" stroke-linecap="round" stroke-linejoin="round"/>
<path d="M43.7476 18.1248C44.0016 17.7351 44.2101 17.0582 44.0897 16.6942" stroke="#214759" stroke-width="2" stroke-miterlimit="10" stroke-linecap="round" stroke-linejoin="round"/>
<path d="M35.7236 18.1248C35.4696 17.7351 35.2611 17.0582 35.3815 16.6942" stroke="#214759" stroke-width="2" stroke-miterlimit="10" stroke-linecap="round" stroke-linejoin="round"/>
<path d="M46.8546 13.6319V19.18C46.8546 23.1057 43.7144 26.3595 39.7888 26.3883C35.8322 26.4173 32.6162 23.219 32.6162 19.2693V13.6321C32.6162 13.2262 32.9051 12.8774 33.3042 12.8036C35.5177 12.3941 37.5982 11.4398 39.1964 10.0819C39.5067 9.8182 39.9658 9.8182 40.2762 10.0819C41.8747 11.4398 43.9541 12.3935 46.1668 12.8034C46.5659 12.8774 46.8546 13.2261 46.8546 13.6319Z" stroke="#214759" stroke-width="2" stroke-miterlimit="10" stroke-linecap="round" stroke-linejoin="round"/>
<path d="M1 41.0001H47.1762" stroke="#214759" stroke-width="2" stroke-miterlimit="10" stroke-linecap="round" stroke-linejoin="round"/>
<path d="M24.5258 3.6553C24.9308 3.34228 25.4384 3.15581 25.9896 3.15581C26.7343 3.15581 27.3995 3.49531 27.8391 4.02759C27.949 4.161 28.155 4.16045 28.2649 4.02759C28.704 3.49531 29.3691 3.15581 30.1138 3.15581C30.6651 3.15581 31.1732 3.34228 31.5776 3.6553" stroke="#214759" stroke-width="2" stroke-miterlimit="10" stroke-linecap="round" stroke-linejoin="round"/>
<path d="M6.50513 6.61312C6.91021 6.30011 7.41778 6.11364 7.96901 6.11364C8.71369 6.11364 9.37883 6.45313 9.81848 6.98541C9.92839 7.11883 10.1344 7.11827 10.2443 6.98541C10.6834 6.45313 11.3485 6.11364 12.0932 6.11364C12.6444 6.11364 13.1525 6.30011 13.557 6.61312" stroke="#214759" stroke-width="2" stroke-miterlimit="10" stroke-linecap="round" stroke-linejoin="round"/>
<path d="M11.0549 1.4995C11.46 1.18649 11.9676 1.00002 12.5188 1.00002C13.2635 1.00002 13.9286 1.33951 14.3683 1.87189C14.4782 2.0053 14.6842 2.00475 14.7941 1.87189C15.2332 1.33951 15.8983 1.00002 16.643 1.00002C17.1941 1.00002 17.7024 1.18649 18.1068 1.4995" stroke="#214759" stroke-width="2" stroke-miterlimit="10" stroke-linecap="round" stroke-linejoin="round"/>
</svg>
