<svg width="37" height="42" viewBox="0 0 37 42" fill="none" xmlns="http://www.w3.org/2000/svg">
<path d="M18.1841 22.1422V37.785" stroke="#214759" stroke-width="2" stroke-miterlimit="10" stroke-linecap="round" stroke-linejoin="round"/>
<path d="M18.1841 1.00002V19.8744" stroke="#214759" stroke-width="2" stroke-miterlimit="10" stroke-linecap="round" stroke-linejoin="round"/>
<path d="M3.16761 23.8612C5.03411 18.1435 9.15429 10.61 18.184 3.51453C18.184 3.51453 8.88135 19.5793 18.184 33.3171C18.184 33.3171 11.8419 34.9717 3.6136 33.6734C2.45395 33.4904 1.61837 32.4918 1.68597 31.3533C1.75573 30.1791 1.94451 28.5283 2.41447 26.5384" stroke="#214759" stroke-width="2" stroke-miterlimit="10" stroke-linecap="round" stroke-linejoin="round"/>
<path d="M28.877 31.429H34.8985C35.5069 31.429 36 31.9077 36 32.4982C36 33.0887 35.5069 33.5675 34.8985 33.5675H34.2075" stroke="#214759" stroke-width="2" stroke-miterlimit="10" stroke-linecap="round" stroke-linejoin="round"/>
<path d="M32.5254 28.7596H33.7473" stroke="#214759" stroke-width="2" stroke-miterlimit="10" stroke-linecap="round" stroke-linejoin="round"/>
<path d="M3.10169 12.439H4.32371" stroke="#214759" stroke-width="2" stroke-miterlimit="10" stroke-linecap="round" stroke-linejoin="round"/>
<path d="M6.12563 7.45447H8.46765" stroke="#214759" stroke-width="2" stroke-miterlimit="10" stroke-linecap="round" stroke-linejoin="round"/>
<path d="M26.8195 37.9166H31.0545C31.9317 37.9166 32.6428 38.6068 32.6428 39.4583C32.6428 40.3098 31.9317 41.0001 31.0545 41.0001H6.59461C5.71738 41.0001 5.0063 40.3098 5.0063 39.4583C5.0063 38.6068 5.71738 37.9166 6.59461 37.9166H23.7534" stroke="#214759" stroke-width="2" stroke-miterlimit="10" stroke-linecap="round" stroke-linejoin="round"/>
<path d="M24.2068 33.6357L23.75 32.9912C23.5381 32.6923 23.5308 32.2995 23.7314 31.9934L26.4911 27.7796C26.7176 27.4338 26.8771 27.051 26.962 26.6497L28.0056 21.7185C28.2071 20.7663 27.4577 19.8744 26.4563 19.8744H18.171C17.542 19.8744 17.0008 20.3436 16.9712 20.9535C16.9396 21.6046 17.4741 22.1422 18.138 22.1422H23.6669C23.9465 22.1422 24.1559 22.3913 24.0996 22.6573L23.1546 27.1227C23.1358 27.2116 23.1034 27.2971 23.0584 27.3765L20.5757 31.7592C20.3177 32.2146 20.3377 32.7704 20.6276 33.2072L24.1804 38.5597C24.5063 39.0324 25.0898 39.2947 25.6647 39.1853C25.9426 39.1324 26.2077 39.0012 26.4224 38.7917C26.8479 38.3768 26.9093 37.8237 26.7196 37.2911C26.6473 37.0881 26.5342 36.9009 26.4 36.73L24.2068 33.6357Z" stroke="#214759" stroke-width="2" stroke-miterlimit="10" stroke-linecap="round" stroke-linejoin="round"/>
<path d="M29.1154 15.2641C29.1154 16.6205 27.9826 17.7201 26.5853 17.7201C25.1878 17.7201 24.0551 16.6205 24.0551 15.2641C24.0551 13.9077 25.1878 12.8081 26.5853 12.8081C27.9826 12.8081 29.1154 13.9077 29.1154 15.2641Z" stroke="#214759" stroke-width="2" stroke-miterlimit="10" stroke-linecap="round" stroke-linejoin="round"/>
<path d="M4.15254 19.5792H1" stroke="#214759" stroke-width="2" stroke-miterlimit="10" stroke-linecap="round" stroke-linejoin="round"/>
<path d="M17.8135 19.5792H14.661" stroke="#214759" stroke-width="2" stroke-miterlimit="10" stroke-linecap="round" stroke-linejoin="round"/>
</svg>
