<svg width="42" height="42" viewBox="0 0 42 42" fill="none" xmlns="http://www.w3.org/2000/svg">
<path d="M10.2099 27.9109C10.9536 28.1436 11.4096 28.2691 11.4096 28.2691C11.4096 28.2691 11.8656 28.3946 12.623 28.575C17.7128 29.7875 22.5507 26.508 23.8194 21.3025C24.8828 16.9394 25.6463 12.4961 26.3626 8.01035C26.6185 6.40766 25.6494 4.86883 24.1219 4.44848L11.9867 1.10903C10.4593 0.688716 8.87003 1.52337 8.31184 3.04281C6.74945 7.29575 5.25121 11.537 4.05076 15.8626C2.61858 21.0231 5.21166 26.3473 10.2099 27.9109Z" stroke="#214759" stroke-width="2" stroke-linecap="round"/>
<path d="M16.27 41.0005L1.00024 36.7986" stroke="#214759" stroke-width="2" stroke-linecap="round"/>
<path d="M8.63391 38.8996L11.4075 28.2688" stroke="#214759" stroke-width="2" stroke-linecap="round"/>
<path d="M4.44629 17.5911H24.0588" stroke="#214759" stroke-width="2" stroke-linecap="round"/>
<path d="M30.0139 1.10897C31.5412 0.688655 33.1307 1.52331 33.6886 3.04276C35.2513 7.2957 36.7495 11.537 37.9499 15.8625C39.3821 21.0231 36.7889 26.3473 31.7909 27.9109C31.047 28.1435 30.5911 28.269 30.5911 28.269C30.5911 28.269 30.135 28.3945 29.3776 28.5749C28.375 28.8138 27.3821 28.8783 26.4243 28.7882" stroke="#214759" stroke-width="2" stroke-linecap="round"/>
<path d="M25.7305 41.0005L41.0003 36.7986" stroke="#214759" stroke-width="2" stroke-linecap="round"/>
<path d="M33.365 38.8996L30.5914 28.2688" stroke="#214759" stroke-width="2" stroke-linecap="round"/>
<path d="M37.554 15.5242L31.8704 15.5243" stroke="#214759" stroke-width="2" stroke-linecap="round"/>
</svg>
