<svg width="42" height="42" viewBox="0 0 42 42" fill="none" xmlns="http://www.w3.org/2000/svg">
<path d="M30.3333 35.2267C28.495 35.2267 27 33.7333 27 31.8933C27 30.0534 28.495 28.56 30.3333 28.56C32.1733 28.56 33.6667 30.0534 33.6667 31.8933C33.6667 33.7333 32.1733 35.2267 30.3333 35.2267Z" stroke="#214759" stroke-width="2" stroke-miterlimit="10" stroke-linecap="round" stroke-linejoin="round"/>
<path d="M33.6667 41C31.8283 41 30.3333 39.5066 30.3333 37.6666C30.3333 35.8266 31.8283 34.3334 33.6667 34.3334C35.5066 34.3334 37 35.8266 37 37.6666C37 39.5066 35.5066 41 33.6667 41Z" stroke="#214759" stroke-width="2" stroke-miterlimit="10" stroke-linecap="round" stroke-linejoin="round"/>
<path d="M27 41C25.1617 41 23.6667 39.5066 23.6667 37.6666C23.6667 35.8266 25.1617 34.3334 27 34.3334C28.84 34.3334 30.3333 35.8266 30.3333 37.6666C30.3333 39.5066 28.84 41 27 41Z" stroke="#214759" stroke-width="2" stroke-miterlimit="10" stroke-linecap="round" stroke-linejoin="round"/>
<path d="M32.69 29.5367C32.69 29.5367 34.1334 28.095 35.815 26.4117C36.685 25.5433 37.99 25.2834 39.125 25.7534C40.26 26.2233 41 27.33 41 28.56" stroke="#214759" stroke-width="2" stroke-miterlimit="10" stroke-linecap="round" stroke-linejoin="round"/>
<path d="M23.6667 35.2267C21.8284 35.2267 20.3333 33.7333 20.3333 31.8933C20.3333 30.0534 21.8284 28.56 23.6667 28.56C25.5066 28.56 27 30.0534 27 31.8933C27 33.7333 25.5066 35.2267 23.6667 35.2267Z" stroke="#214759" stroke-width="2" stroke-miterlimit="10" stroke-linecap="round" stroke-linejoin="round"/>
<path d="M20.3333 41C18.495 41 17 39.5066 17 37.6666C17 35.8266 18.495 34.3334 20.3333 34.3334C22.1733 34.3334 23.6667 35.8266 23.6667 37.6666C23.6667 39.5066 22.1733 41 20.3333 41Z" stroke="#214759" stroke-width="2" stroke-miterlimit="10" stroke-linecap="round" stroke-linejoin="round"/>
<path d="M27 29.4534C25.1617 29.4534 23.6667 27.96 23.6667 26.12C23.6667 24.28 25.1617 22.7867 27 22.7867C28.84 22.7867 30.3333 24.28 30.3333 26.12C30.3333 27.96 28.84 29.4534 27 29.4534Z" stroke="#214759" stroke-width="2" stroke-miterlimit="10" stroke-linecap="round" stroke-linejoin="round"/>
<path d="M20.3333 41H2.99997" stroke="#214759" stroke-width="2" stroke-miterlimit="10" stroke-linecap="round" stroke-linejoin="round"/>
<path d="M11.6667 41V25" stroke="#214759" stroke-width="2" stroke-miterlimit="10" stroke-linecap="round" stroke-linejoin="round"/>
<path d="M22.3333 13H1.00003V14.3333C1.00003 20.225 5.77663 25 11.6667 25C17.5584 25 22.3333 20.225 22.3333 14.3333V13Z" stroke="#214759" stroke-width="2" stroke-miterlimit="10" stroke-linecap="round" stroke-linejoin="round"/>
<path d="M1 13H22.3333V1H1V13Z" stroke="#214759" stroke-width="2" stroke-miterlimit="10" stroke-linecap="round" stroke-linejoin="round"/>
</svg>
