<svg width="42" height="40" viewBox="0 0 42 40" fill="none" xmlns="http://www.w3.org/2000/svg">
<path d="M9.03534 10.9743H13.7487L8.88214 18.3589H13.8647" stroke="#214759" stroke-width="2" stroke-miterlimit="10" stroke-linecap="round" stroke-linejoin="round"/>
<path d="M24.0705 14.6666C24.0705 16.7059 22.3986 18.3589 20.3361 18.3589C18.2736 18.3589 16.6017 16.7059 16.6017 14.6666C16.6017 12.6274 18.2736 10.9743 20.3361 10.9743C22.3986 10.9743 24.0705 12.6274 24.0705 14.6666Z" stroke="#214759" stroke-width="2" stroke-miterlimit="10" stroke-linecap="round" stroke-linejoin="round"/>
<path d="M35.0249 14.6666C35.0249 16.7059 33.3529 18.3589 31.2904 18.3589C29.228 18.3589 27.556 16.7059 27.556 14.6666C27.556 12.6274 29.228 10.9743 31.2904 10.9743C33.3529 10.9743 35.0249 12.6274 35.0249 14.6666Z" stroke="#214759" stroke-width="2" stroke-miterlimit="10" stroke-linecap="round" stroke-linejoin="round"/>
<path d="M8.55188 23.2821H33.4481" stroke="#214759" stroke-width="2" stroke-miterlimit="10" stroke-linecap="round" stroke-linejoin="round"/>
<path d="M8.55188 28.2051H33.4481" stroke="#214759" stroke-width="2" stroke-miterlimit="10" stroke-linecap="round" stroke-linejoin="round"/>
<path d="M1 4V7.69231C2.37494 7.69231 3.48963 8.79442 3.48963 10.1538C3.48963 11.5133 2.37494 12.6154 1 12.6154V17.5385C2.37494 17.5385 3.48963 18.6406 3.48963 20C3.48963 21.3594 2.37494 22.4615 1 22.4615V27.3846C2.37494 27.3846 3.48963 28.4867 3.48963 29.8462C3.48963 31.2056 2.37494 32.3077 1 32.3077V36H41V4H1Z" stroke="#214759" stroke-width="2" stroke-miterlimit="10" stroke-linecap="round" stroke-linejoin="round"/>
</svg>
